solid OpenSCAD_Model
  facet normal -0.23401 0 0.972234
    outer loop
      vertex 13.3933 -26.6 19.768
      vertex 13.2778 -27.2161 19.7402
      vertex 13.3933 -27.1878 19.768
    endloop
  endfacet
  facet normal -0.233586 -8.3983e-05 0.972336
    outer loop
      vertex 12.9966 -26.6 19.6727
      vertex 13.2778 -27.2161 19.7402
      vertex 13.3933 -26.6 19.768
    endloop
  endfacet
  facet normal -0.233457 -2.13938e-05 0.972367
    outer loop
      vertex 13.2778 -27.2161 19.7402
      vertex 12.9966 -26.6 19.6727
      vertex 13.0808 -27.3114 19.6929
    endloop
  endfacet
  facet normal -0.233286 0 0.972408
    outer loop
      vertex 13.0808 -27.3114 19.6929
      vertex 12.9966 -26.6 19.6727
      vertex 12.9966 -27.3801 19.6727
    endloop
  endfacet
  facet normal 0 0 1
    outer loop
      vertex 14.2 -26.6 19.8
      vertex 14 -27.0833 19.8
      vertex 14.2 -27.0998 19.8
    endloop
  endfacet
  facet normal -0 0 1
    outer loop
      vertex 13.8 -26.6 19.8
      vertex 14 -27.0833 19.8
      vertex 14.2 -26.6 19.8
    endloop
  endfacet
  facet normal 0 0 1
    outer loop
      vertex 14 -27.0833 19.8
      vertex 13.8 -26.6 19.8
      vertex 13.8 -27.0998 19.8
    endloop
  endfacet
  facet normal -0.923969 0.000235738 0.382468
    outer loop
      vertex 11.4157 -26.6814 18.2169
      vertex 11.4834 -26.6 18.3804
      vertex 11.4252 -26.6 18.2398
    endloop
  endfacet
  facet normal -0.923937 5.47353e-05 0.382545
    outer loop
      vertex 11.4 -26.8159 18.179
      vertex 11.4834 -26.6 18.3804
      vertex 11.4157 -26.6814 18.2169
    endloop
  endfacet
  facet normal -0.923923 1.90609e-05 0.382577
    outer loop
      vertex 11.432 -27.2192 18.2563
      vertex 11.4834 -26.6 18.3804
      vertex 11.4 -26.8159 18.179
    endloop
  endfacet
  facet normal -0.92389 0 0.382659
    outer loop
      vertex 11.4834 -26.6 18.3804
      vertex 11.432 -27.2192 18.2563
      vertex 11.4834 -27.5009 18.3804
    endloop
  endfacet
  facet normal -0.0781188 0 0.996944
    outer loop
      vertex 13.8 -26.6 19.8
      vertex 13.7464 -27.1006 19.7958
      vertex 13.8 -27.0998 19.8
    endloop
  endfacet
  facet normal -0.0784396 3.457e-05 0.996919
    outer loop
      vertex 13.3933 -26.6 19.768
      vertex 13.7464 -27.1006 19.7958
      vertex 13.8 -26.6 19.8
    endloop
  endfacet
  facet normal -0.0784792 6.49067e-06 0.996916
    outer loop
      vertex 13.7464 -27.1006 19.7958
      vertex 13.3933 -26.6 19.768
      vertex 13.5025 -27.1463 19.7766
    endloop
  endfacet
  facet normal -0.0785115 0 0.996913
    outer loop
      vertex 13.5025 -27.1463 19.7766
      vertex 13.3933 -26.6 19.768
      vertex 13.3933 -27.1878 19.768
    endloop
  endfacet
  facet normal 0.233286 0 0.972408
    outer loop
      vertex 15.0034 -26.6 19.6727
      vertex 14.9192 -27.3114 19.6929
      vertex 15.0034 -27.3801 19.6727
    endloop
  endfacet
  facet normal 0.233457 -2.13938e-05 0.972367
    outer loop
      vertex 15.0034 -26.6 19.6727
      vertex 14.7222 -27.2161 19.7402
      vertex 14.9192 -27.3114 19.6929
    endloop
  endfacet
  facet normal 0.233586 -8.3983e-05 0.972336
    outer loop
      vertex 14.6067 -26.6 19.768
      vertex 14.7222 -27.2161 19.7402
      vertex 15.0034 -26.6 19.6727
    endloop
  endfacet
  facet normal 0.23401 0 0.972234
    outer loop
      vertex 14.7222 -27.2161 19.7402
      vertex 14.6067 -26.6 19.768
      vertex 14.6067 -27.1878 19.768
    endloop
  endfacet
  facet normal -0.52262 0 0.852566
    outer loop
      vertex 12.2718 -26.6 19.3034
      vertex 12.6196 -27.6 19.5166
      vertex 12.6196 -26.6 19.5166
    endloop
  endfacet
  facet normal -0.52262 0 0.852566
    outer loop
      vertex 12.6196 -27.6 19.5166
      vertex 12.2718 -26.6 19.3034
      vertex 12.2718 -27.6 19.3034
    endloop
  endfacet
  facet normal -0.382561 0 0.92393
    outer loop
      vertex 12.6196 -26.6 19.5166
      vertex 12.9966 -27.3801 19.6727
      vertex 12.9966 -26.6 19.6727
    endloop
  endfacet
  facet normal -0.382642 -4.56037e-05 0.923897
    outer loop
      vertex 12.9966 -27.3801 19.6727
      vertex 12.6196 -26.6 19.5166
      vertex 12.9191 -27.432 19.6406
    endloop
  endfacet
  facet normal -0.382533 0 0.923942
    outer loop
      vertex 12.6196 -27.6 19.5166
      vertex 12.9191 -27.432 19.6406
      vertex 12.6196 -26.6 19.5166
    endloop
  endfacet
  facet normal -0.38267 0.000285146 0.923885
    outer loop
      vertex 12.9191 -27.432 19.6406
      vertex 12.6196 -27.6 19.5166
      vertex 12.799 -27.5778 19.5909
    endloop
  endfacet
  facet normal -0.382878 0.00226777 0.923796
    outer loop
      vertex 12.799 -27.5778 19.5909
      vertex 12.6196 -27.6 19.5166
      vertex 12.7897 -27.6 19.5871
    endloop
  endfacet
  facet normal 0.52262 0 0.852566
    outer loop
      vertex 15.3804 -26.6 19.5166
      vertex 15.7282 -27.6 19.3034
      vertex 15.7282 -26.6 19.3034
    endloop
  endfacet
  facet normal 0.52262 0 0.852566
    outer loop
      vertex 15.7282 -27.6 19.3034
      vertex 15.3804 -26.6 19.5166
      vertex 15.3804 -27.6 19.5166
    endloop
  endfacet
  facet normal 0 -1 0
    outer loop
      vertex 12.6196 -27.6 19.5166
      vertex 12.725 -27.6 19.3736
      vertex 12.7897 -27.6 19.5871
    endloop
  endfacet
  facet normal 0 -1 0
    outer loop
      vertex 12.2718 -27.6 19.3034
      vertex 12.725 -27.6 19.3736
      vertex 12.6196 -27.6 19.5166
    endloop
  endfacet
  facet normal 0 -1 0
    outer loop
      vertex 12.2718 -27.6 19.3034
      vertex 12.7 -27.6 19.12
      vertex 12.725 -27.6 19.3736
    endloop
  endfacet
  facet normal 0 -1 0
    outer loop
      vertex 12.725 -27.6 18.8664
      vertex 12.2718 -27.6 19.3034
      vertex 11.9615 -27.6 19.0385
    endloop
  endfacet
  facet normal 0 -1 0
    outer loop
      vertex 12.2718 -27.6 19.3034
      vertex 12.725 -27.6 18.8664
      vertex 12.7 -27.6 19.12
    endloop
  endfacet
  facet normal 0 -1 0
    outer loop
      vertex 12.799 -27.6 18.6225
      vertex 11.9615 -27.6 19.0385
      vertex 11.6966 -27.6 18.7282
    endloop
  endfacet
  facet normal 0 -1 0
    outer loop
      vertex 11.9615 -27.6 19.0385
      vertex 12.799 -27.6 18.6225
      vertex 12.725 -27.6 18.8664
    endloop
  endfacet
  facet normal 0 -1 0
    outer loop
      vertex 11.5273 -27.6 18.3166
      vertex 11.6966 -27.6 18.7282
      vertex 11.5039 -27.6 18.4138
    endloop
  endfacet
  facet normal 0 -1 0
    outer loop
      vertex 11.6834 -27.6 17.9396
      vertex 11.6966 -27.6 18.7282
      vertex 11.5273 -27.6 18.3166
    endloop
  endfacet
  facet normal 0 -1 -0
    outer loop
      vertex 11.6966 -27.6 18.7282
      vertex 11.6834 -27.6 17.9396
      vertex 12.799 -27.6 18.6225
    endloop
  endfacet
  facet normal 0 -1 -0
    outer loop
      vertex 12.799 -27.6 18.6225
      vertex 11.6834 -27.6 17.9396
      vertex 12.9191 -27.6 18.3978
    endloop
  endfacet
  facet normal 0 -1 0
    outer loop
      vertex 11.8966 -27.6 17.5918
      vertex 12.9191 -27.6 18.3978
      vertex 11.6834 -27.6 17.9396
    endloop
  endfacet
  facet normal 0 -1 -0
    outer loop
      vertex 12.9191 -27.6 18.3978
      vertex 11.8966 -27.6 17.5918
      vertex 13.0808 -27.6 18.2008
    endloop
  endfacet
  facet normal 0 -1 0
    outer loop
      vertex 12.1615 -27.6 17.2815
      vertex 13.0808 -27.6 18.2008
      vertex 11.8966 -27.6 17.5918
    endloop
  endfacet
  facet normal 0 -1 0
    outer loop
      vertex 12.4718 -27.6 17.0166
      vertex 13.0808 -27.6 18.2008
      vertex 12.1615 -27.6 17.2815
    endloop
  endfacet
  facet normal 0 -1 -0
    outer loop
      vertex 13.0808 -27.6 18.2008
      vertex 12.4718 -27.6 17.0166
      vertex 13.2778 -27.6 18.0391
    endloop
  endfacet
  facet normal 0 -1 0
    outer loop
      vertex 12.8196 -27.6 16.8034
      vertex 13.2778 -27.6 18.0391
      vertex 12.4718 -27.6 17.0166
    endloop
  endfacet
  facet normal 0 -1 0
    outer loop
      vertex 15.275 -27.6 19.3736
      vertex 15.3804 -27.6 19.5166
      vertex 15.2103 -27.6 19.5871
    endloop
  endfacet
  facet normal 0 -1 0
    outer loop
      vertex 15.275 -27.6 19.3736
      vertex 15.7282 -27.6 19.3034
      vertex 15.3804 -27.6 19.5166
    endloop
  endfacet
  facet normal 0 -1 0
    outer loop
      vertex 15.3 -27.6 19.12
      vertex 15.7282 -27.6 19.3034
      vertex 15.275 -27.6 19.3736
    endloop
  endfacet
  facet normal 0 -1 0
    outer loop
      vertex 15.275 -27.6 18.8664
      vertex 15.7282 -27.6 19.3034
      vertex 15.3 -27.6 19.12
    endloop
  endfacet
  facet normal 0 -1 -0
    outer loop
      vertex 15.7282 -27.6 19.3034
      vertex 15.275 -27.6 18.8664
      vertex 16.0385 -27.6 19.0385
    endloop
  endfacet
  facet normal 0 -1 0
    outer loop
      vertex 15.201 -27.6 18.6225
      vertex 16.0385 -27.6 19.0385
      vertex 15.275 -27.6 18.8664
    endloop
  endfacet
  facet normal 0 -1 -0
    outer loop
      vertex 16.0385 -27.6 19.0385
      vertex 15.201 -27.6 18.6225
      vertex 16.3034 -27.6 18.7282
    endloop
  endfacet
  facet normal 0 -1 0
    outer loop
      vertex 16.3166 -27.6 17.9396
      vertex 16.3034 -27.6 18.7282
      vertex 15.201 -27.6 18.6225
    endloop
  endfacet
  facet normal 0 -1 0
    outer loop
      vertex 16.3166 -27.6 17.9396
      vertex 15.201 -27.6 18.6225
      vertex 15.0809 -27.6 18.3978
    endloop
  endfacet
  facet normal 0 -1 0
    outer loop
      vertex 16.3034 -27.6 18.7282
      vertex 16.4727 -27.6 18.3166
      vertex 16.4961 -27.6 18.4138
    endloop
  endfacet
  facet normal 0 -1 0
    outer loop
      vertex 16.1034 -27.6 17.5918
      vertex 15.0809 -27.6 18.3978
      vertex 14.9192 -27.6 18.2008
    endloop
  endfacet
  facet normal 0 -1 0
    outer loop
      vertex 15.5282 -27.6 17.0166
      vertex 14.9192 -27.6 18.2008
      vertex 14.7222 -27.6 18.0391
    endloop
  endfacet
  facet normal 0 -1 0
    outer loop
      vertex 16.3034 -27.6 18.7282
      vertex 16.3166 -27.6 17.9396
      vertex 16.4727 -27.6 18.3166
    endloop
  endfacet
  facet normal 0 -1 0
    outer loop
      vertex 15.1804 -27.6 16.8034
      vertex 14.7222 -27.6 18.0391
      vertex 14.4975 -27.6 17.919
    endloop
  endfacet
  facet normal 0 -1 0
    outer loop
      vertex 14.8034 -27.6 16.6473
      vertex 14.4975 -27.6 17.919
      vertex 14.2536 -27.6 17.845
    endloop
  endfacet
  facet normal 0 -1 0
    outer loop
      vertex 14.4067 -27.6 16.552
      vertex 14.2536 -27.6 17.845
      vertex 14 -27.6 17.82
    endloop
  endfacet
  facet normal 0 -1 -0
    outer loop
      vertex 13.2778 -27.6 18.0391
      vertex 12.8196 -27.6 16.8034
      vertex 13.5025 -27.6 17.919
    endloop
  endfacet
  facet normal 0 -1 0
    outer loop
      vertex 15.0809 -27.6 18.3978
      vertex 16.1034 -27.6 17.5918
      vertex 16.3166 -27.6 17.9396
    endloop
  endfacet
  facet normal 0 -1 0
    outer loop
      vertex 13.1966 -27.6 16.6473
      vertex 13.5025 -27.6 17.919
      vertex 12.8196 -27.6 16.8034
    endloop
  endfacet
  facet normal 0 -1 0
    outer loop
      vertex 14.9192 -27.6 18.2008
      vertex 15.8385 -27.6 17.2815
      vertex 16.1034 -27.6 17.5918
    endloop
  endfacet
  facet normal 0 -1 -0
    outer loop
      vertex 13.5025 -27.6 17.919
      vertex 13.1966 -27.6 16.6473
      vertex 13.7464 -27.6 17.845
    endloop
  endfacet
  facet normal 0 -1 0
    outer loop
      vertex 14.9192 -27.6 18.2008
      vertex 15.5282 -27.6 17.0166
      vertex 15.8385 -27.6 17.2815
    endloop
  endfacet
  facet normal 0 -1 0
    outer loop
      vertex 13.5933 -27.6 16.552
      vertex 13.7464 -27.6 17.845
      vertex 13.1966 -27.6 16.6473
    endloop
  endfacet
  facet normal 0 -1 0
    outer loop
      vertex 14.7222 -27.6 18.0391
      vertex 15.1804 -27.6 16.8034
      vertex 15.5282 -27.6 17.0166
    endloop
  endfacet
  facet normal 0 -1 -0
    outer loop
      vertex 13.7464 -27.6 17.845
      vertex 13.5933 -27.6 16.552
      vertex 14 -27.6 17.82
    endloop
  endfacet
  facet normal 0 -1 0
    outer loop
      vertex 14.4975 -27.6 17.919
      vertex 14.8034 -27.6 16.6473
      vertex 15.1804 -27.6 16.8034
    endloop
  endfacet
  facet normal 0 -1 0
    outer loop
      vertex 14 -27.6 16.52
      vertex 14 -27.6 17.82
      vertex 13.5933 -27.6 16.552
    endloop
  endfacet
  facet normal 0 -1 0
    outer loop
      vertex 14.2536 -27.6 17.845
      vertex 14.4067 -27.6 16.552
      vertex 14.8034 -27.6 16.6473
    endloop
  endfacet
  facet normal 0 -1 0
    outer loop
      vertex 14 -27.6 17.82
      vertex 14 -27.6 16.52
      vertex 14.4067 -27.6 16.552
    endloop
  endfacet
  facet normal -0.760553 0 0.649276
    outer loop
      vertex 11.6966 -27.6 18.7282
      vertex 11.9615 -26.6 19.0385
      vertex 11.6966 -26.6 18.7282
    endloop
  endfacet
  facet normal -0.760553 0 0.649276
    outer loop
      vertex 11.9615 -26.6 19.0385
      vertex 11.6966 -27.6 18.7282
      vertex 11.9615 -27.6 19.0385
    endloop
  endfacet
  facet normal -0.649276 0 0.760553
    outer loop
      vertex 11.9615 -26.6 19.0385
      vertex 12.2718 -27.6 19.3034
      vertex 12.2718 -26.6 19.3034
    endloop
  endfacet
  facet normal -0.649276 0 0.760553
    outer loop
      vertex 12.2718 -27.6 19.3034
      vertex 11.9615 -26.6 19.0385
      vertex 11.9615 -27.6 19.0385
    endloop
  endfacet
  facet normal 0.760553 -0 0.649276
    outer loop
      vertex 16.0385 -27.6 19.0385
      vertex 16.3034 -26.6 18.7282
      vertex 16.0385 -26.6 19.0385
    endloop
  endfacet
  facet normal 0.760553 0 0.649276
    outer loop
      vertex 16.3034 -26.6 18.7282
      vertex 16.0385 -27.6 19.0385
      vertex 16.3034 -27.6 18.7282
    endloop
  endfacet
  facet normal 0.852566 0 0.52262
    outer loop
      vertex 16.3034 -26.6 18.7282
      vertex 16.5166 -27.5009 18.3804
      vertex 16.5166 -26.6 18.3804
    endloop
  endfacet
  facet normal 0.852566 -0 0.52262
    outer loop
      vertex 16.3034 -27.6 18.7282
      vertex 16.5166 -27.5009 18.3804
      vertex 16.3034 -26.6 18.7282
    endloop
  endfacet
  facet normal 0.852597 -0.000246828 0.522568
    outer loop
      vertex 16.5166 -27.5009 18.3804
      vertex 16.3034 -27.6 18.7282
      vertex 16.4961 -27.6 18.4138
    endloop
  endfacet
  facet normal 0.0785115 0 0.996913
    outer loop
      vertex 14.6067 -26.6 19.768
      vertex 14.4975 -27.1463 19.7766
      vertex 14.6067 -27.1878 19.768
    endloop
  endfacet
  facet normal 0.0784792 6.49067e-06 0.996916
    outer loop
      vertex 14.6067 -26.6 19.768
      vertex 14.2536 -27.1006 19.7958
      vertex 14.4975 -27.1463 19.7766
    endloop
  endfacet
  facet normal 0.0784396 3.457e-05 0.996919
    outer loop
      vertex 14.2 -26.6 19.8
      vertex 14.2536 -27.1006 19.7958
      vertex 14.6067 -26.6 19.768
    endloop
  endfacet
  facet normal 0.0781188 0 0.996944
    outer loop
      vertex 14.2536 -27.1006 19.7958
      vertex 14.2 -26.6 19.8
      vertex 14.2 -27.0998 19.8
    endloop
  endfacet
  facet normal 0.923969 8.96129e-05 0.382468
    outer loop
      vertex 16.5166 -26.6 18.3804
      vertex 16.5835 -26.6748 18.2188
      vertex 16.5748 -26.6 18.2398
    endloop
  endfacet
  facet normal 0.923983 0.000176177 0.382434
    outer loop
      vertex 16.5166 -26.6 18.3804
      vertex 16.6 -26.8159 18.179
      vertex 16.5835 -26.6748 18.2188
    endloop
  endfacet
  facet normal 0.923923 1.90609e-05 0.382577
    outer loop
      vertex 16.5166 -26.6 18.3804
      vertex 16.568 -27.2192 18.2563
      vertex 16.6 -26.8159 18.179
    endloop
  endfacet
  facet normal 0.92389 0 0.382659
    outer loop
      vertex 16.568 -27.2192 18.2563
      vertex 16.5166 -26.6 18.3804
      vertex 16.5166 -27.5009 18.3804
    endloop
  endfacet
  facet normal 0.382533 0 0.923942
    outer loop
      vertex 15.0809 -27.432 19.6406
      vertex 15.3804 -27.6 19.5166
      vertex 15.3804 -26.6 19.5166
    endloop
  endfacet
  facet normal 0.382878 0.00226777 0.923796
    outer loop
      vertex 15.3804 -27.6 19.5166
      vertex 15.201 -27.5778 19.5909
      vertex 15.2103 -27.6 19.5871
    endloop
  endfacet
  facet normal 0.38267 0.000285146 0.923885
    outer loop
      vertex 15.3804 -27.6 19.5166
      vertex 15.0809 -27.432 19.6406
      vertex 15.201 -27.5778 19.5909
    endloop
  endfacet
  facet normal 0.382561 -0 0.92393
    outer loop
      vertex 15.0034 -27.3801 19.6727
      vertex 15.3804 -26.6 19.5166
      vertex 15.0034 -26.6 19.6727
    endloop
  endfacet
  facet normal 0.382642 -4.56037e-05 0.923897
    outer loop
      vertex 15.3804 -26.6 19.5166
      vertex 15.0034 -27.3801 19.6727
      vertex 15.0809 -27.432 19.6406
    endloop
  endfacet
  facet normal 0.649276 0 0.760553
    outer loop
      vertex 15.7282 -26.6 19.3034
      vertex 16.0385 -27.6 19.0385
      vertex 16.0385 -26.6 19.0385
    endloop
  endfacet
  facet normal 0.649276 0 0.760553
    outer loop
      vertex 16.0385 -27.6 19.0385
      vertex 15.7282 -26.6 19.3034
      vertex 15.7282 -27.6 19.3034
    endloop
  endfacet
  facet normal -0.852566 0 0.52262
    outer loop
      vertex 11.4834 -27.5009 18.3804
      vertex 11.6966 -26.6 18.7282
      vertex 11.4834 -26.6 18.3804
    endloop
  endfacet
  facet normal -0.852597 -0.000246828 0.522568
    outer loop
      vertex 11.6966 -27.6 18.7282
      vertex 11.4834 -27.5009 18.3804
      vertex 11.5039 -27.6 18.4138
    endloop
  endfacet
  facet normal -0.852566 0 0.52262
    outer loop
      vertex 11.4834 -27.5009 18.3804
      vertex 11.6966 -27.6 18.7282
      vertex 11.6966 -26.6 18.7282
    endloop
  endfacet
  facet normal 0.152006 -0.759294 -0.632745
    outer loop
      vertex 14.4067 -27.6 16.552
      vertex 14.8034 -26.6 15.4473
      vertex 14.8034 -27.6 16.6473
    endloop
  endfacet
  facet normal 0.152006 -0.759294 -0.632745
    outer loop
      vertex 14.8034 -26.6 15.4473
      vertex 14.4067 -27.6 16.552
      vertex 14.4067 -26.6 15.352
    endloop
  endfacet
  facet normal 0.256225 -0.742576 -0.618813
    outer loop
      vertex 14.8034 -27.6 16.6473
      vertex 15.1804 -26.6 15.6034
      vertex 15.1804 -27.6 16.8034
    endloop
  endfacet
  facet normal 0.256225 -0.742576 -0.618813
    outer loop
      vertex 15.1804 -26.6 15.6034
      vertex 14.8034 -27.6 16.6473
      vertex 14.8034 -26.6 15.4473
    endloop
  endfacet
  facet normal 0.365308 -0.715127 -0.595939
    outer loop
      vertex 15.1804 -27.6 16.8034
      vertex 15.5282 -26.6 15.8166
      vertex 15.5282 -27.6 17.0166
    endloop
  endfacet
  facet normal 0.365308 -0.715127 -0.595939
    outer loop
      vertex 15.5282 -26.6 15.8166
      vertex 15.1804 -27.6 16.8034
      vertex 15.1804 -26.6 15.6034
    endloop
  endfacet
  facet normal 0.479632 -0.674091 -0.561743
    outer loop
      vertex 15.5282 -26.6 15.8166
      vertex 15.7006 -26.6 15.9638
      vertex 15.5282 -27.6 17.0166
    endloop
  endfacet
  facet normal 0.479572 -0.674116 -0.561763
    outer loop
      vertex 15.5282 -27.6 17.0166
      vertex 15.8385 -26.6 16.0815
      vertex 15.8385 -27.6 17.2815
    endloop
  endfacet
  facet normal 0.479507 -0.674131 -0.561801
    outer loop
      vertex 15.8385 -26.6 16.0815
      vertex 15.5282 -27.6 17.0166
      vertex 15.7006 -26.6 15.9638
    endloop
  endfacet
  facet normal 0.59995 -0.614606 -0.512171
    outer loop
      vertex 15.8385 -27.6 17.2815
      vertex 16.1034 -26.6 16.3918
      vertex 16.1034 -27.6 17.5918
    endloop
  endfacet
  facet normal 0.59995 -0.614606 -0.512171
    outer loop
      vertex 16.1034 -26.6 16.3918
      vertex 15.8385 -27.6 17.2815
      vertex 15.8385 -26.6 16.0815
    endloop
  endfacet
  facet normal 0.722278 -0.531304 -0.442753
    outer loop
      vertex 16.1034 -27.6 17.5918
      vertex 16.3166 -26.6 16.7396
      vertex 16.3166 -27.6 17.9396
    endloop
  endfacet
  facet normal 0.722278 -0.531304 -0.442753
    outer loop
      vertex 16.3166 -26.6 16.7396
      vertex 16.1034 -27.6 17.5918
      vertex 16.1034 -26.6 16.3918
    endloop
  endfacet
  facet normal 0.839677 -0.41721 -0.347675
    outer loop
      vertex 16.3166 -27.6 17.9396
      vertex 16.4727 -26.6 17.1166
      vertex 16.4727 -27.6 18.3166
    endloop
  endfacet
  facet normal 0.839677 -0.41721 -0.347675
    outer loop
      vertex 16.4727 -26.6 17.1166
      vertex 16.3166 -27.6 17.9396
      vertex 16.3166 -26.6 16.7396
    endloop
  endfacet
  facet normal 0.936236 -0.269926 -0.22495
    outer loop
      vertex 16.4727 -27.6 18.3166
      vertex 16.568 -26.6 17.5133
      vertex 16.568 -27.2192 18.2563
    endloop
  endfacet
  facet normal 0.936238 -0.269925 -0.224942
    outer loop
      vertex 16.4727 -27.6 18.3166
      vertex 16.568 -27.2192 18.2563
      vertex 16.5166 -27.5009 18.3804
    endloop
  endfacet
  facet normal 0.936216 -0.26963 -0.225385
    outer loop
      vertex 16.4727 -27.6 18.3166
      vertex 16.5166 -27.5009 18.3804
      vertex 16.4961 -27.6 18.4138
    endloop
  endfacet
  facet normal 0.936251 -0.269901 -0.224917
    outer loop
      vertex 16.568 -26.6 17.5133
      vertex 16.4727 -27.6 18.3166
      vertex 16.4727 -26.6 17.1166
    endloop
  endfacet
  facet normal 0.992534 -0.0936847 -0.0780947
    outer loop
      vertex 16.6 -26.8159 18.179
      vertex 16.568 -26.6 17.5133
      vertex 16.6 -26.6 17.92
    endloop
  endfacet
  facet normal 0.99253 -0.0937233 -0.078107
    outer loop
      vertex 16.568 -26.6 17.5133
      vertex 16.6 -26.8159 18.179
      vertex 16.568 -27.2192 18.2563
    endloop
  endfacet
  facet normal 0.992469 0.0938556 0.0787114
    outer loop
      vertex 16.6 -26.8159 18.179
      vertex 16.5822 -26.6 18.146
      vertex 16.5835 -26.6748 18.2188
    endloop
  endfacet
  facet normal 0.99252 0.0937773 0.0781719
    outer loop
      vertex 16.5822 -26.6 18.146
      vertex 16.6 -26.8159 18.179
      vertex 16.6 -26.6 17.92
    endloop
  endfacet
  facet normal 0.992539 0.093459 0.0783027
    outer loop
      vertex 16.5835 -26.6748 18.2188
      vertex 16.5822 -26.6 18.146
      vertex 16.5748 -26.6 18.2398
    endloop
  endfacet
  facet normal -0.992494 0.0937355 0.0785427
    outer loop
      vertex 11.4157 -26.6814 18.2169
      vertex 11.4252 -26.6 18.2398
      vertex 11.4142 -26.6 18.1008
    endloop
  endfacet
  facet normal -0.992561 0.0935178 0.0779556
    outer loop
      vertex 11.4 -26.8159 18.179
      vertex 11.4142 -26.6 18.1008
      vertex 11.4 -26.6 17.92
    endloop
  endfacet
  facet normal -0.992496 0.093723 0.078534
    outer loop
      vertex 11.4142 -26.6 18.1008
      vertex 11.4 -26.8159 18.179
      vertex 11.4157 -26.6814 18.2169
    endloop
  endfacet
  facet normal -0.992534 -0.0936847 -0.0780947
    outer loop
      vertex 11.432 -26.6 17.5133
      vertex 11.4 -26.8159 18.179
      vertex 11.4 -26.6 17.92
    endloop
  endfacet
  facet normal -0.99253 -0.0937233 -0.078107
    outer loop
      vertex 11.4 -26.8159 18.179
      vertex 11.432 -26.6 17.5133
      vertex 11.432 -27.2192 18.2563
    endloop
  endfacet
  facet normal -0.936251 -0.269901 -0.224917
    outer loop
      vertex 11.5273 -27.6 18.3166
      vertex 11.432 -26.6 17.5133
      vertex 11.5273 -26.6 17.1166
    endloop
  endfacet
  facet normal -0.936236 -0.269926 -0.22495
    outer loop
      vertex 11.432 -26.6 17.5133
      vertex 11.5273 -27.6 18.3166
      vertex 11.432 -27.2192 18.2563
    endloop
  endfacet
  facet normal -0.936238 -0.269925 -0.224942
    outer loop
      vertex 11.432 -27.2192 18.2563
      vertex 11.5273 -27.6 18.3166
      vertex 11.4834 -27.5009 18.3804
    endloop
  endfacet
  facet normal -0.936216 -0.26963 -0.225385
    outer loop
      vertex 11.4834 -27.5009 18.3804
      vertex 11.5273 -27.6 18.3166
      vertex 11.5039 -27.6 18.4138
    endloop
  endfacet
  facet normal -0.839677 -0.41721 -0.347675
    outer loop
      vertex 11.6834 -27.6 17.9396
      vertex 11.5273 -26.6 17.1166
      vertex 11.6834 -26.6 16.7396
    endloop
  endfacet
  facet normal -0.839677 -0.41721 -0.347675
    outer loop
      vertex 11.5273 -26.6 17.1166
      vertex 11.6834 -27.6 17.9396
      vertex 11.5273 -27.6 18.3166
    endloop
  endfacet
  facet normal -0.722278 -0.531304 -0.442753
    outer loop
      vertex 11.8966 -27.6 17.5918
      vertex 11.6834 -26.6 16.7396
      vertex 11.8966 -26.6 16.3918
    endloop
  endfacet
  facet normal -0.722278 -0.531304 -0.442753
    outer loop
      vertex 11.6834 -26.6 16.7396
      vertex 11.8966 -27.6 17.5918
      vertex 11.6834 -27.6 17.9396
    endloop
  endfacet
  facet normal -0.59995 -0.614606 -0.512171
    outer loop
      vertex 11.8966 -26.6 16.3918
      vertex 12.1615 -27.6 17.2815
      vertex 11.8966 -27.6 17.5918
    endloop
  endfacet
  facet normal -0.59995 -0.614606 -0.512171
    outer loop
      vertex 12.1615 -27.6 17.2815
      vertex 11.8966 -26.6 16.3918
      vertex 12.1615 -26.6 16.0815
    endloop
  endfacet
  facet normal -0.479632 -0.674091 -0.561743
    outer loop
      vertex 12.1615 -26.6 16.0815
      vertex 12.3339 -26.6 15.9343
      vertex 12.1615 -27.6 17.2815
    endloop
  endfacet
  facet normal -0.479568 -0.674123 -0.561758
    outer loop
      vertex 12.3339 -26.6 15.9343
      vertex 12.4718 -27.6 17.0166
      vertex 12.1615 -27.6 17.2815
    endloop
  endfacet
  facet normal -0.479497 -0.674148 -0.56179
    outer loop
      vertex 12.4718 -27.6 17.0166
      vertex 12.3339 -26.6 15.9343
      vertex 12.4718 -26.6 15.8166
    endloop
  endfacet
  facet normal -0.365308 -0.715127 -0.595939
    outer loop
      vertex 12.4718 -26.6 15.8166
      vertex 12.8196 -27.6 16.8034
      vertex 12.4718 -27.6 17.0166
    endloop
  endfacet
  facet normal -0.365308 -0.715127 -0.595939
    outer loop
      vertex 12.8196 -27.6 16.8034
      vertex 12.4718 -26.6 15.8166
      vertex 12.8196 -26.6 15.6034
    endloop
  endfacet
  facet normal -0.256225 -0.742576 -0.618813
    outer loop
      vertex 12.8196 -26.6 15.6034
      vertex 13.1966 -27.6 16.6473
      vertex 12.8196 -27.6 16.8034
    endloop
  endfacet
  facet normal -0.256225 -0.742576 -0.618813
    outer loop
      vertex 13.1966 -27.6 16.6473
      vertex 12.8196 -26.6 15.6034
      vertex 13.1966 -26.6 15.4473
    endloop
  endfacet
  facet normal -0.152006 -0.759294 -0.632745
    outer loop
      vertex 13.1966 -26.6 15.4473
      vertex 13.5933 -27.6 16.552
      vertex 13.1966 -27.6 16.6473
    endloop
  endfacet
  facet normal -0.152006 -0.759294 -0.632745
    outer loop
      vertex 13.5933 -27.6 16.552
      vertex 13.1966 -26.6 15.4473
      vertex 13.5933 -26.6 15.352
    endloop
  endfacet
  facet normal -0.0503073 -0.767249 -0.639374
    outer loop
      vertex 13.5933 -26.6 15.352
      vertex 14 -27.6 16.52
      vertex 13.5933 -27.6 16.552
    endloop
  endfacet
  facet normal -0.0503073 -0.767249 -0.639374
    outer loop
      vertex 14 -27.6 16.52
      vertex 13.5933 -26.6 15.352
      vertex 14 -26.6 15.32
    endloop
  endfacet
  facet normal 0.0503073 -0.767249 -0.639374
    outer loop
      vertex 14 -27.6 16.52
      vertex 14.4067 -26.6 15.352
      vertex 14.4067 -27.6 16.552
    endloop
  endfacet
  facet normal 0.0503073 -0.767249 -0.639374
    outer loop
      vertex 14.4067 -26.6 15.352
      vertex 14 -27.6 16.52
      vertex 14 -26.6 15.32
    endloop
  endfacet
  facet normal 0.19067 0.754128 0.62844
    outer loop
      vertex 13.7464 -27.6 17.845
      vertex 13.5025 -26.6 16.719
      vertex 13.5025 -27.6 17.919
    endloop
  endfacet
  facet normal 0.19067 0.754128 0.62844
    outer loop
      vertex 13.5025 -26.6 16.719
      vertex 13.7464 -27.6 17.845
      vertex 13.7464 -26.6 16.645
    endloop
  endfacet
  facet normal 0.323745 0.726848 0.605707
    outer loop
      vertex 13.5025 -27.6 17.919
      vertex 13.2778 -26.6 16.8391
      vertex 13.2778 -27.6 18.0391
    endloop
  endfacet
  facet normal 0.323745 0.726848 0.605707
    outer loop
      vertex 13.2778 -26.6 16.8391
      vertex 13.5025 -27.6 17.919
      vertex 13.5025 -26.6 16.719
    endloop
  endfacet
  facet normal 0.465161 0.68005 0.566708
    outer loop
      vertex 13.2778 -27.6 18.0391
      vertex 13.0808 -26.6 17.0008
      vertex 13.0808 -27.6 18.2008
    endloop
  endfacet
  facet normal 0.465161 0.68005 0.566708
    outer loop
      vertex 13.0808 -26.6 17.0008
      vertex 13.2778 -27.6 18.0391
      vertex 13.2778 -26.6 16.8391
    endloop
  endfacet
  facet normal 0.615002 0.605762 0.504802
    outer loop
      vertex 13.0808 -27.6 18.2008
      vertex 12.9191 -26.6 17.1978
      vertex 12.9191 -27.6 18.3978
    endloop
  endfacet
  facet normal 0.615002 0.605762 0.504802
    outer loop
      vertex 12.9191 -26.6 17.1978
      vertex 13.0808 -27.6 18.2008
      vertex 13.0808 -26.6 17.0008
    endloop
  endfacet
  facet normal 0.767629 0.492349 0.41029
    outer loop
      vertex 12.9191 -27.6 18.3978
      vertex 12.799 -26.6 17.4225
      vertex 12.799 -27.6 18.6225
    endloop
  endfacet
  facet normal 0.767629 0.492349 0.41029
    outer loop
      vertex 12.799 -26.6 17.4225
      vertex 12.9191 -27.6 18.3978
      vertex 12.9191 -26.6 17.1978
    endloop
  endfacet
  facet normal 0.903652 0.329005 0.274171
    outer loop
      vertex 12.799 -27.6 18.6225
      vertex 12.725 -26.6 17.6664
      vertex 12.725 -27.6 18.8664
    endloop
  endfacet
  facet normal 0.903652 0.329005 0.274171
    outer loop
      vertex 12.725 -26.6 17.6664
      vertex 12.799 -27.6 18.6225
      vertex 12.799 -26.6 17.4225
    endloop
  endfacet
  facet normal 0.988351 0.116918 0.097432
    outer loop
      vertex 12.725 -27.6 18.8664
      vertex 12.7 -26.6 17.92
      vertex 12.7 -27.6 19.12
    endloop
  endfacet
  facet normal 0.988351 0.116918 0.097432
    outer loop
      vertex 12.7 -26.6 17.92
      vertex 12.725 -27.6 18.8664
      vertex 12.725 -26.6 17.6664
    endloop
  endfacet
  facet normal 0.988334 -0.117001 -0.0975007
    outer loop
      vertex 12.725 -26.6 18.1736
      vertex 12.725 -27.6 19.3736
      vertex 12.7111 -26.6 18.0327
    endloop
  endfacet
  facet normal 0.988352 -0.116909 -0.0974322
    outer loop
      vertex 12.7 -27.6 19.12
      vertex 12.7111 -26.6 18.0327
      vertex 12.725 -27.6 19.3736
    endloop
  endfacet
  facet normal 0.988371 -0.116815 -0.0973462
    outer loop
      vertex 12.7111 -26.6 18.0327
      vertex 12.7 -27.6 19.12
      vertex 12.7 -26.6 17.92
    endloop
  endfacet
  facet normal 0.903676 -0.32897 -0.274132
    outer loop
      vertex 12.725 -27.6 19.3736
      vertex 12.799 -26.6 18.4175
      vertex 12.799 -27.5778 19.5909
    endloop
  endfacet
  facet normal 0.902934 -0.331419 -0.273629
    outer loop
      vertex 12.725 -27.6 19.3736
      vertex 12.799 -27.5778 19.5909
      vertex 12.7897 -27.6 19.5871
    endloop
  endfacet
  facet normal 0.903652 -0.329005 -0.274171
    outer loop
      vertex 12.799 -26.6 18.4175
      vertex 12.725 -27.6 19.3736
      vertex 12.725 -26.6 18.1736
    endloop
  endfacet
  facet normal 0.767573 -0.4924 -0.410334
    outer loop
      vertex 12.799 -27.5778 19.5909
      vertex 12.9191 -26.6 18.6422
      vertex 12.9191 -27.432 19.6406
    endloop
  endfacet
  facet normal 0.767623 -0.492361 -0.410287
    outer loop
      vertex 12.9191 -26.6 18.6422
      vertex 12.799 -27.5778 19.5909
      vertex 12.799 -26.6 18.4175
    endloop
  endfacet
  facet normal 0.615043 -0.605744 -0.504775
    outer loop
      vertex 12.9191 -27.432 19.6406
      vertex 13.0808 -26.6 18.8392
      vertex 13.0808 -27.3114 19.6929
    endloop
  endfacet
  facet normal 0.614661 -0.604264 -0.507008
    outer loop
      vertex 12.9191 -27.432 19.6406
      vertex 13.0808 -27.3114 19.6929
      vertex 12.9966 -27.3801 19.6727
    endloop
  endfacet
  facet normal 0.615002 -0.605762 -0.504802
    outer loop
      vertex 13.0808 -26.6 18.8392
      vertex 12.9191 -27.432 19.6406
      vertex 12.9191 -26.6 18.6422
    endloop
  endfacet
  facet normal 0.465069 -0.680079 -0.566748
    outer loop
      vertex 13.0808 -27.3114 19.6929
      vertex 13.2778 -26.6 19.0009
      vertex 13.2778 -27.2161 19.7402
    endloop
  endfacet
  facet normal 0.465156 -0.680058 -0.566702
    outer loop
      vertex 13.2778 -26.6 19.0009
      vertex 13.0808 -27.3114 19.6929
      vertex 13.0808 -26.6 18.8392
    endloop
  endfacet
  facet normal 0.323868 -0.72683 -0.605663
    outer loop
      vertex 13.5025 -26.6 19.121
      vertex 13.3933 -27.1878 19.768
      vertex 13.2778 -27.2161 19.7402
    endloop
  endfacet
  facet normal 0.323916 -0.726821 -0.605648
    outer loop
      vertex 13.3933 -27.1878 19.768
      vertex 13.5025 -26.6 19.121
      vertex 13.5025 -27.1463 19.7766
    endloop
  endfacet
  facet normal 0.323749 -0.726839 -0.605716
    outer loop
      vertex 13.5025 -26.6 19.121
      vertex 13.2778 -27.2161 19.7402
      vertex 13.2778 -26.6 19.0009
    endloop
  endfacet
  facet normal 0.190773 -0.754153 -0.628377
    outer loop
      vertex 13.5025 -27.1463 19.7766
      vertex 13.7464 -26.6 19.195
      vertex 13.7464 -27.1006 19.7958
    endloop
  endfacet
  facet normal 0.190664 -0.754147 -0.628418
    outer loop
      vertex 13.7464 -26.6 19.195
      vertex 13.5025 -27.1463 19.7766
      vertex 13.5025 -26.6 19.121
    endloop
  endfacet
  facet normal 0.0615097 -0.766808 -0.638922
    outer loop
      vertex 13.7464 -26.6 19.195
      vertex 13.8 -27.0998 19.8
      vertex 13.7464 -27.1006 19.7958
    endloop
  endfacet
  facet normal 0.0632531 -0.766705 -0.638876
    outer loop
      vertex 13.8 -27.0998 19.8
      vertex 14 -26.6 19.22
      vertex 14 -27.0833 19.8
    endloop
  endfacet
  facet normal 0.0629871 -0.766673 -0.638941
    outer loop
      vertex 13.8 -27.0998 19.8
      vertex 13.7464 -26.6 19.195
      vertex 14 -26.6 19.22
    endloop
  endfacet
  facet normal -0.0632531 -0.766705 -0.638876
    outer loop
      vertex 14 -26.6 19.22
      vertex 14.2 -27.0998 19.8
      vertex 14 -27.0833 19.8
    endloop
  endfacet
  facet normal -0.0629871 -0.766673 -0.638941
    outer loop
      vertex 14.2536 -26.6 19.195
      vertex 14.2 -27.0998 19.8
      vertex 14 -26.6 19.22
    endloop
  endfacet
  facet normal -0.0615097 -0.766808 -0.638922
    outer loop
      vertex 14.2 -27.0998 19.8
      vertex 14.2536 -26.6 19.195
      vertex 14.2536 -27.1006 19.7958
    endloop
  endfacet
  facet normal -0.190773 -0.754153 -0.628377
    outer loop
      vertex 14.2536 -26.6 19.195
      vertex 14.4975 -27.1463 19.7766
      vertex 14.2536 -27.1006 19.7958
    endloop
  endfacet
  facet normal -0.190664 -0.754147 -0.628418
    outer loop
      vertex 14.4975 -27.1463 19.7766
      vertex 14.2536 -26.6 19.195
      vertex 14.4975 -26.6 19.121
    endloop
  endfacet
  facet normal -0.323916 -0.726821 -0.605648
    outer loop
      vertex 14.4975 -26.6 19.121
      vertex 14.6067 -27.1878 19.768
      vertex 14.4975 -27.1463 19.7766
    endloop
  endfacet
  facet normal -0.323868 -0.72683 -0.605663
    outer loop
      vertex 14.6067 -27.1878 19.768
      vertex 14.4975 -26.6 19.121
      vertex 14.7222 -27.2161 19.7402
    endloop
  endfacet
  facet normal -0.323749 -0.726839 -0.605716
    outer loop
      vertex 14.7222 -27.2161 19.7402
      vertex 14.4975 -26.6 19.121
      vertex 14.7222 -26.6 19.0009
    endloop
  endfacet
  facet normal -0.465069 -0.680079 -0.566748
    outer loop
      vertex 14.7222 -26.6 19.0009
      vertex 14.9192 -27.3114 19.6929
      vertex 14.7222 -27.2161 19.7402
    endloop
  endfacet
  facet normal -0.465156 -0.680058 -0.566702
    outer loop
      vertex 14.9192 -27.3114 19.6929
      vertex 14.7222 -26.6 19.0009
      vertex 14.9192 -26.6 18.8392
    endloop
  endfacet
  facet normal -0.615002 -0.605762 -0.504802
    outer loop
      vertex 15.0809 -27.432 19.6406
      vertex 14.9192 -26.6 18.8392
      vertex 15.0809 -26.6 18.6422
    endloop
  endfacet
  facet normal -0.615043 -0.605744 -0.504775
    outer loop
      vertex 14.9192 -26.6 18.8392
      vertex 15.0809 -27.432 19.6406
      vertex 14.9192 -27.3114 19.6929
    endloop
  endfacet
  facet normal -0.614661 -0.604264 -0.507008
    outer loop
      vertex 14.9192 -27.3114 19.6929
      vertex 15.0809 -27.432 19.6406
      vertex 15.0034 -27.3801 19.6727
    endloop
  endfacet
  facet normal -0.767623 -0.492361 -0.410287
    outer loop
      vertex 15.201 -27.5778 19.5909
      vertex 15.0809 -26.6 18.6422
      vertex 15.201 -26.6 18.4175
    endloop
  endfacet
  facet normal -0.767573 -0.4924 -0.410334
    outer loop
      vertex 15.0809 -26.6 18.6422
      vertex 15.201 -27.5778 19.5909
      vertex 15.0809 -27.432 19.6406
    endloop
  endfacet
  facet normal -0.903652 -0.329005 -0.274171
    outer loop
      vertex 15.275 -27.6 19.3736
      vertex 15.201 -26.6 18.4175
      vertex 15.275 -26.6 18.1736
    endloop
  endfacet
  facet normal -0.903676 -0.32897 -0.274132
    outer loop
      vertex 15.201 -26.6 18.4175
      vertex 15.275 -27.6 19.3736
      vertex 15.201 -27.5778 19.5909
    endloop
  endfacet
  facet normal -0.902934 -0.331419 -0.273629
    outer loop
      vertex 15.201 -27.5778 19.5909
      vertex 15.275 -27.6 19.3736
      vertex 15.2103 -27.6 19.5871
    endloop
  endfacet
  facet normal -0.988334 -0.117001 -0.0975007
    outer loop
      vertex 15.3 -26.6 17.92
      vertex 15.3 -27.6 19.12
      vertex 15.2861 -26.6 18.0609
    endloop
  endfacet
  facet normal -0.988369 -0.116837 -0.097346
    outer loop
      vertex 15.3 -27.6 19.12
      vertex 15.275 -26.6 18.1736
      vertex 15.2861 -26.6 18.0609
    endloop
  endfacet
  facet normal -0.988351 -0.116918 -0.097432
    outer loop
      vertex 15.275 -26.6 18.1736
      vertex 15.3 -27.6 19.12
      vertex 15.275 -27.6 19.3736
    endloop
  endfacet
  facet normal -0.988351 0.116918 0.097432
    outer loop
      vertex 15.275 -27.6 18.8664
      vertex 15.3 -26.6 17.92
      vertex 15.275 -26.6 17.6664
    endloop
  endfacet
  facet normal -0.988351 0.116918 0.097432
    outer loop
      vertex 15.3 -26.6 17.92
      vertex 15.275 -27.6 18.8664
      vertex 15.3 -27.6 19.12
    endloop
  endfacet
  facet normal -0.903652 0.329005 0.274171
    outer loop
      vertex 15.201 -27.6 18.6225
      vertex 15.275 -26.6 17.6664
      vertex 15.201 -26.6 17.4225
    endloop
  endfacet
  facet normal -0.903652 0.329005 0.274171
    outer loop
      vertex 15.275 -26.6 17.6664
      vertex 15.201 -27.6 18.6225
      vertex 15.275 -27.6 18.8664
    endloop
  endfacet
  facet normal -0.767629 0.492349 0.41029
    outer loop
      vertex 15.0809 -27.6 18.3978
      vertex 15.201 -26.6 17.4225
      vertex 15.0809 -26.6 17.1978
    endloop
  endfacet
  facet normal -0.767629 0.492349 0.41029
    outer loop
      vertex 15.201 -26.6 17.4225
      vertex 15.0809 -27.6 18.3978
      vertex 15.201 -27.6 18.6225
    endloop
  endfacet
  facet normal -0.615002 0.605762 0.504802
    outer loop
      vertex 14.9192 -27.6 18.2008
      vertex 15.0809 -26.6 17.1978
      vertex 14.9192 -26.6 17.0008
    endloop
  endfacet
  facet normal -0.615002 0.605762 0.504802
    outer loop
      vertex 15.0809 -26.6 17.1978
      vertex 14.9192 -27.6 18.2008
      vertex 15.0809 -27.6 18.3978
    endloop
  endfacet
  facet normal -0.465161 0.68005 0.566708
    outer loop
      vertex 14.9192 -26.6 17.0008
      vertex 14.7222 -27.6 18.0391
      vertex 14.9192 -27.6 18.2008
    endloop
  endfacet
  facet normal -0.465161 0.68005 0.566708
    outer loop
      vertex 14.7222 -27.6 18.0391
      vertex 14.9192 -26.6 17.0008
      vertex 14.7222 -26.6 16.8391
    endloop
  endfacet
  facet normal -0.323745 0.726848 0.605707
    outer loop
      vertex 14.7222 -26.6 16.8391
      vertex 14.4975 -27.6 17.919
      vertex 14.7222 -27.6 18.0391
    endloop
  endfacet
  facet normal -0.323745 0.726848 0.605707
    outer loop
      vertex 14.4975 -27.6 17.919
      vertex 14.7222 -26.6 16.8391
      vertex 14.4975 -26.6 16.719
    endloop
  endfacet
  facet normal -0.19067 0.754128 0.62844
    outer loop
      vertex 14.4975 -26.6 16.719
      vertex 14.2536 -27.6 17.845
      vertex 14.4975 -27.6 17.919
    endloop
  endfacet
  facet normal -0.19067 0.754128 0.62844
    outer loop
      vertex 14.2536 -27.6 17.845
      vertex 14.4975 -26.6 16.719
      vertex 14.2536 -26.6 16.645
    endloop
  endfacet
  facet normal -0.0629844 0.766696 0.638913
    outer loop
      vertex 14.2536 -26.6 16.645
      vertex 14 -27.6 17.82
      vertex 14.2536 -27.6 17.845
    endloop
  endfacet
  facet normal -0.0629844 0.766696 0.638913
    outer loop
      vertex 14 -27.6 17.82
      vertex 14.2536 -26.6 16.645
      vertex 14 -26.6 16.62
    endloop
  endfacet
  facet normal 0.0629844 0.766696 0.638913
    outer loop
      vertex 14 -27.6 17.82
      vertex 13.7464 -26.6 16.645
      vertex 13.7464 -27.6 17.845
    endloop
  endfacet
  facet normal 0.0629844 0.766696 0.638913
    outer loop
      vertex 13.7464 -26.6 16.645
      vertex 14 -27.6 17.82
      vertex 14 -26.6 16.62
    endloop
  endfacet
  facet normal 0 1 -0
    outer loop
      vertex 21 -25.6 27.72
      vertex 20.7842 -25.6 33.02
      vertex 21 -25.6 33.02
    endloop
  endfacet
  facet normal 0 1 0
    outer loop
      vertex 20.7842 -25.6 33.02
      vertex 21 -25.6 27.72
      vertex 18.8158 -25.6 33.02
    endloop
  endfacet
  facet normal 0 1 0
    outer loop
      vertex 18.8158 -25.6 33.02
      vertex 21 -25.6 27.72
      vertex 18.4642 -25.6 33.02
    endloop
  endfacet
  facet normal 0 1 0
    outer loop
      vertex 18.4642 -25.6 33.02
      vertex 21 -25.6 27.72
      vertex 16.4958 -25.6 33.02
    endloop
  endfacet
  facet normal 0 1 0
    outer loop
      vertex 16.4958 -25.6 33.02
      vertex 21 -25.6 27.72
      vertex 16.1442 -25.6 33.02
    endloop
  endfacet
  facet normal 0 1 0
    outer loop
      vertex 16.1442 -25.6 33.02
      vertex 21 -25.6 27.72
      vertex 14.1758 -25.6 33.02
    endloop
  endfacet
  facet normal 0 1 0
    outer loop
      vertex 14.1758 -25.6 33.02
      vertex 21 -25.6 27.72
      vertex 13.8242 -25.6 33.02
    endloop
  endfacet
  facet normal 0 1 0
    outer loop
      vertex 7 -25.6 27.72
      vertex 13.8242 -25.6 33.02
      vertex 21 -25.6 27.72
    endloop
  endfacet
  facet normal 0 1 0
    outer loop
      vertex 13.8242 -25.6 33.02
      vertex 7 -25.6 27.72
      vertex 11.8558 -25.6 33.02
    endloop
  endfacet
  facet normal 0 1 0
    outer loop
      vertex 11.8558 -25.6 33.02
      vertex 7 -25.6 27.72
      vertex 11.5042 -25.6 33.02
    endloop
  endfacet
  facet normal 0 1 0
    outer loop
      vertex 11.5042 -25.6 33.02
      vertex 7 -25.6 27.72
      vertex 9.5358 -25.6 33.02
    endloop
  endfacet
  facet normal 0 1 0
    outer loop
      vertex 9.5358 -25.6 33.02
      vertex 7 -25.6 27.72
      vertex 9.18422 -25.6 33.02
    endloop
  endfacet
  facet normal 0 1 0
    outer loop
      vertex 9.18422 -25.6 33.02
      vertex 7 -25.6 27.72
      vertex 7.21581 -25.6 33.02
    endloop
  endfacet
  facet normal 0 1 0
    outer loop
      vertex 7.21581 -25.6 33.02
      vertex 7 -25.6 27.72
      vertex 7 -25.6 33.02
    endloop
  endfacet
  facet normal 0 1 0
    outer loop
      vertex 19.8 -25.6 34.72
      vertex 20.7842 -25.6 33.02
      vertex 18.8158 -25.6 33.02
    endloop
  endfacet
  facet normal 0 1 0
    outer loop
      vertex 17.48 -25.6 34.72
      vertex 18.4642 -25.6 33.02
      vertex 16.4958 -25.6 33.02
    endloop
  endfacet
  facet normal 0 1 0
    outer loop
      vertex 15.16 -25.6 34.72
      vertex 16.1442 -25.6 33.02
      vertex 14.1758 -25.6 33.02
    endloop
  endfacet
  facet normal 0 1 0
    outer loop
      vertex 12.84 -25.6 34.72
      vertex 13.8242 -25.6 33.02
      vertex 11.8558 -25.6 33.02
    endloop
  endfacet
  facet normal 0 1 0
    outer loop
      vertex 10.52 -25.6 34.72
      vertex 11.5042 -25.6 33.02
      vertex 9.5358 -25.6 33.02
    endloop
  endfacet
  facet normal 0 1 0
    outer loop
      vertex 8.20001 -25.6 34.72
      vertex 9.18422 -25.6 33.02
      vertex 7.21581 -25.6 33.02
    endloop
  endfacet
  facet normal 0 -1 0
    outer loop
      vertex 8.00002 -28 35.2
      vertex 9.36 -28 33.5418
      vertex 8.40001 -28 35.2
    endloop
  endfacet
  facet normal 0 -1 -0
    outer loop
      vertex 9.36 -28 33.5418
      vertex 7 -28 30.6
      vertex 11.68 -28 33.5418
    endloop
  endfacet
  facet normal 0 -1 0
    outer loop
      vertex 7 -28 30.6
      vertex 9.36 -28 33.5418
      vertex 7.01581 -28 33.5
    endloop
  endfacet
  facet normal 0 -1 0
    outer loop
      vertex 7.01581 -28 33.5
      vertex 9.36 -28 33.5418
      vertex 8.00002 -28 35.2
    endloop
  endfacet
  facet normal 0 -1 0
    outer loop
      vertex 9.36 -28 33.5418
      vertex 10.72 -28 35.2
      vertex 10.32 -28 35.2
    endloop
  endfacet
  facet normal 0 -1 -0
    outer loop
      vertex 10.72 -28 35.2
      vertex 9.36 -28 33.5418
      vertex 11.68 -28 33.5418
    endloop
  endfacet
  facet normal 0 -1 0
    outer loop
      vertex 17.28 -28 35.2
      vertex 18.64 -28 33.5418
      vertex 17.68 -28 35.2
    endloop
  endfacet
  facet normal 0 -1 0
    outer loop
      vertex 18.64 -28 33.5418
      vertex 17.28 -28 35.2
      vertex 16.32 -28 33.5418
    endloop
  endfacet
  facet normal 0 -1 0
    outer loop
      vertex 12.64 -28 35.2
      vertex 14 -28 33.5418
      vertex 13.04 -28 35.2
    endloop
  endfacet
  facet normal 0 -1 0
    outer loop
      vertex 14 -28 33.5418
      vertex 12.64 -28 35.2
      vertex 11.68 -28 33.5418
    endloop
  endfacet
  facet normal 0 -1 0
    outer loop
      vertex 14 -28 33.5418
      vertex 15.36 -28 35.2
      vertex 14.96 -28 35.2
    endloop
  endfacet
  facet normal 0 -1 0
    outer loop
      vertex 14 -28 33.5418
      vertex 16.32 -28 33.5418
      vertex 15.36 -28 35.2
    endloop
  endfacet
  facet normal 0 0 0
    outer loop
      vertex 16.32 -28 33.5418
      vertex 14 -28 33.5418
      vertex 11.68 -28 33.5418
    endloop
  endfacet
  facet normal 0 -1 0
    outer loop
      vertex 18.64 -28 33.5418
      vertex 20 -28 35.2
      vertex 19.6 -28 35.2
    endloop
  endfacet
  facet normal 0 -1 -0
    outer loop
      vertex 11.68 -28 33.5418
      vertex 7 -28 30.6
      vertex 16.32 -28 33.5418
    endloop
  endfacet
  facet normal 0 -1 0
    outer loop
      vertex 18.64 -28 33.5418
      vertex 20.9842 -28 33.5
      vertex 20 -28 35.2
    endloop
  endfacet
  facet normal 0 -1 0
    outer loop
      vertex 21 -28 30.6
      vertex 16.32 -28 33.5418
      vertex 7 -28 30.6
    endloop
  endfacet
  facet normal 0 -1 0
    outer loop
      vertex 7 -28 30.6
      vertex 7.01581 -28 33.5
      vertex 7 -28 33.5
    endloop
  endfacet
  facet normal 0 -1 0
    outer loop
      vertex 16.32 -28 33.5418
      vertex 21 -28 30.6
      vertex 18.64 -28 33.5418
    endloop
  endfacet
  facet normal 0 -1 0
    outer loop
      vertex 18.64 -28 33.5418
      vertex 21 -28 30.6
      vertex 20.9842 -28 33.5
    endloop
  endfacet
  facet normal 0 -1 0
    outer loop
      vertex 20.9842 -28 33.5
      vertex 21 -28 30.6
      vertex 21 -28 33.5
    endloop
  endfacet
  facet normal 0.865412 -0 0.50106
    outer loop
      vertex 20 -28 35.2
      vertex 20.0821 -26.2879 35.0582
      vertex 20 -26.2879 35.2
    endloop
  endfacet
  facet normal 0.865423 -2.03824e-06 0.501042
    outer loop
      vertex 20.0821 -26.2879 35.0582
      vertex 20 -28 35.2
      vertex 20.7842 -26.2879 33.8455
    endloop
  endfacet
  facet normal 0.865429 -1.22207e-05 0.501032
    outer loop
      vertex 20.9842 -28 33.5
      vertex 20.7842 -26.2879 33.8455
      vertex 20 -28 35.2
    endloop
  endfacet
  facet normal 0.865455 0 0.500987
    outer loop
      vertex 20.7842 -26.2879 33.8455
      vertex 20.9842 -28 33.5
      vertex 20.9842 -26 33.5
    endloop
  endfacet
  facet normal 0 0 1
    outer loop
      vertex 19.6 -26.2879 35.2
      vertex 20 -26.2879 35.2
      vertex 19.8 -26 35.2
    endloop
  endfacet
  facet normal 0 0 1
    outer loop
      vertex 20 -26.2879 35.2
      vertex 19.6 -26.2879 35.2
      vertex 20 -28 35.2
    endloop
  endfacet
  facet normal 0 0 1
    outer loop
      vertex 20 -28 35.2
      vertex 19.6 -26.2879 35.2
      vertex 19.6 -28 35.2
    endloop
  endfacet
  facet normal -0.865442 2.25928e-05 0.501008
    outer loop
      vertex 18.64 -28 33.5418
      vertex 19.0979 -26.2879 34.3327
      vertex 18.8158 -26.2879 33.8454
    endloop
  endfacet
  facet normal -0.865387 0 0.501104
    outer loop
      vertex 18.64 -28 33.5418
      vertex 18.8158 -26.2879 33.8454
      vertex 18.64 -26.0348 33.5418
    endloop
  endfacet
  facet normal -0.865429 7.85865e-06 0.501032
    outer loop
      vertex 19.0979 -26.2879 34.3327
      vertex 18.64 -28 33.5418
      vertex 19.6 -28 35.2
    endloop
  endfacet
  facet normal -0.865435 0 0.501021
    outer loop
      vertex 19.0979 -26.2879 34.3327
      vertex 19.6 -28 35.2
      vertex 19.6 -26.2879 35.2
    endloop
  endfacet
  facet normal 0.865423 -2.03824e-06 0.501042
    outer loop
      vertex 17.7621 -26.2879 35.0582
      vertex 17.68 -28 35.2
      vertex 18.4642 -26.2879 33.8455
    endloop
  endfacet
  facet normal 0.865412 -0 0.50106
    outer loop
      vertex 17.68 -28 35.2
      vertex 17.7621 -26.2879 35.0582
      vertex 17.68 -26.2879 35.2
    endloop
  endfacet
  facet normal 0.865429 -1.23275e-05 0.501032
    outer loop
      vertex 18.64 -28 33.5418
      vertex 18.4642 -26.2879 33.8455
      vertex 17.68 -28 35.2
    endloop
  endfacet
  facet normal 0.865459 0 0.50098
    outer loop
      vertex 18.4642 -26.2879 33.8455
      vertex 18.64 -28 33.5418
      vertex 18.64 -26.0348 33.5418
    endloop
  endfacet
  facet normal 0 0 1
    outer loop
      vertex 17.28 -26.2879 35.2
      vertex 17.68 -26.2879 35.2
      vertex 17.48 -26 35.2
    endloop
  endfacet
  facet normal 0 0 1
    outer loop
      vertex 17.68 -26.2879 35.2
      vertex 17.28 -26.2879 35.2
      vertex 17.68 -28 35.2
    endloop
  endfacet
  facet normal 0 0 1
    outer loop
      vertex 17.68 -28 35.2
      vertex 17.28 -26.2879 35.2
      vertex 17.28 -28 35.2
    endloop
  endfacet
  facet normal -0.865387 0 0.501104
    outer loop
      vertex 16.32 -28 33.5418
      vertex 16.4958 -26.2879 33.8454
      vertex 16.32 -26.0348 33.5418
    endloop
  endfacet
  facet normal -0.865442 2.25928e-05 0.501008
    outer loop
      vertex 16.32 -28 33.5418
      vertex 16.7779 -26.2879 34.3327
      vertex 16.4958 -26.2879 33.8454
    endloop
  endfacet
  facet normal -0.865429 7.85865e-06 0.501032
    outer loop
      vertex 17.28 -28 35.2
      vertex 16.7779 -26.2879 34.3327
      vertex 16.32 -28 33.5418
    endloop
  endfacet
  facet normal -0.865435 0 0.501021
    outer loop
      vertex 16.7779 -26.2879 34.3327
      vertex 17.28 -28 35.2
      vertex 17.28 -26.2879 35.2
    endloop
  endfacet
  facet normal 0.865412 0 0.50106
    outer loop
      vertex 15.36 -26.2879 35.2
      vertex 15.36 -28 35.2
      vertex 15.4421 -26.2879 35.0582
    endloop
  endfacet
  facet normal 0.865441 -5.45997e-06 0.501011
    outer loop
      vertex 15.36 -28 35.2
      vertex 16.1442 -26.2879 33.8454
      vertex 15.4421 -26.2879 35.0582
    endloop
  endfacet
  facet normal 0.865429 1.69366e-05 0.501032
    outer loop
      vertex 16.32 -28 33.5418
      vertex 16.1442 -26.2879 33.8454
      vertex 15.36 -28 35.2
    endloop
  endfacet
  facet normal 0.865387 0 0.501104
    outer loop
      vertex 16.1442 -26.2879 33.8454
      vertex 16.32 -28 33.5418
      vertex 16.32 -26.0348 33.5418
    endloop
  endfacet
  facet normal 0 0 1
    outer loop
      vertex 14.96 -26.2879 35.2
      vertex 15.36 -26.2879 35.2
      vertex 15.16 -26 35.2
    endloop
  endfacet
  facet normal 0 0 1
    outer loop
      vertex 15.36 -26.2879 35.2
      vertex 14.96 -26.2879 35.2
      vertex 15.36 -28 35.2
    endloop
  endfacet
  facet normal 0 0 1
    outer loop
      vertex 15.36 -28 35.2
      vertex 14.96 -26.2879 35.2
      vertex 14.96 -28 35.2
    endloop
  endfacet
  facet normal -0.865387 0 0.501104
    outer loop
      vertex 14 -28 33.5418
      vertex 14.1758 -26.2879 33.8454
      vertex 14 -26.0349 33.5418
    endloop
  endfacet
  facet normal -0.865442 2.25928e-05 0.501008
    outer loop
      vertex 14 -28 33.5418
      vertex 14.4579 -26.2879 34.3327
      vertex 14.1758 -26.2879 33.8454
    endloop
  endfacet
  facet normal -0.865429 7.85865e-06 0.501032
    outer loop
      vertex 14.96 -28 35.2
      vertex 14.4579 -26.2879 34.3327
      vertex 14 -28 33.5418
    endloop
  endfacet
  facet normal -0.865435 0 0.501021
    outer loop
      vertex 14.4579 -26.2879 34.3327
      vertex 14.96 -28 35.2
      vertex 14.96 -26.2879 35.2
    endloop
  endfacet
  facet normal 0.865412 0 0.50106
    outer loop
      vertex 13.04 -26.2879 35.2
      vertex 13.04 -28 35.2
      vertex 13.1221 -26.2879 35.0582
    endloop
  endfacet
  facet normal 0.865441 -5.45997e-06 0.501011
    outer loop
      vertex 13.04 -28 35.2
      vertex 13.8242 -26.2879 33.8454
      vertex 13.1221 -26.2879 35.0582
    endloop
  endfacet
  facet normal 0.865429 1.69366e-05 0.501032
    outer loop
      vertex 14 -28 33.5418
      vertex 13.8242 -26.2879 33.8454
      vertex 13.04 -28 35.2
    endloop
  endfacet
  facet normal 0.865387 0 0.501104
    outer loop
      vertex 13.8242 -26.2879 33.8454
      vertex 14 -28 33.5418
      vertex 14 -26.0349 33.5418
    endloop
  endfacet
  facet normal 0 0 1
    outer loop
      vertex 12.64 -26.2879 35.2
      vertex 13.04 -26.2879 35.2
      vertex 12.84 -26 35.2
    endloop
  endfacet
  facet normal 0 0 1
    outer loop
      vertex 13.04 -26.2879 35.2
      vertex 12.64 -26.2879 35.2
      vertex 13.04 -28 35.2
    endloop
  endfacet
  facet normal 0 0 1
    outer loop
      vertex 13.04 -28 35.2
      vertex 12.64 -26.2879 35.2
      vertex 12.64 -28 35.2
    endloop
  endfacet
  facet normal -0.865387 0 0.501104
    outer loop
      vertex 11.68 -28 33.5418
      vertex 11.8558 -26.2879 33.8454
      vertex 11.68 -26.0348 33.5418
    endloop
  endfacet
  facet normal -0.865442 2.25928e-05 0.501008
    outer loop
      vertex 11.68 -28 33.5418
      vertex 12.1379 -26.2879 34.3327
      vertex 11.8558 -26.2879 33.8454
    endloop
  endfacet
  facet normal -0.865429 7.85865e-06 0.501032
    outer loop
      vertex 12.64 -28 35.2
      vertex 12.1379 -26.2879 34.3327
      vertex 11.68 -28 33.5418
    endloop
  endfacet
  facet normal -0.865435 0 0.501021
    outer loop
      vertex 12.1379 -26.2879 34.3327
      vertex 12.64 -28 35.2
      vertex 12.64 -26.2879 35.2
    endloop
  endfacet
  facet normal 0.865412 0 0.50106
    outer loop
      vertex 10.72 -26.2879 35.2
      vertex 10.72 -28 35.2
      vertex 10.8021 -26.2879 35.0582
    endloop
  endfacet
  facet normal 0.865441 -5.45997e-06 0.501011
    outer loop
      vertex 10.72 -28 35.2
      vertex 11.5042 -26.2879 33.8454
      vertex 10.8021 -26.2879 35.0582
    endloop
  endfacet
  facet normal 0.865429 1.69366e-05 0.501032
    outer loop
      vertex 11.68 -28 33.5418
      vertex 11.5042 -26.2879 33.8454
      vertex 10.72 -28 35.2
    endloop
  endfacet
  facet normal 0.865387 0 0.501104
    outer loop
      vertex 11.5042 -26.2879 33.8454
      vertex 11.68 -28 33.5418
      vertex 11.68 -26.0348 33.5418
    endloop
  endfacet
  facet normal 0 0 1
    outer loop
      vertex 10.32 -26.2879 35.2
      vertex 10.72 -26.2879 35.2
      vertex 10.52 -26 35.2
    endloop
  endfacet
  facet normal 0 0 1
    outer loop
      vertex 10.72 -26.2879 35.2
      vertex 10.32 -26.2879 35.2
      vertex 10.72 -28 35.2
    endloop
  endfacet
  facet normal 0 0 1
    outer loop
      vertex 10.72 -28 35.2
      vertex 10.32 -26.2879 35.2
      vertex 10.32 -28 35.2
    endloop
  endfacet
  facet normal -0.865459 0 0.50098
    outer loop
      vertex 9.36 -26.0348 33.5418
      vertex 9.36 -28 33.5418
      vertex 9.5358 -26.2879 33.8455
    endloop
  endfacet
  facet normal -0.865406 -2.17592e-05 0.501072
    outer loop
      vertex 9.36 -28 33.5418
      vertex 9.81789 -26.2879 34.3327
      vertex 9.5358 -26.2879 33.8455
    endloop
  endfacet
  facet normal -0.865429 2.80387e-06 0.501032
    outer loop
      vertex 10.32 -28 35.2
      vertex 9.81789 -26.2879 34.3327
      vertex 9.36 -28 33.5418
    endloop
  endfacet
  facet normal -0.865431 0 0.501028
    outer loop
      vertex 9.81789 -26.2879 34.3327
      vertex 10.32 -28 35.2
      vertex 10.32 -26.2879 35.2
    endloop
  endfacet
  facet normal 0.865439 0 0.501015
    outer loop
      vertex 8.40001 -26.2879 35.2
      vertex 8.40001 -28 35.2
      vertex 8.4821 -26.2879 35.0582
    endloop
  endfacet
  facet normal 0.865435 7.76894e-07 0.501022
    outer loop
      vertex 8.40001 -28 35.2
      vertex 9.18422 -26.2879 33.8454
      vertex 8.4821 -26.2879 35.0582
    endloop
  endfacet
  facet normal 0.865431 7.75259e-06 0.501028
    outer loop
      vertex 9.36 -28 33.5418
      vertex 9.18422 -26.2879 33.8454
      vertex 8.40001 -28 35.2
    endloop
  endfacet
  facet normal 0.865412 0 0.501061
    outer loop
      vertex 9.18422 -26.2879 33.8454
      vertex 9.36 -28 33.5418
      vertex 9.36 -26.0348 33.5418
    endloop
  endfacet
  facet normal 0 0 1
    outer loop
      vertex 8.00002 -26.2879 35.2
      vertex 8.40001 -26.2879 35.2
      vertex 8.20001 -26 35.2
    endloop
  endfacet
  facet normal 0 0 1
    outer loop
      vertex 8.40001 -26.2879 35.2
      vertex 8.00002 -26.2879 35.2
      vertex 8.40001 -28 35.2
    endloop
  endfacet
  facet normal 0 0 1
    outer loop
      vertex 8.40001 -28 35.2
      vertex 8.00002 -26.2879 35.2
      vertex 8.00002 -28 35.2
    endloop
  endfacet
  facet normal -0.865413 -1.9339e-05 0.501059
    outer loop
      vertex 7.01581 -28 33.5
      vertex 7.49789 -26.2879 34.3327
      vertex 7.21581 -26.2879 33.8455
    endloop
  endfacet
  facet normal -0.865455 0 0.500987
    outer loop
      vertex 7.01581 -28 33.5
      vertex 7.21581 -26.2879 33.8455
      vertex 7.01581 -26 33.5
    endloop
  endfacet
  facet normal -0.865426 -4.65841e-06 0.501036
    outer loop
      vertex 7.49789 -26.2879 34.3327
      vertex 7.01581 -28 33.5
      vertex 8.00002 -28 35.2
    endloop
  endfacet
  facet normal -0.865422 0 0.501043
    outer loop
      vertex 7.49789 -26.2879 34.3327
      vertex 8.00002 -28 35.2
      vertex 8.00002 -26.2879 35.2
    endloop
  endfacet
  facet normal -0 0 1
    outer loop
      vertex 7 -26 33.5
      vertex 7.01581 -28 33.5
      vertex 7.01581 -26 33.5
    endloop
  endfacet
  facet normal 0 0 1
    outer loop
      vertex 7.01581 -28 33.5
      vertex 7 -26 33.5
      vertex 7 -28 33.5
    endloop
  endfacet
  facet normal -0 0 1
    outer loop
      vertex 20.9842 -26 33.5
      vertex 21 -28 33.5
      vertex 21 -26 33.5
    endloop
  endfacet
  facet normal 0 0 1
    outer loop
      vertex 21 -28 33.5
      vertex 20.9842 -26 33.5
      vertex 20.9842 -28 33.5
    endloop
  endfacet
  facet normal -0 0.768221 0.640184
    outer loop
      vertex 20.7842 -25.6 33.02
      vertex 20.9842 -26 33.5
      vertex 21 -25.6 33.02
    endloop
  endfacet
  facet normal 3.72249e-05 0.768229 0.640175
    outer loop
      vertex 20.9842 -26 33.5
      vertex 20.7842 -25.6 33.02
      vertex 20.7842 -26.2879 33.8455
    endloop
  endfacet
  facet normal 0 0.768221 0.640184
    outer loop
      vertex 21 -26 33.5
      vertex 21 -25.6 33.02
      vertex 20.9842 -26 33.5
    endloop
  endfacet
  facet normal 0.74169 0.515273 0.429406
    outer loop
      vertex 20.7842 -26.2879 33.8455
      vertex 19.8 -25.6 34.72
      vertex 20.0821 -26.2879 35.0582
    endloop
  endfacet
  facet normal 0.741689 0.515285 0.429394
    outer loop
      vertex 19.8 -25.6 34.72
      vertex 20.7842 -26.2879 33.8455
      vertex 20.7842 -25.6 33.02
    endloop
  endfacet
  facet normal 0.741695 0.515245 0.42943
    outer loop
      vertex 20.0821 -26.2879 35.0582
      vertex 19.8 -26 35.2
      vertex 20 -26.2879 35.2
    endloop
  endfacet
  facet normal 0.741701 0.51527 0.429391
    outer loop
      vertex 19.8 -26 35.2
      vertex 20.0821 -26.2879 35.0582
      vertex 19.8 -25.6 34.72
    endloop
  endfacet
  facet normal -0.741705 0.515254 0.429404
    outer loop
      vertex 19.0979 -26.2879 34.3327
      vertex 19.8 -25.6 34.72
      vertex 18.8158 -25.6 33.02
    endloop
  endfacet
  facet normal -0.741707 0.515265 0.429387
    outer loop
      vertex 19.8 -25.6 34.72
      vertex 19.0979 -26.2879 34.3327
      vertex 19.8 -26 35.2
    endloop
  endfacet
  facet normal -0.74171 0.515255 0.429393
    outer loop
      vertex 19.8 -26 35.2
      vertex 19.0979 -26.2879 34.3327
      vertex 19.6 -26.2879 35.2
    endloop
  endfacet
  facet normal -0.741734 0.515221 0.429393
    outer loop
      vertex 19.0979 -26.2879 34.3327
      vertex 18.8158 -25.6 33.02
      vertex 18.8158 -26.2879 33.8454
    endloop
  endfacet
  facet normal -0 0.768245 0.640155
    outer loop
      vertex 18.4642 -25.6 33.02
      vertex 18.64 -26.0348 33.5418
      vertex 18.8158 -25.6 33.02
    endloop
  endfacet
  facet normal -9.96264e-05 0.768229 0.640175
    outer loop
      vertex 18.64 -26.0348 33.5418
      vertex 18.4642 -25.6 33.02
      vertex 18.4642 -26.2879 33.8455
    endloop
  endfacet
  facet normal 0.000329818 0.768191 0.640221
    outer loop
      vertex 18.8158 -26.2879 33.8454
      vertex 18.8158 -25.6 33.02
      vertex 18.64 -26.0348 33.5418
    endloop
  endfacet
  facet normal 0.74169 0.515273 0.429406
    outer loop
      vertex 18.4642 -26.2879 33.8455
      vertex 17.48 -25.6 34.72
      vertex 17.7621 -26.2879 35.0582
    endloop
  endfacet
  facet normal 0.741689 0.515285 0.429394
    outer loop
      vertex 17.48 -25.6 34.72
      vertex 18.4642 -26.2879 33.8455
      vertex 18.4642 -25.6 33.02
    endloop
  endfacet
  facet normal 0.741695 0.515245 0.42943
    outer loop
      vertex 17.7621 -26.2879 35.0582
      vertex 17.48 -26 35.2
      vertex 17.68 -26.2879 35.2
    endloop
  endfacet
  facet normal 0.741701 0.51527 0.429391
    outer loop
      vertex 17.48 -26 35.2
      vertex 17.7621 -26.2879 35.0582
      vertex 17.48 -25.6 34.72
    endloop
  endfacet
  facet normal -0.741705 0.515254 0.429404
    outer loop
      vertex 16.7779 -26.2879 34.3327
      vertex 17.48 -25.6 34.72
      vertex 16.4958 -25.6 33.02
    endloop
  endfacet
  facet normal -0.741707 0.515265 0.429387
    outer loop
      vertex 17.48 -25.6 34.72
      vertex 16.7779 -26.2879 34.3327
      vertex 17.48 -26 35.2
    endloop
  endfacet
  facet normal -0.74171 0.515255 0.429393
    outer loop
      vertex 17.48 -26 35.2
      vertex 16.7779 -26.2879 34.3327
      vertex 17.28 -26.2879 35.2
    endloop
  endfacet
  facet normal -0.741734 0.515221 0.429393
    outer loop
      vertex 16.7779 -26.2879 34.3327
      vertex 16.4958 -25.6 33.02
      vertex 16.4958 -26.2879 33.8454
    endloop
  endfacet
  facet normal -0 0.768245 0.640155
    outer loop
      vertex 16.1442 -25.6 33.02
      vertex 16.32 -26.0348 33.5418
      vertex 16.4958 -25.6 33.02
    endloop
  endfacet
  facet normal -0.000329818 0.768191 0.640221
    outer loop
      vertex 16.32 -26.0348 33.5418
      vertex 16.1442 -25.6 33.02
      vertex 16.1442 -26.2879 33.8454
    endloop
  endfacet
  facet normal 0.000329818 0.768191 0.640221
    outer loop
      vertex 16.4958 -26.2879 33.8454
      vertex 16.4958 -25.6 33.02
      vertex 16.32 -26.0348 33.5418
    endloop
  endfacet
  facet normal 0.741712 0.515239 0.429408
    outer loop
      vertex 15.16 -25.6 34.72
      vertex 16.1442 -26.2879 33.8454
      vertex 16.1442 -25.6 33.02
    endloop
  endfacet
  facet normal 0.741708 0.515268 0.429381
    outer loop
      vertex 16.1442 -26.2879 33.8454
      vertex 15.16 -25.6 34.72
      vertex 15.4421 -26.2879 35.0582
    endloop
  endfacet
  facet normal 0.741695 0.515245 0.42943
    outer loop
      vertex 15.4421 -26.2879 35.0582
      vertex 15.16 -26 35.2
      vertex 15.36 -26.2879 35.2
    endloop
  endfacet
  facet normal 0.741701 0.51527 0.429391
    outer loop
      vertex 15.16 -26 35.2
      vertex 15.4421 -26.2879 35.0582
      vertex 15.16 -25.6 34.72
    endloop
  endfacet
  facet normal -0.741705 0.515254 0.429404
    outer loop
      vertex 14.4579 -26.2879 34.3327
      vertex 15.16 -25.6 34.72
      vertex 14.1758 -25.6 33.02
    endloop
  endfacet
  facet normal -0.741707 0.515265 0.429387
    outer loop
      vertex 15.16 -25.6 34.72
      vertex 14.4579 -26.2879 34.3327
      vertex 15.16 -26 35.2
    endloop
  endfacet
  facet normal -0.74171 0.515255 0.429393
    outer loop
      vertex 15.16 -26 35.2
      vertex 14.4579 -26.2879 34.3327
      vertex 14.96 -26.2879 35.2
    endloop
  endfacet
  facet normal -0.741734 0.515221 0.429393
    outer loop
      vertex 14.4579 -26.2879 34.3327
      vertex 14.1758 -25.6 33.02
      vertex 14.1758 -26.2879 33.8454
    endloop
  endfacet
  facet normal -0 0.768173 0.640242
    outer loop
      vertex 13.8242 -25.6 33.02
      vertex 14 -26.0349 33.5418
      vertex 14.1758 -25.6 33.02
    endloop
  endfacet
  facet normal 0.000107151 0.768191 0.640221
    outer loop
      vertex 14 -26.0349 33.5418
      vertex 13.8242 -25.6 33.02
      vertex 13.8242 -26.2879 33.8454
    endloop
  endfacet
  facet normal -0.000107151 0.768191 0.640221
    outer loop
      vertex 14.1758 -26.2879 33.8454
      vertex 14.1758 -25.6 33.02
      vertex 14 -26.0349 33.5418
    endloop
  endfacet
  facet normal 0.741712 0.515239 0.429408
    outer loop
      vertex 12.84 -25.6 34.72
      vertex 13.8242 -26.2879 33.8454
      vertex 13.8242 -25.6 33.02
    endloop
  endfacet
  facet normal 0.741708 0.515268 0.429381
    outer loop
      vertex 13.8242 -26.2879 33.8454
      vertex 12.84 -25.6 34.72
      vertex 13.1221 -26.2879 35.0582
    endloop
  endfacet
  facet normal 0.741695 0.515245 0.42943
    outer loop
      vertex 13.1221 -26.2879 35.0582
      vertex 12.84 -26 35.2
      vertex 13.04 -26.2879 35.2
    endloop
  endfacet
  facet normal 0.741701 0.51527 0.429391
    outer loop
      vertex 12.84 -26 35.2
      vertex 13.1221 -26.2879 35.0582
      vertex 12.84 -25.6 34.72
    endloop
  endfacet
  facet normal -0.741705 0.515254 0.429404
    outer loop
      vertex 12.1379 -26.2879 34.3327
      vertex 12.84 -25.6 34.72
      vertex 11.8558 -25.6 33.02
    endloop
  endfacet
  facet normal -0.741707 0.515265 0.429387
    outer loop
      vertex 12.84 -25.6 34.72
      vertex 12.1379 -26.2879 34.3327
      vertex 12.84 -26 35.2
    endloop
  endfacet
  facet normal -0.74171 0.515255 0.429393
    outer loop
      vertex 12.84 -26 35.2
      vertex 12.1379 -26.2879 34.3327
      vertex 12.64 -26.2879 35.2
    endloop
  endfacet
  facet normal -0.741734 0.515221 0.429393
    outer loop
      vertex 12.1379 -26.2879 34.3327
      vertex 11.8558 -25.6 33.02
      vertex 11.8558 -26.2879 33.8454
    endloop
  endfacet
  facet normal -0 0.768245 0.640155
    outer loop
      vertex 11.5042 -25.6 33.02
      vertex 11.68 -26.0348 33.5418
      vertex 11.8558 -25.6 33.02
    endloop
  endfacet
  facet normal -0.000329818 0.768191 0.640221
    outer loop
      vertex 11.68 -26.0348 33.5418
      vertex 11.5042 -25.6 33.02
      vertex 11.5042 -26.2879 33.8454
    endloop
  endfacet
  facet normal 0.000329818 0.768191 0.640221
    outer loop
      vertex 11.8558 -26.2879 33.8454
      vertex 11.8558 -25.6 33.02
      vertex 11.68 -26.0348 33.5418
    endloop
  endfacet
  facet normal 0.741712 0.515239 0.429408
    outer loop
      vertex 10.52 -25.6 34.72
      vertex 11.5042 -26.2879 33.8454
      vertex 11.5042 -25.6 33.02
    endloop
  endfacet
  facet normal 0.741708 0.515268 0.429381
    outer loop
      vertex 11.5042 -26.2879 33.8454
      vertex 10.52 -25.6 34.72
      vertex 10.8021 -26.2879 35.0582
    endloop
  endfacet
  facet normal 0.741695 0.515245 0.42943
    outer loop
      vertex 10.8021 -26.2879 35.0582
      vertex 10.52 -26 35.2
      vertex 10.72 -26.2879 35.2
    endloop
  endfacet
  facet normal 0.741701 0.51527 0.429391
    outer loop
      vertex 10.52 -26 35.2
      vertex 10.8021 -26.2879 35.0582
      vertex 10.52 -25.6 34.72
    endloop
  endfacet
  facet normal -0.741701 0.515262 0.429401
    outer loop
      vertex 9.81789 -26.2879 34.3327
      vertex 10.52 -25.6 34.72
      vertex 9.5358 -25.6 33.02
    endloop
  endfacet
  facet normal -0.741702 0.515269 0.429391
    outer loop
      vertex 10.52 -25.6 34.72
      vertex 9.81789 -26.2879 34.3327
      vertex 10.52 -26 35.2
    endloop
  endfacet
  facet normal -0.741707 0.515253 0.4294
    outer loop
      vertex 10.52 -26 35.2
      vertex 9.81789 -26.2879 34.3327
      vertex 10.32 -26.2879 35.2
    endloop
  endfacet
  facet normal -0.741653 0.515315 0.429419
    outer loop
      vertex 9.81789 -26.2879 34.3327
      vertex 9.5358 -25.6 33.02
      vertex 9.5358 -26.2879 33.8455
    endloop
  endfacet
  facet normal -0 0.768245 0.640155
    outer loop
      vertex 9.18422 -25.6 33.02
      vertex 9.36 -26.0348 33.5418
      vertex 9.5358 -25.6 33.02
    endloop
  endfacet
  facet normal -0.000329855 0.768191 0.640221
    outer loop
      vertex 9.36 -26.0348 33.5418
      vertex 9.18422 -25.6 33.02
      vertex 9.18422 -26.2879 33.8454
    endloop
  endfacet
  facet normal 9.96264e-05 0.768229 0.640175
    outer loop
      vertex 9.5358 -26.2879 33.8455
      vertex 9.5358 -25.6 33.02
      vertex 9.36 -26.0348 33.5418
    endloop
  endfacet
  facet normal 0.741709 0.515242 0.42941
    outer loop
      vertex 8.20001 -25.6 34.72
      vertex 9.18422 -26.2879 33.8454
      vertex 9.18422 -25.6 33.02
    endloop
  endfacet
  facet normal 0.741706 0.515261 0.429392
    outer loop
      vertex 9.18422 -26.2879 33.8454
      vertex 8.20001 -25.6 34.72
      vertex 8.4821 -26.2879 35.0582
    endloop
  endfacet
  facet normal 0.741712 0.515257 0.429387
    outer loop
      vertex 8.4821 -26.2879 35.0582
      vertex 8.20001 -26 35.2
      vertex 8.40001 -26.2879 35.2
    endloop
  endfacet
  facet normal 0.741713 0.51526 0.429383
    outer loop
      vertex 8.20001 -26 35.2
      vertex 8.4821 -26.2879 35.0582
      vertex 8.20001 -25.6 34.72
    endloop
  endfacet
  facet normal -0.741697 0.51527 0.429399
    outer loop
      vertex 7.49789 -26.2879 34.3327
      vertex 8.20001 -25.6 34.72
      vertex 7.21581 -25.6 33.02
    endloop
  endfacet
  facet normal -0.741697 0.515273 0.429394
    outer loop
      vertex 8.20001 -25.6 34.72
      vertex 7.49789 -26.2879 34.3327
      vertex 8.20001 -26 35.2
    endloop
  endfacet
  facet normal -0.741712 0.515231 0.42942
    outer loop
      vertex 8.20001 -26 35.2
      vertex 7.49789 -26.2879 34.3327
      vertex 8.00002 -26.2879 35.2
    endloop
  endfacet
  facet normal -0.741665 0.515305 0.429411
    outer loop
      vertex 7.49789 -26.2879 34.3327
      vertex 7.21581 -25.6 33.02
      vertex 7.21581 -26.2879 33.8455
    endloop
  endfacet
  facet normal -3.72249e-05 0.768229 0.640175
    outer loop
      vertex 7.21581 -25.6 33.02
      vertex 7.01581 -26 33.5
      vertex 7.21581 -26.2879 33.8455
    endloop
  endfacet
  facet normal -0 0.768221 0.640184
    outer loop
      vertex 7 -25.6 33.02
      vertex 7.01581 -26 33.5
      vertex 7.21581 -25.6 33.02
    endloop
  endfacet
  facet normal 0 0.768221 0.640184
    outer loop
      vertex 7.01581 -26 33.5
      vertex 7 -25.6 33.02
      vertex 7 -26 33.5
    endloop
  endfacet
  facet normal -1 0 0
    outer loop
      vertex 7 -28 30.6
      vertex 7 -25.6 33.02
      vertex 7 -25.6 27.72
    endloop
  endfacet
  facet normal -1 0 0
    outer loop
      vertex 7 -28 33.5
      vertex 7 -25.6 33.02
      vertex 7 -28 30.6
    endloop
  endfacet
  facet normal -1 0 0
    outer loop
      vertex 7 -25.6 33.02
      vertex 7 -28 33.5
      vertex 7 -26 33.5
    endloop
  endfacet
  facet normal 0 -0.768221 -0.640184
    outer loop
      vertex 7 -25.6 27.72
      vertex 21 -28 30.6
      vertex 7 -28 30.6
    endloop
  endfacet
  facet normal 0 -0.768221 -0.640184
    outer loop
      vertex 21 -28 30.6
      vertex 7 -25.6 27.72
      vertex 21 -25.6 27.72
    endloop
  endfacet
  facet normal 1 -0 0
    outer loop
      vertex 21 -28 33.5
      vertex 21 -25.6 33.02
      vertex 21 -26 33.5
    endloop
  endfacet
  facet normal 1 0 0
    outer loop
      vertex 21 -25.6 33.02
      vertex 21 -28 33.5
      vertex 21 -28 30.6
    endloop
  endfacet
  facet normal 1 0 0
    outer loop
      vertex 21 -25.6 33.02
      vertex 21 -28 30.6
      vertex 21 -25.6 27.72
    endloop
  endfacet
  facet normal 0 1 -0
    outer loop
      vertex 14.2536 -26.6 19.195
      vertex 14.2 -26.6 19.8
      vertex 14.6067 -26.6 19.768
    endloop
  endfacet
  facet normal -0 1 0
    outer loop
      vertex 14 -26.6 19.22
      vertex 14.2 -26.6 19.8
      vertex 14.2536 -26.6 19.195
    endloop
  endfacet
  facet normal 0 1 0
    outer loop
      vertex 14.4975 -26.6 19.121
      vertex 14.6067 -26.6 19.768
      vertex 15.0034 -26.6 19.6727
    endloop
  endfacet
  facet normal 0 1 0
    outer loop
      vertex 14.2 -26.6 19.8
      vertex 14 -26.6 19.22
      vertex 13.8 -26.6 19.8
    endloop
  endfacet
  facet normal 0 1 0
    outer loop
      vertex 14.7222 -26.6 19.0009
      vertex 15.0034 -26.6 19.6727
      vertex 15.3804 -26.6 19.5166
    endloop
  endfacet
  facet normal 0 1 0
    outer loop
      vertex 13.8 -26.6 19.8
      vertex 13.7464 -26.6 19.195
      vertex 13.3933 -26.6 19.768
    endloop
  endfacet
  facet normal 0 1 0
    outer loop
      vertex 14.9192 -26.6 18.8392
      vertex 15.3804 -26.6 19.5166
      vertex 15.7282 -26.6 19.3034
    endloop
  endfacet
  facet normal 0 1 -0
    outer loop
      vertex 13.5025 -26.6 19.121
      vertex 13.3933 -26.6 19.768
      vertex 13.7464 -26.6 19.195
    endloop
  endfacet
  facet normal 0 1 0
    outer loop
      vertex 13.3933 -26.6 19.768
      vertex 13.5025 -26.6 19.121
      vertex 12.9966 -26.6 19.6727
    endloop
  endfacet
  facet normal 0 1 0
    outer loop
      vertex 13.7464 -26.6 19.195
      vertex 13.8 -26.6 19.8
      vertex 14 -26.6 19.22
    endloop
  endfacet
  facet normal 0 1 0
    outer loop
      vertex 14.6067 -26.6 19.768
      vertex 14.4975 -26.6 19.121
      vertex 14.2536 -26.6 19.195
    endloop
  endfacet
  facet normal 0 1 0
    outer loop
      vertex 15.0809 -26.6 18.6422
      vertex 15.7282 -26.6 19.3034
      vertex 16.0385 -26.6 19.0385
    endloop
  endfacet
  facet normal 0 1 0
    outer loop
      vertex 15.0034 -26.6 19.6727
      vertex 14.7222 -26.6 19.0009
      vertex 14.4975 -26.6 19.121
    endloop
  endfacet
  facet normal 0 1 0
    outer loop
      vertex 15.3804 -26.6 19.5166
      vertex 14.9192 -26.6 18.8392
      vertex 14.7222 -26.6 19.0009
    endloop
  endfacet
  facet normal 0 1 0
    outer loop
      vertex 15.201 -26.6 18.4175
      vertex 16.0385 -26.6 19.0385
      vertex 16.3034 -26.6 18.7282
    endloop
  endfacet
  facet normal 0 1 0
    outer loop
      vertex 15.7282 -26.6 19.3034
      vertex 15.0809 -26.6 18.6422
      vertex 14.9192 -26.6 18.8392
    endloop
  endfacet
  facet normal 0 1 0
    outer loop
      vertex 16.0385 -26.6 19.0385
      vertex 15.201 -26.6 18.4175
      vertex 15.0809 -26.6 18.6422
    endloop
  endfacet
  facet normal 0 1 0
    outer loop
      vertex 15.275 -26.6 18.1736
      vertex 16.3034 -26.6 18.7282
      vertex 16.5166 -26.6 18.3804
    endloop
  endfacet
  facet normal 0 1 0
    outer loop
      vertex 16.5822 -26.6 18.146
      vertex 16.5166 -26.6 18.3804
      vertex 16.5748 -26.6 18.2398
    endloop
  endfacet
  facet normal 0 1 0
    outer loop
      vertex 16.3034 -26.6 18.7282
      vertex 15.275 -26.6 18.1736
      vertex 15.201 -26.6 18.4175
    endloop
  endfacet
  facet normal 0 1 0
    outer loop
      vertex 16.5166 -26.6 18.3804
      vertex 16.5822 -26.6 18.146
      vertex 15.2861 -26.6 18.0609
    endloop
  endfacet
  facet normal 0 1 0
    outer loop
      vertex 16.5166 -26.6 18.3804
      vertex 15.2861 -26.6 18.0609
      vertex 15.275 -26.6 18.1736
    endloop
  endfacet
  facet normal 0 1 0
    outer loop
      vertex 15.3 -26.6 17.92
      vertex 16.5822 -26.6 18.146
      vertex 16.6 -26.6 17.92
    endloop
  endfacet
  facet normal 0 1 0
    outer loop
      vertex 16.5822 -26.6 18.146
      vertex 15.3 -26.6 17.92
      vertex 15.2861 -26.6 18.0609
    endloop
  endfacet
  facet normal 0 1 -0
    outer loop
      vertex 16.568 -26.6 17.5133
      vertex 15.3 -26.6 17.92
      vertex 16.6 -26.6 17.92
    endloop
  endfacet
  facet normal 0 1 0
    outer loop
      vertex 15.3 -26.6 17.92
      vertex 16.568 -26.6 17.5133
      vertex 15.275 -26.6 17.6664
    endloop
  endfacet
  facet normal 0 1 -0
    outer loop
      vertex 16.4727 -26.6 17.1166
      vertex 15.275 -26.6 17.6664
      vertex 16.568 -26.6 17.5133
    endloop
  endfacet
  facet normal 0 1 0
    outer loop
      vertex 15.275 -26.6 17.6664
      vertex 16.4727 -26.6 17.1166
      vertex 15.201 -26.6 17.4225
    endloop
  endfacet
  facet normal 0 1 -0
    outer loop
      vertex 16.3166 -26.6 16.7396
      vertex 15.201 -26.6 17.4225
      vertex 16.4727 -26.6 17.1166
    endloop
  endfacet
  facet normal 0 1 0
    outer loop
      vertex 15.201 -26.6 17.4225
      vertex 16.3166 -26.6 16.7396
      vertex 15.0809 -26.6 17.1978
    endloop
  endfacet
  facet normal 0 1 -0
    outer loop
      vertex 16.1034 -26.6 16.3918
      vertex 15.0809 -26.6 17.1978
      vertex 16.3166 -26.6 16.7396
    endloop
  endfacet
  facet normal 0 1 0
    outer loop
      vertex 15.0809 -26.6 17.1978
      vertex 16.1034 -26.6 16.3918
      vertex 14.9192 -26.6 17.0008
    endloop
  endfacet
  facet normal 0 1 -0
    outer loop
      vertex 15.8385 -26.6 16.0815
      vertex 14.9192 -26.6 17.0008
      vertex 16.1034 -26.6 16.3918
    endloop
  endfacet
  facet normal 0 1 -0
    outer loop
      vertex 15.7006 -26.6 15.9638
      vertex 14.9192 -26.6 17.0008
      vertex 15.8385 -26.6 16.0815
    endloop
  endfacet
  facet normal 0 1 0
    outer loop
      vertex 14.9192 -26.6 17.0008
      vertex 15.7006 -26.6 15.9638
      vertex 14.7222 -26.6 16.8391
    endloop
  endfacet
  facet normal 0 1 -0
    outer loop
      vertex 15.5282 -26.6 15.8166
      vertex 14.7222 -26.6 16.8391
      vertex 15.7006 -26.6 15.9638
    endloop
  endfacet
  facet normal 0 1 -0
    outer loop
      vertex 13.2778 -26.6 19.0009
      vertex 12.9966 -26.6 19.6727
      vertex 13.5025 -26.6 19.121
    endloop
  endfacet
  facet normal 0 1 0
    outer loop
      vertex 12.9966 -26.6 19.6727
      vertex 13.2778 -26.6 19.0009
      vertex 12.6196 -26.6 19.5166
    endloop
  endfacet
  facet normal 0 1 -0
    outer loop
      vertex 13.0808 -26.6 18.8392
      vertex 12.6196 -26.6 19.5166
      vertex 13.2778 -26.6 19.0009
    endloop
  endfacet
  facet normal 0 1 0
    outer loop
      vertex 12.6196 -26.6 19.5166
      vertex 13.0808 -26.6 18.8392
      vertex 12.2718 -26.6 19.3034
    endloop
  endfacet
  facet normal 0 1 -0
    outer loop
      vertex 12.9191 -26.6 18.6422
      vertex 12.2718 -26.6 19.3034
      vertex 13.0808 -26.6 18.8392
    endloop
  endfacet
  facet normal 0 1 0
    outer loop
      vertex 12.2718 -26.6 19.3034
      vertex 12.9191 -26.6 18.6422
      vertex 11.9615 -26.6 19.0385
    endloop
  endfacet
  facet normal 0 1 -0
    outer loop
      vertex 12.799 -26.6 18.4175
      vertex 11.9615 -26.6 19.0385
      vertex 12.9191 -26.6 18.6422
    endloop
  endfacet
  facet normal 0 1 0
    outer loop
      vertex 11.9615 -26.6 19.0385
      vertex 12.799 -26.6 18.4175
      vertex 11.6966 -26.6 18.7282
    endloop
  endfacet
  facet normal 0 1 -0
    outer loop
      vertex 12.725 -26.6 18.1736
      vertex 11.6966 -26.6 18.7282
      vertex 12.799 -26.6 18.4175
    endloop
  endfacet
  facet normal 0 1 0
    outer loop
      vertex 11.6966 -26.6 18.7282
      vertex 12.725 -26.6 18.1736
      vertex 11.4834 -26.6 18.3804
    endloop
  endfacet
  facet normal 0 1 -0
    outer loop
      vertex 12.7111 -26.6 18.0327
      vertex 11.4834 -26.6 18.3804
      vertex 12.725 -26.6 18.1736
    endloop
  endfacet
  facet normal -0 1 0
    outer loop
      vertex 11.4142 -26.6 18.1008
      vertex 11.4834 -26.6 18.3804
      vertex 12.7111 -26.6 18.0327
    endloop
  endfacet
  facet normal 0 1 0
    outer loop
      vertex 11.4834 -26.6 18.3804
      vertex 11.4142 -26.6 18.1008
      vertex 11.4252 -26.6 18.2398
    endloop
  endfacet
  facet normal 0 1 -0
    outer loop
      vertex 12.7 -26.6 17.92
      vertex 11.4142 -26.6 18.1008
      vertex 12.7111 -26.6 18.0327
    endloop
  endfacet
  facet normal 0 1 0
    outer loop
      vertex 12.7 -26.6 17.92
      vertex 11.4 -26.6 17.92
      vertex 11.4142 -26.6 18.1008
    endloop
  endfacet
  facet normal 0 1 0
    outer loop
      vertex 11.432 -26.6 17.5133
      vertex 12.7 -26.6 17.92
      vertex 12.725 -26.6 17.6664
    endloop
  endfacet
  facet normal 0 1 0
    outer loop
      vertex 12.7 -26.6 17.92
      vertex 11.432 -26.6 17.5133
      vertex 11.4 -26.6 17.92
    endloop
  endfacet
  facet normal 0 1 0
    outer loop
      vertex 11.5273 -26.6 17.1166
      vertex 12.725 -26.6 17.6664
      vertex 12.799 -26.6 17.4225
    endloop
  endfacet
  facet normal 0 1 0
    outer loop
      vertex 11.6834 -26.6 16.7396
      vertex 12.799 -26.6 17.4225
      vertex 12.9191 -26.6 17.1978
    endloop
  endfacet
  facet normal 0 1 0
    outer loop
      vertex 12.725 -26.6 17.6664
      vertex 11.5273 -26.6 17.1166
      vertex 11.432 -26.6 17.5133
    endloop
  endfacet
  facet normal 0 1 0
    outer loop
      vertex 11.8966 -26.6 16.3918
      vertex 12.9191 -26.6 17.1978
      vertex 13.0808 -26.6 17.0008
    endloop
  endfacet
  facet normal 0 1 0
    outer loop
      vertex 12.3339 -26.6 15.9343
      vertex 13.0808 -26.6 17.0008
      vertex 13.2778 -26.6 16.8391
    endloop
  endfacet
  facet normal 0 1 0
    outer loop
      vertex 12.799 -26.6 17.4225
      vertex 11.6834 -26.6 16.7396
      vertex 11.5273 -26.6 17.1166
    endloop
  endfacet
  facet normal 0 1 0
    outer loop
      vertex 12.8196 -26.6 15.6034
      vertex 13.2778 -26.6 16.8391
      vertex 13.5025 -26.6 16.719
    endloop
  endfacet
  facet normal 0 1 0
    outer loop
      vertex 13.1966 -26.6 15.4473
      vertex 13.5025 -26.6 16.719
      vertex 13.7464 -26.6 16.645
    endloop
  endfacet
  facet normal 0 1 0
    outer loop
      vertex 13.5933 -26.6 15.352
      vertex 13.7464 -26.6 16.645
      vertex 14 -26.6 16.62
    endloop
  endfacet
  facet normal 0 1 -0
    outer loop
      vertex 15.1804 -26.6 15.6034
      vertex 14.7222 -26.6 16.8391
      vertex 15.5282 -26.6 15.8166
    endloop
  endfacet
  facet normal 0 1 -0
    outer loop
      vertex 14.8034 -26.6 15.4473
      vertex 14.4975 -26.6 16.719
      vertex 15.1804 -26.6 15.6034
    endloop
  endfacet
  facet normal 0 1 0
    outer loop
      vertex 14.7222 -26.6 16.8391
      vertex 15.1804 -26.6 15.6034
      vertex 14.4975 -26.6 16.719
    endloop
  endfacet
  facet normal 0 1 0
    outer loop
      vertex 13.0808 -26.6 17.0008
      vertex 12.3339 -26.6 15.9343
      vertex 12.1615 -26.6 16.0815
    endloop
  endfacet
  facet normal 0 1 0
    outer loop
      vertex 12.9191 -26.6 17.1978
      vertex 11.8966 -26.6 16.3918
      vertex 11.6834 -26.6 16.7396
    endloop
  endfacet
  facet normal 0 1 0
    outer loop
      vertex 13.0808 -26.6 17.0008
      vertex 12.1615 -26.6 16.0815
      vertex 11.8966 -26.6 16.3918
    endloop
  endfacet
  facet normal 0 1 0
    outer loop
      vertex 14.4975 -26.6 16.719
      vertex 14.8034 -26.6 15.4473
      vertex 14.2536 -26.6 16.645
    endloop
  endfacet
  facet normal 0 1 -0
    outer loop
      vertex 14.4067 -26.6 15.352
      vertex 14.2536 -26.6 16.645
      vertex 14.8034 -26.6 15.4473
    endloop
  endfacet
  facet normal 0 1 0
    outer loop
      vertex 14.2536 -26.6 16.645
      vertex 14.4067 -26.6 15.352
      vertex 14 -26.6 16.62
    endloop
  endfacet
  facet normal 0 1 0
    outer loop
      vertex 13.2778 -26.6 16.8391
      vertex 12.4718 -26.6 15.8166
      vertex 12.3339 -26.6 15.9343
    endloop
  endfacet
  facet normal 0 1 0
    outer loop
      vertex 13.5025 -26.6 16.719
      vertex 13.1966 -26.6 15.4473
      vertex 12.8196 -26.6 15.6034
    endloop
  endfacet
  facet normal 0 1 0
    outer loop
      vertex 13.2778 -26.6 16.8391
      vertex 12.8196 -26.6 15.6034
      vertex 12.4718 -26.6 15.8166
    endloop
  endfacet
  facet normal 0 1 0
    outer loop
      vertex 14 -26.6 15.32
      vertex 14 -26.6 16.62
      vertex 14.4067 -26.6 15.352
    endloop
  endfacet
  facet normal 0 1 0
    outer loop
      vertex 13.7464 -26.6 16.645
      vertex 13.5933 -26.6 15.352
      vertex 13.1966 -26.6 15.4473
    endloop
  endfacet
  facet normal 0 1 0
    outer loop
      vertex 14 -26.6 16.62
      vertex 14 -26.6 15.32
      vertex 13.5933 -26.6 15.352
    endloop
  endfacet
endsolid OpenSCAD_Model
