<?xml version="1.0" encoding="UTF-8"?>
<!-- Generator: visioncortex VTracer 0.6.12 -->
<svg version="1.1" xmlns="http://www.w3.org/2000/svg" width="1024" height="1024">
<path d="M0 0 C337.92 0 675.84 0 1024 0 C1024 337.92 1024 675.84 1024 1024 C686.08 1024 348.16 1024 0 1024 C0 686.08 0 348.16 0 0 Z " fill="#FEFEFE" transform="translate(0,0)"/>
<path d="M0 0 C0.676 0 1.351 0.001 2.048 0.001 C22.885 0.011 43.635 0.268 64.409 2.01 C66.695 2.198 68.981 2.373 71.269 2.546 C105.761 5.18 139.919 10.436 173.875 17 C174.833 17.182 175.792 17.365 176.78 17.552 C182.71 18.768 187.053 19.923 190.562 25.188 C190.747 27.451 190.747 27.451 190.654 30.13 C190.623 31.135 190.593 32.14 190.561 33.175 C190.516 34.259 190.472 35.344 190.426 36.461 C190.386 37.577 190.346 38.693 190.304 39.842 C190.216 42.205 190.122 44.567 190.024 46.929 C189.876 50.541 189.754 54.153 189.635 57.766 C189.546 60.06 189.455 62.354 189.363 64.648 C189.329 65.729 189.294 66.809 189.259 67.922 C188.825 77.394 188.825 77.394 185.562 81.188 C183.924 82.578 183.924 82.578 182.164 83.652 C181.842 83.856 181.842 83.856 180.211 84.889 C179.877 85.093 179.877 85.093 178.188 86.125 C169.296 91.569 165.297 96.277 162.434 106.423 C160.995 112.642 160.142 118.907 159.353 125.238 C158.854 129.231 158.313 133.218 157.777 137.207 C157.725 137.599 157.725 137.599 157.461 139.583 C150.467 191.845 137.786 261.654 94.562 297.188 C67.522 317.82 31.797 328.118 -2.027 328.426 C-2.921 328.436 -3.815 328.445 -4.736 328.455 C-32.125 328.694 -57.25 326.849 -83.438 318.188 C-84.156 317.953 -84.874 317.719 -85.614 317.477 C-108.575 309.843 -127.253 296.983 -144.438 280.188 C-145.23 279.421 -146.023 278.654 -146.84 277.863 C-153.406 271.1 -159.142 264.135 -164.312 256.25 C-164.915 255.336 -165.517 254.422 -166.137 253.481 C-181.698 229.598 -192.04 203.969 -201.438 177.188 C-201.595 176.742 -201.595 176.742 -202.395 174.489 C-206.53 162.718 -209.267 150.67 -211.815 138.473 C-218.124 108.963 -218.124 108.963 -228.5 102.188 C-238.649 98.732 -251.635 98.524 -261.438 103.188 C-272.978 111.394 -275.322 131.888 -278.109 144.867 C-284.111 172.667 -291.545 200.686 -304.438 226.188 C-304.816 226.952 -305.194 227.717 -305.584 228.505 C-315.142 247.737 -326.791 264.453 -341.438 280.188 C-342.112 280.927 -342.786 281.667 -343.48 282.43 C-372.384 312.906 -419.401 328.041 -460.438 329.188 C-461.088 329.208 -461.739 329.228 -462.41 329.25 C-507.321 330.484 -556.201 321.96 -589.938 290.188 C-596.702 283.199 -602.164 275.337 -607.438 267.188 C-607.853 266.547 -608.268 265.907 -608.696 265.247 C-633.742 225.781 -641.501 172.965 -646 127.125 C-648.899 97.794 -648.899 97.794 -657.101 90.761 C-659.008 89.43 -660.946 88.201 -662.938 87 C-673.732 80.303 -673.732 80.303 -675.438 75.188 C-676.757 62.39 -676.571 49.287 -676.688 36.438 C-676.709 35.171 -676.73 33.904 -676.752 32.598 C-676.757 31.416 -676.761 30.234 -676.766 29.016 C-676.775 27.963 -676.784 26.91 -676.794 25.825 C-676.438 23.188 -676.438 23.188 -675.384 21.446 C-672.464 19.558 -669.323 18.937 -665.969 18.219 C-665.218 18.051 -664.468 17.883 -663.695 17.71 C-654.826 15.767 -645.89 14.194 -636.938 12.688 C-636.494 12.612 -636.494 12.612 -634.247 12.232 C-605.184 7.334 -576.035 4.294 -546.634 2.335 C-545.221 2.24 -543.809 2.142 -542.397 2.039 C-526.129 0.865 -509.812 0.966 -493.511 0.947 C-490.201 0.943 -486.891 0.929 -483.58 0.906 C-451.299 0.688 -419.24 2.244 -387.438 8.188 C-386.161 8.425 -384.885 8.663 -383.569 8.907 C-359.471 13.46 -335.767 19.558 -312.066 25.82 C-287.833 32.215 -264.604 38.224 -239.438 38.562 C-238.318 38.589 -237.198 38.615 -236.045 38.642 C-216.037 38.68 -196.629 33.488 -177.523 28.046 C-171.518 26.34 -165.499 24.685 -159.48 23.027 C-158.281 22.696 -157.081 22.366 -155.845 22.025 C-104.231 7.841 -53.54 -0.047 0 0 Z " fill="#FDAF0C" transform="translate(752.4375,527.8125)"/>
<path d="M0 0 C1.079 -0.007 2.157 -0.014 3.269 -0.021 C6.748 -0.039 10.227 -0.045 13.707 -0.047 C14.896 -0.048 16.085 -0.048 17.311 -0.049 C35.892 -0.032 54.108 0.49 72.52 3.203 C73.728 3.38 74.936 3.557 76.181 3.739 C99.969 7.353 125.671 12.053 144.52 28.203 C145.002 28.581 145.002 28.581 147.441 30.492 C157.446 38.85 163.425 51.887 165.199 64.594 C169.496 113.014 153.445 177.741 122.953 216.371 C98.157 245.227 64.833 260.645 27.174 263.96 C-12.773 266.618 -56.053 263.511 -87.883 236.605 C-114.6 211.897 -122.735 169.445 -127.48 135.203 C-127.613 134.285 -127.746 133.367 -127.883 132.421 C-129.636 119.795 -129.722 107.052 -129.83 94.325 C-129.847 92.443 -129.869 90.561 -129.898 88.679 C-130.181 67.841 -127.755 48.046 -112.684 32.375 C-111.957 31.658 -111.23 30.942 -110.48 30.203 C-109.939 29.651 -109.398 29.1 -108.84 28.531 C-86.332 7.388 -50.527 4.496 -21.48 1.203 C-20.74 1.116 -20 1.028 -19.237 0.938 C-12.815 0.228 -6.459 0.028 0 0 Z " fill="#0030B2" transform="translate(275.48046875,560.796875)"/>
<path d="M0 0 C1.087 0.001 2.175 0.003 3.295 0.005 C20.513 0.047 37.325 0.758 54.375 3.312 C55.373 3.452 56.371 3.591 57.399 3.734 C83.649 7.446 112.877 13.39 129.75 35.75 C139.375 49.951 143.487 65.412 143.578 82.523 C143.585 83.4 143.592 84.277 143.599 85.181 C143.617 88.016 143.623 90.852 143.625 93.688 C143.626 94.656 143.626 95.625 143.627 96.624 C143.61 111.747 142.963 126.383 140.375 141.312 C140.203 142.355 140.032 143.398 139.855 144.473 C136.257 166.056 131.296 187.68 121.375 207.312 C121.043 207.977 120.71 208.641 120.368 209.326 C108.605 232.462 91.58 247.387 67.062 256.062 C58.305 258.798 49.403 260.707 40.375 262.312 C39.738 262.427 39.738 262.427 36.512 263.004 C9.151 267 -22.343 266.044 -48.625 257.312 C-49.267 257.103 -49.909 256.893 -50.57 256.676 C-81.812 246.295 -107.681 223.742 -122.575 194.452 C-136.991 165.078 -144.316 133.686 -149 101.5 C-149.134 100.595 -149.267 99.69 -149.405 98.757 C-152.463 77.816 -153.564 58.942 -141 40.688 C-121.553 15.471 -90.608 8.853 -60.75 4.125 C-60.267 4.048 -60.267 4.048 -57.824 3.656 C-38.619 0.787 -19.395 -0.066 0 0 Z " fill="#0030B2" transform="translate(728.625,560.6875)"/>
<path d="M0 0 C0.349 0.002 0.349 0.002 2.118 0.012 C9.015 0.063 15.911 0.199 22.805 0.403 C24.152 0.442 25.499 0.477 26.846 0.508 C52.302 1.097 52.302 1.097 62.258 6.398 C63.373 6.972 64.488 7.546 65.637 8.137 C68.812 10.16 71.217 12.257 73.695 15.086 C73.695 15.746 73.695 16.406 73.695 17.086 C74.355 17.086 75.015 17.086 75.695 17.086 C76.495 18.603 77.285 20.125 78.07 21.648 C78.291 22.072 78.291 22.072 79.406 24.215 C82.397 30.876 83.01 36.778 82.945 43.961 C82.949 44.384 82.949 44.384 82.969 46.527 C82.938 56.47 81.274 64.397 74.695 72.086 C71.013 75.464 67.665 78.114 62.695 79.086 C62.695 80.076 62.695 81.066 62.695 82.086 C63.417 82.354 64.139 82.622 64.883 82.898 C73.761 86.647 81.796 93.163 85.695 102.086 C85.88 102.434 85.88 102.434 86.816 104.195 C92.676 116.928 90.996 133.901 86.891 146.949 C82.655 158.063 76.748 164.79 66.32 170.398 C65.728 170.736 65.135 171.074 64.524 171.422 C50.927 178.272 32.63 176.43 17.898 176.402 C14.41 176.398 10.922 176.422 7.434 176.447 C5.203 176.45 2.973 176.45 0.742 176.449 C-0.294 176.458 -1.331 176.468 -2.398 176.477 C-6.359 176.452 -9.654 176.299 -13.433 175.063 C-17.507 170.76 -16.428 162.491 -16.326 156.796 C-16.322 156.4 -16.322 156.4 -16.297 154.395 C-16.276 152.678 -16.252 150.96 -16.225 149.242 C-16.183 146.47 -16.147 143.697 -16.112 140.925 C-16.062 136.943 -16.009 132.961 -15.953 128.98 C-15.808 118.559 -15.676 108.139 -15.551 97.719 C-15.538 96.675 -15.525 95.63 -15.512 94.554 C-15.345 80.457 -15.276 66.364 -15.34 52.266 C-15.346 50.681 -15.352 49.097 -15.358 47.513 C-15.386 40.924 -15.425 34.335 -15.497 27.745 C-15.53 24.496 -15.544 21.246 -15.562 17.996 C-15.581 16.848 -15.6 15.701 -15.619 14.518 C-15.622 13.471 -15.626 12.423 -15.629 11.344 C-15.639 10.442 -15.649 9.541 -15.659 8.612 C-15.222 5.495 -14.148 3.616 -12.305 1.086 C-8.355 -0.343 -4.165 -0.027 0 0 Z " fill="#0132B2" transform="translate(321.3046875,313.9140625)"/>
<path d="M0 0 C12.254 -0.258 24.442 -0.432 36.598 1.333 C37.365 1.442 38.131 1.551 38.921 1.664 C50.045 3.551 60.173 9.374 67.161 18.333 C78.118 35.312 79.129 55.8 75.348 75.083 C73.74 82.44 70.951 89.057 66.348 95.083 C65.688 95.083 65.028 95.083 64.348 95.083 C64.142 95.66 63.936 96.238 63.723 96.833 C61.329 100.751 57.621 102.658 53.348 104.083 C53.958 108.779 55.251 112.765 57.036 117.145 C57.301 117.798 57.567 118.452 57.84 119.125 C60.032 124.46 62.455 129.676 64.911 134.895 C66.842 139.177 68.476 143.55 70.125 147.946 C71.31 150.984 72.606 153.935 73.973 156.895 C79.645 169.191 79.645 169.191 78.348 173.083 C75.37 174.572 72.308 174.286 69.04 174.321 C68.317 174.329 67.595 174.337 66.85 174.345 C65.321 174.359 63.792 174.37 62.263 174.378 C59.923 174.395 57.584 174.439 55.245 174.483 C53.76 174.493 52.275 174.502 50.79 174.508 C50.089 174.526 49.389 174.543 48.668 174.561 C45.464 174.547 43.803 174.527 41.459 172.238 C40.004 169.415 38.915 166.576 37.848 163.583 C37.33 162.159 36.808 160.735 36.286 159.313 C36.137 158.908 36.137 158.908 35.383 156.857 C33.265 151.18 31.055 145.538 28.848 139.895 C28.398 138.732 27.947 137.57 27.483 136.372 C19.019 114.753 19.019 114.753 16.348 112.083 C14.662 112.01 12.973 111.999 11.286 112.02 C10.367 112.029 9.447 112.038 8.5 112.047 C7.79 112.059 7.08 112.071 6.348 112.083 C6.353 112.83 6.357 113.577 6.362 114.347 C6.402 121.381 6.432 128.414 6.452 135.448 C6.462 139.064 6.476 142.681 6.499 146.297 C6.521 149.785 6.533 153.273 6.538 156.762 C6.543 158.744 6.559 160.726 6.575 162.708 C6.575 163.309 6.575 163.309 6.575 166.348 C6.58 167.409 6.584 168.471 6.589 169.564 C6.348 172.083 6.348 172.083 4.348 174.083 C1.307 174.341 1.307 174.341 -2.558 174.348 C-2.898 174.349 -2.898 174.349 -4.62 174.354 C-6.059 174.355 -7.498 174.352 -8.938 174.343 C-11.143 174.333 -13.348 174.343 -15.554 174.356 C-16.951 174.355 -18.348 174.352 -19.746 174.348 C-21.021 174.346 -22.297 174.344 -23.611 174.341 C-26.652 174.083 -26.652 174.083 -28.652 172.083 C-28.871 168.991 -28.963 165.987 -28.971 162.894 C-28.981 161.935 -28.991 160.977 -29.001 159.989 C-29.032 156.783 -29.049 153.578 -29.066 150.372 C-29.085 148.114 -29.105 145.856 -29.125 143.599 C-29.177 137.55 -29.217 131.502 -29.253 125.454 C-29.285 120.483 -29.322 115.513 -29.36 110.543 C-29.46 97.214 -29.542 83.884 -29.615 70.555 C-29.648 64.749 -29.684 58.942 -29.723 53.136 C-29.77 45.849 -29.805 38.563 -29.827 31.277 C-29.835 28.781 -29.846 26.285 -29.86 23.79 C-29.878 20.428 -29.882 17.066 -29.882 13.704 C-29.889 12.75 -29.897 11.795 -29.904 10.812 C-29.901 9.956 -29.898 9.099 -29.895 8.217 C-29.896 7.484 -29.898 6.75 -29.899 5.994 C-29.652 4.083 -29.652 4.083 -27.652 1.083 C-25.682 0.65 -25.682 0.65 -23.226 0.571 C-22.762 0.553 -22.762 0.553 -20.417 0.462 C-19.401 0.44 -18.386 0.418 -17.339 0.395 C-16.281 0.364 -15.223 0.332 -14.133 0.3 C-9.423 0.176 -4.711 0.106 0 0 Z " fill="#0132B2" transform="translate(453.65185546875,314.91748046875)"/>
<path d="M0 0 C10.765 6.76 19.418 16.326 23.152 28.668 C24.479 34.64 25.837 41.129 23.73 47 C20.306 50.811 16.037 51.073 11.17 51.412 C8.434 51.502 5.71 51.507 2.973 51.484 C2.041 51.492 1.109 51.5 0.148 51.508 C-0.75 51.505 -1.649 51.503 -2.574 51.5 C-3.382 51.498 -4.19 51.495 -5.022 51.493 C-7.535 51.205 -9.14 50.573 -11.277 49.234 C-12.95 46.167 -13.505 43.066 -14.152 39.672 C-14.976 35.773 -15.954 33.652 -19.277 31.234 C-25.307 29.225 -31.987 29.245 -37.777 31.984 C-41.645 34.05 -43.702 36.642 -45.191 40.766 C-49.653 59.397 -48.552 79.216 -48.277 98.234 C-48.265 99.179 -48.252 100.123 -48.239 101.097 C-48.074 110.294 -47.534 118.411 -44.117 127.082 C-43.277 129.234 -43.277 129.234 -43.277 131.234 C-37.684 134.246 -32.64 135.526 -26.277 135.547 C-25.69 135.555 -25.69 135.555 -22.715 135.598 C-18.813 135.185 -16.53 134.429 -13.277 132.234 C-10.576 128.101 -9.752 124.279 -9.152 119.422 C-8.998 118.206 -8.843 116.991 -8.684 115.738 C-8.617 115.16 -8.617 115.16 -8.277 112.234 C-8.164 111.274 -8.05 110.314 -7.934 109.324 C-7.702 107.296 -7.487 105.265 -7.277 103.234 C-7.862 103.252 -7.862 103.252 -10.82 103.34 C-12.368 103.368 -13.917 103.395 -15.465 103.422 C-16.234 103.447 -17.003 103.472 -17.795 103.498 C-18.546 103.508 -19.297 103.517 -20.07 103.527 C-20.756 103.543 -21.442 103.559 -22.149 103.575 C-25.183 103.089 -26.907 102.195 -29.277 100.234 C-29.877 97.355 -29.877 97.355 -29.836 93.887 C-29.829 92.642 -29.822 91.398 -29.814 90.115 C-29.782 88.814 -29.749 87.513 -29.715 86.172 C-29.709 84.867 -29.703 83.562 -29.697 82.217 C-29.572 72.529 -29.572 72.529 -27.277 70.234 C-25.204 69.936 -25.204 69.936 -22.616 69.868 C-21.648 69.838 -20.68 69.809 -19.683 69.778 C-19.158 69.768 -19.158 69.768 -16.504 69.715 C-15.429 69.688 -14.353 69.662 -13.245 69.635 C-10.967 69.582 -8.689 69.534 -6.411 69.491 C-2.923 69.422 0.563 69.326 4.051 69.229 C6.262 69.181 8.473 69.134 10.684 69.09 C11.728 69.059 12.773 69.028 13.85 68.996 C14.824 68.982 15.798 68.968 16.802 68.954 C17.658 68.935 18.513 68.917 19.395 68.898 C22.289 69.316 23.618 70.232 25.723 72.234 C26.647 75.009 26.851 76.669 26.855 79.531 C26.858 80.396 26.86 81.261 26.862 82.152 C26.859 82.62 26.859 82.62 26.848 84.984 C26.844 85.955 26.841 86.926 26.837 87.926 C26.474 140.642 26.474 140.642 9.598 158.922 C-2.454 170.547 -16.762 171.827 -32.625 171.543 C-45.334 171.039 -58.819 165.755 -68.152 156.922 C-69.225 155.719 -70.266 154.489 -71.277 153.234 C-71.87 152.529 -72.463 151.824 -73.074 151.098 C-88.229 131.506 -87.51 101.744 -87.527 78.172 C-87.528 77.356 -87.529 76.539 -87.529 75.698 C-87.513 63.358 -87.224 51.283 -84.277 39.234 C-84.194 38.891 -84.194 38.891 -83.773 37.155 C-81.138 26.875 -76.417 17.316 -68.277 10.234 C-67.617 10.234 -66.957 10.234 -66.277 10.234 C-66.277 9.574 -66.277 8.914 -66.277 8.234 C-48.592 -7.299 -20.835 -11.224 0 0 Z " fill="#0132B2" transform="translate(687.27734375,318.765625)"/>
<path d="M0 0 C0.454 0.002 0.454 0.002 2.753 0.012 C3.753 0.014 4.753 0.016 5.782 0.018 C6.307 0.024 6.307 0.024 8.96 0.055 C9.99 0.056 11.019 0.057 12.079 0.057 C26.678 0.142 26.678 0.142 29.436 2.916 C31.132 5.869 31.135 7.808 31.113 11.205 C31.113 11.805 31.113 11.805 31.113 14.844 C31.097 16.136 31.082 17.428 31.066 18.759 C31.06 20.098 31.056 21.438 31.053 22.777 C31.041 26.295 31.012 29.813 30.979 33.331 C30.948 36.924 30.934 40.517 30.919 44.11 C30.887 51.155 30.836 58.199 30.773 65.243 C31.52 65.237 32.267 65.231 33.037 65.225 C39.719 65.196 46.353 65.348 53.023 65.743 C53.875 65.791 54.727 65.838 55.605 65.887 C57.661 66.003 59.717 66.122 61.773 66.243 C61.77 65.443 61.768 64.644 61.766 63.82 C61.746 56.3 61.731 48.781 61.721 41.261 C61.716 37.395 61.709 33.528 61.697 29.662 C61.686 25.934 61.68 22.206 61.678 18.477 C61.676 17.052 61.672 15.627 61.667 14.201 C61.66 12.211 61.659 10.221 61.659 8.231 C61.657 7.097 61.655 5.962 61.652 4.793 C61.773 2.243 61.773 2.243 62.773 1.243 C67.154 1 71.541 1.014 75.928 1.003 C78.132 0.993 80.335 0.962 82.538 0.93 C83.937 0.924 85.335 0.919 86.734 0.915 C88.01 0.905 89.287 0.896 90.602 0.886 C93.773 1.243 93.773 1.243 95.428 2.501 C100.271 8.776 97.921 22.017 97.918 29.543 C97.921 31.065 97.924 32.587 97.928 34.109 C97.937 38.214 97.939 42.319 97.94 46.424 C97.941 48.991 97.943 51.557 97.945 54.124 C97.955 63.083 97.959 72.042 97.958 81.001 C97.957 89.348 97.968 97.694 97.984 106.041 C97.997 113.219 98.002 120.396 98.002 127.573 C98.001 131.856 98.004 136.138 98.015 140.42 C98.024 144.441 98.025 148.461 98.017 152.481 C98.016 153.957 98.019 155.432 98.025 156.907 C98.032 158.92 98.026 160.932 98.02 162.945 C98.02 164.071 98.021 165.197 98.022 166.358 C97.777 169.19 97.244 170.843 95.773 173.243 C91.252 173.317 86.732 173.371 82.211 173.408 C80.672 173.423 79.134 173.443 77.595 173.469 C75.386 173.506 73.178 173.523 70.968 173.536 C70.623 173.544 70.623 173.544 68.878 173.583 C66.937 173.583 66.937 173.583 63.773 173.243 C61.163 169.328 61.504 166.031 61.542 161.493 C61.542 160.615 61.542 159.736 61.543 158.831 C61.546 155.968 61.565 153.106 61.585 150.243 C61.592 148.287 61.599 146.331 61.605 144.375 C61.671 129.642 62.092 114.961 62.773 100.243 C57.658 100.408 57.658 100.408 31.773 101.243 C30.694 128.356 30.694 128.356 30.847 141.778 C30.855 142.659 30.863 143.54 30.872 144.448 C30.914 148.813 30.978 153.177 31.073 157.542 C31.093 159.153 31.111 160.764 31.128 162.376 C31.14 162.744 31.14 162.744 31.2 164.61 C31.217 167.965 31 169.914 29.074 172.706 C26.334 174.536 24.87 174.734 21.597 174.704 C20.604 174.7 19.61 174.696 18.587 174.692 C17.555 174.668 16.523 174.643 15.46 174.618 C14.95 174.617 14.95 174.617 12.368 174.614 C-1.012 174.458 -1.012 174.458 -4.227 171.243 C-4.329 169.071 -4.358 166.895 -4.361 164.72 C-4.363 164.031 -4.366 163.341 -4.368 162.631 C-4.374 160.303 -4.373 157.975 -4.373 155.647 C-4.376 153.986 -4.379 152.324 -4.383 150.662 C-4.392 146.135 -4.394 141.608 -4.395 137.081 C-4.395 133.309 -4.399 129.536 -4.403 125.764 C-4.411 116.867 -4.413 107.97 -4.413 99.073 C-4.412 89.88 -4.423 80.688 -4.438 71.495 C-4.451 63.616 -4.457 55.736 -4.456 47.857 C-4.456 43.145 -4.459 38.434 -4.469 33.722 C-4.479 29.292 -4.479 24.862 -4.472 20.433 C-4.471 18.803 -4.473 17.174 -4.479 15.544 C-4.487 13.327 -4.482 11.11 -4.475 8.893 C-4.475 7.649 -4.476 6.406 -4.476 5.126 C-4.174 1.629 -3.604 0.393 0 0 Z " fill="#0132B2" transform="translate(737.227294921875,313.757080078125)"/>
<path d="M0 0 C11.87 -0.513 25.121 2.183 34.145 10.25 C44.736 19.971 48.723 32.662 49.52 46.75 C49.145 50.25 49.145 50.25 47.508 51.895 C38.998 56.775 26.522 55.917 17.145 54.25 C16.986 53.43 16.827 52.61 16.664 51.766 C14.779 43.057 14.779 43.057 12.082 39.625 C7.36 37.415 2.292 35.582 -2.953 36.695 C-6.093 37.962 -8.814 39.528 -10.855 42.25 C-12.48 47.124 -12.697 52.12 -10.793 56.938 C-5.307 63.486 1.453 67.295 8.957 71.188 C28.399 81.318 46.677 94.542 54.02 116.125 C57.56 130.879 56.272 147.256 48.895 160.562 C48.317 161.449 47.74 162.336 47.145 163.25 C46.485 163.25 45.825 163.25 45.145 163.25 C44.916 163.838 44.688 164.426 44.453 165.031 C39.421 173.564 26.311 176.759 17.383 179.336 C12.913 180.425 8.605 180.595 4.02 180.562 C3.607 180.56 3.607 180.56 1.516 180.55 C-13.285 180.281 -25.912 176.483 -36.855 166.25 C-44.615 157.304 -47.856 145.295 -48.168 133.625 C-48.205 132.705 -48.243 131.784 -48.281 130.836 C-47.855 128.25 -47.855 128.25 -46.266 125.961 C-43.076 123.697 -40.873 123.648 -36.98 123.5 C-35.662 123.445 -34.343 123.389 -32.984 123.332 C-26.941 123.19 -20.9 123.166 -14.855 123.25 C-14.674 124.203 -14.492 125.155 -14.305 126.137 C-14.053 127.391 -13.802 128.645 -13.543 129.938 C-13.299 131.179 -13.056 132.42 -12.805 133.699 C-11.555 138.373 -10.24 141.294 -6.23 144.062 C-0.877 145.946 5.735 146.217 11.145 144.25 C14.31 139.009 15.188 132.72 15.082 126.688 C13.837 122.123 11.829 118.147 9.145 114.25 C8.815 114.085 8.815 114.085 7.145 113.25 C7.145 112.59 7.145 111.93 7.145 111.25 C6.589 110.987 6.033 110.724 5.461 110.453 C2.886 109.116 0.511 107.588 -1.918 106 C-5.679 103.579 -9.463 101.34 -13.418 99.25 C-18.88 96.331 -23.873 92.918 -28.855 89.25 C-29.61 88.728 -30.364 88.206 -31.141 87.668 C-31.424 87.434 -31.424 87.434 -32.855 86.25 C-32.855 85.59 -32.855 84.93 -32.855 84.25 C-33.515 84.25 -34.175 84.25 -34.855 84.25 C-34.855 83.59 -34.855 82.93 -34.855 82.25 C-35.515 82.25 -36.175 82.25 -36.855 82.25 C-47.391 69.301 -49.399 54.366 -47.855 38.25 C-46.336 29.374 -43.062 22.74 -36.855 16.25 C-36.197 15.551 -35.538 14.853 -34.859 14.133 C-25.035 4.579 -13.324 1.166 0 0 Z " fill="#0132B2" transform="translate(195.85546875,311.75)"/>
<path d="M0 0 C0.478 -0.005 0.478 -0.005 2.896 -0.028 C3.41 -0.023 3.41 -0.023 6.014 0.006 C7.085 0.004 8.156 0.003 9.259 0.001 C11.531 0.003 13.802 0.014 16.073 0.035 C19.506 0.064 22.937 0.056 26.37 0.043 C55.58 0.07 55.58 0.07 68.178 8.502 C68.178 9.162 68.178 9.822 68.178 10.502 C68.775 10.745 69.372 10.989 69.987 11.24 C75.49 14.409 79.506 22.523 81.178 28.502 C84.505 44.485 85.662 62.952 76.928 77.377 C69.184 88.576 69.184 88.576 63.971 90.181 C63.38 90.287 62.788 90.393 62.178 90.502 C63.516 94.646 65.016 98.671 66.682 102.693 C67.172 103.876 67.661 105.059 68.166 106.277 C68.423 106.896 68.68 107.514 68.945 108.151 C69.75 110.086 70.551 112.021 71.351 113.957 C73.84 119.962 76.357 125.952 78.971 131.904 C79.389 132.858 79.806 133.812 80.237 134.794 C81.012 136.555 81.795 138.313 82.587 140.066 C85.705 147.149 85.705 147.149 85.178 151.502 C80.328 153.927 72.771 152.631 67.369 152.539 C65.548 152.508 63.726 152.495 61.905 152.486 C57.786 152.313 55.879 152.184 52.866 149.252 C51.292 146.191 50.178 142.921 48.963 139.705 C47.084 134.792 45.132 129.916 43.1 125.064 C42.84 124.443 42.581 123.822 42.313 123.183 C41.247 120.639 40.179 118.096 39.106 115.555 C38.308 113.664 37.516 111.771 36.725 109.877 C36.492 109.324 36.492 109.324 35.314 106.525 C34.302 103.831 33.638 101.335 33.178 98.502 C29.878 98.502 26.578 98.502 23.178 98.502 C23.164 100.066 23.149 101.631 23.134 103.243 C23.076 109.032 22.999 114.82 22.916 120.609 C22.882 123.117 22.854 125.626 22.832 128.134 C22.798 131.733 22.746 135.332 22.69 138.931 C22.687 139.495 22.687 139.495 22.671 142.347 C22.651 143.388 22.631 144.429 22.611 145.501 C22.599 146.421 22.588 147.34 22.577 148.287 C22.445 149.018 22.314 149.749 22.178 150.502 C17.506 153.617 12.672 152.83 7.178 152.814 C6.625 152.822 6.625 152.822 3.827 152.863 C2.767 152.864 1.707 152.864 0.616 152.865 C-0.355 152.868 -1.326 152.871 -2.326 152.874 C-5.303 152.43 -5.986 151.828 -7.822 149.502 C-8.207 147.586 -8.207 147.586 -8.221 145.379 C-8.233 144.54 -8.246 143.7 -8.258 142.835 C-8.257 141.916 -8.256 140.997 -8.254 140.05 C-8.264 139.078 -8.275 138.106 -8.285 137.105 C-8.315 133.867 -8.324 130.63 -8.333 127.392 C-8.35 125.113 -8.369 122.835 -8.388 120.556 C-8.436 114.514 -8.465 108.473 -8.491 102.431 C-8.521 96.442 -8.568 90.452 -8.613 84.463 C-8.689 74.055 -8.737 63.647 -8.772 53.24 C-8.796 46.951 -8.851 40.664 -8.94 34.376 C-8.991 30.7 -9.028 27.024 -9.062 23.348 C-9.081 21.667 -9.108 19.987 -9.142 18.306 C-9.187 16.031 -9.208 13.757 -9.223 11.481 C-9.242 10.22 -9.261 8.959 -9.281 7.659 C-8.822 4.502 -8.822 4.502 -7.098 2.097 C-4.466 0.252 -3.184 0.001 0 0 Z " fill="#0132B2" transform="translate(772.82177734375,128.498291015625)"/>
<path d="M0 0 C0.101 1.414 0.134 2.832 0.138 4.249 C0.143 5.166 0.149 6.083 0.155 7.027 C0.156 8.041 0.157 9.055 0.158 10.1 C0.16 10.631 0.16 10.631 0.173 13.318 C0.184 15.633 0.192 17.948 0.199 20.263 C0.211 23.928 0.23 27.593 0.252 31.258 C0.314 41.682 0.368 52.106 0.401 62.53 C0.422 68.898 0.458 75.266 0.502 81.635 C0.516 84.063 0.525 86.491 0.528 88.919 C0.533 92.321 0.556 95.722 0.583 99.124 C0.58 100.125 0.577 101.127 0.574 102.159 C0.643 107.915 1.379 111.869 4 117 C4.33 117.99 4.66 118.98 5 120 C11.841 122.4 16.864 122.079 23.875 120.25 C26 119 26 119 27.25 116.938 C29.116 109.629 29.134 102.179 29.066 94.678 C29.061 93.689 29.057 92.699 29.052 91.679 C29.041 89.546 29.029 87.414 29.014 85.281 C28.992 81.906 28.978 78.531 28.966 75.156 C28.933 65.566 28.891 55.976 28.829 46.386 C28.791 40.508 28.768 34.63 28.754 28.752 C28.746 26.514 28.733 24.276 28.713 22.038 C28.687 18.917 28.679 15.796 28.675 12.675 C28.663 11.749 28.651 10.824 28.638 9.871 C28.657 3.648 28.657 3.648 30.359 0.429 C34.027 -2.764 39.899 -1.606 44.5 -1.562 C45.077 -1.574 45.077 -1.574 47.996 -1.635 C49.101 -1.633 50.206 -1.631 51.344 -1.629 C52.356 -1.63 53.369 -1.63 54.412 -1.631 C57 -1 57 -1 58.637 0.881 C60.625 5.43 60.418 9.622 60.388 14.535 C60.393 15.596 60.399 16.657 60.404 17.75 C60.417 21.259 60.409 24.768 60.398 28.277 C60.4 30.725 60.403 33.173 60.407 35.621 C60.412 40.758 60.405 45.895 60.391 51.032 C60.374 57.586 60.384 64.138 60.402 70.691 C60.413 75.752 60.409 80.813 60.401 85.874 C60.399 88.288 60.402 90.702 60.409 93.116 C60.49 128.625 60.49 128.625 48.738 141.473 C38.807 151.061 28.368 153.301 14.888 153.315 C2.656 153.095 -9.611 150.261 -19 142 C-33.911 125.349 -31.161 105.086 -31.168 84.078 C-31.171 81.682 -31.175 79.285 -31.178 76.888 C-31.184 71.896 -31.186 66.904 -31.185 61.911 C-31.185 55.502 -31.199 49.093 -31.216 42.683 C-31.227 37.749 -31.229 32.815 -31.229 27.88 C-31.23 25.515 -31.234 23.15 -31.242 20.785 C-31.252 17.496 -31.249 14.208 -31.243 10.919 C-31.249 9.938 -31.254 8.958 -31.26 7.947 C-31.258 7.502 -31.258 7.502 -31.247 5.246 C-31.248 4.47 -31.248 3.694 -31.249 2.894 C-31 1 -31 1 -29 -1 C-26.849 -1.335 -26.849 -1.335 -24.203 -1.449 C-23.244 -1.492 -22.285 -1.536 -21.297 -1.58 C-20.291 -1.616 -19.286 -1.651 -18.25 -1.688 C-17.755 -1.711 -17.755 -1.711 -15.25 -1.83 C-2.356 -2.356 -2.356 -2.356 0 0 Z " fill="#0233B2" transform="translate(493,131)"/>
<path d="M0 0 C0.751 -0.012 1.502 -0.024 2.275 -0.037 C6.446 -0.048 9.834 0.09 13.562 2.188 C16.012 5.862 15.807 7.652 15.793 12.031 C15.793 12.37 15.793 12.37 15.793 14.085 C15.789 16.286 15.77 18.487 15.75 20.688 C15.743 22.19 15.737 23.693 15.73 25.195 C15.667 35.887 15.28 46.518 14.562 57.188 C22.812 57.188 31.062 57.188 39.562 57.188 C39.539 53.24 39.516 49.293 39.492 45.227 C39.477 41.417 39.464 37.608 39.453 33.799 C39.443 31.145 39.429 28.491 39.412 25.837 C39.387 22.029 39.376 18.222 39.367 14.414 C39.357 13.221 39.347 12.029 39.336 10.8 C39.336 10.249 39.336 10.249 39.335 7.463 C39.331 6.491 39.327 5.518 39.322 4.516 C39.562 2.188 39.562 2.188 41.562 0.188 C46.045 -0.273 50.559 -0.137 55.062 -0.125 C56.324 -0.141 57.586 -0.157 58.887 -0.174 C60.089 -0.174 61.292 -0.175 62.531 -0.176 C63.639 -0.179 64.747 -0.182 65.889 -0.185 C66.771 -0.062 67.653 0.061 68.562 0.188 C70.848 3.616 70.8 4.803 70.762 8.827 C70.759 9.403 70.759 9.403 70.744 12.319 C70.736 12.943 70.736 12.943 70.695 16.103 C70.681 18.084 70.668 20.065 70.654 22.047 C70.639 24.093 70.62 26.14 70.599 28.187 C70.552 33.039 70.54 37.892 70.528 42.744 C70.494 55.24 70.411 67.735 70.327 80.23 C70.281 87.034 70.242 93.838 70.216 100.642 C70.191 107.302 70.15 113.962 70.099 120.622 C70.083 123.146 70.071 125.67 70.065 128.195 C70.055 131.69 70.027 135.185 69.995 138.68 C69.996 139.201 69.996 139.201 69.999 141.836 C69.993 142.308 69.993 142.308 69.961 144.7 C69.957 145.524 69.952 146.347 69.947 147.195 C69.82 147.853 69.693 148.51 69.562 149.188 C66.15 151.463 64.881 151.444 60.871 151.453 C60.316 151.454 60.316 151.454 57.51 151.461 C56.931 151.457 56.931 151.457 54 151.438 C52.838 151.445 51.676 151.453 50.479 151.461 C49.371 151.458 48.263 151.456 47.121 151.453 C46.103 151.451 45.086 151.449 44.037 151.446 C41.562 151.188 41.562 151.188 39.562 149.188 C39.322 146.555 39.322 146.555 39.335 143.177 C39.336 141.916 39.336 140.655 39.336 139.356 C39.346 137.974 39.357 136.592 39.367 135.211 C39.371 133.801 39.374 132.392 39.376 130.982 C39.383 127.27 39.403 123.558 39.425 119.846 C39.446 116.059 39.455 112.272 39.465 108.484 C39.486 101.052 39.521 93.62 39.562 86.188 C31.972 86.517 24.382 86.847 16.562 87.188 C16.537 88.989 16.512 90.791 16.487 92.648 C16.403 98.599 16.314 104.55 16.223 110.501 C16.168 114.11 16.115 117.718 16.065 121.326 C16.017 124.808 15.965 128.29 15.91 131.772 C15.879 133.748 15.854 135.724 15.828 137.7 C15.808 138.901 15.788 140.102 15.768 141.339 C15.752 142.398 15.737 143.458 15.721 144.549 C15.562 147.188 15.562 147.188 14.562 150.188 C9.681 151.815 4.675 151.497 -0.438 151.562 C-0.991 151.581 -0.991 151.581 -3.789 151.676 C-4.849 151.687 -5.908 151.699 -7 151.711 C-7.971 151.731 -8.941 151.751 -9.941 151.771 C-12.438 151.188 -12.438 151.188 -14.074 149.199 C-15.903 145.158 -15.82 141.801 -15.744 137.419 C-15.74 136.543 -15.737 135.668 -15.734 134.766 C-15.72 131.858 -15.684 128.951 -15.648 126.043 C-15.634 123.982 -15.621 121.921 -15.609 119.86 C-15.581 115.515 -15.545 111.169 -15.501 106.823 C-15.436 100.369 -15.398 93.914 -15.364 87.459 C-15.313 77.979 -15.24 68.499 -15.15 59.019 C-15.099 53.647 -15.053 48.275 -15.016 42.903 C-14.979 37.565 -14.933 32.228 -14.879 26.89 C-14.861 24.886 -14.846 22.882 -14.834 20.877 C-14.817 18.122 -14.788 15.366 -14.756 12.611 C-14.754 11.796 -14.752 10.981 -14.75 10.142 C-14.692 6.306 -14.616 4.455 -12.438 1.188 C-8.433 -0.255 -4.207 0.004 0 0 Z " fill="#0132B2" transform="translate(175.4375,128.8125)"/>
<path d="M0 0 C1.259 -0.014 2.519 -0.028 3.816 -0.043 C7.407 0.186 10.138 0.773 13.438 2.188 C14.611 4.534 14.564 5.912 14.567 8.527 C14.57 9.44 14.573 10.352 14.576 11.293 C14.574 12.298 14.572 13.304 14.57 14.34 C14.572 15.399 14.573 16.457 14.575 17.548 C14.577 21.074 14.57 24.599 14.562 28.125 C14.561 29.33 14.559 30.535 14.558 31.776 C14.53 50.425 14.388 69.072 14.118 87.719 C14.081 90.314 14.047 92.908 14.016 95.503 C13.971 99.147 13.913 102.79 13.852 106.434 C13.84 107.508 13.828 108.583 13.817 109.691 C13.551 123.146 9.385 132.946 0.156 142.82 C-10.137 151.783 -22.839 154.712 -36.203 154.43 C-46.751 153.669 -56.098 150.693 -64.562 144.188 C-65.895 141.965 -65.895 141.965 -66.562 140.188 C-67.222 140.188 -67.883 140.188 -68.562 140.188 C-77.774 127.825 -78.715 113.235 -78.708 98.354 C-78.711 97.321 -78.714 96.289 -78.718 95.226 C-78.727 91.848 -78.729 88.471 -78.73 85.094 C-78.734 82.736 -78.737 80.379 -78.741 78.021 C-78.747 73.099 -78.748 68.177 -78.748 63.255 C-78.748 56.935 -78.761 50.615 -78.779 44.296 C-78.79 39.437 -78.792 34.578 -78.791 29.719 C-78.792 27.387 -78.797 25.056 -78.805 22.724 C-78.814 19.478 -78.811 16.232 -78.805 12.986 C-78.811 12.018 -78.817 11.05 -78.822 10.052 C-78.818 9.172 -78.814 8.292 -78.81 7.385 C-78.81 6.618 -78.811 5.851 -78.811 5.061 C-78.562 3.188 -78.562 3.188 -76.562 1.188 C-73.98 0.945 -73.98 0.945 -70.75 0.957 C-69.592 0.959 -68.435 0.961 -67.242 0.963 C-66.028 0.975 -64.814 0.987 -63.562 1 C-62.348 1.001 -61.134 1.001 -59.883 1.002 C-50.843 1.047 -50.843 1.047 -48.562 2.188 C-47.596 4.994 -47.434 7.612 -47.424 10.563 C-47.419 11.432 -47.414 12.301 -47.408 13.196 C-47.407 14.142 -47.406 15.087 -47.405 16.062 C-47.402 16.563 -47.402 16.563 -47.389 19.098 C-47.379 21.274 -47.37 23.45 -47.363 25.626 C-47.351 29.073 -47.332 32.52 -47.31 35.967 C-47.249 45.768 -47.195 55.569 -47.161 65.37 C-47.14 71.366 -47.105 77.362 -47.06 83.357 C-47.046 85.639 -47.037 87.921 -47.034 90.204 C-47.029 93.401 -47.006 96.598 -46.979 99.796 C-46.982 100.733 -46.985 101.671 -46.988 102.637 C-46.903 109.43 -46.084 115.378 -41.375 120.625 C-37.061 123.021 -33.15 123.793 -28.375 122.676 C-24.801 121.434 -21.843 120.317 -19.562 117.188 C-18.434 111.365 -18.411 105.625 -18.405 99.71 C-18.4 98.68 -18.395 97.65 -18.389 96.589 C-18.379 94.362 -18.37 92.135 -18.363 89.908 C-18.351 86.387 -18.332 82.865 -18.31 79.344 C-18.249 69.335 -18.194 59.326 -18.161 49.317 C-18.14 43.188 -18.105 37.06 -18.06 30.931 C-18.046 28.594 -18.037 26.258 -18.034 23.922 C-18.029 20.663 -18.006 17.406 -17.979 14.147 C-17.982 13.178 -17.985 12.209 -17.988 11.21 C-17.977 10.324 -17.966 9.438 -17.954 8.525 C-17.951 7.756 -17.948 6.986 -17.944 6.193 C-17.455 3.626 -16.627 2.753 -14.562 1.188 C-9.719 0.169 -4.939 0.025 0 0 Z " fill="#0132B2" transform="translate(735.5625,128.8125)"/>
<path d="M0 0 C0.786 -0.002 1.572 -0.004 2.382 -0.007 C4.979 -0.009 7.576 0.017 10.173 0.044 C11.984 0.049 13.795 0.052 15.607 0.054 C19.406 0.062 23.204 0.082 27.003 0.113 C31.854 0.153 36.704 0.171 41.555 0.181 C46.199 0.191 50.842 0.21 55.486 0.232 C56.364 0.235 57.241 0.238 58.146 0.242 C60.656 0.254 63.166 0.272 65.676 0.293 C66.404 0.296 67.132 0.298 67.882 0.301 C73.033 0.354 78.048 0.84 83.161 1.47 C86.592 11.117 85.781 22.478 84.161 32.47 C81.447 33.827 79.313 33.582 76.279 33.568 C75.112 33.564 73.945 33.561 72.743 33.558 C71.52 33.549 70.297 33.541 69.036 33.532 C67.805 33.528 66.574 33.523 65.306 33.519 C62.258 33.507 59.21 33.491 56.161 33.47 C55.134 36.553 55.041 38.637 55.048 41.866 C55.048 42.987 55.048 44.107 55.048 45.261 C55.053 46.491 55.058 47.721 55.064 48.988 C55.066 50.975 55.068 52.962 55.07 54.949 C55.074 57.085 55.08 59.221 55.086 61.357 C55.1 65.806 55.106 70.256 55.11 74.705 C55.121 84.147 55.141 93.59 55.161 103.032 C55.183 113.229 55.204 123.426 55.215 133.622 C55.22 138.048 55.23 142.474 55.243 146.9 C55.249 148.988 55.252 151.076 55.255 153.164 C55.257 155.714 55.264 158.264 55.275 160.814 C55.275 161.932 55.275 163.049 55.275 164.2 C55.277 165.176 55.279 166.151 55.282 167.155 C55.161 169.47 55.161 169.47 54.161 171.47 C49.659 171.594 45.158 171.684 40.654 171.745 C39.123 171.77 37.591 171.804 36.06 171.847 C33.858 171.908 31.657 171.936 29.454 171.958 C28.77 171.984 28.085 172.01 27.38 172.036 C25.439 172.038 25.439 172.038 22.161 171.47 C19.419 167.912 18.788 165.256 18.801 160.82 C18.796 159.694 18.792 158.568 18.788 157.408 C18.799 156.182 18.81 154.956 18.821 153.693 C18.821 153.044 18.821 153.044 18.819 149.76 C18.819 146.209 18.836 142.658 18.857 139.106 C18.876 135.392 18.878 131.678 18.881 127.964 C18.891 120.934 18.915 113.904 18.945 106.874 C18.979 98.869 18.995 90.864 19.01 82.86 C19.042 66.396 19.095 49.933 19.161 33.47 C18.359 33.455 17.557 33.441 16.73 33.426 C13.103 33.351 9.476 33.255 5.849 33.157 C4.586 33.135 3.324 33.112 2.023 33.089 C0.814 33.054 -0.394 33.018 -1.639 32.982 C-2.755 32.956 -3.87 32.929 -5.02 32.902 C-7.839 32.47 -7.839 32.47 -9.684 31.133 C-12.937 26.448 -12.082 18.85 -12.151 13.282 C-12.18 12.489 -12.209 11.696 -12.239 10.878 C-12.247 10.111 -12.256 9.343 -12.264 8.552 C-12.279 7.863 -12.294 7.175 -12.309 6.465 C-10.808 0.096 -5.564 -0.097 0 0 Z " fill="#0132B2" transform="translate(858.838623046875,315.530029296875)"/>
<path d="M0 0 C1.241 0.02 2.482 0.04 3.76 0.061 C5.104 0.099 6.448 0.137 7.792 0.175 C9.175 0.203 10.558 0.229 11.94 0.255 C15.569 0.325 19.197 0.414 22.825 0.506 C26.532 0.598 30.239 0.672 33.946 0.747 C41.211 0.897 48.476 1.067 55.741 1.249 C57.255 4.838 57.972 7.353 57.788 11.26 C57.745 12.183 57.703 13.105 57.659 14.055 C57.604 15.006 57.548 15.957 57.491 16.936 C57.451 17.899 57.411 18.861 57.37 19.852 C56.999 26.991 56.999 26.991 54.741 29.249 C52.16 29.424 49.688 29.48 47.108 29.444 C46.732 29.443 46.732 29.443 44.83 29.436 C42.425 29.424 40.021 29.399 37.616 29.374 C35.987 29.364 34.358 29.355 32.729 29.346 C28.733 29.326 24.737 29.287 20.741 29.249 C21.071 38.489 21.401 47.729 21.741 57.249 C35.553 57.624 35.553 57.624 39.9 57.727 C41.03 57.762 42.159 57.798 43.323 57.835 C44.48 57.866 45.638 57.898 46.83 57.93 C49.741 58.249 49.741 58.249 52.741 60.249 C54.09 64.465 53.89 68.862 53.866 73.249 C53.87 73.947 53.874 74.646 53.878 75.366 C53.871 79.12 53.639 82.6 52.741 86.249 C47.573 87.302 42.613 87.399 37.366 87.374 C36.554 87.378 35.742 87.382 34.905 87.385 C29.763 87.377 24.83 86.986 19.741 86.249 C19.823 86.759 19.823 86.759 20.237 89.343 C21.043 95.787 20.846 102.266 20.803 108.749 C20.799 110.048 20.794 111.348 20.79 112.686 C20.778 115.874 20.762 119.061 20.741 122.249 C21.613 122.228 22.485 122.207 23.384 122.185 C26.647 122.117 29.91 122.067 33.174 122.029 C34.581 122.009 35.988 121.982 37.396 121.947 C52.17 121.591 52.17 121.591 57.741 126.249 C59.186 130.584 58.925 134.771 58.928 139.311 C58.941 140.235 58.953 141.159 58.966 142.11 C58.968 142.992 58.969 143.875 58.971 144.784 C58.976 145.592 58.98 146.401 58.984 147.233 C58.741 149.249 58.741 149.249 56.741 151.249 C54.053 151.509 54.053 151.509 50.595 151.523 C49.303 151.533 48.012 151.543 46.681 151.552 C45.265 151.552 43.849 151.551 42.432 151.55 C40.985 151.553 39.538 151.558 38.091 151.563 C35.055 151.57 32.019 151.57 28.984 151.564 C25.092 151.559 21.2 151.576 17.309 151.599 C14.319 151.614 11.329 151.614 8.34 151.611 C6.905 151.612 5.47 151.617 4.035 151.627 C2.029 151.639 0.023 151.631 -1.983 151.621 C-3.125 151.622 -4.267 151.622 -5.444 151.623 C-8.259 151.249 -8.259 151.249 -10.136 149.91 C-11.953 147.222 -11.485 144.825 -11.333 141.635 C-11.307 140.967 -11.28 140.298 -11.253 139.609 C-11.194 138.153 -11.129 136.696 -11.058 135.24 C-10.866 131.267 -10.731 127.291 -10.591 123.315 C-10.561 122.486 -10.53 121.656 -10.499 120.802 C-10.189 111.993 -10.125 103.188 -10.134 94.374 C-10.134 93.587 -10.135 92.801 -10.135 91.99 C-10.151 80.944 -10.359 69.91 -10.69 58.868 C-10.896 51.996 -11.083 45.122 -11.259 38.249 C-11.27 37.842 -11.27 37.842 -11.323 35.785 C-11.449 30.847 -11.544 25.909 -11.601 20.97 C-11.623 19.418 -11.654 17.866 -11.693 16.314 C-11.747 14.175 -11.769 12.037 -11.782 9.897 C-11.802 8.682 -11.822 7.467 -11.843 6.215 C-11.259 3.249 -11.259 3.249 -9.114 1.579 C-5.794 0.032 -3.65 -0.082 0 0 Z " fill="#0132B2" transform="translate(881.259033203125,128.751220703125)"/>
<path d="M0 0 C0.596 -0.006 0.596 -0.006 3.61 -0.039 C4.898 -0.041 6.185 -0.043 7.512 -0.045 C8.845 -0.052 10.179 -0.059 11.513 -0.066 C14.307 -0.078 17.101 -0.081 19.896 -0.08 C23.477 -0.08 27.058 -0.107 30.639 -0.142 C33.393 -0.164 36.147 -0.168 38.9 -0.167 C40.863 -0.17 42.826 -0.192 44.788 -0.214 C45.98 -0.208 47.171 -0.202 48.398 -0.195 C49.449 -0.198 50.499 -0.201 51.581 -0.204 C54.199 0.291 54.199 0.291 56.038 2.176 C57.416 4.686 57.573 6.282 57.562 9.134 C57.562 9.593 57.562 9.593 57.561 11.912 C57.544 12.862 57.528 13.812 57.512 14.791 C57.515 15.741 57.518 16.691 57.521 17.669 C57.485 22.432 57.392 24.904 55.199 29.291 C49.754 29.456 49.754 29.456 22.199 30.291 C22.199 46.198 22.199 46.198 22.637 51.603 C22.718 52.672 22.799 53.74 22.883 54.841 C23.199 57.291 23.199 57.291 24.199 58.291 C25.934 58.341 27.671 58.326 29.406 58.283 C30.468 58.266 31.529 58.249 32.623 58.232 C34.871 58.188 37.118 58.136 39.365 58.076 C40.431 58.062 41.496 58.047 42.594 58.033 C43.572 58.011 44.55 57.989 45.558 57.966 C48.663 58.348 49.976 59.12 52.199 61.291 C53.585 65.449 53.423 69.372 53.449 73.728 C53.47 74.587 53.49 75.446 53.512 76.332 C53.514 76.747 53.514 76.747 53.527 78.849 C53.537 79.605 53.546 80.361 53.556 81.14 C53.076 84.033 52.363 85.295 50.199 87.291 C47.197 87.745 47.197 87.745 43.562 87.681 C42.977 87.676 42.977 87.676 40.017 87.651 C38.53 87.614 37.043 87.578 35.512 87.541 C30.789 87.458 26.065 87.376 21.199 87.291 C21.199 99.171 21.199 111.051 21.199 123.291 C36.887 122.603 36.887 122.603 41.811 122.362 C43.098 122.314 44.385 122.266 45.711 122.216 C47.025 122.159 48.34 122.101 49.694 122.042 C53.745 122.329 56.316 123.407 59.199 126.291 C59.451 129.909 59.384 133.54 59.387 137.166 C59.399 138.185 59.411 139.205 59.424 140.255 C59.426 141.234 59.428 142.212 59.43 143.22 C59.434 144.12 59.438 145.019 59.442 145.946 C59.199 148.291 59.199 148.291 57.199 151.291 C54.587 151.671 54.587 151.671 51.237 151.679 C50.611 151.683 50.611 151.683 47.444 151.707 C46.072 151.702 44.7 151.696 43.328 151.689 C41.926 151.691 40.523 151.694 39.121 151.698 C36.179 151.702 33.238 151.696 30.297 151.682 C26.526 151.665 22.755 151.674 18.985 151.692 C16.087 151.703 13.191 151.7 10.293 151.692 C8.903 151.69 7.513 151.692 6.123 151.699 C4.179 151.707 2.235 151.693 0.291 151.679 C-0.815 151.676 -1.922 151.674 -3.062 151.671 C-5.801 151.291 -5.801 151.291 -7.649 149.884 C-11.118 145.086 -9.844 137.146 -9.534 131.533 C-8.928 120.447 -8.688 109.375 -8.695 98.275 C-8.695 97.531 -8.695 96.787 -8.695 96.021 C-8.701 84.107 -8.934 72.207 -9.309 60.298 C-9.333 59.519 -9.357 58.74 -9.383 57.937 C-9.608 50.793 -9.847 43.65 -10.097 36.507 C-10.236 32.525 -10.364 28.542 -10.486 24.559 C-10.534 23.067 -10.586 21.575 -10.642 20.083 C-10.719 18.027 -10.783 15.97 -10.844 13.912 C-10.884 12.75 -10.924 11.587 -10.965 10.39 C-10.795 7.187 -10.311 5.11 -8.801 2.291 C-5.361 -0.003 -4.052 0.029 0 0 Z " fill="#0132B2" transform="translate(269.80078125,128.70947265625)"/>
<path d="M0 0 C0.617 0.007 0.617 0.007 3.741 0.041 C5.089 0.062 6.437 0.083 7.785 0.104 C9.166 0.123 10.547 0.143 11.928 0.161 C14.82 0.202 17.713 0.248 20.605 0.295 C24.317 0.356 28.028 0.403 31.74 0.446 C34.59 0.482 37.441 0.526 40.292 0.573 C41.66 0.594 43.029 0.612 44.398 0.626 C46.308 0.648 48.219 0.683 50.129 0.719 C50.673 0.727 50.673 0.727 53.426 0.768 C56 1.053 56 1.053 58 3.053 C58.2 5.988 58.278 8.808 58.25 11.741 C58.254 12.136 58.254 12.136 58.273 14.137 C58.257 19.128 57.886 23.403 56 28.053 C52.592 30.479 49.38 30.271 45.301 30.214 C44.01 30.203 42.719 30.192 41.388 30.18 C40.03 30.16 38.671 30.138 37.312 30.116 C34.642 30.08 31.971 30.052 29.301 30.026 C28.116 30.008 26.932 29.99 25.712 29.972 C23 30.053 23 30.053 22 31.053 C21.9 33.041 21.869 35.032 21.867 37.022 C21.866 38.233 21.864 39.443 21.863 40.69 C21.865 41.328 21.865 41.328 21.875 44.553 C21.871 45.828 21.867 47.103 21.863 48.417 C21.864 49.022 21.864 49.022 21.867 52.085 C21.868 53.204 21.869 54.324 21.87 55.477 C22 58.053 22 58.053 23 59.053 C24.831 59.116 26.664 59.113 28.496 59.081 C29.612 59.069 30.727 59.056 31.877 59.044 C34.247 59.009 36.616 58.97 38.986 58.927 C40.103 58.916 41.22 58.905 42.371 58.893 C43.401 58.876 44.432 58.86 45.494 58.842 C48 59.053 48 59.053 50 61.053 C50.259 63.344 50.259 63.344 50.265 66.175 C50.267 66.683 50.267 66.683 50.273 69.259 C50.265 70.325 50.258 71.392 50.25 72.491 C50.254 73.022 50.254 73.022 50.273 75.712 C50.271 76.731 50.268 77.75 50.265 78.8 C50.263 79.735 50.261 80.67 50.259 81.633 C50 84.053 50 84.053 48 87.053 C44.599 88.043 41.226 88.225 37.699 88.37 C36.723 88.412 35.746 88.454 34.74 88.497 C33.733 88.536 32.725 88.575 31.687 88.616 C30.661 88.659 29.634 88.702 28.576 88.747 C26.051 88.853 23.525 88.955 21 89.053 C21.011 90.201 21.023 91.348 21.035 92.53 C21.116 104.569 20.978 116.608 20.736 128.645 C20.704 130.376 20.676 132.107 20.654 133.838 C20.62 136.3 20.568 138.76 20.511 141.221 C20.505 141.967 20.499 142.713 20.492 143.482 C20.41 146.351 20.314 148.541 18.794 151.02 C16.357 152.423 14.587 152.426 11.781 152.417 C11.274 152.416 11.274 152.416 8.707 152.415 C7.648 152.399 6.59 152.383 5.5 152.366 C4.441 152.369 3.383 152.372 2.293 152.376 C-5.6 152.321 -5.6 152.321 -9 150.053 C-9.317 147.1 -9.438 144.351 -9.433 141.393 C-9.443 140.492 -9.453 139.592 -9.464 138.665 C-9.494 135.655 -9.503 132.645 -9.512 129.635 C-9.529 127.509 -9.547 125.382 -9.566 123.256 C-9.614 117.604 -9.644 111.952 -9.67 106.299 C-9.699 100.744 -9.746 95.189 -9.791 89.634 C-9.885 77.553 -9.945 65.473 -9.988 53.392 C-10 49.988 -10.014 46.583 -10.028 43.179 C-10.05 37.627 -10.065 32.076 -10.076 26.524 C-10.08 24.439 -10.086 22.353 -10.094 20.268 C-10.104 17.403 -10.107 14.538 -10.109 11.673 C-10.113 10.823 -10.117 9.973 -10.122 9.098 C-10.115 3.282 -10.115 3.282 -9 1.053 C-5.737 -0.034 -3.431 -0.044 0 0 Z " fill="#0031B2" transform="translate(394.000244140625,128.946533203125)"/>
<path d="M0 0 C1.25 0.003 2.501 0.006 3.789 0.01 C4.44 0.014 4.44 0.014 7.734 0.035 C8.393 0.037 8.393 0.037 11.727 0.049 C14.979 0.061 18.232 0.077 21.484 0.098 C23.451 4.217 23.732 7.533 23.725 12.077 C23.727 12.767 23.728 13.457 23.73 14.169 C23.733 16.475 23.722 18.781 23.711 21.087 C23.711 22.743 23.711 24.399 23.712 26.055 C23.713 30.546 23.701 35.037 23.687 39.529 C23.675 44.224 23.673 48.919 23.671 53.614 C23.665 62.504 23.648 71.393 23.628 80.282 C23.606 90.403 23.595 100.524 23.585 110.645 C23.564 131.462 23.529 152.28 23.484 173.098 C19.309 174.889 16.22 175.333 11.652 175.293 C10.36 175.287 9.068 175.28 7.736 175.273 C6.382 175.257 5.027 175.24 3.672 175.223 C2.298 175.213 0.923 175.203 -0.451 175.195 C-3.806 175.172 -7.161 175.139 -10.516 175.098 C-11.767 172.594 -11.721 170.756 -11.826 167.954 C-11.867 166.871 -11.908 165.787 -11.951 164.671 C-11.989 163.481 -12.028 162.291 -12.068 161.065 C-12.11 159.817 -12.152 158.569 -12.195 157.283 C-12.642 142.819 -12.68 128.355 -12.683 113.885 C-12.684 111.59 -12.686 109.295 -12.688 107 C-12.698 98.97 -12.702 90.939 -12.701 82.908 C-12.7 75.45 -12.711 67.991 -12.727 60.532 C-12.74 54.08 -12.745 47.627 -12.744 41.175 C-12.744 37.34 -12.747 33.506 -12.758 29.672 C-12.767 26.09 -12.767 22.509 -12.76 18.927 C-12.759 16.988 -12.767 15.048 -12.776 13.108 C-12.773 12.533 -12.773 12.533 -12.763 9.623 C-12.763 8.622 -12.764 7.622 -12.765 6.591 C-12.516 4.098 -12.516 4.098 -10.516 1.098 C-7.122 -0.248 -3.608 -0.016 0 0 Z " fill="#0132B2" transform="translate(108.515625,314.90234375)"/>
<path d="M0 0 C0.778 -0.004 1.555 -0.007 2.356 -0.011 C4.928 -0.019 7.499 -0.006 10.07 0.009 C11.855 0.01 13.639 0.009 15.424 0.008 C19.164 0.008 22.904 0.018 26.644 0.036 C31.445 0.059 36.245 0.059 41.046 0.053 C44.731 0.049 48.415 0.056 52.1 0.066 C53.871 0.07 55.641 0.071 57.412 0.069 C59.883 0.069 62.353 0.081 64.824 0.098 C65.192 0.096 65.192 0.096 67.055 0.09 C72.119 0.144 72.119 0.144 74.347 2.372 C74.606 4.755 74.606 4.755 74.613 7.712 C74.614 8.244 74.614 8.244 74.621 10.933 C74.613 12.047 74.605 13.162 74.597 14.31 C74.601 14.865 74.601 14.865 74.621 17.675 C74.618 18.739 74.616 19.803 74.613 20.9 C74.611 21.877 74.609 22.854 74.606 23.86 C74.347 26.372 74.347 26.372 72.347 29.372 C69.949 29.789 69.949 29.789 66.972 29.849 C65.905 29.88 64.838 29.911 63.738 29.943 C62.619 29.961 61.5 29.979 60.347 29.997 C58.139 30.048 55.931 30.103 53.722 30.161 C52.74 30.179 51.758 30.197 50.746 30.215 C48.347 30.372 48.347 30.372 46.347 31.372 C46.36 32.14 46.372 32.909 46.385 33.7 C46.545 43.57 46.699 53.44 46.847 63.31 C46.859 64.099 46.871 64.889 46.883 65.702 C47.306 93.927 47.48 122.144 47.347 150.372 C38.091 153.64 27.967 152.976 18.347 151.372 C16.347 149.372 16.347 149.372 16.101 147.268 C16.102 146.83 16.102 146.83 16.107 144.614 C16.104 143.61 16.101 142.606 16.099 141.572 C16.106 140.466 16.113 139.36 16.12 138.221 C16.12 137.06 16.12 135.9 16.119 134.703 C16.121 130.851 16.136 126.998 16.152 123.146 C16.156 120.481 16.159 117.815 16.161 115.15 C16.167 108.843 16.183 102.535 16.203 96.228 C16.226 89.048 16.237 81.868 16.247 74.688 C16.268 59.916 16.303 45.144 16.347 30.372 C15.702 30.388 15.056 30.404 14.391 30.42 C11.46 30.482 8.529 30.521 5.597 30.56 C4.582 30.585 3.566 30.61 2.519 30.636 C1.54 30.646 0.56 30.655 -0.449 30.665 C-1.35 30.681 -2.251 30.697 -3.179 30.713 C-6.145 30.305 -7.485 29.403 -9.653 27.372 C-11.264 22.795 -10.873 17.558 -10.903 12.747 C-10.923 11.889 -10.944 11.03 -10.965 10.146 C-10.97 9.321 -10.975 8.496 -10.981 7.646 C-10.99 6.897 -10.999 6.149 -11.009 5.378 C-9.957 -0.539 -4.982 -0.052 0 0 Z " fill="#0132B2" transform="translate(572.652587890625,128.627685546875)"/>
<path d="M0 0 C1.285 0.001 2.57 0.001 3.895 0.002 C4.563 0.01 5.232 0.019 5.92 0.027 C7.962 0.051 10.002 0.048 12.043 0.041 C22.068 0.096 22.068 0.096 25.469 2.363 C26.61 5.786 26.595 8.402 26.596 12.013 C26.597 12.692 26.599 13.371 26.6 14.07 C26.604 16.35 26.601 18.63 26.598 20.91 C26.599 22.543 26.601 24.176 26.603 25.808 C26.608 30.246 26.606 34.684 26.603 39.122 C26.601 43.76 26.603 48.398 26.604 53.036 C26.606 60.825 26.604 68.614 26.599 76.403 C26.594 85.417 26.595 94.431 26.601 103.445 C26.605 111.176 26.606 118.907 26.604 126.638 C26.602 131.259 26.602 135.88 26.605 140.501 C26.608 144.844 26.606 149.187 26.6 153.529 C26.599 155.127 26.599 156.724 26.601 158.321 C26.604 160.494 26.601 162.668 26.596 164.841 C26.595 166.059 26.595 167.278 26.595 168.533 C26.469 171.363 26.469 171.363 25.469 173.363 C20.948 173.413 16.428 173.449 11.907 173.473 C10.368 173.483 8.83 173.497 7.292 173.514 C5.082 173.538 2.873 173.55 0.664 173.559 C-0.026 173.569 -0.715 173.579 -1.426 173.59 C-3.129 173.59 -4.832 173.485 -6.531 173.363 C-9.297 170.597 -8.982 167.937 -9.146 164.221 C-9.184 163.505 -9.221 162.789 -9.26 162.052 C-9.623 154.584 -9.687 147.117 -9.692 139.641 C-9.697 138.146 -9.702 136.651 -9.707 135.156 C-9.72 131.153 -9.727 127.15 -9.731 123.147 C-9.734 120.641 -9.739 118.136 -9.743 115.63 C-9.757 107.777 -9.766 99.923 -9.77 92.07 C-9.775 83.026 -9.792 73.982 -9.821 64.938 C-9.843 57.922 -9.853 50.905 -9.854 43.888 C-9.855 39.706 -9.861 35.523 -9.879 31.341 C-9.895 27.422 -9.898 23.502 -9.889 19.583 C-9.888 18.144 -9.892 16.705 -9.902 15.267 C-9.915 13.307 -9.907 11.347 -9.899 9.387 C-9.9 8.29 -9.902 7.192 -9.903 6.062 C-9.531 3.363 -9.531 3.363 -8.193 1.51 C-5.554 -0.311 -3.162 -0.008 0 0 Z " fill="#0132B2" transform="translate(557.53125,314.63671875)"/>
<path d="M0 0 C0.367 -0.001 0.367 -0.001 2.222 -0.008 C4.287 -0.014 6.353 -0.012 8.418 -0.008 C9.001 -0.007 9.001 -0.007 11.954 -0.004 C14.812 0.125 14.812 0.125 17.812 1.125 C20.811 8.518 19.096 19.423 17.812 27.125 C14.845 28.609 11.987 28.481 8.688 28.688 C8.013 28.73 7.338 28.772 6.642 28.816 C2.021 29.093 -2.56 29.219 -7.188 29.125 C-8.335 32.569 -8.269 35.128 -8.209 38.76 C-8.204 39.096 -8.204 39.096 -8.18 40.8 C-8.147 43.044 -8.107 45.288 -8.066 47.531 C-8.042 49.115 -8.018 50.7 -7.994 52.284 C-7.944 55.651 -7.89 59.018 -7.835 62.386 C-7.706 70.215 -7.6 78.046 -7.493 85.876 C-7.457 88.463 -7.421 91.05 -7.385 93.638 C-7.009 120.679 -7.009 120.679 -6.954 131.493 C-6.943 133.281 -6.927 135.07 -6.904 136.858 C-6.875 139.271 -6.864 141.684 -6.859 144.098 C-6.85 145.4 -6.841 146.702 -6.831 148.043 C-7.188 151.125 -7.188 151.125 -8.354 153.037 C-12.507 155.502 -18.005 154.591 -22.688 154.562 C-23.841 154.582 -24.995 154.602 -26.184 154.623 C-26.736 154.623 -26.736 154.623 -29.531 154.621 C-30.544 154.623 -31.556 154.625 -32.6 154.627 C-35.188 154.125 -35.188 154.125 -36.83 152.527 C-38.666 149.278 -38.535 146.923 -38.498 143.198 C-38.495 142.504 -38.492 141.81 -38.489 141.095 C-38.476 138.777 -38.441 136.461 -38.406 134.145 C-38.392 132.494 -38.38 130.843 -38.368 129.192 C-38.333 124.752 -38.279 120.313 -38.222 115.874 C-38.165 111.32 -38.125 106.766 -38.082 102.212 C-37.983 92.023 -37.856 81.834 -37.724 71.645 C-37.662 66.823 -37.603 62 -37.543 57.178 C-37.427 47.827 -37.308 38.476 -37.188 29.125 C-44.448 29.125 -51.707 29.125 -59.188 29.125 C-60.954 25.592 -61.441 24.598 -61.453 20.973 C-61.456 20.196 -61.458 19.419 -61.461 18.619 C-61.453 17.817 -61.445 17.014 -61.438 16.188 C-61.445 15.389 -61.453 14.59 -61.461 13.768 C-61.447 9.491 -61.318 5.958 -59.188 2.125 C-56.213 0.638 -53.142 0.885 -49.875 0.809 C-49.126 0.788 -48.377 0.767 -47.605 0.745 C-45.132 0.679 -42.66 0.62 -40.188 0.562 C-39.347 0.542 -38.506 0.521 -37.639 0.499 C-25.093 0.191 -12.55 0.021 0 0 Z " fill="#0132B2" transform="translate(133.1875,127.875)"/>
<path d="M0 0 C0.99 0 1.98 0 3 0 C4.328 2.657 4.345 5.246 4.595 8.17 C6.008 24.509 8.885 41.58 21.605 53.168 C34.165 62.777 49.928 65.45 65 69 C65 69.99 65 70.98 65 72 C64.091 72.231 63.182 72.461 62.246 72.699 C25.849 82.144 25.849 82.144 15.473 98.465 C8.707 110.112 6.583 122.929 4 136 C2.68 136 1.36 136 0 136 C-0.182 134.984 -0.364 133.968 -0.551 132.922 C-1.332 128.608 -2.161 124.303 -3 120 C-3.205 118.918 -3.41 117.837 -3.621 116.723 C-6.428 103.735 -13.155 91.611 -24.059 83.812 C-35.057 76.783 -47.095 74.112 -60 73 C-60.66 72.67 -61.32 72.34 -62 72 C-61.67 71.01 -61.34 70.02 -61 69 C-60.457 68.905 -59.914 68.81 -59.354 68.712 C-26.978 62.94 -26.978 62.94 -16.812 50.438 C-7.557 36.836 -3.617 20.249 -1.359 4.152 C-1 2 -1 2 0 0 Z " fill="#FDB313" transform="translate(243,588)"/>
<path d="M0 0 C0.99 0.33 1.98 0.66 3 1 C3.125 1.841 3.251 2.681 3.38 3.548 C3.862 6.735 4.357 9.92 4.862 13.103 C5.075 14.469 5.284 15.835 5.487 17.202 C7.568 31.173 10.759 45.219 22.027 54.707 C33.275 62.741 46.898 65.864 60.036 69.415 C62 70 62 70 64 71 C63.67 71.99 63.34 72.98 63 74 C60.906 74.78 60.906 74.78 58.145 75.359 C57.64 75.472 57.64 75.472 55.087 76.041 C54.547 76.158 54.547 76.158 51.812 76.75 C37.053 80.184 22.888 84.831 14.441 98.328 C7.959 110.345 6.132 123.688 4 137 C3.01 137 2.02 137 1 137 C-1.066 131.881 -2.545 126.937 -3.685 121.54 C-6.748 107.096 -11.487 92.39 -24.156 83.484 C-33.464 78.044 -43.022 75.322 -53.625 73.75 C-54.725 73.577 -55.824 73.405 -56.957 73.227 C-59.637 72.807 -62.317 72.399 -65 72 C-65 71.01 -65 70.02 -65 69 C-62.711 67.856 -61.145 67.775 -58.598 67.605 C-42.01 66.368 -29.167 63.721 -17.25 51.312 C-6.729 39.016 -4.167 22.656 -1.951 7.082 C-1.093 1.093 -1.093 1.093 0 0 Z " fill="#FDB212" transform="translate(773,587)"/>
<path d="M0 0 C2.98 -0.082 5.957 -0.141 8.938 -0.188 C9.768 -0.213 10.599 -0.238 11.455 -0.264 C18.387 -0.345 25.179 0.396 30.438 5.25 C36.208 15.407 35.782 27.976 33 39 C31.304 42.922 28.717 45.86 25 48 C20.485 49.215 16.015 49.184 11.375 49.188 C10.612 49.2 9.849 49.212 9.062 49.225 C5.18 49.235 3.303 49.202 0 47 C-0.361 44.975 -0.361 44.975 -0.341 42.458 C-0.34 41.518 -0.34 40.577 -0.34 39.608 C-0.324 38.59 -0.309 37.572 -0.293 36.523 C-0.289 35.483 -0.284 34.443 -0.28 33.371 C-0.263 30.039 -0.226 26.707 -0.188 23.375 C-0.172 21.12 -0.159 18.865 -0.146 16.609 C-0.113 11.073 -0.063 5.536 0 0 Z " fill="#FEFEFE" transform="translate(459,348)"/>
<path d="M0 0 C2.834 -0.082 5.665 -0.141 8.5 -0.188 C9.291 -0.213 10.083 -0.238 10.898 -0.264 C16.862 -0.337 22.839 0.216 27.529 4.346 C33.21 10.798 34.261 18.049 33.895 26.402 C33.074 32.052 30.743 35.153 26.258 38.625 C19.061 43.008 10.165 42.522 2 42 C-2.196 37.804 -0.059 20.594 -0.068 14.936 C-0.06 9.957 -0.039 4.978 0 0 Z " fill="#FEFEFE" transform="translate(340,414)"/>
<path d="M0 0 C2.709 -0.109 5.414 -0.188 8.125 -0.25 C8.886 -0.284 9.646 -0.317 10.43 -0.352 C15.788 -0.444 18.748 0.443 23 4 C27.217 9.816 27.233 15.375 27.312 22.312 C27.342 23.142 27.371 23.972 27.4 24.826 C27.461 30.744 26.495 34.182 23 39 C15.987 43.102 7.912 42.519 0 42 C-1 41 -1 41 -1.022 37.123 C-0.979 35.393 -0.931 33.663 -0.879 31.934 C-0.855 31.025 -0.832 30.116 -0.807 29.18 C-0.731 26.266 -0.647 23.352 -0.562 20.438 C-0.509 18.467 -0.457 16.496 -0.404 14.525 C-0.275 9.683 -0.139 4.842 0 0 Z " fill="#FEFEFE" transform="translate(796,157)"/>
<path d="M0 0 C0.66 0 1.32 0 2 0 C2.231 0.773 2.461 1.547 2.699 2.344 C7.369 17.258 7.369 17.258 14.062 22.312 C19.034 24.798 24.601 25.83 30 27 C30 27.66 30 28.32 30 29 C29.287 29.219 28.574 29.438 27.84 29.664 C26.882 29.981 25.924 30.298 24.938 30.625 C23.998 30.927 23.058 31.228 22.09 31.539 C14.358 35.195 10.816 40.215 7.688 48 C7.521 48.391 7.521 48.391 6.678 50.367 C4.926 54.522 3.358 58.698 2 63 C1.34 63 0.68 63 0 63 C-0.219 62.01 -0.438 61.02 -0.664 60 C-2.868 50.604 -5.067 43.51 -13.25 37.688 C-16.967 35.796 -20.934 34.745 -24.961 33.711 C-27 33 -27 33 -28 31 C-27.227 30.914 -26.453 30.827 -25.656 30.738 C-19.034 29.845 -12.897 28.864 -8 24 C-4.568 18.852 -3.008 14.08 -1.75 8.062 C-1.577 7.283 -1.405 6.504 -1.227 5.701 C-0.807 3.803 -0.402 1.902 0 0 Z " fill="#FDB71B" transform="translate(704,692)"/>
<path d="M0 0 C1.838 2.757 2.74 5.105 3.698 8.243 C6.474 17.317 9.21 23.947 17.73 28.867 C21.712 30.855 25.825 32.469 30 34 C27.648 36.352 25.892 36.836 22.75 37.875 C15.369 40.499 11.076 43.194 7 50 C5.925 52.58 5.073 55.205 4.25 57.875 C4.03 58.563 3.809 59.252 3.582 59.961 C3.046 61.638 2.522 63.319 2 65 C1.01 65 0.02 65 -1 65 C-1.159 63.938 -1.317 62.876 -1.48 61.781 C-4.066 45.627 -4.066 45.627 -9 41 C-11.874 39.205 -14.793 38.069 -18 37 C-18.852 36.702 -19.704 36.404 -20.582 36.098 C-22.713 35.369 -24.85 34.671 -27 34 C-26.67 33.34 -26.34 32.68 -26 32 C-24.164 31.492 -22.304 31.068 -20.438 30.688 C-14.155 29.179 -8.942 27.457 -4.66 22.426 C-1.25 16.83 -1.395 10.463 -1.176 4.098 C-1 1 -1 1 0 0 Z " fill="#FDB517" transform="translate(309,688)"/>
<path d="M0 0 C12.239 0.134 12.239 0.134 17.812 4.375 C22.333 10.358 22.484 16.964 21.938 24.188 C20.935 29.748 19.295 32.574 14.938 36.188 C12.062 37.146 10.647 37.254 7.707 37.066 C6.905 37.018 6.102 36.97 5.275 36.92 C4.859 36.892 4.859 36.892 2.75 36.75 C1.905 36.698 1.06 36.646 0.189 36.592 C-1.895 36.462 -3.979 36.326 -6.062 36.188 C-7.075 28.664 -7.213 21.273 -7.188 13.688 C-7.191 12.496 -7.195 11.305 -7.199 10.078 C-7.198 8.949 -7.197 7.82 -7.195 6.656 C-7.195 6.143 -7.195 6.143 -7.192 3.545 C-6.937 -1.092 -4.008 0.023 0 0 Z " fill="#FEFEFE" transform="translate(348.0625,346.8125)"/>
<path d="M0 0 C2.966 -0.002 5.932 -0.02 8.897 -0.039 C27.349 -0.095 45.499 1.36 63.687 4.498 C64.317 4.604 64.317 4.604 67.507 5.143 C77.677 6.918 87.604 9.257 97.499 12.185 C97.499 12.845 97.499 13.505 97.499 14.185 C92.359 13.179 87.23 12.137 82.116 11.002 C60.396 6.226 38.301 3.006 16.022 3.052 C14.972 3.052 13.922 3.051 12.84 3.05 C10.634 3.049 8.427 3.051 6.22 3.055 C2.903 3.06 -0.414 3.055 -3.731 3.049 C-14.255 3.047 -24.725 3.111 -35.217 4.012 C-36.974 4.145 -38.739 4.175 -40.501 4.185 C-41.161 3.525 -41.821 2.865 -42.501 2.185 C-28.318 0.474 -14.272 -0.001 0 0 Z " fill="#FDD445" transform="translate(726.5009765625,558.814697265625)"/>
<path d="M0 0 C0 0.33 0 0.66 0 1 C1.221 1.219 2.441 1.438 3.699 1.664 C13.936 3.602 22.764 6.026 32 11 C31.34 11.66 30.68 12.32 30 13 C29.357 12.674 28.714 12.348 28.051 12.012 C16.514 6.433 4.626 4.609 -8 3 C-8 2.01 -8 1.02 -8 0 C-5.138 -1.431 -3.066 -0.6 0 0 Z " fill="#FDD037" transform="translate(716,656)"/>
<path d="M0 0 C0.99 0.33 1.98 0.66 3 1 C4.25 7.625 4.25 7.625 2 11 C2 8.69 2 6.38 2 4 C1.34 4 0.68 4 0 4 C-0.33 8.29 -0.66 12.58 -1 17 C-1.66 16.34 -2.32 15.68 -3 15 C-2.793 11.777 -2.793 11.777 -2.188 7.938 C-2.091 7.303 -2.091 7.303 -1.605 4.09 C-1 1 -1 1 0 0 Z " fill="#FDD447" transform="translate(773,587)"/>
<path d="M0 0 C0.66 0 1.32 0 2 0 C0.68 6.27 -0.64 12.54 -2 19 C-2.66 18.67 -3.32 18.34 -4 18 C-3.526 15.187 -3.046 12.374 -2.562 9.562 C-2.428 8.76 -2.293 7.958 -2.154 7.131 C-1.113 1.113 -1.113 1.113 0 0 Z " fill="#FDD241" transform="translate(868,707)"/>
<path d="M0 0 C0 0.66 0 1.32 0 2 C-0.748 2.398 -1.495 2.797 -2.266 3.207 C-3.25 3.737 -4.235 4.267 -5.25 4.812 C-6.225 5.335 -7.199 5.857 -8.203 6.395 C-11 8 -11 8 -13.172 9.762 C-13.775 10.17 -14.378 10.579 -15 11 C-15.99 10.67 -16.98 10.34 -18 10 C-4.137 0 -4.137 0 0 0 Z " fill="#FDD548" transform="translate(186,576)"/>
<path d="M0 0 C0.99 0.66 1.98 1.32 3 2 C3 2.66 3 3.32 3 4 C-0.63 3.67 -4.26 3.34 -8 3 C-8 2.01 -8 1.02 -8 0 C-5.089 -1.455 -3.117 -0.7 0 0 Z " fill="#FDD754" transform="translate(716,656)"/>
<path d="M0 0 C2.458 3.687 3.012 6.697 4 11 C3.01 10.67 2.02 10.34 1 10 C0.34 10.99 -0.32 11.98 -1 13 C-1.027 11.021 -1.046 9.042 -1.062 7.062 C-1.074 5.96 -1.086 4.858 -1.098 3.723 C-1 1 -1 1 0 0 Z " fill="#FDE383" transform="translate(309,688)"/>
<path d="M0 0 C1.98 0.66 3.96 1.32 6 2 C3.475 4.525 1.265 5.043 -2.125 6.125 C-3.221 6.478 -4.316 6.831 -5.445 7.195 C-6.288 7.461 -7.131 7.726 -8 8 C-8.33 7.34 -8.66 6.68 -9 6 C-6.03 4.68 -3.06 3.36 0 2 C0 1.34 0 0.68 0 0 Z " fill="#FDD759" transform="translate(333,720)"/>
<path d="M0 0 C0 0.66 0 1.32 0 2 C-6.6 1.67 -13.2 1.34 -20 1 C-20 0.67 -20 0.34 -20 0 C-13.126 -0.745 -6.831 -1.182 0 0 Z " fill="#FDD76C" transform="translate(774,561)"/>
<path d="M0 0 C-0.99 1.32 -1.98 2.64 -3 4 C-5.31 3.34 -7.62 2.68 -10 2 C-9.67 1.34 -9.34 0.68 -9 0 C-5.655 -0.994 -3.31 -1.103 0 0 Z " fill="#FDD860" transform="translate(292,720)"/>
<path d="M0 0 C1.532 0.252 3.053 0.576 4.562 0.938 C5.389 1.132 6.215 1.327 7.066 1.527 C7.385 1.605 7.385 1.605 9 2 C9 2.99 9 3.98 9 5 C7.35 5.33 5.7 5.66 4 6 C3.67 5.01 3.34 4.02 3 3 C0.938 1.812 0.938 1.812 -1 1 C-0.67 0.67 -0.34 0.34 0 0 Z " fill="#FDD34E" transform="translate(299,655)"/>
<path d="M0 0 C1.585 0.284 3.168 0.578 4.75 0.875 C5.191 0.956 5.191 0.956 7.422 1.367 C9.869 1.968 11.806 2.78 14 4 C13.67 4.66 13.34 5.32 13 6 C11.018 5.384 9.039 4.757 7.062 4.125 C5.96 3.777 4.858 3.429 3.723 3.07 C1 2 1 2 0 0 Z " fill="#FDD249" transform="translate(676,723)"/>
<path d="M0 0 C0 0.33 0 0.66 0 1 C-1.65 1.33 -3.3 1.66 -5 2 C-4.67 2.66 -4.34 3.32 -4 4 C-4.99 3.835 -4.99 3.835 -10 3 C-9.67 2.01 -9.34 1.02 -9 0 C-5.622 -0.845 -3.325 -1.108 0 0 Z " fill="#FDDC67" transform="translate(191,657)"/>
<path d="M0 0 C3.21 1.382 5.049 2.924 7.25 5.625 C7.51 5.941 7.51 5.941 8.828 7.539 C9.021 7.78 9.021 7.78 10 9 C9.67 9.66 9.34 10.32 9 11 C7.497 9.357 5.998 7.71 4.5 6.062 C3.665 5.146 2.829 4.229 1.969 3.285 C0 1 0 1 0 0 Z " fill="#0123C8" transform="translate(750,672)"/>
<path d="M0 0 C0.66 0.33 1.32 0.66 2 1 C-0.97 3.97 -3.94 6.94 -7 10 C-7 6.044 -5.595 4.891 -3 2 C-2.01 1.34 -1.02 0.68 0 0 Z " fill="#0228C1" transform="translate(268,674)"/>
<path d="M0 0 C0.33 0 0.66 0 1 0 C1 1.98 1 3.96 1 6 C1.99 6.33 2.98 6.66 4 7 C3.67 8.32 3.34 9.64 3 11 C2.34 11 1.68 11 1 11 C0.639 9.356 0.286 7.709 -0.062 6.062 C-0.26 5.146 -0.457 4.229 -0.66 3.285 C-0.772 2.531 -0.884 1.777 -1 1 C-0.67 0.67 -0.34 0.34 0 0 Z " fill="#FDD64D" transform="translate(703,744)"/>
</svg>
