<?xml version="1.0" encoding="UTF-8"?>
<svg xmlns="http://www.w3.org/2000/svg" viewBox="0 0 800 800" width="800" height="800">
  <title>Bloom</title>
  <rect width="800" height="800" fill="#FFFFFF"/>
  
  <polygon points="80.0,64.0 84.0,76.0 96.0,80.0 84.0,84.0 80.0,96.0 76.0,84.0 64.0,80.0 76.0,76.0" fill="#E84B8A"/>
  <polygon points="720.0,64.0 724.0,76.0 736.0,80.0 724.0,84.0 720.0,96.0 716.0,84.0 704.0,80.0 716.0,76.0" fill="#E8A020"/>
  <polygon points="80.0,704.0 84.0,716.0 96.0,720.0 84.0,724.0 80.0,736.0 76.0,724.0 64.0,720.0 76.0,716.0" fill="#E84B8A"/>
  <polygon points="720.0,704.0 724.0,716.0 736.0,720.0 724.0,724.0 720.0,736.0 716.0,724.0 704.0,720.0 716.0,716.0" fill="#E8A020"/>
  <circle cx="272.0" cy="190.0" r="7" fill="#E8A020"/>
  <circle cx="304.0" cy="190.0" r="7" fill="#E8A020"/>
  <circle cx="336.0" cy="190.0" r="7" fill="#E8A020"/>
  <circle cx="368.0" cy="190.0" r="7" fill="#E8A020"/>
  <circle cx="400.0" cy="190.0" r="7" fill="#E8A020"/>
  <circle cx="432.0" cy="190.0" r="7" fill="#E8A020"/>
  <circle cx="464.0" cy="190.0" r="7" fill="#E8A020"/>
  <circle cx="496.0" cy="190.0" r="7" fill="#E8A020"/>
  <circle cx="528.0" cy="190.0" r="7" fill="#E8A020"/>
  <g><path d="M178 -39Q156 -39 127.5 -34.5Q99 -30 72.5 -19.0Q46 -8 28.5 12.5Q11 33 11 64Q11 101 44.0 131.5Q77 162 137 162Q181 162 219.0 147.5Q257 133 293.5 112.5Q330 92 369 72Q419 120 460.5 191.0Q502 262 543.5 343.5Q585 425 633.5 507.0Q682 589 746 661L804 726Q767 732 727.0 735.5Q687 739 644 739Q585 739 515.5 729.0Q446 719 377.5 698.0Q309 677 252.5 645.0Q196 613 162.0 569.0Q128 525 128 468Q128 429 145.5 406.0Q163 383 189.5 372.5Q216 362 243 362Q288 362 319.0 382.5Q350 403 365.5 430.0Q381 457 381 478Q381 485 391 485Q401 485 401 469Q401 428 376.0 398.0Q351 368 313.5 352.0Q276 336 238 336Q203 336 166.5 353.0Q130 370 106.0 404.0Q82 438 82 488Q82 548 116.0 594.5Q150 641 207.0 674.0Q264 707 334.0 728.5Q404 750 475.5 760.0Q547 770 610 770Q668 770 723.5 764.5Q779 759 828 748Q842 760 856.5 769.0Q871 778 883 783Q894 788 901 788Q909 788 909 782Q909 779 898 771Q885 761 875.5 752.5Q866 744 864 740Q966 714 1029.5 668.5Q1093 623 1093 561Q1093 510 1058.0 471.5Q1023 433 966.5 411.0Q910 389 846 386Q936 357 989.5 311.0Q1043 265 1043 194Q1043 141 1012.5 98.0Q982 55 931.5 24.5Q881 -6 821.0 -22.5Q761 -39 702 -39Q609 -39 537.5 -20.0Q466 -1 389 34Q292 -39 178 -39ZM688 -10Q750 -10 801.0 9.0Q852 28 889.5 59.0Q927 90 947.5 128.0Q968 166 968 203Q968 238 947.0 270.5Q926 303 881 325Q823 354 779.0 365.5Q735 377 709 387Q699 392 696.0 394.0Q693 396 693 398Q693 408 703.0 414.0Q713 420 726 420Q746 420 769.0 417.0Q792 414 818 414Q883 414 930.0 440.0Q977 466 1002.5 505.0Q1028 544 1028 582Q1028 625 990.0 657.5Q952 690 852 716Q802 647 752.0 561.5Q702 476 652.0 388.5Q602 301 551.0 223.0Q500 145 449 89Q437 76 430.0 69.5Q423 63 411 52Q471 27 543.0 8.5Q615 -10 688 -10ZM158 -8Q214 -11 260.5 5.5Q307 22 347 52Q323 64 286.0 83.0Q249 102 211.0 116.5Q173 131 145 131Q108 131 89.0 111.5Q70 92 70 67Q70 41 92.0 17.5Q114 -6 158 -8Z" fill="#E84B8A" transform="translate(216.625,430.000) scale(0.150000,-0.150000)"/><path d="M106 -3Q69 -3 51.5 19.5Q34 42 34 73Q34 105 43.0 139.0Q52 173 59 196Q75 252 99.5 315.5Q124 379 153.5 440.5Q183 502 212 551Q235 590 261.5 609.5Q288 629 308 629Q324 629 333.5 617.5Q343 606 343 583Q343 567 337.5 545.0Q332 523 319 495Q284 417 235.5 339.0Q187 261 113 193Q101 165 93.0 133.0Q85 101 85 81Q85 19 127 19Q159 19 198.0 65.5Q237 112 272 193Q276 193 280.0 191.5Q284 190 284 184Q273 157 256.5 124.5Q240 92 218.5 63.0Q197 34 169.0 15.5Q141 -3 106 -3ZM121 225Q157 262 191.0 310.5Q225 359 254.5 411.5Q284 464 304 511Q311 526 315.5 544.0Q320 562 320 574Q320 588 313 588Q309 588 301.0 580.5Q293 573 280 555Q261 530 238.5 487.0Q216 444 193.0 395.0Q170 346 151.0 300.5Q132 255 121 225Z" fill="#E84B8A" transform="translate(373.675,430.000) scale(0.150000,-0.150000)"/><path d="M119 0Q78 0 58.5 29.5Q39 59 39 101Q39 140 54 182Q70 228 98.5 266.0Q127 304 161.5 327.5Q196 351 230 351Q271 351 290.5 323.0Q310 295 310 252Q310 222 300.0 189.0Q290 156 273 124Q286 111 310 111Q338 111 358.0 129.0Q378 147 397 193Q409 193 409 184Q390 138 365.5 116.5Q341 95 303 96Q280 96 265 109Q237 63 198.5 31.5Q160 0 119 0ZM133 22Q156 22 179.0 41.5Q202 61 221.0 86.0Q240 111 248 129Q232 158 229.5 172.5Q227 187 227 194Q227 213 237.0 223.0Q247 233 257 233Q271 233 281 221Q283 232 284.0 241.5Q285 251 285 260Q285 286 275.5 302.5Q266 319 246 319Q225 319 202.0 301.0Q179 283 158.5 253.0Q138 223 123 186Q110 155 103.0 127.5Q96 100 96 77Q96 52 105.0 37.0Q114 22 133 22Z" fill="#E84B8A" transform="translate(405.625,430.000) scale(0.150000,-0.150000)"/><path d="M119 0Q78 0 58.5 29.5Q39 59 39 101Q39 140 54 182Q70 228 98.5 266.0Q127 304 161.5 327.5Q196 351 230 351Q271 351 290.5 323.0Q310 295 310 252Q310 222 300.0 189.0Q290 156 273 124Q286 111 310 111Q338 111 358.0 129.0Q378 147 397 193Q409 193 409 184Q390 138 365.5 116.5Q341 95 303 96Q280 96 265 109Q237 63 198.5 31.5Q160 0 119 0ZM133 22Q156 22 179.0 41.5Q202 61 221.0 86.0Q240 111 248 129Q232 158 229.5 172.5Q227 187 227 194Q227 213 237.0 223.0Q247 233 257 233Q271 233 281 221Q283 232 284.0 241.5Q285 251 285 260Q285 286 275.5 302.5Q266 319 246 319Q225 319 202.0 301.0Q179 283 158.5 253.0Q138 223 123 186Q110 155 103.0 127.5Q96 100 96 77Q96 52 105.0 37.0Q114 22 133 22Z" fill="#E84B8A" transform="translate(456.325,430.000) scale(0.150000,-0.150000)"/><path d="M-38 -5Q-1 66 32.0 137.5Q65 209 99 273Q119 309 132.5 323.5Q146 338 169 338Q177 338 186.0 335.5Q195 333 204 333Q210 333 213 334Q199 326 177.0 294.5Q155 263 132.0 222.0Q109 181 91 145Q110 168 130.5 191.0Q151 214 176 235Q198 254 222.5 276.5Q247 299 271.0 315.0Q295 331 313 331Q320 331 322 330Q341 322 341 304Q341 298 336 286Q323 252 302.5 216.5Q282 181 264 145Q279 163 301.5 189.0Q324 215 347 235Q369 255 403.0 277.0Q437 299 470.0 315.0Q503 331 523 331Q530 331 533 330Q533 330 522.0 310.5Q511 291 494.5 259.5Q478 228 461.0 192.5Q444 157 430.5 124.5Q417 92 413 70Q410 57 410 46Q410 30 416.0 25.0Q422 20 429 20Q449 20 468.5 37.0Q488 54 507.0 80.5Q526 107 541.5 137.0Q557 167 568 193Q580 193 580 184Q569 157 552.5 124.5Q536 92 515.0 63.0Q494 34 469.0 15.0Q444 -4 415 -4Q394 -4 375.5 10.0Q357 24 357 62Q357 103 376.5 144.0Q396 185 417 219Q427 236 427 246Q427 258 415 258Q405 258 387.5 248.0Q370 238 344 213Q328 198 306.5 171.5Q285 145 263.0 114.0Q241 83 225.0 53.0Q209 23 204 0Q189 0 180.0 12.5Q171 25 171 42Q171 45 171.0 48.0Q171 51 172 55Q177 86 188.0 107.5Q199 129 213 158Q220 171 229.0 188.5Q238 206 245.0 222.5Q252 239 252 250Q252 260 244 260Q235 260 220.5 251.0Q206 242 193.0 230.5Q180 219 173 213Q148 189 112.5 144.0Q77 99 35 16Q29 5 21.0 2.5Q13 0 -4 0Q-15 0 -22.5 -0.5Q-30 -1 -38 -5Z" fill="#E84B8A" transform="translate(507.025,430.000) scale(0.150000,-0.150000)"/></g>
  <circle cx="272.0" cy="480.0" r="7" fill="#E84B8A"/>
  <circle cx="304.0" cy="480.0" r="7" fill="#E84B8A"/>
  <circle cx="336.0" cy="480.0" r="7" fill="#E84B8A"/>
  <circle cx="368.0" cy="480.0" r="7" fill="#E84B8A"/>
  <circle cx="400.0" cy="480.0" r="7" fill="#E84B8A"/>
  <circle cx="432.0" cy="480.0" r="7" fill="#E84B8A"/>
  <circle cx="464.0" cy="480.0" r="7" fill="#E84B8A"/>
  <circle cx="496.0" cy="480.0" r="7" fill="#E84B8A"/>
  <circle cx="528.0" cy="480.0" r="7" fill="#E84B8A"/>
  <g><path d="M268 -13Q225 -13 184.0 2.5Q143 18 110 48L174 165Q174 106 194.0 71.0Q214 36 242.0 21.5Q270 7 292 7Q336 7 358.5 51.0Q381 95 381 174Q381 264 351.0 305.0Q321 346 271 346Q240 346 212.0 333.0Q184 320 161 302L152 310Q173 331 196.5 351.5Q220 372 250.0 385.5Q280 399 318 399Q362 399 399.5 378.5Q437 358 460.5 317.0Q484 276 484 213Q484 138 452.5 87.5Q421 37 372.0 12.0Q323 -13 268 -13ZM36 -7Q32 -8 30.0 -3.5Q28 1 32 2Q55 16 68.0 39.5Q81 63 81 103V589Q81 623 74.5 638.5Q68 654 51 654Q38 654 14 643Q10 642 7.5 648.0Q5 654 7 655L153 724Q156 725 158 725Q163 725 168.5 720.5Q174 716 174 712V56Z" fill="#AAAAAA" transform="translate(282.341,556.000) scale(0.022000,-0.022000)"/><path d="M235 -12Q170 -12 124.5 15.0Q79 42 55.5 86.5Q32 131 32 182Q32 241 61.0 289.0Q90 337 141.0 366.0Q192 395 258 395Q317 395 352.5 368.0Q388 341 388 280Q388 267 386.0 258.0Q384 249 377 249H281Q283 306 270.0 340.5Q257 375 220 375Q180 375 156.5 334.0Q133 293 133 225Q133 167 151.0 125.0Q169 83 204.0 60.0Q239 37 290 37Q320 37 340.5 44.5Q361 52 386 65Q388 67 391.5 63.0Q395 59 393 56Q356 19 317.5 3.5Q279 -12 235 -12ZM98 248 97 267 316 271V249Z" fill="#AAAAAA" transform="translate(296.693,556.000) scale(0.022000,-0.022000)"/><path d="M268 -13Q225 -13 184.0 2.5Q143 18 110 48L174 165Q174 106 194.0 71.0Q214 36 242.0 21.5Q270 7 292 7Q336 7 358.5 51.0Q381 95 381 174Q381 264 351.0 305.0Q321 346 271 346Q240 346 212.0 333.0Q184 320 161 302L152 310Q173 331 196.5 351.5Q220 372 250.0 385.5Q280 399 318 399Q362 399 399.5 378.5Q437 358 460.5 317.0Q484 276 484 213Q484 138 452.5 87.5Q421 37 372.0 12.0Q323 -13 268 -13ZM36 -7Q32 -8 30.0 -3.5Q28 1 32 2Q55 16 68.0 39.5Q81 63 81 103V589Q81 623 74.5 638.5Q68 654 51 654Q38 654 14 643Q10 642 7.5 648.0Q5 654 7 655L153 724Q156 725 158 725Q163 725 168.5 720.5Q174 716 174 712V56Z" fill="#AAAAAA" transform="translate(317.037,556.000) scale(0.022000,-0.022000)"/><path d="M161 271 153 284Q192 329 219.0 353.0Q246 377 265.0 386.5Q284 396 299 396Q320 396 342.5 380.5Q365 365 365 340Q365 319 352.5 305.5Q340 292 318 292Q297 292 286.5 303.0Q276 314 267.5 324.5Q259 335 243 335Q236 335 227.5 330.5Q219 326 203.5 312.5Q188 299 161 271ZM39 0Q36 0 36.0 6.0Q36 12 39 12Q70 12 81.0 26.5Q92 41 92 81V269Q92 300 85.0 314.5Q78 329 61 329Q52 329 40.0 325.5Q28 322 13 315Q9 313 7.0 319.0Q5 325 7 326L146 394Q152 396 153 396Q164 396 175.0 372.0Q186 348 186 303V81Q186 55 194.0 39.5Q202 24 221.5 18.0Q241 12 275 12Q279 12 279.0 6.0Q279 0 275 0Q248 0 213.5 1.0Q179 2 139 2Q111 2 85.0 1.0Q59 0 39 0Z" fill="#AAAAAA" transform="translate(331.389,556.000) scale(0.022000,-0.022000)"/><path d="M319 -6Q315 -8 309 -8Q291 -8 273.0 16.0Q255 40 255 85V255Q255 318 245.0 347.5Q235 377 209 377Q184 377 171.5 361.5Q159 346 154.5 327.0Q150 308 149 295Q146 264 131.0 251.5Q116 239 91 239Q65 239 54.0 250.0Q43 261 43 277Q43 301 64.5 322.5Q86 344 119.0 360.5Q152 377 187.5 386.5Q223 396 250 396Q291 396 320.0 370.0Q349 344 349 285V108Q349 79 359.5 63.0Q370 47 389 47Q403 47 418 54Q422 56 424.5 50.5Q427 45 422 43ZM127 -7Q83 -7 61.5 12.5Q40 32 40 65Q40 98 58.0 115.5Q76 133 105.0 143.5Q134 154 165 165L265 202L269 187L212 161Q204 158 189.0 151.5Q174 145 162.0 132.5Q150 120 150 97Q150 71 167.0 58.5Q184 46 201 46Q209 46 216.5 48.0Q224 50 234 57L284 91L285 75L215 25Q193 8 173.0 0.5Q153 -7 127 -7Z" fill="#AAAAAA" transform="translate(342.727,556.000) scale(0.022000,-0.022000)"/><path d="M454 386Q456 386 456.0 380.0Q456 374 454 374Q425 374 402.5 352.0Q380 330 360 284L237 0Q235 -5 226.5 -5.0Q218 -5 215 0L62 303Q40 349 24.0 361.5Q8 374 -14 374Q-17 374 -17.0 380.0Q-17 386 -14 386Q3 386 24.5 385.0Q46 384 83 384Q124 384 153.0 385.0Q182 386 207 386Q210 386 210.0 380.0Q210 374 207 374Q176 374 159.0 366.0Q142 358 154 335L274 109L223 21L332 285Q349 326 332.5 350.0Q316 374 276 374Q274 374 274.0 380.0Q274 386 276 386Q300 386 321.5 385.0Q343 384 377 384Q401 384 416.5 385.0Q432 386 454 386Z" fill="#AAAAAA" transform="translate(354.989,556.000) scale(0.022000,-0.022000)"/><path d="M235 -12Q170 -12 124.5 15.0Q79 42 55.5 86.5Q32 131 32 182Q32 241 61.0 289.0Q90 337 141.0 366.0Q192 395 258 395Q317 395 352.5 368.0Q388 341 388 280Q388 267 386.0 258.0Q384 249 377 249H281Q283 306 270.0 340.5Q257 375 220 375Q180 375 156.5 334.0Q133 293 133 225Q133 167 151.0 125.0Q169 83 204.0 60.0Q239 37 290 37Q320 37 340.5 44.5Q361 52 386 65Q388 67 391.5 63.0Q395 59 393 56Q356 19 317.5 3.5Q279 -12 235 -12ZM98 248 97 267 316 271V249Z" fill="#AAAAAA" transform="translate(367.669,556.000) scale(0.022000,-0.022000)"/><path d="M97 141Q69 141 52.5 157.5Q36 174 36 202Q36 228 52.5 244.0Q69 260 97 260Q126 260 141.0 244.0Q156 228 156 202Q156 174 141.0 157.5Q126 141 97 141Z" fill="#AAAAAA" transform="translate(388.013,556.000) scale(0.022000,-0.022000)"/><path d="M182 -282Q113 -282 69.0 -250.5Q25 -219 25 -168Q25 -136 49.5 -100.0Q74 -64 144 -21L154 -32Q142 -40 133.0 -51.5Q124 -63 119.5 -79.0Q115 -95 115 -116Q115 -161 133.5 -190.5Q152 -220 181.0 -235.0Q210 -250 242 -250Q292 -250 322.5 -218.0Q353 -186 353 -131Q353 -86 333.5 -67.0Q314 -48 280.0 -43.5Q246 -39 201 -39Q167 -38 133.0 -33.0Q99 -28 76.5 -11.5Q54 5 54 40Q54 75 78.5 108.0Q103 141 157 167L166 161Q146 149 136.0 134.5Q126 120 126 99Q126 71 141.5 59.0Q157 47 185.0 44.5Q213 42 250 41Q284 41 316.5 38.5Q349 36 376.0 26.0Q403 16 419.0 -6.0Q435 -28 435 -67Q435 -110 415.0 -148.5Q395 -187 360.0 -217.0Q325 -247 279.0 -264.5Q233 -282 182 -282ZM199 133Q151 133 116.0 153.0Q81 173 62.0 204.0Q43 235 43 268Q43 310 70.0 338.0Q97 366 137.5 379.5Q178 393 218 393Q264 393 299.0 376.5Q334 360 354.5 332.0Q375 304 375 268Q375 226 348.5 196.0Q322 166 281.5 149.5Q241 133 199 133ZM225 151Q245 151 261.0 171.0Q277 191 277 240Q277 286 262.5 315.5Q248 345 226.5 359.5Q205 374 185 374Q161 374 150.5 354.0Q140 334 140 298Q140 255 152.5 222.0Q165 189 184.5 170.0Q204 151 225 151ZM302 313 304 345Q336 370 366.5 383.0Q397 396 434 396Q439 396 440.5 388.0Q442 380 442 368Q442 354 438.0 337.0Q434 320 430 323Q412 331 393.0 335.5Q374 340 356 340Q344 340 332.5 338.5Q321 337 308 332Z" fill="#AAAAAA" transform="translate(403.451,556.000) scale(0.022000,-0.022000)"/><path d="M161 271 153 284Q192 329 219.0 353.0Q246 377 265.0 386.5Q284 396 299 396Q320 396 342.5 380.5Q365 365 365 340Q365 319 352.5 305.5Q340 292 318 292Q297 292 286.5 303.0Q276 314 267.5 324.5Q259 335 243 335Q236 335 227.5 330.5Q219 326 203.5 312.5Q188 299 161 271ZM39 0Q36 0 36.0 6.0Q36 12 39 12Q70 12 81.0 26.5Q92 41 92 81V269Q92 300 85.0 314.5Q78 329 61 329Q52 329 40.0 325.5Q28 322 13 315Q9 313 7.0 319.0Q5 325 7 326L146 394Q152 396 153 396Q164 396 175.0 372.0Q186 348 186 303V81Q186 55 194.0 39.5Q202 24 221.5 18.0Q241 12 275 12Q279 12 279.0 6.0Q279 0 275 0Q248 0 213.5 1.0Q179 2 139 2Q111 2 85.0 1.0Q59 0 39 0Z" fill="#AAAAAA" transform="translate(416.373,556.000) scale(0.022000,-0.022000)"/><path d="M237 -13Q174 -13 128.0 16.0Q82 45 57.0 93.5Q32 142 32 198Q32 250 52.0 288.0Q72 326 105.0 350.5Q138 375 177.0 387.0Q216 399 254 399Q318 399 363.5 369.0Q409 339 433.0 292.0Q457 245 457 192Q457 131 426.5 84.5Q396 38 346.0 12.5Q296 -13 237 -13ZM267 8Q307 8 327.0 47.0Q347 86 347 157Q347 230 328.5 279.0Q310 328 281.0 353.0Q252 378 220 378Q181 378 160.5 343.0Q140 308 140 235Q140 167 157.0 115.5Q174 64 203.0 36.0Q232 8 267 8Z" fill="#AAAAAA" transform="translate(427.711,556.000) scale(0.022000,-0.022000)"/><path d="M461 1 308 303Q286 346 274.0 360.0Q262 374 243 374Q241 374 241.0 380.0Q241 386 243 386Q258 386 277.0 385.0Q296 384 329 384Q366 384 392.5 385.0Q419 386 441 386Q443 386 443.0 380.0Q443 374 441 374Q416 374 403.0 364.0Q390 354 400 335L519 111L469 22L578 285Q595 326 578.0 350.0Q561 374 522 374Q519 374 519.0 380.0Q519 386 522 386Q545 386 566.5 385.0Q588 384 622 384Q647 384 662.0 385.0Q677 386 699 386Q702 386 702.0 380.0Q702 374 699 374Q671 374 648.5 352.5Q626 331 606 284L483 1Q482 -3 472.5 -3.0Q463 -3 461 1ZM215 1 62 303Q40 348 24.0 361.0Q8 374 -14 374Q-17 374 -17.0 380.0Q-17 386 -14 386Q3 386 24.5 385.0Q46 384 83 384Q120 384 146.5 385.0Q173 386 195 386Q198 386 198.0 380.0Q198 374 195 374Q170 374 153.5 366.0Q137 358 150 335L274 111L223 22L332 285L360 284L237 1Q236 -3 226.5 -3.0Q217 -3 215 1Z" fill="#AAAAAA" transform="translate(441.469,556.000) scale(0.022000,-0.022000)"/><path d="M461 1 308 303Q286 346 274.0 360.0Q262 374 243 374Q241 374 241.0 380.0Q241 386 243 386Q258 386 277.0 385.0Q296 384 329 384Q366 384 392.5 385.0Q419 386 441 386Q443 386 443.0 380.0Q443 374 441 374Q416 374 403.0 364.0Q390 354 400 335L519 111L469 22L578 285Q595 326 578.0 350.0Q561 374 522 374Q519 374 519.0 380.0Q519 386 522 386Q545 386 566.5 385.0Q588 384 622 384Q647 384 662.0 385.0Q677 386 699 386Q702 386 702.0 380.0Q702 374 699 374Q671 374 648.5 352.5Q626 331 606 284L483 1Q482 -3 472.5 -3.0Q463 -3 461 1ZM215 1 62 303Q40 348 24.0 361.0Q8 374 -14 374Q-17 374 -17.0 380.0Q-17 386 -14 386Q3 386 24.5 385.0Q46 384 83 384Q120 384 146.5 385.0Q173 386 195 386Q198 386 198.0 380.0Q198 374 195 374Q170 374 153.5 366.0Q137 358 150 335L274 111L223 22L332 285L360 284L237 1Q236 -3 226.5 -3.0Q217 -3 215 1Z" fill="#AAAAAA" transform="translate(467.687,556.000) scale(0.022000,-0.022000)"/><path d="M39 0Q36 0 36.0 6.0Q36 12 39 12Q70 12 81.0 26.5Q92 41 92 81V260Q92 293 85.5 308.5Q79 324 62 324Q55 324 45.5 321.0Q36 318 25 313Q21 312 18.5 318.0Q16 324 19 325L170 395Q172 396 173 396Q178 396 183.0 391.0Q188 386 188 382Q188 370 187.0 342.0Q186 314 186 262V81Q186 41 197.5 26.5Q209 12 240 12Q243 12 243.0 6.0Q243 0 240 0Q220 0 194.0 1.0Q168 2 139 2Q111 2 85.0 1.0Q59 0 39 0ZM135 495Q107 495 90.5 511.0Q74 527 74 556Q74 582 90.5 597.5Q107 613 135 613Q163 613 178.0 597.5Q193 582 193 556Q193 495 135 495Z" fill="#AAAAAA" transform="translate(485.757,556.000) scale(0.022000,-0.022000)"/><path d="M35 0Q33 0 33.0 6.0Q33 12 35 12Q66 12 77.5 26.5Q89 41 89 81L90 589Q90 623 84.0 638.5Q78 654 61 654Q48 654 23 643Q20 642 17.0 648.0Q14 654 16 655L163 724Q165 725 167 725Q172 725 178.0 720.5Q184 716 184 712V81Q184 41 195.0 26.5Q206 12 237 12Q241 12 241.0 6.0Q241 0 237 0Q218 0 191.5 1.0Q165 2 136 2Q107 2 81.0 1.0Q55 0 35 0Z" fill="#AAAAAA" transform="translate(494.543,556.000) scale(0.022000,-0.022000)"/><path d="M189 -13Q146 -13 110.5 10.0Q75 33 53.5 76.5Q32 120 32 182Q32 243 54.0 284.5Q76 326 110.5 351.0Q145 376 185.0 387.5Q225 399 261 399Q297 399 328.0 390.0Q359 381 384 368L361 287Q340 332 313.0 352.5Q286 373 246 373Q195 373 165.0 337.5Q135 302 135 214Q135 157 149.0 117.0Q163 77 188.0 56.0Q213 35 244 35Q284 35 314.0 57.0Q344 79 372 110L382 101Q361 77 332.5 50.5Q304 24 268.5 5.5Q233 -13 189 -13ZM433 712V116Q433 82 439.5 68.0Q446 54 461 54Q468 54 478.5 57.0Q489 60 502 65Q505 67 508.0 61.5Q511 56 509 54L371 -13Q368 -14 366 -14Q356 -14 347.5 11.0Q339 36 339 82V589Q339 623 333.0 638.5Q327 654 310 654Q303 654 293.5 651.0Q284 648 273 643Q269 642 266.0 648.0Q263 654 265 655L412 724Q414 725 416 725Q421 725 427.0 720.5Q433 716 433 712Z" fill="#AAAAAA" transform="translate(503.439,556.000) scale(0.022000,-0.022000)"/></g>
</svg>