solid OpenSCAD_Model
  facet normal 0.965957 -0.258704 0
    outer loop
      vertex -22.7447 11.1792 33.02
      vertex -22.6365 11.5832 29.52
      vertex -22.6365 11.5832 33.02
    endloop
  endfacet
  facet normal 0.965957 -0.258704 0
    outer loop
      vertex -22.6365 11.5832 29.52
      vertex -22.7447 11.1792 33.02
      vertex -22.7447 11.1792 29.52
    endloop
  endfacet
  facet normal 0.0871432 -0.996196 0
    outer loop
      vertex -25 9.6 29.52
      vertex -24.5832 9.63646 33.02
      vertex -25 9.6 33.02
    endloop
  endfacet
  facet normal 0.0871432 -0.996196 0
    outer loop
      vertex -24.5832 9.63646 33.02
      vertex -25 9.6 29.52
      vertex -24.5832 9.63646 29.52
    endloop
  endfacet
  facet normal 0.965957 0.258704 0
    outer loop
      vertex -22.6365 12.4168 33.02
      vertex -22.7447 12.8208 29.52
      vertex -22.7447 12.8208 33.02
    endloop
  endfacet
  facet normal 0.965957 0.258704 0
    outer loop
      vertex -22.7447 12.8208 29.52
      vertex -22.6365 12.4168 33.02
      vertex -22.6365 12.4168 29.52
    endloop
  endfacet
  facet normal 0.996187 0.0872381 0
    outer loop
      vertex -22.6 12 33.02
      vertex -22.6365 12.4168 29.52
      vertex -22.6365 12.4168 33.02
    endloop
  endfacet
  facet normal 0.996187 0.0872381 0
    outer loop
      vertex -22.6365 12.4168 29.52
      vertex -22.6 12 33.02
      vertex -22.6 12 29.52
    endloop
  endfacet
  facet normal 0.90633 0.422571 0
    outer loop
      vertex -22.7447 12.8208 33.02
      vertex -22.9215 13.2 29.52
      vertex -22.9215 13.2 33.02
    endloop
  endfacet
  facet normal 0.90633 0.422571 0
    outer loop
      vertex -22.9215 13.2 29.52
      vertex -22.7447 12.8208 33.02
      vertex -22.7447 12.8208 29.52
    endloop
  endfacet
  facet normal 0.258704 0.965957 -0
    outer loop
      vertex -24.1792 14.2553 29.52
      vertex -24.5832 14.3635 33.02
      vertex -24.1792 14.2553 33.02
    endloop
  endfacet
  facet normal 0.258704 0.965957 0
    outer loop
      vertex -24.5832 14.3635 33.02
      vertex -24.1792 14.2553 29.52
      vertex -24.5832 14.3635 29.52
    endloop
  endfacet
  facet normal 0.707107 0.707107 0
    outer loop
      vertex -23.1615 13.5427 33.02
      vertex -23.4573 13.8385 29.52
      vertex -23.4573 13.8385 33.02
    endloop
  endfacet
  facet normal 0.707107 0.707107 0
    outer loop
      vertex -23.4573 13.8385 29.52
      vertex -23.1615 13.5427 33.02
      vertex -23.1615 13.5427 29.52
    endloop
  endfacet
  facet normal 0.90633 -0.422571 0
    outer loop
      vertex -22.9215 10.8 33.02
      vertex -22.7447 11.1792 29.52
      vertex -22.7447 11.1792 33.02
    endloop
  endfacet
  facet normal 0.90633 -0.422571 0
    outer loop
      vertex -22.7447 11.1792 29.52
      vertex -22.9215 10.8 33.02
      vertex -22.9215 10.8 29.52
    endloop
  endfacet
  facet normal 0.0872381 0.996187 -0
    outer loop
      vertex -24.5832 14.3635 29.52
      vertex -25 14.4 33.02
      vertex -24.5832 14.3635 33.02
    endloop
  endfacet
  facet normal 0.0872381 0.996187 0
    outer loop
      vertex -25 14.4 33.02
      vertex -24.5832 14.3635 29.52
      vertex -25 14.4 29.52
    endloop
  endfacet
  facet normal 0.258883 -0.965909 0
    outer loop
      vertex -24.5832 9.63646 29.52
      vertex -24.1792 9.74474 33.02
      vertex -24.5832 9.63646 33.02
    endloop
  endfacet
  facet normal 0.258883 -0.965909 0
    outer loop
      vertex -24.1792 9.74474 33.02
      vertex -24.5832 9.63646 29.52
      vertex -24.1792 9.74474 29.52
    endloop
  endfacet
  facet normal 0.707107 -0.707107 0
    outer loop
      vertex -23.4573 10.1615 33.02
      vertex -23.1615 10.4573 29.52
      vertex -23.1615 10.4573 33.02
    endloop
  endfacet
  facet normal 0.707107 -0.707107 0
    outer loop
      vertex -23.1615 10.4573 29.52
      vertex -23.4573 10.1615 33.02
      vertex -23.4573 10.1615 29.52
    endloop
  endfacet
  facet normal -0.422571 0.90633 0
    outer loop
      vertex -25.8208 14.2553 29.52
      vertex -26.2 14.0785 33.02
      vertex -25.8208 14.2553 33.02
    endloop
  endfacet
  facet normal -0.422571 0.90633 0
    outer loop
      vertex -26.2 14.0785 33.02
      vertex -25.8208 14.2553 29.52
      vertex -26.2 14.0785 29.52
    endloop
  endfacet
  facet normal 0.819108 -0.573639 0
    outer loop
      vertex -23.1615 10.4573 33.02
      vertex -22.9215 10.8 29.52
      vertex -22.9215 10.8 33.02
    endloop
  endfacet
  facet normal 0.819108 -0.573639 0
    outer loop
      vertex -22.9215 10.8 29.52
      vertex -23.1615 10.4573 33.02
      vertex -23.1615 10.4573 29.52
    endloop
  endfacet
  facet normal -0.707107 -0.707107 0
    outer loop
      vertex -26.5427 10.1615 29.52
      vertex -26.8385 10.4573 33.02
      vertex -26.8385 10.4573 29.52
    endloop
  endfacet
  facet normal -0.707107 -0.707107 0
    outer loop
      vertex -26.8385 10.4573 33.02
      vertex -26.5427 10.1615 29.52
      vertex -26.5427 10.1615 33.02
    endloop
  endfacet
  facet normal -0.996187 -0.0872381 0
    outer loop
      vertex -27.3635 11.5832 29.52
      vertex -27.4 12 33.02
      vertex -27.4 12 29.52
    endloop
  endfacet
  facet normal -0.996187 -0.0872381 0
    outer loop
      vertex -27.4 12 33.02
      vertex -27.3635 11.5832 29.52
      vertex -27.3635 11.5832 33.02
    endloop
  endfacet
  facet normal -0.573639 0.819108 0
    outer loop
      vertex -26.2 14.0785 29.52
      vertex -26.5427 13.8385 33.02
      vertex -26.2 14.0785 33.02
    endloop
  endfacet
  facet normal -0.573639 0.819108 0
    outer loop
      vertex -26.5427 13.8385 33.02
      vertex -26.2 14.0785 29.52
      vertex -26.5427 13.8385 29.52
    endloop
  endfacet
  facet normal 0.819108 0.573639 0
    outer loop
      vertex -22.9215 13.2 33.02
      vertex -23.1615 13.5427 29.52
      vertex -23.1615 13.5427 33.02
    endloop
  endfacet
  facet normal 0.819108 0.573639 0
    outer loop
      vertex -23.1615 13.5427 29.52
      vertex -22.9215 13.2 33.02
      vertex -22.9215 13.2 29.52
    endloop
  endfacet
  facet normal -0.258704 0.965957 0
    outer loop
      vertex -25.4168 14.3635 29.52
      vertex -25.8208 14.2553 33.02
      vertex -25.4168 14.3635 33.02
    endloop
  endfacet
  facet normal -0.258704 0.965957 0
    outer loop
      vertex -25.8208 14.2553 33.02
      vertex -25.4168 14.3635 29.52
      vertex -25.8208 14.2553 29.52
    endloop
  endfacet
  facet normal -0.0872381 0.996187 0
    outer loop
      vertex -25 14.4 29.52
      vertex -25.4168 14.3635 33.02
      vertex -25 14.4 33.02
    endloop
  endfacet
  facet normal -0.0872381 0.996187 0
    outer loop
      vertex -25.4168 14.3635 33.02
      vertex -25 14.4 29.52
      vertex -25.4168 14.3635 29.52
    endloop
  endfacet
  facet normal 0.422571 0.90633 -0
    outer loop
      vertex -23.8 14.0785 29.52
      vertex -24.1792 14.2553 33.02
      vertex -23.8 14.0785 33.02
    endloop
  endfacet
  facet normal 0.422571 0.90633 0
    outer loop
      vertex -24.1792 14.2553 33.02
      vertex -23.8 14.0785 29.52
      vertex -24.1792 14.2553 29.52
    endloop
  endfacet
  facet normal 0.573575 -0.819153 0
    outer loop
      vertex -23.8 9.92154 29.52
      vertex -23.4573 10.1615 33.02
      vertex -23.8 9.92154 33.02
    endloop
  endfacet
  facet normal 0.573575 -0.819153 0
    outer loop
      vertex -23.4573 10.1615 33.02
      vertex -23.8 9.92154 29.52
      vertex -23.4573 10.1615 29.52
    endloop
  endfacet
  facet normal 0.996187 -0.0872381 0
    outer loop
      vertex -22.6365 11.5832 33.02
      vertex -22.6 12 29.52
      vertex -22.6 12 33.02
    endloop
  endfacet
  facet normal 0.996187 -0.0872381 0
    outer loop
      vertex -22.6 12 29.52
      vertex -22.6365 11.5832 33.02
      vertex -22.6365 11.5832 29.52
    endloop
  endfacet
  facet normal 0.573639 0.819108 -0
    outer loop
      vertex -23.4573 13.8385 29.52
      vertex -23.8 14.0785 33.02
      vertex -23.4573 13.8385 33.02
    endloop
  endfacet
  facet normal 0.573639 0.819108 0
    outer loop
      vertex -23.8 14.0785 33.02
      vertex -23.4573 13.8385 29.52
      vertex -23.8 14.0785 29.52
    endloop
  endfacet
  facet normal -0.422571 -0.90633 0
    outer loop
      vertex -26.2 9.92154 29.52
      vertex -25.8208 9.74474 33.02
      vertex -26.2 9.92154 33.02
    endloop
  endfacet
  facet normal -0.422571 -0.90633 -0
    outer loop
      vertex -25.8208 9.74474 33.02
      vertex -26.2 9.92154 29.52
      vertex -25.8208 9.74474 29.52
    endloop
  endfacet
  facet normal -0.996187 0.0872381 0
    outer loop
      vertex -27.4 12 29.52
      vertex -27.3635 12.4168 33.02
      vertex -27.3635 12.4168 29.52
    endloop
  endfacet
  facet normal -0.996187 0.0872381 0
    outer loop
      vertex -27.3635 12.4168 33.02
      vertex -27.4 12 29.52
      vertex -27.4 12 33.02
    endloop
  endfacet
  facet normal -0.965957 -0.258704 0
    outer loop
      vertex -27.2553 11.1792 29.52
      vertex -27.3635 11.5832 33.02
      vertex -27.3635 11.5832 29.52
    endloop
  endfacet
  facet normal -0.965957 -0.258704 0
    outer loop
      vertex -27.3635 11.5832 33.02
      vertex -27.2553 11.1792 29.52
      vertex -27.2553 11.1792 33.02
    endloop
  endfacet
  facet normal -0.90633 -0.422571 0
    outer loop
      vertex -27.0785 10.8 29.52
      vertex -27.2553 11.1792 33.02
      vertex -27.2553 11.1792 29.52
    endloop
  endfacet
  facet normal -0.90633 -0.422571 0
    outer loop
      vertex -27.2553 11.1792 33.02
      vertex -27.0785 10.8 29.52
      vertex -27.0785 10.8 33.02
    endloop
  endfacet
  facet normal -0.965957 0.258704 0
    outer loop
      vertex -27.3635 12.4168 29.52
      vertex -27.2553 12.8208 33.02
      vertex -27.2553 12.8208 29.52
    endloop
  endfacet
  facet normal -0.965957 0.258704 0
    outer loop
      vertex -27.2553 12.8208 33.02
      vertex -27.3635 12.4168 29.52
      vertex -27.3635 12.4168 33.02
    endloop
  endfacet
  facet normal -0.819108 -0.573639 0
    outer loop
      vertex -26.8385 10.4573 29.52
      vertex -27.0785 10.8 33.02
      vertex -27.0785 10.8 29.52
    endloop
  endfacet
  facet normal -0.819108 -0.573639 0
    outer loop
      vertex -27.0785 10.8 33.02
      vertex -26.8385 10.4573 29.52
      vertex -26.8385 10.4573 33.02
    endloop
  endfacet
  facet normal -0.258883 -0.965909 0
    outer loop
      vertex -25.8208 9.74474 29.52
      vertex -25.4168 9.63646 33.02
      vertex -25.8208 9.74474 33.02
    endloop
  endfacet
  facet normal -0.258883 -0.965909 -0
    outer loop
      vertex -25.4168 9.63646 33.02
      vertex -25.8208 9.74474 29.52
      vertex -25.4168 9.63646 29.52
    endloop
  endfacet
  facet normal -0.573575 -0.819153 0
    outer loop
      vertex -26.5427 10.1615 29.52
      vertex -26.2 9.92154 33.02
      vertex -26.5427 10.1615 33.02
    endloop
  endfacet
  facet normal -0.573575 -0.819153 -0
    outer loop
      vertex -26.2 9.92154 33.02
      vertex -26.5427 10.1615 29.52
      vertex -26.2 9.92154 29.52
    endloop
  endfacet
  facet normal 0.422571 -0.90633 0
    outer loop
      vertex -24.1792 9.74474 29.52
      vertex -23.8 9.92154 33.02
      vertex -24.1792 9.74474 33.02
    endloop
  endfacet
  facet normal 0.422571 -0.90633 0
    outer loop
      vertex -23.8 9.92154 33.02
      vertex -24.1792 9.74474 29.52
      vertex -23.8 9.92154 29.52
    endloop
  endfacet
  facet normal -0.90633 0.422571 0
    outer loop
      vertex -27.2553 12.8208 29.52
      vertex -27.0785 13.2 33.02
      vertex -27.0785 13.2 29.52
    endloop
  endfacet
  facet normal -0.90633 0.422571 0
    outer loop
      vertex -27.0785 13.2 33.02
      vertex -27.2553 12.8208 29.52
      vertex -27.2553 12.8208 33.02
    endloop
  endfacet
  facet normal -0.0871432 -0.996196 0
    outer loop
      vertex -25.4168 9.63646 29.52
      vertex -25 9.6 33.02
      vertex -25.4168 9.63646 33.02
    endloop
  endfacet
  facet normal -0.0871432 -0.996196 -0
    outer loop
      vertex -25 9.6 33.02
      vertex -25.4168 9.63646 29.52
      vertex -25 9.6 29.52
    endloop
  endfacet
  facet normal -0.819108 0.573639 0
    outer loop
      vertex -27.0785 13.2 29.52
      vertex -26.8385 13.5427 33.02
      vertex -26.8385 13.5427 29.52
    endloop
  endfacet
  facet normal -0.819108 0.573639 0
    outer loop
      vertex -26.8385 13.5427 33.02
      vertex -27.0785 13.2 29.52
      vertex -27.0785 13.2 33.02
    endloop
  endfacet
  facet normal -0.707107 0.707107 0
    outer loop
      vertex -26.8385 13.5427 29.52
      vertex -26.5427 13.8385 33.02
      vertex -26.5427 13.8385 29.52
    endloop
  endfacet
  facet normal -0.707107 0.707107 0
    outer loop
      vertex -26.5427 13.8385 33.02
      vertex -26.8385 13.5427 29.52
      vertex -26.8385 13.5427 33.02
    endloop
  endfacet
  facet normal 0.647474 -0.453495 -0.612469
    outer loop
      vertex -22.6253 10.0074 33.92
      vertex -22.9215 10.8 33.02
      vertex -22.3153 10.45 33.92
    endloop
  endfacet
  facet normal -0.204568 -0.763564 -0.612472
    outer loop
      vertex -25.5383 8.9471 33.92
      vertex -26.0603 9.08695 33.92
      vertex -25.4168 9.63646 33.02
    endloop
  endfacet
  facet normal 0.787476 0.0689023 -0.612482
    outer loop
      vertex -21.9 12 33.92
      vertex -22.6 12 33.02
      vertex -21.9471 12.5383 33.92
    endloop
  endfacet
  facet normal 0.787456 0.0689591 -0.612501
    outer loop
      vertex -22.6 12 33.02
      vertex -22.6365 12.4168 33.02
      vertex -21.9471 12.5383 33.92
    endloop
  endfacet
  facet normal -0.0688858 -0.787482 -0.612476
    outer loop
      vertex -25 9.6 33.02
      vertex -25.5383 8.9471 33.92
      vertex -25.4168 9.63646 33.02
    endloop
  endfacet
  facet normal -0.453407 -0.647536 -0.61247
    outer loop
      vertex -26.2 9.92154 33.02
      vertex -26.9926 9.62526 33.92
      vertex -26.5427 10.1615 33.02
    endloop
  endfacet
  facet normal -0.453431 -0.647508 -0.612481
    outer loop
      vertex -26.55 9.31532 33.92
      vertex -26.9926 9.62526 33.92
      vertex -26.2 9.92154 33.02
    endloop
  endfacet
  facet normal 0.787456 -0.0689591 -0.612501
    outer loop
      vertex -21.9471 11.4617 33.92
      vertex -22.6365 11.5832 33.02
      vertex -22.6 12 33.02
    endloop
  endfacet
  facet normal 0.204568 -0.763564 -0.612472
    outer loop
      vertex -24.4617 8.9471 33.92
      vertex -24.5832 9.63646 33.02
      vertex -23.9397 9.08695 33.92
    endloop
  endfacet
  facet normal 0.204639 -0.763523 -0.612499
    outer loop
      vertex -23.9397 9.08695 33.92
      vertex -24.5832 9.63646 33.02
      vertex -24.1792 9.74474 33.02
    endloop
  endfacet
  facet normal 0.334043 0.716454 -0.612461
    outer loop
      vertex -23.8 14.0785 33.02
      vertex -24.1792 14.2553 33.02
      vertex -23.9397 14.913 33.92
    endloop
  endfacet
  facet normal -0.334016 0.716459 -0.61247
    outer loop
      vertex -26.2 14.0785 33.02
      vertex -26.55 14.6847 33.92
      vertex -26.0603 14.913 33.92
    endloop
  endfacet
  facet normal -0.716454 0.334043 -0.612461
    outer loop
      vertex -27.2553 12.8208 33.02
      vertex -27.913 13.0603 33.92
      vertex -27.0785 13.2 33.02
    endloop
  endfacet
  facet normal -0.716459 -0.334016 -0.61247
    outer loop
      vertex -27.6847 10.45 33.92
      vertex -27.913 10.9397 33.92
      vertex -27.0785 10.8 33.02
    endloop
  endfacet
  facet normal 0.0688858 -0.787482 -0.612476
    outer loop
      vertex -24.4617 8.9471 33.92
      vertex -25 9.6 33.02
      vertex -24.5832 9.63646 33.02
    endloop
  endfacet
  facet normal 0.716459 -0.334016 -0.61247
    outer loop
      vertex -22.3153 10.45 33.92
      vertex -22.9215 10.8 33.02
      vertex -22.087 10.9397 33.92
    endloop
  endfacet
  facet normal -0.204632 0.763532 -0.612491
    outer loop
      vertex -25.4168 14.3635 33.02
      vertex -26.0603 14.913 33.92
      vertex -25.5383 15.0529 33.92
    endloop
  endfacet
  facet normal -0.204639 -0.763523 -0.612499
    outer loop
      vertex -25.4168 9.63646 33.02
      vertex -26.0603 9.08695 33.92
      vertex -25.8208 9.74474 33.02
    endloop
  endfacet
  facet normal 0.0689023 -0.787476 -0.612482
    outer loop
      vertex -24.4617 8.9471 33.92
      vertex -25 8.9 33.92
      vertex -25 9.6 33.02
    endloop
  endfacet
  facet normal 0.763532 -0.204632 -0.612491
    outer loop
      vertex -22.087 10.9397 33.92
      vertex -22.6365 11.5832 33.02
      vertex -21.9471 11.4617 33.92
    endloop
  endfacet
  facet normal 0.787476 -0.0689023 -0.612482
    outer loop
      vertex -21.9471 11.4617 33.92
      vertex -22.6 12 33.02
      vertex -21.9 12 33.92
    endloop
  endfacet
  facet normal -0.334096 -0.71641 -0.612484
    outer loop
      vertex -26.0603 9.08695 33.92
      vertex -26.55 9.31532 33.92
      vertex -26.2 9.92154 33.02
    endloop
  endfacet
  facet normal -0.64751 0.453465 -0.612454
    outer loop
      vertex -27.0785 13.2 33.02
      vertex -27.3747 13.9926 33.92
      vertex -26.8385 13.5427 33.02
    endloop
  endfacet
  facet normal -0.716459 0.334016 -0.61247
    outer loop
      vertex -27.0785 13.2 33.02
      vertex -27.913 13.0603 33.92
      vertex -27.6847 13.55 33.92
    endloop
  endfacet
  facet normal 0.453407 -0.647536 -0.61247
    outer loop
      vertex -23.0074 9.62526 33.92
      vertex -23.8 9.92154 33.02
      vertex -23.4573 10.1615 33.02
    endloop
  endfacet
  facet normal 0.559003 -0.558944 -0.612452
    outer loop
      vertex -23.0074 9.62526 33.92
      vertex -23.1615 10.4573 33.02
      vertex -22.6253 10.0074 33.92
    endloop
  endfacet
  facet normal 0.558966 -0.558966 -0.612465
    outer loop
      vertex -23.1615 10.4573 33.02
      vertex -23.0074 9.62526 33.92
      vertex -23.4573 10.1615 33.02
    endloop
  endfacet
  facet normal -0.0689591 0.787456 -0.612501
    outer loop
      vertex -25.4168 14.3635 33.02
      vertex -25.5383 15.0529 33.92
      vertex -25 14.4 33.02
    endloop
  endfacet
  facet normal -0.647474 -0.453495 -0.612469
    outer loop
      vertex -27.3747 10.0074 33.92
      vertex -27.6847 10.45 33.92
      vertex -27.0785 10.8 33.02
    endloop
  endfacet
  facet normal -0.204509 0.763601 -0.612445
    outer loop
      vertex -25.8208 14.2553 33.02
      vertex -26.0603 14.913 33.92
      vertex -25.4168 14.3635 33.02
    endloop
  endfacet
  facet normal -0.763532 -0.204632 -0.612491
    outer loop
      vertex -27.913 10.9397 33.92
      vertex -28.0529 11.4617 33.92
      vertex -27.3635 11.5832 33.02
    endloop
  endfacet
  facet normal 0.716454 -0.334043 -0.612461
    outer loop
      vertex -22.087 10.9397 33.92
      vertex -22.9215 10.8 33.02
      vertex -22.7447 11.1792 33.02
    endloop
  endfacet
  facet normal 0.64751 -0.453465 -0.612454
    outer loop
      vertex -22.6253 10.0074 33.92
      vertex -23.1615 10.4573 33.02
      vertex -22.9215 10.8 33.02
    endloop
  endfacet
  facet normal -0.334043 0.716454 -0.612461
    outer loop
      vertex -25.8208 14.2553 33.02
      vertex -26.2 14.0785 33.02
      vertex -26.0603 14.913 33.92
    endloop
  endfacet
  facet normal -0.558975 0.558975 -0.61245
    outer loop
      vertex -26.8385 13.5427 33.02
      vertex -26.9926 14.3747 33.92
      vertex -26.5427 13.8385 33.02
    endloop
  endfacet
  facet normal -0.558975 0.558975 -0.61245
    outer loop
      vertex -26.9926 14.3747 33.92
      vertex -26.8385 13.5427 33.02
      vertex -27.3747 13.9926 33.92
    endloop
  endfacet
  facet normal 0.64751 0.453465 -0.612454
    outer loop
      vertex -22.9215 13.2 33.02
      vertex -23.1615 13.5427 33.02
      vertex -22.6253 13.9926 33.92
    endloop
  endfacet
  facet normal -0.0689023 -0.787476 -0.612482
    outer loop
      vertex -25 8.9 33.92
      vertex -25.5383 8.9471 33.92
      vertex -25 9.6 33.02
    endloop
  endfacet
  facet normal -0.763532 0.204632 -0.612491
    outer loop
      vertex -27.3635 12.4168 33.02
      vertex -28.0529 12.5383 33.92
      vertex -27.913 13.0603 33.92
    endloop
  endfacet
  facet normal 0.647474 0.453495 -0.612469
    outer loop
      vertex -22.3153 13.55 33.92
      vertex -22.9215 13.2 33.02
      vertex -22.6253 13.9926 33.92
    endloop
  endfacet
  facet normal 0.763601 -0.204509 -0.612445
    outer loop
      vertex -22.087 10.9397 33.92
      vertex -22.7447 11.1792 33.02
      vertex -22.6365 11.5832 33.02
    endloop
  endfacet
  facet normal 0.453431 -0.647508 -0.612481
    outer loop
      vertex -23.45 9.31532 33.92
      vertex -23.8 9.92154 33.02
      vertex -23.0074 9.62526 33.92
    endloop
  endfacet
  facet normal 0.453465 0.64751 -0.612454
    outer loop
      vertex -23.4573 13.8385 33.02
      vertex -23.8 14.0785 33.02
      vertex -23.0074 14.3747 33.92
    endloop
  endfacet
  facet normal 0.334016 0.716459 -0.61247
    outer loop
      vertex -23.8 14.0785 33.02
      vertex -23.9397 14.913 33.92
      vertex -23.45 14.6847 33.92
    endloop
  endfacet
  facet normal 0.334096 -0.71641 -0.612484
    outer loop
      vertex -23.45 9.31532 33.92
      vertex -23.9397 9.08695 33.92
      vertex -23.8 9.92154 33.02
    endloop
  endfacet
  facet normal 0.334028 -0.716423 -0.612506
    outer loop
      vertex -23.9397 9.08695 33.92
      vertex -24.1792 9.74474 33.02
      vertex -23.8 9.92154 33.02
    endloop
  endfacet
  facet normal -0.453465 0.64751 -0.612454
    outer loop
      vertex -26.5427 13.8385 33.02
      vertex -26.9926 14.3747 33.92
      vertex -26.2 14.0785 33.02
    endloop
  endfacet
  facet normal -0.763601 -0.204509 -0.612445
    outer loop
      vertex -27.2553 11.1792 33.02
      vertex -27.913 10.9397 33.92
      vertex -27.3635 11.5832 33.02
    endloop
  endfacet
  facet normal 0.204509 0.763601 -0.612445
    outer loop
      vertex -24.1792 14.2553 33.02
      vertex -24.5832 14.3635 33.02
      vertex -23.9397 14.913 33.92
    endloop
  endfacet
  facet normal -0.453495 0.647474 -0.612469
    outer loop
      vertex -26.2 14.0785 33.02
      vertex -26.9926 14.3747 33.92
      vertex -26.55 14.6847 33.92
    endloop
  endfacet
  facet normal 0.558975 0.558975 -0.61245
    outer loop
      vertex -23.1615 13.5427 33.02
      vertex -23.0074 14.3747 33.92
      vertex -22.6253 13.9926 33.92
    endloop
  endfacet
  facet normal 0.558975 0.558975 -0.61245
    outer loop
      vertex -23.0074 14.3747 33.92
      vertex -23.1615 13.5427 33.02
      vertex -23.4573 13.8385 33.02
    endloop
  endfacet
  facet normal 0.0689591 0.787456 -0.612501
    outer loop
      vertex -24.5832 14.3635 33.02
      vertex -25 14.4 33.02
      vertex -24.4617 15.0529 33.92
    endloop
  endfacet
  facet normal 0.453495 0.647474 -0.612469
    outer loop
      vertex -23.0074 14.3747 33.92
      vertex -23.8 14.0785 33.02
      vertex -23.45 14.6847 33.92
    endloop
  endfacet
  facet normal -0.334028 -0.716423 -0.612506
    outer loop
      vertex -26.0603 9.08695 33.92
      vertex -26.2 9.92154 33.02
      vertex -25.8208 9.74474 33.02
    endloop
  endfacet
  facet normal 0.716459 0.334016 -0.61247
    outer loop
      vertex -22.087 13.0603 33.92
      vertex -22.9215 13.2 33.02
      vertex -22.3153 13.55 33.92
    endloop
  endfacet
  facet normal -0.763601 0.204509 -0.612445
    outer loop
      vertex -27.3635 12.4168 33.02
      vertex -27.913 13.0603 33.92
      vertex -27.2553 12.8208 33.02
    endloop
  endfacet
  facet normal -0.716454 -0.334043 -0.612461
    outer loop
      vertex -27.0785 10.8 33.02
      vertex -27.913 10.9397 33.92
      vertex -27.2553 11.1792 33.02
    endloop
  endfacet
  facet normal -0.64751 -0.453465 -0.612454
    outer loop
      vertex -26.8385 10.4573 33.02
      vertex -27.3747 10.0074 33.92
      vertex -27.0785 10.8 33.02
    endloop
  endfacet
  facet normal -0.558966 -0.558966 -0.612465
    outer loop
      vertex -26.9926 9.62526 33.92
      vertex -26.8385 10.4573 33.02
      vertex -26.5427 10.1615 33.02
    endloop
  endfacet
  facet normal -0.559003 -0.558944 -0.612452
    outer loop
      vertex -26.8385 10.4573 33.02
      vertex -26.9926 9.62526 33.92
      vertex -27.3747 10.0074 33.92
    endloop
  endfacet
  facet normal 0.204632 0.763532 -0.612491
    outer loop
      vertex -23.9397 14.913 33.92
      vertex -24.5832 14.3635 33.02
      vertex -24.4617 15.0529 33.92
    endloop
  endfacet
  facet normal -0.787456 -0.0689591 -0.612501
    outer loop
      vertex -27.3635 11.5832 33.02
      vertex -28.0529 11.4617 33.92
      vertex -27.4 12 33.02
    endloop
  endfacet
  facet normal -0.787476 0.0689023 -0.612482
    outer loop
      vertex -27.4 12 33.02
      vertex -28.1 12 33.92
      vertex -28.0529 12.5383 33.92
    endloop
  endfacet
  facet normal -0.787456 0.0689591 -0.612501
    outer loop
      vertex -27.4 12 33.02
      vertex -28.0529 12.5383 33.92
      vertex -27.3635 12.4168 33.02
    endloop
  endfacet
  facet normal -0.787476 -0.0689023 -0.612482
    outer loop
      vertex -28.0529 11.4617 33.92
      vertex -28.1 12 33.92
      vertex -27.4 12 33.02
    endloop
  endfacet
  facet normal -0.647474 0.453495 -0.612469
    outer loop
      vertex -27.0785 13.2 33.02
      vertex -27.6847 13.55 33.92
      vertex -27.3747 13.9926 33.92
    endloop
  endfacet
  facet normal 0.0689023 0.787476 -0.612482
    outer loop
      vertex -24.4617 15.0529 33.92
      vertex -25 14.4 33.02
      vertex -25 15.1 33.92
    endloop
  endfacet
  facet normal 0.763532 0.204632 -0.612491
    outer loop
      vertex -21.9471 12.5383 33.92
      vertex -22.6365 12.4168 33.02
      vertex -22.087 13.0603 33.92
    endloop
  endfacet
  facet normal -0.0689023 0.787476 -0.612482
    outer loop
      vertex -25 14.4 33.02
      vertex -25.5383 15.0529 33.92
      vertex -25 15.1 33.92
    endloop
  endfacet
  facet normal 0.716454 0.334043 -0.612461
    outer loop
      vertex -22.7447 12.8208 33.02
      vertex -22.9215 13.2 33.02
      vertex -22.087 13.0603 33.92
    endloop
  endfacet
  facet normal 0.763601 0.204509 -0.612445
    outer loop
      vertex -22.6365 12.4168 33.02
      vertex -22.7447 12.8208 33.02
      vertex -22.087 13.0603 33.92
    endloop
  endfacet
  facet normal 0.0871647 -0.996194 0
    outer loop
      vertex -25 8.9 33.92
      vertex -24.4617 8.9471 34.72
      vertex -25 8.9 34.72
    endloop
  endfacet
  facet normal 0.0871647 -0.996194 0
    outer loop
      vertex -24.4617 8.9471 34.72
      vertex -25 8.9 33.92
      vertex -24.4617 8.9471 33.92
    endloop
  endfacet
  facet normal 0.965912 0.258872 0
    outer loop
      vertex -21.9471 12.5383 34.72
      vertex -22.087 13.0603 33.92
      vertex -22.087 13.0603 34.72
    endloop
  endfacet
  facet normal 0.965912 0.258872 0
    outer loop
      vertex -22.087 13.0603 33.92
      vertex -21.9471 12.5383 34.72
      vertex -21.9471 12.5383 33.92
    endloop
  endfacet
  facet normal 0.996194 0.0871647 0
    outer loop
      vertex -21.9 12 34.72
      vertex -21.9471 12.5383 33.92
      vertex -21.9471 12.5383 34.72
    endloop
  endfacet
  facet normal 0.996194 0.0871647 0
    outer loop
      vertex -21.9471 12.5383 33.92
      vertex -21.9 12 34.72
      vertex -21.9 12 33.92
    endloop
  endfacet
  facet normal 0.906344 0.422541 0
    outer loop
      vertex -22.087 13.0603 34.72
      vertex -22.3153 13.55 33.92
      vertex -22.3153 13.55 34.72
    endloop
  endfacet
  facet normal 0.906344 0.422541 0
    outer loop
      vertex -22.3153 13.55 33.92
      vertex -22.087 13.0603 34.72
      vertex -22.087 13.0603 33.92
    endloop
  endfacet
  facet normal 0.707107 0.707107 0
    outer loop
      vertex -22.6253 13.9926 34.72
      vertex -23.0074 14.3747 33.92
      vertex -23.0074 14.3747 34.72
    endloop
  endfacet
  facet normal 0.707107 0.707107 0
    outer loop
      vertex -23.0074 14.3747 33.92
      vertex -22.6253 13.9926 34.72
      vertex -22.6253 13.9926 33.92
    endloop
  endfacet
  facet normal -0.422541 0.906344 0
    outer loop
      vertex -26.0603 14.913 33.92
      vertex -26.55 14.6847 34.72
      vertex -26.0603 14.913 34.72
    endloop
  endfacet
  facet normal -0.422541 0.906344 0
    outer loop
      vertex -26.55 14.6847 34.72
      vertex -26.0603 14.913 33.92
      vertex -26.55 14.6847 33.92
    endloop
  endfacet
  facet normal 0.258785 -0.965935 0
    outer loop
      vertex -24.4617 8.9471 33.92
      vertex -23.9397 9.08695 34.72
      vertex -24.4617 8.9471 34.72
    endloop
  endfacet
  facet normal 0.258785 -0.965935 0
    outer loop
      vertex -23.9397 9.08695 34.72
      vertex -24.4617 8.9471 33.92
      vertex -23.9397 9.08695 33.92
    endloop
  endfacet
  facet normal -0.0871647 0.996194 0
    outer loop
      vertex -25 15.1 33.92
      vertex -25.5383 15.0529 34.72
      vertex -25 15.1 34.72
    endloop
  endfacet
  facet normal -0.0871647 0.996194 0
    outer loop
      vertex -25.5383 15.0529 34.72
      vertex -25 15.1 33.92
      vertex -25.5383 15.0529 33.92
    endloop
  endfacet
  facet normal -0.906344 0.422541 0
    outer loop
      vertex -27.913 13.0603 33.92
      vertex -27.6847 13.55 34.72
      vertex -27.6847 13.55 33.92
    endloop
  endfacet
  facet normal -0.906344 0.422541 0
    outer loop
      vertex -27.6847 13.55 34.72
      vertex -27.913 13.0603 33.92
      vertex -27.913 13.0603 34.72
    endloop
  endfacet
  facet normal -0.996194 -0.0871647 0
    outer loop
      vertex -28.0529 11.4617 33.92
      vertex -28.1 12 34.72
      vertex -28.1 12 33.92
    endloop
  endfacet
  facet normal -0.996194 -0.0871647 0
    outer loop
      vertex -28.1 12 34.72
      vertex -28.0529 11.4617 33.92
      vertex -28.0529 11.4617 34.72
    endloop
  endfacet
  facet normal 0.819075 -0.573686 0
    outer loop
      vertex -22.6253 10.0074 34.72
      vertex -22.3153 10.45 33.92
      vertex -22.3153 10.45 34.72
    endloop
  endfacet
  facet normal 0.819075 -0.573686 0
    outer loop
      vertex -22.3153 10.45 33.92
      vertex -22.6253 10.0074 34.72
      vertex -22.6253 10.0074 33.92
    endloop
  endfacet
  facet normal -0.965912 0.258872 0
    outer loop
      vertex -28.0529 12.5383 33.92
      vertex -27.913 13.0603 34.72
      vertex -27.913 13.0603 33.92
    endloop
  endfacet
  facet normal -0.965912 0.258872 0
    outer loop
      vertex -27.913 13.0603 34.72
      vertex -28.0529 12.5383 33.92
      vertex -28.0529 12.5383 34.72
    endloop
  endfacet
  facet normal 0.906344 -0.422541 0
    outer loop
      vertex -22.3153 10.45 34.72
      vertex -22.087 10.9397 33.92
      vertex -22.087 10.9397 34.72
    endloop
  endfacet
  facet normal 0.906344 -0.422541 0
    outer loop
      vertex -22.087 10.9397 33.92
      vertex -22.3153 10.45 34.72
      vertex -22.3153 10.45 33.92
    endloop
  endfacet
  facet normal 0.422541 0.906344 -0
    outer loop
      vertex -23.45 14.6847 33.92
      vertex -23.9397 14.913 34.72
      vertex -23.45 14.6847 34.72
    endloop
  endfacet
  facet normal 0.422541 0.906344 0
    outer loop
      vertex -23.9397 14.913 34.72
      vertex -23.45 14.6847 33.92
      vertex -23.9397 14.913 33.92
    endloop
  endfacet
  facet normal -0.965912 -0.258872 0
    outer loop
      vertex -27.913 10.9397 33.92
      vertex -28.0529 11.4617 34.72
      vertex -28.0529 11.4617 33.92
    endloop
  endfacet
  facet normal -0.965912 -0.258872 0
    outer loop
      vertex -28.0529 11.4617 34.72
      vertex -27.913 10.9397 33.92
      vertex -27.913 10.9397 34.72
    endloop
  endfacet
  facet normal 0.819075 0.573686 0
    outer loop
      vertex -22.3153 13.55 34.72
      vertex -22.6253 13.9926 33.92
      vertex -22.6253 13.9926 34.72
    endloop
  endfacet
  facet normal 0.819075 0.573686 0
    outer loop
      vertex -22.6253 13.9926 33.92
      vertex -22.3153 13.55 34.72
      vertex -22.3153 13.55 33.92
    endloop
  endfacet
  facet normal 0.996194 -0.0871647 0
    outer loop
      vertex -21.9471 11.4617 34.72
      vertex -21.9 12 33.92
      vertex -21.9 12 34.72
    endloop
  endfacet
  facet normal 0.996194 -0.0871647 0
    outer loop
      vertex -21.9 12 33.92
      vertex -21.9471 11.4617 34.72
      vertex -21.9471 11.4617 33.92
    endloop
  endfacet
  facet normal 0.573611 -0.819128 0
    outer loop
      vertex -23.45 9.31532 33.92
      vertex -23.0074 9.62526 34.72
      vertex -23.45 9.31532 34.72
    endloop
  endfacet
  facet normal 0.573611 -0.819128 0
    outer loop
      vertex -23.0074 9.62526 34.72
      vertex -23.45 9.31532 33.92
      vertex -23.0074 9.62526 33.92
    endloop
  endfacet
  facet normal -0.573686 0.819075 0
    outer loop
      vertex -26.55 14.6847 33.92
      vertex -26.9926 14.3747 34.72
      vertex -26.55 14.6847 34.72
    endloop
  endfacet
  facet normal -0.573686 0.819075 0
    outer loop
      vertex -26.9926 14.3747 34.72
      vertex -26.55 14.6847 33.92
      vertex -26.9926 14.3747 33.92
    endloop
  endfacet
  facet normal 0.965912 -0.258872 0
    outer loop
      vertex -22.087 10.9397 34.72
      vertex -21.9471 11.4617 33.92
      vertex -21.9471 11.4617 34.72
    endloop
  endfacet
  facet normal 0.965912 -0.258872 0
    outer loop
      vertex -21.9471 11.4617 33.92
      vertex -22.087 10.9397 34.72
      vertex -22.087 10.9397 33.92
    endloop
  endfacet
  facet normal 0.573686 0.819075 -0
    outer loop
      vertex -23.0074 14.3747 33.92
      vertex -23.45 14.6847 34.72
      vertex -23.0074 14.3747 34.72
    endloop
  endfacet
  facet normal 0.573686 0.819075 0
    outer loop
      vertex -23.45 14.6847 34.72
      vertex -23.0074 14.3747 33.92
      vertex -23.45 14.6847 33.92
    endloop
  endfacet
  facet normal -0.258872 0.965912 0
    outer loop
      vertex -25.5383 15.0529 33.92
      vertex -26.0603 14.913 34.72
      vertex -25.5383 15.0529 34.72
    endloop
  endfacet
  facet normal -0.258872 0.965912 0
    outer loop
      vertex -26.0603 14.913 34.72
      vertex -25.5383 15.0529 33.92
      vertex -26.0603 14.913 33.92
    endloop
  endfacet
  facet normal -0.422647 -0.906294 0
    outer loop
      vertex -26.55 9.31532 33.92
      vertex -26.0603 9.08695 34.72
      vertex -26.55 9.31532 34.72
    endloop
  endfacet
  facet normal -0.422647 -0.906294 -0
    outer loop
      vertex -26.0603 9.08695 34.72
      vertex -26.55 9.31532 33.92
      vertex -26.0603 9.08695 33.92
    endloop
  endfacet
  facet normal -0.707107 0.707107 0
    outer loop
      vertex -27.3747 13.9926 33.92
      vertex -26.9926 14.3747 34.72
      vertex -26.9926 14.3747 33.92
    endloop
  endfacet
  facet normal -0.707107 0.707107 0
    outer loop
      vertex -26.9926 14.3747 34.72
      vertex -27.3747 13.9926 33.92
      vertex -27.3747 13.9926 34.72
    endloop
  endfacet
  facet normal -0.906344 -0.422541 0
    outer loop
      vertex -27.6847 10.45 33.92
      vertex -27.913 10.9397 34.72
      vertex -27.913 10.9397 33.92
    endloop
  endfacet
  facet normal -0.906344 -0.422541 0
    outer loop
      vertex -27.913 10.9397 34.72
      vertex -27.6847 10.45 33.92
      vertex -27.6847 10.45 34.72
    endloop
  endfacet
  facet normal 0.0871647 0.996194 -0
    outer loop
      vertex -24.4617 15.0529 33.92
      vertex -25 15.1 34.72
      vertex -24.4617 15.0529 34.72
    endloop
  endfacet
  facet normal 0.0871647 0.996194 0
    outer loop
      vertex -25 15.1 34.72
      vertex -24.4617 15.0529 33.92
      vertex -25 15.1 33.92
    endloop
  endfacet
  facet normal -0.996194 0.0871647 0
    outer loop
      vertex -28.1 12 33.92
      vertex -28.0529 12.5383 34.72
      vertex -28.0529 12.5383 33.92
    endloop
  endfacet
  facet normal -0.996194 0.0871647 0
    outer loop
      vertex -28.0529 12.5383 34.72
      vertex -28.1 12 33.92
      vertex -28.1 12 34.72
    endloop
  endfacet
  facet normal -0.819075 -0.573686 0
    outer loop
      vertex -27.3747 10.0074 33.92
      vertex -27.6847 10.45 34.72
      vertex -27.6847 10.45 33.92
    endloop
  endfacet
  facet normal -0.819075 -0.573686 0
    outer loop
      vertex -27.6847 10.45 34.72
      vertex -27.3747 10.0074 33.92
      vertex -27.3747 10.0074 34.72
    endloop
  endfacet
  facet normal 0.707144 -0.70707 0
    outer loop
      vertex -23.0074 9.62526 34.72
      vertex -22.6253 10.0074 33.92
      vertex -22.6253 10.0074 34.72
    endloop
  endfacet
  facet normal 0.707144 -0.70707 0
    outer loop
      vertex -22.6253 10.0074 33.92
      vertex -23.0074 9.62526 34.72
      vertex -23.0074 9.62526 33.92
    endloop
  endfacet
  facet normal 0 0 1
    outer loop
      vertex -21.9471 12.5383 34.72
      vertex -21.9471 11.4617 34.72
      vertex -21.9 12 34.72
    endloop
  endfacet
  facet normal 0 0 1
    outer loop
      vertex -22.087 13.0603 34.72
      vertex -21.9471 11.4617 34.72
      vertex -21.9471 12.5383 34.72
    endloop
  endfacet
  facet normal 0 0 1
    outer loop
      vertex -22.087 13.0603 34.72
      vertex -22.087 10.9397 34.72
      vertex -21.9471 11.4617 34.72
    endloop
  endfacet
  facet normal 0 0 1
    outer loop
      vertex -22.3153 13.55 34.72
      vertex -22.087 10.9397 34.72
      vertex -22.087 13.0603 34.72
    endloop
  endfacet
  facet normal 0 0 1
    outer loop
      vertex -22.3153 13.55 34.72
      vertex -22.3153 10.45 34.72
      vertex -22.087 10.9397 34.72
    endloop
  endfacet
  facet normal 0 0 1
    outer loop
      vertex -22.6253 13.9926 34.72
      vertex -22.3153 10.45 34.72
      vertex -22.3153 13.55 34.72
    endloop
  endfacet
  facet normal 0 0 1
    outer loop
      vertex -22.6253 13.9926 34.72
      vertex -22.6253 10.0074 34.72
      vertex -22.3153 10.45 34.72
    endloop
  endfacet
  facet normal 0 0 1
    outer loop
      vertex -23.0074 14.3747 34.72
      vertex -22.6253 10.0074 34.72
      vertex -22.6253 13.9926 34.72
    endloop
  endfacet
  facet normal 0 0 1
    outer loop
      vertex -23.0074 14.3747 34.72
      vertex -23.0074 9.62526 34.72
      vertex -22.6253 10.0074 34.72
    endloop
  endfacet
  facet normal 0 0 1
    outer loop
      vertex -23.45 14.6847 34.72
      vertex -23.0074 9.62526 34.72
      vertex -23.0074 14.3747 34.72
    endloop
  endfacet
  facet normal 0 0 1
    outer loop
      vertex -23.45 14.6847 34.72
      vertex -23.45 9.31532 34.72
      vertex -23.0074 9.62526 34.72
    endloop
  endfacet
  facet normal 0 0 1
    outer loop
      vertex -23.9397 14.913 34.72
      vertex -23.45 9.31532 34.72
      vertex -23.45 14.6847 34.72
    endloop
  endfacet
  facet normal 0 0 1
    outer loop
      vertex -23.9397 14.913 34.72
      vertex -23.9397 9.08695 34.72
      vertex -23.45 9.31532 34.72
    endloop
  endfacet
  facet normal 0 0 1
    outer loop
      vertex -24.4617 15.0529 34.72
      vertex -23.9397 9.08695 34.72
      vertex -23.9397 14.913 34.72
    endloop
  endfacet
  facet normal 0 0 1
    outer loop
      vertex -24.4617 15.0529 34.72
      vertex -24.4617 8.9471 34.72
      vertex -23.9397 9.08695 34.72
    endloop
  endfacet
  facet normal 0 0 1
    outer loop
      vertex -25 15.1 34.72
      vertex -24.4617 8.9471 34.72
      vertex -24.4617 15.0529 34.72
    endloop
  endfacet
  facet normal 0 0 1
    outer loop
      vertex -25 15.1 34.72
      vertex -25 8.9 34.72
      vertex -24.4617 8.9471 34.72
    endloop
  endfacet
  facet normal -0 0 1
    outer loop
      vertex -25.5383 15.0529 34.72
      vertex -25 8.9 34.72
      vertex -25 15.1 34.72
    endloop
  endfacet
  facet normal 0 0 1
    outer loop
      vertex -25.5383 15.0529 34.72
      vertex -25.5383 8.9471 34.72
      vertex -25 8.9 34.72
    endloop
  endfacet
  facet normal -0 0 1
    outer loop
      vertex -26.0603 14.913 34.72
      vertex -25.5383 8.9471 34.72
      vertex -25.5383 15.0529 34.72
    endloop
  endfacet
  facet normal 0 0 1
    outer loop
      vertex -26.0603 14.913 34.72
      vertex -26.0603 9.08695 34.72
      vertex -25.5383 8.9471 34.72
    endloop
  endfacet
  facet normal -0 0 1
    outer loop
      vertex -26.55 14.6847 34.72
      vertex -26.0603 9.08695 34.72
      vertex -26.0603 14.913 34.72
    endloop
  endfacet
  facet normal 0 0 1
    outer loop
      vertex -26.55 14.6847 34.72
      vertex -26.55 9.31532 34.72
      vertex -26.0603 9.08695 34.72
    endloop
  endfacet
  facet normal -0 0 1
    outer loop
      vertex -26.9926 14.3747 34.72
      vertex -26.55 9.31532 34.72
      vertex -26.55 14.6847 34.72
    endloop
  endfacet
  facet normal 0 0 1
    outer loop
      vertex -26.9926 14.3747 34.72
      vertex -26.9926 9.62526 34.72
      vertex -26.55 9.31532 34.72
    endloop
  endfacet
  facet normal -0 0 1
    outer loop
      vertex -27.3747 13.9926 34.72
      vertex -26.9926 9.62526 34.72
      vertex -26.9926 14.3747 34.72
    endloop
  endfacet
  facet normal 0 0 1
    outer loop
      vertex -27.3747 13.9926 34.72
      vertex -27.3747 10.0074 34.72
      vertex -26.9926 9.62526 34.72
    endloop
  endfacet
  facet normal -0 0 1
    outer loop
      vertex -27.6847 13.55 34.72
      vertex -27.3747 10.0074 34.72
      vertex -27.3747 13.9926 34.72
    endloop
  endfacet
  facet normal 0 0 1
    outer loop
      vertex -27.6847 13.55 34.72
      vertex -27.6847 10.45 34.72
      vertex -27.3747 10.0074 34.72
    endloop
  endfacet
  facet normal -0 0 1
    outer loop
      vertex -27.913 13.0603 34.72
      vertex -27.6847 10.45 34.72
      vertex -27.6847 13.55 34.72
    endloop
  endfacet
  facet normal 0 0 1
    outer loop
      vertex -27.913 13.0603 34.72
      vertex -27.913 10.9397 34.72
      vertex -27.6847 10.45 34.72
    endloop
  endfacet
  facet normal -0 0 1
    outer loop
      vertex -28.0529 12.5383 34.72
      vertex -27.913 10.9397 34.72
      vertex -27.913 13.0603 34.72
    endloop
  endfacet
  facet normal 0 0 1
    outer loop
      vertex -28.0529 12.5383 34.72
      vertex -28.0529 11.4617 34.72
      vertex -27.913 10.9397 34.72
    endloop
  endfacet
  facet normal 0 -0 1
    outer loop
      vertex -28.0529 11.4617 34.72
      vertex -28.0529 12.5383 34.72
      vertex -28.1 12 34.72
    endloop
  endfacet
  facet normal -0.707144 -0.70707 0
    outer loop
      vertex -26.9926 9.62526 33.92
      vertex -27.3747 10.0074 34.72
      vertex -27.3747 10.0074 33.92
    endloop
  endfacet
  facet normal -0.707144 -0.70707 0
    outer loop
      vertex -27.3747 10.0074 34.72
      vertex -26.9926 9.62526 33.92
      vertex -26.9926 9.62526 34.72
    endloop
  endfacet
  facet normal 0.422647 -0.906294 0
    outer loop
      vertex -23.9397 9.08695 33.92
      vertex -23.45 9.31532 34.72
      vertex -23.9397 9.08695 34.72
    endloop
  endfacet
  facet normal 0.422647 -0.906294 0
    outer loop
      vertex -23.45 9.31532 34.72
      vertex -23.9397 9.08695 33.92
      vertex -23.45 9.31532 33.92
    endloop
  endfacet
  facet normal -0.819075 0.573686 0
    outer loop
      vertex -27.6847 13.55 33.92
      vertex -27.3747 13.9926 34.72
      vertex -27.3747 13.9926 33.92
    endloop
  endfacet
  facet normal -0.819075 0.573686 0
    outer loop
      vertex -27.3747 13.9926 34.72
      vertex -27.6847 13.55 33.92
      vertex -27.6847 13.55 34.72
    endloop
  endfacet
  facet normal 0.258872 0.965912 -0
    outer loop
      vertex -23.9397 14.913 33.92
      vertex -24.4617 15.0529 34.72
      vertex -23.9397 14.913 34.72
    endloop
  endfacet
  facet normal 0.258872 0.965912 0
    outer loop
      vertex -24.4617 15.0529 34.72
      vertex -23.9397 14.913 33.92
      vertex -24.4617 15.0529 33.92
    endloop
  endfacet
  facet normal -0.0871647 -0.996194 0
    outer loop
      vertex -25.5383 8.9471 33.92
      vertex -25 8.9 34.72
      vertex -25.5383 8.9471 34.72
    endloop
  endfacet
  facet normal -0.0871647 -0.996194 -0
    outer loop
      vertex -25 8.9 34.72
      vertex -25.5383 8.9471 33.92
      vertex -25 8.9 33.92
    endloop
  endfacet
  facet normal -0.258785 -0.965935 0
    outer loop
      vertex -26.0603 9.08695 33.92
      vertex -25.5383 8.9471 34.72
      vertex -26.0603 9.08695 34.72
    endloop
  endfacet
  facet normal -0.258785 -0.965935 -0
    outer loop
      vertex -25.5383 8.9471 34.72
      vertex -26.0603 9.08695 33.92
      vertex -25.5383 8.9471 33.92
    endloop
  endfacet
  facet normal -0.573611 -0.819128 0
    outer loop
      vertex -26.9926 9.62526 33.92
      vertex -26.55 9.31532 34.72
      vertex -26.9926 9.62526 34.72
    endloop
  endfacet
  facet normal -0.573611 -0.819128 -0
    outer loop
      vertex -26.55 9.31532 34.72
      vertex -26.9926 9.62526 33.92
      vertex -26.55 9.31532 33.92
    endloop
  endfacet
  facet normal 1 -0 0
    outer loop
      vertex -17.5 8.5 13.12
      vertex -17.5 15.5 2.52
      vertex -17.5 15.5 13.12
    endloop
  endfacet
  facet normal 1 0 0
    outer loop
      vertex -17.5 15.5 2.52
      vertex -17.5 8.5 13.12
      vertex -17.5 8.5 2.52
    endloop
  endfacet
  facet normal -1 0 0
    outer loop
      vertex -26.5 8.5 2.52
      vertex -26.5 15.5 13.11
      vertex -26.5 15.5 2.52
    endloop
  endfacet
  facet normal -1 -0 0
    outer loop
      vertex -26.5 15.5 13.11
      vertex -26.5 8.5 2.52
      vertex -26.5 8.5 13.11
    endloop
  endfacet
  facet normal 0 1 0
    outer loop
      vertex -26.5 15.5 13.11
      vertex -20.5 15.5 21.13
      vertex -17.5 15.5 13.12
    endloop
  endfacet
  facet normal 0 1 0
    outer loop
      vertex -20.5 15.5 21.13
      vertex -26.5 15.5 13.11
      vertex -29.4963 15.5 21.11
    endloop
  endfacet
  facet normal 0 1 -0
    outer loop
      vertex -17.5 15.5 2.52
      vertex -26.5 15.5 13.11
      vertex -17.5 15.5 13.12
    endloop
  endfacet
  facet normal 0 1 0
    outer loop
      vertex -26.5 15.5 13.11
      vertex -17.5 15.5 2.52
      vertex -26.5 15.5 2.52
    endloop
  endfacet
  facet normal 0 1 -0
    outer loop
      vertex -20.5 15.5 21.13
      vertex -29.5 15.5 25.11
      vertex -20.5 15.5 25.11
    endloop
  endfacet
  facet normal 0 1 -0
    outer loop
      vertex -29.4963 15.5 21.11
      vertex -29.5 15.5 25.11
      vertex -20.5 15.5 21.13
    endloop
  endfacet
  facet normal 0 1 0
    outer loop
      vertex -29.5 15.5 25.11
      vertex -29.4963 15.5 21.11
      vertex -29.5 15.5 21.11
    endloop
  endfacet
  facet normal 0 -1 0
    outer loop
      vertex -29.5 8.5 25.11
      vertex -20.5 8.5 21.13
      vertex -20.5 8.5 25.11
    endloop
  endfacet
  facet normal 0 -1 0
    outer loop
      vertex -29.4963 8.5 21.11
      vertex -29.5 8.5 25.11
      vertex -29.5 8.5 21.11
    endloop
  endfacet
  facet normal 0 -1 0
    outer loop
      vertex -29.5 8.5 25.11
      vertex -29.4963 8.5 21.11
      vertex -20.5 8.5 21.13
    endloop
  endfacet
  facet normal 0 -1 0
    outer loop
      vertex -26.5 8.5 13.11
      vertex -20.5 8.5 21.13
      vertex -29.4963 8.5 21.11
    endloop
  endfacet
  facet normal 0 -1 -0
    outer loop
      vertex -20.5 8.5 21.13
      vertex -26.5 8.5 13.11
      vertex -17.5 8.5 13.12
    endloop
  endfacet
  facet normal 0 -1 0
    outer loop
      vertex -26.5 8.5 2.52
      vertex -17.5 8.5 13.12
      vertex -26.5 8.5 13.11
    endloop
  endfacet
  facet normal 0 -1 -0
    outer loop
      vertex -17.5 8.5 13.12
      vertex -26.5 8.5 2.52
      vertex -17.5 8.5 2.52
    endloop
  endfacet
  facet normal -0.936471 0 -0.350744
    outer loop
      vertex -26.5 8.5 13.11
      vertex -29.4963 15.5 21.11
      vertex -26.5 15.5 13.11
    endloop
  endfacet
  facet normal -0.936471 -0 -0.350744
    outer loop
      vertex -29.4963 15.5 21.11
      vertex -26.5 8.5 13.11
      vertex -29.4963 8.5 21.11
    endloop
  endfacet
  facet normal -1 0 0
    outer loop
      vertex -29.5 8.5 21.11
      vertex -29.5 15.5 25.11
      vertex -29.5 15.5 21.11
    endloop
  endfacet
  facet normal -1 -0 0
    outer loop
      vertex -29.5 15.5 25.11
      vertex -29.5 8.5 21.11
      vertex -29.5 8.5 25.11
    endloop
  endfacet
  facet normal 0.936473 -0 0.350739
    outer loop
      vertex -20.5 8.5 21.13
      vertex -17.5 15.5 13.12
      vertex -20.5 15.5 21.13
    endloop
  endfacet
  facet normal 0.936473 0 0.350739
    outer loop
      vertex -17.5 15.5 13.12
      vertex -20.5 8.5 21.13
      vertex -17.5 8.5 13.12
    endloop
  endfacet
  facet normal 1 -0 0
    outer loop
      vertex -20.5 8.5 25.11
      vertex -20.5 15.5 21.13
      vertex -20.5 15.5 25.11
    endloop
  endfacet
  facet normal 1 0 0
    outer loop
      vertex -20.5 15.5 21.13
      vertex -20.5 8.5 25.11
      vertex -20.5 8.5 21.13
    endloop
  endfacet
  facet normal 0 0 -1
    outer loop
      vertex -29.5 8.5 21.11
      vertex -29.4963 15.5 21.11
      vertex -29.4963 8.5 21.11
    endloop
  endfacet
  facet normal -0 0 -1
    outer loop
      vertex -29.4963 15.5 21.11
      vertex -29.5 8.5 21.11
      vertex -29.5 15.5 21.11
    endloop
  endfacet
  facet normal -1 0 0
    outer loop
      vertex -30.7 7.3 27.12
      vertex -30.7 16.7 29.52
      vertex -30.7 16.7 27.12
    endloop
  endfacet
  facet normal -1 -0 0
    outer loop
      vertex -30.7 16.7 29.52
      vertex -30.7 7.3 27.12
      vertex -30.7 7.3 29.52
    endloop
  endfacet
  facet normal 0 -0.858622 -0.51261
    outer loop
      vertex -29.5 8.5 25.11
      vertex -19.3 7.3 27.12
      vertex -30.7 7.3 27.12
    endloop
  endfacet
  facet normal 0 -0.858622 -0.51261
    outer loop
      vertex -19.3 7.3 27.12
      vertex -29.5 8.5 25.11
      vertex -20.5 8.5 25.11
    endloop
  endfacet
  facet normal 0 0.858622 -0.51261
    outer loop
      vertex -20.5 15.5 25.11
      vertex -30.7 16.7 27.12
      vertex -19.3 16.7 27.12
    endloop
  endfacet
  facet normal 0 0.858622 -0.51261
    outer loop
      vertex -30.7 16.7 27.12
      vertex -20.5 15.5 25.11
      vertex -29.5 15.5 25.11
    endloop
  endfacet
  facet normal 0 -1 0
    outer loop
      vertex -30.7 7.3 27.12
      vertex -19.3 7.3 29.52
      vertex -30.7 7.3 29.52
    endloop
  endfacet
  facet normal 0 -1 -0
    outer loop
      vertex -19.3 7.3 29.52
      vertex -30.7 7.3 27.12
      vertex -19.3 7.3 27.12
    endloop
  endfacet
  facet normal 0 1 -0
    outer loop
      vertex -19.3 16.7 27.12
      vertex -30.7 16.7 29.52
      vertex -19.3 16.7 29.52
    endloop
  endfacet
  facet normal 0 1 0
    outer loop
      vertex -30.7 16.7 29.52
      vertex -19.3 16.7 27.12
      vertex -30.7 16.7 27.12
    endloop
  endfacet
  facet normal 1 -0 0
    outer loop
      vertex -19.3 7.3 29.52
      vertex -19.3 16.7 27.12
      vertex -19.3 16.7 29.52
    endloop
  endfacet
  facet normal 1 0 0
    outer loop
      vertex -19.3 16.7 27.12
      vertex -19.3 7.3 29.52
      vertex -19.3 7.3 27.12
    endloop
  endfacet
  facet normal -0.858622 0 -0.51261
    outer loop
      vertex -29.5 8.5 25.11
      vertex -30.7 16.7 27.12
      vertex -29.5 15.5 25.11
    endloop
  endfacet
  facet normal -0.858622 -0 -0.51261
    outer loop
      vertex -30.7 16.7 27.12
      vertex -29.5 8.5 25.11
      vertex -30.7 7.3 27.12
    endloop
  endfacet
  facet normal 0.858622 0 -0.51261
    outer loop
      vertex -19.3 16.7 27.12
      vertex -20.5 8.5 25.11
      vertex -20.5 15.5 25.11
    endloop
  endfacet
  facet normal 0.858622 0 -0.51261
    outer loop
      vertex -20.5 8.5 25.11
      vertex -19.3 16.7 27.12
      vertex -19.3 7.3 27.12
    endloop
  endfacet
  facet normal 0 0 1
    outer loop
      vertex -19.3 16.7 29.52
      vertex -22.6 12 29.52
      vertex -19.3 7.3 29.52
    endloop
  endfacet
  facet normal 0 0 1
    outer loop
      vertex -19.3 16.7 29.52
      vertex -22.6365 12.4168 29.52
      vertex -22.6 12 29.52
    endloop
  endfacet
  facet normal 0 0 1
    outer loop
      vertex -19.3 16.7 29.52
      vertex -22.7447 12.8208 29.52
      vertex -22.6365 12.4168 29.52
    endloop
  endfacet
  facet normal 0 0 1
    outer loop
      vertex -19.3 16.7 29.52
      vertex -22.9215 13.2 29.52
      vertex -22.7447 12.8208 29.52
    endloop
  endfacet
  facet normal 0 0 1
    outer loop
      vertex -19.3 16.7 29.52
      vertex -23.1615 13.5427 29.52
      vertex -22.9215 13.2 29.52
    endloop
  endfacet
  facet normal 0 0 1
    outer loop
      vertex -19.3 16.7 29.52
      vertex -23.4573 13.8385 29.52
      vertex -23.1615 13.5427 29.52
    endloop
  endfacet
  facet normal 0 0 1
    outer loop
      vertex -19.3 16.7 29.52
      vertex -23.8 14.0785 29.52
      vertex -23.4573 13.8385 29.52
    endloop
  endfacet
  facet normal 0 0 1
    outer loop
      vertex -19.3 16.7 29.52
      vertex -24.1792 14.2553 29.52
      vertex -23.8 14.0785 29.52
    endloop
  endfacet
  facet normal 0 0 1
    outer loop
      vertex -19.3 16.7 29.52
      vertex -24.5832 14.3635 29.52
      vertex -24.1792 14.2553 29.52
    endloop
  endfacet
  facet normal 0 0 1
    outer loop
      vertex -19.3 16.7 29.52
      vertex -25 14.4 29.52
      vertex -24.5832 14.3635 29.52
    endloop
  endfacet
  facet normal -0 0 1
    outer loop
      vertex -30.7 16.7 29.52
      vertex -25 14.4 29.52
      vertex -19.3 16.7 29.52
    endloop
  endfacet
  facet normal 0 0 1
    outer loop
      vertex -25 14.4 29.52
      vertex -30.7 16.7 29.52
      vertex -25.4168 14.3635 29.52
    endloop
  endfacet
  facet normal 0 0 1
    outer loop
      vertex -27.3635 12.4168 29.52
      vertex -30.7 16.7 29.52
      vertex -27.4 12 29.52
    endloop
  endfacet
  facet normal 0 0 1
    outer loop
      vertex -27.2553 12.8208 29.52
      vertex -30.7 16.7 29.52
      vertex -27.3635 12.4168 29.52
    endloop
  endfacet
  facet normal 0 0 1
    outer loop
      vertex -27.0785 13.2 29.52
      vertex -30.7 16.7 29.52
      vertex -27.2553 12.8208 29.52
    endloop
  endfacet
  facet normal 0 0 1
    outer loop
      vertex -26.8385 13.5427 29.52
      vertex -30.7 16.7 29.52
      vertex -27.0785 13.2 29.52
    endloop
  endfacet
  facet normal 0 0 1
    outer loop
      vertex -26.5427 13.8385 29.52
      vertex -30.7 16.7 29.52
      vertex -26.8385 13.5427 29.52
    endloop
  endfacet
  facet normal 0 0 1
    outer loop
      vertex -26.2 14.0785 29.52
      vertex -30.7 16.7 29.52
      vertex -26.5427 13.8385 29.52
    endloop
  endfacet
  facet normal 0 0 1
    outer loop
      vertex -25.8208 14.2553 29.52
      vertex -30.7 16.7 29.52
      vertex -26.2 14.0785 29.52
    endloop
  endfacet
  facet normal 0 0 1
    outer loop
      vertex -25.4168 14.3635 29.52
      vertex -30.7 16.7 29.52
      vertex -25.8208 14.2553 29.52
    endloop
  endfacet
  facet normal -0 0 1
    outer loop
      vertex -22.6365 11.5832 29.52
      vertex -19.3 7.3 29.52
      vertex -22.6 12 29.52
    endloop
  endfacet
  facet normal -0 0 1
    outer loop
      vertex -22.7447 11.1792 29.52
      vertex -19.3 7.3 29.52
      vertex -22.6365 11.5832 29.52
    endloop
  endfacet
  facet normal -0 0 1
    outer loop
      vertex -22.9215 10.8 29.52
      vertex -19.3 7.3 29.52
      vertex -22.7447 11.1792 29.52
    endloop
  endfacet
  facet normal -0 0 1
    outer loop
      vertex -23.1615 10.4573 29.52
      vertex -19.3 7.3 29.52
      vertex -22.9215 10.8 29.52
    endloop
  endfacet
  facet normal -0 0 1
    outer loop
      vertex -23.4573 10.1615 29.52
      vertex -19.3 7.3 29.52
      vertex -23.1615 10.4573 29.52
    endloop
  endfacet
  facet normal -0 0 1
    outer loop
      vertex -23.8 9.92154 29.52
      vertex -19.3 7.3 29.52
      vertex -23.4573 10.1615 29.52
    endloop
  endfacet
  facet normal -0 0 1
    outer loop
      vertex -24.1792 9.74474 29.52
      vertex -19.3 7.3 29.52
      vertex -23.8 9.92154 29.52
    endloop
  endfacet
  facet normal -0 0 1
    outer loop
      vertex -24.5832 9.63646 29.52
      vertex -19.3 7.3 29.52
      vertex -24.1792 9.74474 29.52
    endloop
  endfacet
  facet normal -0 0 1
    outer loop
      vertex -25 9.6 29.52
      vertex -19.3 7.3 29.52
      vertex -24.5832 9.63646 29.52
    endloop
  endfacet
  facet normal 0 0 1
    outer loop
      vertex -30.7 7.3 29.52
      vertex -25 9.6 29.52
      vertex -25.4168 9.63646 29.52
    endloop
  endfacet
  facet normal 0 0 1
    outer loop
      vertex -30.7 7.3 29.52
      vertex -25.4168 9.63646 29.52
      vertex -25.8208 9.74474 29.52
    endloop
  endfacet
  facet normal 0 0 1
    outer loop
      vertex -30.7 7.3 29.52
      vertex -27.4 12 29.52
      vertex -30.7 16.7 29.52
    endloop
  endfacet
  facet normal 0 0 1
    outer loop
      vertex -27.4 12 29.52
      vertex -30.7 7.3 29.52
      vertex -27.3635 11.5832 29.52
    endloop
  endfacet
  facet normal 0 0 1
    outer loop
      vertex -27.3635 11.5832 29.52
      vertex -30.7 7.3 29.52
      vertex -27.2553 11.1792 29.52
    endloop
  endfacet
  facet normal 0 0 1
    outer loop
      vertex -25 9.6 29.52
      vertex -30.7 7.3 29.52
      vertex -19.3 7.3 29.52
    endloop
  endfacet
  facet normal 0 0 1
    outer loop
      vertex -26.2 9.92154 29.52
      vertex -30.7 7.3 29.52
      vertex -25.8208 9.74474 29.52
    endloop
  endfacet
  facet normal 0 0 1
    outer loop
      vertex -26.5427 10.1615 29.52
      vertex -30.7 7.3 29.52
      vertex -26.2 9.92154 29.52
    endloop
  endfacet
  facet normal 0 0 1
    outer loop
      vertex -26.8385 10.4573 29.52
      vertex -30.7 7.3 29.52
      vertex -26.5427 10.1615 29.52
    endloop
  endfacet
  facet normal 0 0 1
    outer loop
      vertex -27.0785 10.8 29.52
      vertex -30.7 7.3 29.52
      vertex -26.8385 10.4573 29.52
    endloop
  endfacet
  facet normal 0 0 1
    outer loop
      vertex -27.2553 11.1792 29.52
      vertex -30.7 7.3 29.52
      vertex -27.0785 10.8 29.52
    endloop
  endfacet
  facet normal 0.923282 0.330208 -0.196249
    outer loop
      vertex 24.0035 -8.59946 12.1148
      vertex 21.828 -8.21901 2.52
      vertex 23.8733 -8.21901 12.1424
    endloop
  endfacet
  facet normal 0.923257 0.330281 -0.196241
    outer loop
      vertex 21.828 -8.21901 2.52
      vertex 24.0035 -8.59946 12.1148
      vertex 21.9641 -8.59946 2.52
    endloop
  endfacet
  facet normal 0.971982 0.112108 -0.206597
    outer loop
      vertex 24.0477 -9 12.1054
      vertex 21.9641 -8.59946 2.52
      vertex 24.0035 -8.59946 12.1148
    endloop
  endfacet
  facet normal 0.971982 0.112113 -0.206597
    outer loop
      vertex 21.9641 -8.59946 2.52
      vertex 24.0477 -9 12.1054
      vertex 22.0103 -9 2.52
    endloop
  endfacet
  facet normal -0.69166 0.707102 0.147018
    outer loop
      vertex 19.0227 -7.5927 2.52
      vertex 20.9105 -7.87772 12.7722
      vertex 21.1893 -7.5927 12.713
    endloop
  endfacet
  facet normal -0.69164 0.707122 0.147014
    outer loop
      vertex 20.9105 -7.87772 12.7722
      vertex 19.0227 -7.5927 2.52
      vertex 18.7313 -7.87772 2.52
    endloop
  endfacet
  facet normal -0.520419 0.846716 0.110619
    outer loop
      vertex 19.3716 -7.37826 2.52
      vertex 21.1893 -7.5927 12.713
      vertex 21.5231 -7.37826 12.642
    endloop
  endfacet
  facet normal -0.52041 0.846722 0.110617
    outer loop
      vertex 21.1893 -7.5927 12.713
      vertex 19.3716 -7.37826 2.52
      vertex 19.0227 -7.5927 2.52
    endloop
  endfacet
  facet normal 0.323186 -0.943839 -0.0686962
    outer loop
      vertex 20.9685 -10.6217 2.52
      vertex 22.6788 -10.7549 12.3963
      vertex 20.5795 -10.7549 2.52
    endloop
  endfacet
  facet normal 0.323176 -0.943842 -0.0686945
    outer loop
      vertex 22.6788 -10.7549 12.3963
      vertex 20.9685 -10.6217 2.52
      vertex 23.051 -10.6217 12.3172
    endloop
  endfacet
  facet normal 0.691634 0.707128 -0.147013
    outer loop
      vertex 21.6088 -7.87772 2.52
      vertex 23.3848 -7.5927 12.2463
      vertex 23.6636 -7.87772 12.187
    endloop
  endfacet
  facet normal 0.69164 0.707122 -0.147013
    outer loop
      vertex 23.3848 -7.5927 12.2463
      vertex 21.6088 -7.87772 2.52
      vertex 21.3174 -7.5927 2.52
    endloop
  endfacet
  facet normal 0.520442 0.846701 -0.110624
    outer loop
      vertex 21.3174 -7.5927 2.52
      vertex 23.051 -7.37826 12.3172
      vertex 23.3848 -7.5927 12.2463
    endloop
  endfacet
  facet normal 0.52041 0.846721 -0.110619
    outer loop
      vertex 23.051 -7.37826 12.3172
      vertex 21.3174 -7.5927 2.52
      vertex 20.9685 -7.37826 2.52
    endloop
  endfacet
  facet normal 0.923282 -0.330208 -0.196249
    outer loop
      vertex 21.828 -9.78099 2.52
      vertex 24.0035 -9.40054 12.1148
      vertex 23.8733 -9.78099 12.1424
    endloop
  endfacet
  facet normal 0.923257 -0.330281 -0.196241
    outer loop
      vertex 24.0035 -9.40054 12.1148
      vertex 21.828 -9.78099 2.52
      vertex 21.9641 -9.40054 2.52
    endloop
  endfacet
  facet normal 0.828283 0.531932 -0.176058
    outer loop
      vertex 23.8733 -8.21901 12.1424
      vertex 21.6088 -7.87772 2.52
      vertex 23.6636 -7.87772 12.187
    endloop
  endfacet
  facet normal 0.828261 0.531967 -0.176052
    outer loop
      vertex 21.6088 -7.87772 2.52
      vertex 23.8733 -8.21901 12.1424
      vertex 21.828 -8.21901 2.52
    endloop
  endfacet
  facet normal 0.828296 -0.53191 -0.176061
    outer loop
      vertex 21.6088 -10.1223 2.52
      vertex 23.8733 -9.78099 12.1424
      vertex 23.6636 -10.1223 12.187
    endloop
  endfacet
  facet normal 0.828275 -0.531944 -0.176055
    outer loop
      vertex 23.8733 -9.78099 12.1424
      vertex 21.6088 -10.1223 2.52
      vertex 21.828 -9.78099 2.52
    endloop
  endfacet
  facet normal -0.323099 0.94387 0.0686742
    outer loop
      vertex 19.7606 -7.24513 2.52
      vertex 21.5231 -7.37826 12.642
      vertex 21.8952 -7.24513 12.5629
    endloop
  endfacet
  facet normal -0.323035 0.943893 0.0686632
    outer loop
      vertex 21.5231 -7.37826 12.642
      vertex 19.7606 -7.24513 2.52
      vertex 19.3716 -7.37826 2.52
    endloop
  endfacet
  facet normal 0.323025 0.943896 -0.0686623
    outer loop
      vertex 20.9685 -7.37826 2.52
      vertex 22.6788 -7.24513 12.3963
      vertex 23.051 -7.37826 12.3172
    endloop
  endfacet
  facet normal 0.323035 0.943893 -0.068664
    outer loop
      vertex 22.6788 -7.24513 12.3963
      vertex 20.9685 -7.37826 2.52
      vertex 20.5795 -7.24513 2.52
    endloop
  endfacet
  facet normal -0.828275 -0.531944 0.176057
    outer loop
      vertex 20.9105 -10.1223 12.7722
      vertex 18.5121 -9.78099 2.52
      vertex 18.7313 -10.1223 2.52
    endloop
  endfacet
  facet normal -0.82819 -0.532084 0.176033
    outer loop
      vertex 18.5121 -9.78099 2.52
      vertex 20.9105 -10.1223 12.7722
      vertex 20.7007 -9.78099 12.8168
    endloop
  endfacet
  facet normal 0.109443 -0.993721 -0.023263
    outer loop
      vertex 20.5795 -10.7549 2.52
      vertex 22.287 -10.8 12.4796
      vertex 20.17 -10.8 2.52
    endloop
  endfacet
  facet normal 0.109441 -0.993721 -0.0232627
    outer loop
      vertex 22.287 -10.8 12.4796
      vertex 20.5795 -10.7549 2.52
      vertex 22.6788 -10.7549 12.3963
    endloop
  endfacet
  facet normal -0.691616 -0.707147 0.147009
    outer loop
      vertex 19.0227 -10.4073 2.52
      vertex 20.9105 -10.1223 12.7722
      vertex 18.7313 -10.1223 2.52
    endloop
  endfacet
  facet normal -0.691635 -0.707127 0.147012
    outer loop
      vertex 20.9105 -10.1223 12.7722
      vertex 19.0227 -10.4073 2.52
      vertex 21.1893 -10.4073 12.713
    endloop
  endfacet
  facet normal -0.923258 0.330281 0.19624
    outer loop
      vertex 18.376 -8.59946 2.52
      vertex 20.7007 -8.21901 12.8168
      vertex 18.5121 -8.21901 2.52
    endloop
  endfacet
  facet normal -0.923266 0.330254 0.196243
    outer loop
      vertex 20.7007 -8.21901 12.8168
      vertex 18.376 -8.59946 2.52
      vertex 20.5705 -8.59946 12.8445
    endloop
  endfacet
  facet normal -0.971982 -0.112113 0.206597
    outer loop
      vertex 20.5705 -9.40054 12.8445
      vertex 18.3298 -9 2.52
      vertex 18.376 -9.40054 2.52
    endloop
  endfacet
  facet normal -0.972007 -0.111868 0.206612
    outer loop
      vertex 18.3298 -9 2.52
      vertex 20.5705 -9.40054 12.8445
      vertex 20.5264 -9 12.8539
    endloop
  endfacet
  facet normal 0.691616 -0.707147 -0.147008
    outer loop
      vertex 21.6088 -10.1223 2.52
      vertex 23.3848 -10.4073 12.2463
      vertex 21.3174 -10.4073 2.52
    endloop
  endfacet
  facet normal 0.69161 -0.707152 -0.147007
    outer loop
      vertex 23.3848 -10.4073 12.2463
      vertex 21.6088 -10.1223 2.52
      vertex 23.6636 -10.1223 12.187
    endloop
  endfacet
  facet normal -0.828261 0.531966 0.176055
    outer loop
      vertex 18.5121 -8.21901 2.52
      vertex 20.9105 -7.87772 12.7722
      vertex 18.7313 -7.87772 2.52
    endloop
  endfacet
  facet normal -0.828177 0.532106 0.17603
    outer loop
      vertex 20.9105 -7.87772 12.7722
      vertex 18.5121 -8.21901 2.52
      vertex 20.7007 -8.21901 12.8168
    endloop
  endfacet
  facet normal -0.923258 -0.330281 0.19624
    outer loop
      vertex 20.7007 -9.78099 12.8168
      vertex 18.376 -9.40054 2.52
      vertex 18.5121 -9.78099 2.52
    endloop
  endfacet
  facet normal -0.923266 -0.330254 0.196243
    outer loop
      vertex 18.376 -9.40054 2.52
      vertex 20.7007 -9.78099 12.8168
      vertex 20.5705 -9.40054 12.8445
    endloop
  endfacet
  facet normal 0.971982 -0.112108 -0.206597
    outer loop
      vertex 21.9641 -9.40054 2.52
      vertex 24.0477 -9 12.1054
      vertex 24.0035 -9.40054 12.1148
    endloop
  endfacet
  facet normal 0.971982 -0.112113 -0.206597
    outer loop
      vertex 24.0477 -9 12.1054
      vertex 21.9641 -9.40054 2.52
      vertex 22.0103 -9 2.52
    endloop
  endfacet
  facet normal 0.52034 -0.846766 -0.110604
    outer loop
      vertex 21.3174 -10.4073 2.52
      vertex 23.051 -10.6217 12.3172
      vertex 20.9685 -10.6217 2.52
    endloop
  endfacet
  facet normal 0.520372 -0.846746 -0.110609
    outer loop
      vertex 23.051 -10.6217 12.3172
      vertex 21.3174 -10.4073 2.52
      vertex 23.3848 -10.4073 12.2463
    endloop
  endfacet
  facet normal -0.971982 0.112113 0.206597
    outer loop
      vertex 18.3298 -9 2.52
      vertex 20.5705 -8.59946 12.8445
      vertex 18.376 -8.59946 2.52
    endloop
  endfacet
  facet normal -0.972007 0.111868 0.206612
    outer loop
      vertex 20.5705 -8.59946 12.8445
      vertex 18.3298 -9 2.52
      vertex 20.5264 -9 12.8539
    endloop
  endfacet
  facet normal -0.109513 0.993713 0.023278
    outer loop
      vertex 20.17 -7.2 2.52
      vertex 21.8952 -7.24513 12.5629
      vertex 22.287 -7.2 12.4796
    endloop
  endfacet
  facet normal -0.109541 0.99371 0.0232828
    outer loop
      vertex 21.8952 -7.24513 12.5629
      vertex 20.17 -7.2 2.52
      vertex 19.7606 -7.24513 2.52
    endloop
  endfacet
  facet normal -0.52034 -0.846766 0.110602
    outer loop
      vertex 19.3716 -10.6217 2.52
      vertex 21.1893 -10.4073 12.713
      vertex 19.0227 -10.4073 2.52
    endloop
  endfacet
  facet normal -0.520349 -0.846761 0.110604
    outer loop
      vertex 21.1893 -10.4073 12.713
      vertex 19.3716 -10.6217 2.52
      vertex 21.5231 -10.6217 12.642
    endloop
  endfacet
  facet normal 0.109513 0.993713 -0.023278
    outer loop
      vertex 20.5795 -7.24513 2.52
      vertex 22.287 -7.2 12.4796
      vertex 22.6788 -7.24513 12.3963
    endloop
  endfacet
  facet normal 0.109515 0.993713 -0.0232783
    outer loop
      vertex 22.287 -7.2 12.4796
      vertex 20.5795 -7.24513 2.52
      vertex 20.17 -7.2 2.52
    endloop
  endfacet
  facet normal -0.109469 -0.993718 0.0232675
    outer loop
      vertex 20.17 -10.8 2.52
      vertex 21.8952 -10.7549 12.5629
      vertex 19.7606 -10.7549 2.52
    endloop
  endfacet
  facet normal -0.109441 -0.993721 0.0232627
    outer loop
      vertex 21.8952 -10.7549 12.5629
      vertex 20.17 -10.8 2.52
      vertex 22.287 -10.8 12.4796
    endloop
  endfacet
  facet normal -0.323186 -0.943839 0.0686954
    outer loop
      vertex 19.7606 -10.7549 2.52
      vertex 21.5231 -10.6217 12.642
      vertex 19.3716 -10.6217 2.52
    endloop
  endfacet
  facet normal -0.323251 -0.943816 0.0687064
    outer loop
      vertex 21.5231 -10.6217 12.642
      vertex 19.7606 -10.7549 2.52
      vertex 21.8952 -10.7549 12.5629
    endloop
  endfacet
  facet normal 0.21148 0 0.977382
    outer loop
      vertex 23.412 -8.84424 14.4897
      vertex 23.412 -9.15576 14.4897
      vertex 23.4291 -9 14.486
    endloop
  endfacet
  facet normal 0.206497 0 0.978447
    outer loop
      vertex 23.3613 -8.69628 14.5004
      vertex 23.412 -9.15576 14.4897
      vertex 23.412 -8.84424 14.4897
    endloop
  endfacet
  facet normal 0.206497 0 0.978447
    outer loop
      vertex 23.3613 -8.69628 14.5004
      vertex 23.3613 -9.30372 14.5004
      vertex 23.412 -9.15576 14.4897
    endloop
  endfacet
  facet normal 0.208791 0 0.97796
    outer loop
      vertex 23.2798 -8.56356 14.5178
      vertex 23.3613 -9.30372 14.5004
      vertex 23.3613 -8.69628 14.5004
    endloop
  endfacet
  facet normal 0.208791 0 0.97796
    outer loop
      vertex 23.2798 -8.56356 14.5178
      vertex 23.2798 -9.43644 14.5178
      vertex 23.3613 -9.30372 14.5004
    endloop
  endfacet
  facet normal 0.207373 0 0.978262
    outer loop
      vertex 23.1713 -8.45272 14.5408
      vertex 23.2798 -9.43644 14.5178
      vertex 23.2798 -8.56356 14.5178
    endloop
  endfacet
  facet normal 0.207373 0 0.978262
    outer loop
      vertex 23.1713 -8.45272 14.5408
      vertex 23.1713 -9.54728 14.5408
      vertex 23.2798 -9.43644 14.5178
    endloop
  endfacet
  facet normal 0.207985 0 0.978132
    outer loop
      vertex 23.0415 -8.36932 14.5684
      vertex 23.1713 -9.54728 14.5408
      vertex 23.1713 -8.45272 14.5408
    endloop
  endfacet
  facet normal 0.207985 0 0.978132
    outer loop
      vertex 23.0415 -8.36932 14.5684
      vertex 23.0415 -9.63068 14.5684
      vertex 23.1713 -9.54728 14.5408
    endloop
  endfacet
  facet normal 0.20819 0 0.978088
    outer loop
      vertex 22.8968 -8.31755 14.5992
      vertex 23.0415 -9.63068 14.5684
      vertex 23.0415 -8.36932 14.5684
    endloop
  endfacet
  facet normal 0.20819 0 0.978088
    outer loop
      vertex 22.8968 -8.31755 14.5992
      vertex 22.8968 -9.68245 14.5992
      vertex 23.0415 -9.63068 14.5684
    endloop
  endfacet
  facet normal 0.207337 0 0.97827
    outer loop
      vertex 22.7444 -8.3 14.6315
      vertex 22.8968 -9.68245 14.5992
      vertex 22.8968 -8.31755 14.5992
    endloop
  endfacet
  facet normal 0.207337 0 0.97827
    outer loop
      vertex 22.7444 -8.3 14.6315
      vertex 22.7444 -9.7 14.6315
      vertex 22.8968 -9.68245 14.5992
    endloop
  endfacet
  facet normal 0.208081 0 0.978111
    outer loop
      vertex 22.5921 -8.31755 14.6639
      vertex 22.7444 -9.7 14.6315
      vertex 22.7444 -8.3 14.6315
    endloop
  endfacet
  facet normal 0.208081 0 0.978111
    outer loop
      vertex 22.5921 -8.31755 14.6639
      vertex 22.5921 -9.68245 14.6639
      vertex 22.7444 -9.7 14.6315
    endloop
  endfacet
  facet normal 0.20819 0 0.978088
    outer loop
      vertex 22.4474 -8.36932 14.6947
      vertex 22.5921 -9.68245 14.6639
      vertex 22.5921 -8.31755 14.6639
    endloop
  endfacet
  facet normal 0.20819 0 0.978088
    outer loop
      vertex 22.4474 -8.36932 14.6947
      vertex 22.4474 -9.63068 14.6947
      vertex 22.5921 -9.68245 14.6639
    endloop
  endfacet
  facet normal 0.207832 0 0.978165
    outer loop
      vertex 22.3175 -8.45272 14.7223
      vertex 22.4474 -9.63068 14.6947
      vertex 22.4474 -8.36932 14.6947
    endloop
  endfacet
  facet normal 0.207832 0 0.978165
    outer loop
      vertex 22.3175 -8.45272 14.7223
      vertex 22.3175 -9.54728 14.7223
      vertex 22.4474 -9.63068 14.6947
    endloop
  endfacet
  facet normal 0.207557 0 0.978223
    outer loop
      vertex 22.2091 -8.56356 14.7453
      vertex 22.3175 -9.54728 14.7223
      vertex 22.3175 -8.45272 14.7223
    endloop
  endfacet
  facet normal 0.207557 0 0.978223
    outer loop
      vertex 22.2091 -8.56356 14.7453
      vertex 22.2091 -9.43644 14.7453
      vertex 22.3175 -9.54728 14.7223
    endloop
  endfacet
  facet normal 0.208547 0 0.978012
    outer loop
      vertex 22.1275 -8.69628 14.7627
      vertex 22.2091 -9.43644 14.7453
      vertex 22.2091 -8.56356 14.7453
    endloop
  endfacet
  facet normal 0.208547 0 0.978012
    outer loop
      vertex 22.1275 -8.69628 14.7627
      vertex 22.1275 -9.30372 14.7627
      vertex 22.2091 -9.43644 14.7453
    endloop
  endfacet
  facet normal 0.206887 0 0.978365
    outer loop
      vertex 22.0769 -8.84424 14.7734
      vertex 22.1275 -9.30372 14.7627
      vertex 22.1275 -8.69628 14.7627
    endloop
  endfacet
  facet normal 0.206887 0 0.978365
    outer loop
      vertex 22.0769 -8.84424 14.7734
      vertex 22.0769 -9.15576 14.7734
      vertex 22.1275 -9.30372 14.7627
    endloop
  endfacet
  facet normal 0.210305 -0 0.977636
    outer loop
      vertex 22.0769 -9.15576 14.7734
      vertex 22.0769 -8.84424 14.7734
      vertex 22.0597 -9 14.7771
    endloop
  endfacet
  facet normal -0.373503 0.758302 0.534297
    outer loop
      vertex 21.5231 -7.37826 12.642
      vertex 21.1893 -7.5927 12.713
      vertex 22.4474 -8.36932 14.6947
    endloop
  endfacet
  facet normal 0.834308 -0.476326 0.277567
    outer loop
      vertex 23.8733 -9.78099 12.1424
      vertex 23.3613 -9.30372 14.5004
      vertex 23.6636 -10.1223 12.187
    endloop
  endfacet
  facet normal -0.196701 -0.845318 0.496736
    outer loop
      vertex 22.4474 -9.63068 14.6947
      vertex 21.8952 -10.7549 12.5629
      vertex 22.5921 -9.68245 14.6639
    endloop
  endfacet
  facet normal 0.711933 0.633233 0.303591
    outer loop
      vertex 23.1713 -8.45272 14.5408
      vertex 23.6636 -7.87772 12.187
      vertex 23.3848 -7.5927 12.2463
    endloop
  endfacet
  facet normal 0.71161 0.633586 0.30361
    outer loop
      vertex 23.6636 -7.87772 12.187
      vertex 23.1713 -8.45272 14.5408
      vertex 23.2798 -8.56356 14.5178
    endloop
  endfacet
  facet normal -0.649008 -0.476755 0.592869
    outer loop
      vertex 22.1275 -9.30372 14.7627
      vertex 20.9105 -10.1223 12.7722
      vertex 22.2091 -9.43644 14.7453
    endloop
  endfacet
  facet normal -0.777941 -0.100638 0.620225
    outer loop
      vertex 20.5264 -9 12.8539
      vertex 22.0769 -9.15576 14.7734
      vertex 22.0597 -9 14.7771
    endloop
  endfacet
  facet normal -0.777958 -0.100211 0.620273
    outer loop
      vertex 22.0769 -9.15576 14.7734
      vertex 20.5264 -9 12.8539
      vertex 20.5705 -9.40054 12.8445
    endloop
  endfacet
  facet normal 0.381955 0.84526 0.373693
    outer loop
      vertex 23.0415 -8.36932 14.5684
      vertex 22.6788 -7.24513 12.3963
      vertex 22.8968 -8.31755 14.5992
    endloop
  endfacet
  facet normal 0.381955 -0.845256 0.373702
    outer loop
      vertex 22.8968 -9.68245 14.5992
      vertex 22.6788 -10.7549 12.3963
      vertex 23.0415 -9.63068 14.5684
    endloop
  endfacet
  facet normal -0.373444 -0.758345 0.534277
    outer loop
      vertex 22.4474 -9.63068 14.6947
      vertex 21.1893 -10.4073 12.713
      vertex 21.5231 -10.6217 12.642
    endloop
  endfacet
  facet normal -0.00552273 0.889921 0.45608
    outer loop
      vertex 22.287 -7.2 12.4796
      vertex 22.5921 -8.31755 14.6639
      vertex 22.7444 -8.3 14.6315
    endloop
  endfacet
  facet normal -0.00553968 0.88992 0.456082
    outer loop
      vertex 22.5921 -8.31755 14.6639
      vertex 22.287 -7.2 12.4796
      vertex 21.8952 -7.24513 12.5629
    endloop
  endfacet
  facet normal 0.558486 -0.758334 0.336189
    outer loop
      vertex 23.3848 -10.4073 12.2463
      vertex 23.0415 -9.63068 14.5684
      vertex 23.051 -10.6217 12.3172
    endloop
  endfacet
  facet normal -0.649166 0.476537 0.592871
    outer loop
      vertex 20.9105 -7.87772 12.7722
      vertex 20.7007 -8.21901 12.8168
      vertex 22.1275 -8.69628 14.7627
    endloop
  endfacet
  facet normal -0.373392 -0.758384 0.534259
    outer loop
      vertex 22.3175 -9.54728 14.7223
      vertex 21.1893 -10.4073 12.713
      vertex 22.4474 -9.63068 14.6947
    endloop
  endfacet
  facet normal 0.558656 0.758215 0.336175
    outer loop
      vertex 23.3848 -7.5927 12.2463
      vertex 23.0415 -8.36932 14.5684
      vertex 23.1713 -8.45272 14.5408
    endloop
  endfacet
  facet normal -0.734432 -0.295353 0.611045
    outer loop
      vertex 22.0769 -9.15576 14.7734
      vertex 20.5705 -9.40054 12.8445
      vertex 22.1275 -9.30372 14.7627
    endloop
  endfacet
  facet normal -0.196968 -0.845239 0.496764
    outer loop
      vertex 22.4474 -9.63068 14.6947
      vertex 21.5231 -10.6217 12.642
      vertex 21.8952 -10.7549 12.5629
    endloop
  endfacet
  facet normal 0.919203 0.29621 0.25947
    outer loop
      vertex 24.0035 -8.59946 12.1148
      vertex 23.3613 -8.69628 14.5004
      vertex 23.412 -8.84424 14.4897
    endloop
  endfacet
  facet normal 0.558548 0.758291 0.336184
    outer loop
      vertex 23.051 -7.37826 12.3172
      vertex 23.0415 -8.36932 14.5684
      vertex 23.3848 -7.5927 12.2463
    endloop
  endfacet
  facet normal 0.381919 -0.845267 0.373714
    outer loop
      vertex 23.0415 -9.63068 14.5684
      vertex 22.6788 -10.7549 12.3963
      vertex 23.051 -10.6217 12.3172
    endloop
  endfacet
  facet normal -0.64901 0.476756 0.592865
    outer loop
      vertex 22.2091 -8.56356 14.7453
      vertex 20.9105 -7.87772 12.7722
      vertex 22.1275 -8.69628 14.7627
    endloop
  endfacet
  facet normal 0.834486 -0.476056 0.277494
    outer loop
      vertex 23.3613 -9.30372 14.5004
      vertex 23.2798 -9.43644 14.5178
      vertex 23.6636 -10.1223 12.187
    endloop
  endfacet
  facet normal -0.196831 0.845285 0.49674
    outer loop
      vertex 21.8952 -7.24513 12.5629
      vertex 21.5231 -7.37826 12.642
      vertex 22.4474 -8.36932 14.6947
    endloop
  endfacet
  facet normal 0.71161 -0.633585 0.303615
    outer loop
      vertex 23.1713 -9.54728 14.5408
      vertex 23.6636 -10.1223 12.187
      vertex 23.2798 -9.43644 14.5178
    endloop
  endfacet
  facet normal 0.711911 -0.633254 0.303597
    outer loop
      vertex 23.6636 -10.1223 12.187
      vertex 23.1713 -9.54728 14.5408
      vertex 23.3848 -10.4073 12.2463
    endloop
  endfacet
  facet normal -0.196704 0.845322 0.496727
    outer loop
      vertex 22.5921 -8.31755 14.6639
      vertex 21.8952 -7.24513 12.5629
      vertex 22.4474 -8.36932 14.6947
    endloop
  endfacet
  facet normal 0.381784 0.845313 0.373748
    outer loop
      vertex 23.051 -7.37826 12.3172
      vertex 22.6788 -7.24513 12.3963
      vertex 23.0415 -8.36932 14.5684
    endloop
  endfacet
  facet normal 0.919332 0.295795 0.259488
    outer loop
      vertex 23.8733 -8.21901 12.1424
      vertex 23.3613 -8.69628 14.5004
      vertex 24.0035 -8.59946 12.1148
    endloop
  endfacet
  facet normal -0.527061 0.633097 0.566917
    outer loop
      vertex 21.1893 -7.5927 12.713
      vertex 22.2091 -8.56356 14.7453
      vertex 22.3175 -8.45272 14.7223
    endloop
  endfacet
  facet normal -0.526948 0.633198 0.566909
    outer loop
      vertex 22.2091 -8.56356 14.7453
      vertex 21.1893 -7.5927 12.713
      vertex 20.9105 -7.87772 12.7722
    endloop
  endfacet
  facet normal -0.649178 -0.476516 0.592874
    outer loop
      vertex 22.1275 -9.30372 14.7627
      vertex 20.7007 -9.78099 12.8168
      vertex 20.9105 -10.1223 12.7722
    endloop
  endfacet
  facet normal 0.963028 0.0997809 0.250243
    outer loop
      vertex 24.0477 -9 12.1054
      vertex 23.412 -8.84424 14.4897
      vertex 23.4291 -9 14.486
    endloop
  endfacet
  facet normal 0.962978 0.100394 0.25019
    outer loop
      vertex 23.412 -8.84424 14.4897
      vertex 24.0477 -9 12.1054
      vertex 24.0035 -8.59946 12.1148
    endloop
  endfacet
  facet normal 0.834487 0.476057 0.277491
    outer loop
      vertex 23.6636 -7.87772 12.187
      vertex 23.2798 -8.56356 14.5178
      vertex 23.3613 -8.69628 14.5004
    endloop
  endfacet
  facet normal -0.373392 0.758384 0.534259
    outer loop
      vertex 22.4474 -8.36932 14.6947
      vertex 21.1893 -7.5927 12.713
      vertex 22.3175 -8.45272 14.7223
    endloop
  endfacet
  facet normal 0.558656 -0.758215 0.336175
    outer loop
      vertex 23.1713 -9.54728 14.5408
      vertex 23.0415 -9.63068 14.5684
      vertex 23.3848 -10.4073 12.2463
    endloop
  endfacet
  facet normal 0.919332 -0.295795 0.259488
    outer loop
      vertex 24.0035 -9.40054 12.1148
      vertex 23.3613 -9.30372 14.5004
      vertex 23.8733 -9.78099 12.1424
    endloop
  endfacet
  facet normal -0.777958 0.100211 0.620273
    outer loop
      vertex 20.5264 -9 12.8539
      vertex 22.0769 -8.84424 14.7734
      vertex 20.5705 -8.59946 12.8445
    endloop
  endfacet
  facet normal -0.777941 0.100638 0.620225
    outer loop
      vertex 22.0769 -8.84424 14.7734
      vertex 20.5264 -9 12.8539
      vertex 22.0597 -9 14.7771
    endloop
  endfacet
  facet normal -0.734317 -0.295787 0.610974
    outer loop
      vertex 22.1275 -9.30372 14.7627
      vertex 20.5705 -9.40054 12.8445
      vertex 20.7007 -9.78099 12.8168
    endloop
  endfacet
  facet normal -0.526925 -0.633219 0.566907
    outer loop
      vertex 21.1893 -10.4073 12.713
      vertex 22.2091 -9.43644 14.7453
      vertex 20.9105 -10.1223 12.7722
    endloop
  endfacet
  facet normal -0.527061 -0.633097 0.566917
    outer loop
      vertex 22.2091 -9.43644 14.7453
      vertex 21.1893 -10.4073 12.713
      vertex 22.3175 -9.54728 14.7223
    endloop
  endfacet
  facet normal -0.734317 0.295787 0.610974
    outer loop
      vertex 20.7007 -8.21901 12.8168
      vertex 20.5705 -8.59946 12.8445
      vertex 22.1275 -8.69628 14.7627
    endloop
  endfacet
  facet normal 0.190326 0.889942 0.414462
    outer loop
      vertex 22.8968 -8.31755 14.5992
      vertex 22.287 -7.2 12.4796
      vertex 22.7444 -8.3 14.6315
    endloop
  endfacet
  facet normal 0.190606 0.889924 0.414372
    outer loop
      vertex 22.287 -7.2 12.4796
      vertex 22.8968 -8.31755 14.5992
      vertex 22.6788 -7.24513 12.3963
    endloop
  endfacet
  facet normal -0.00547353 -0.889924 0.456075
    outer loop
      vertex 22.287 -10.8 12.4796
      vertex 22.5921 -9.68245 14.6639
      vertex 21.8952 -10.7549 12.5629
    endloop
  endfacet
  facet normal -0.00552273 -0.889921 0.45608
    outer loop
      vertex 22.5921 -9.68245 14.6639
      vertex 22.287 -10.8 12.4796
      vertex 22.7444 -9.7 14.6315
    endloop
  endfacet
  facet normal 0.919203 -0.29621 0.25947
    outer loop
      vertex 23.412 -9.15576 14.4897
      vertex 23.3613 -9.30372 14.5004
      vertex 24.0035 -9.40054 12.1148
    endloop
  endfacet
  facet normal 0.834296 0.476347 0.277568
    outer loop
      vertex 23.6636 -7.87772 12.187
      vertex 23.3613 -8.69628 14.5004
      vertex 23.8733 -8.21901 12.1424
    endloop
  endfacet
  facet normal 0.190326 -0.889942 0.414462
    outer loop
      vertex 22.287 -10.8 12.4796
      vertex 22.8968 -9.68245 14.5992
      vertex 22.7444 -9.7 14.6315
    endloop
  endfacet
  facet normal 0.190543 -0.889928 0.414392
    outer loop
      vertex 22.8968 -9.68245 14.5992
      vertex 22.287 -10.8 12.4796
      vertex 22.6788 -10.7549 12.3963
    endloop
  endfacet
  facet normal 0.963028 -0.0997809 0.250243
    outer loop
      vertex 23.412 -9.15576 14.4897
      vertex 24.0477 -9 12.1054
      vertex 23.4291 -9 14.486
    endloop
  endfacet
  facet normal 0.962978 -0.100394 0.25019
    outer loop
      vertex 24.0477 -9 12.1054
      vertex 23.412 -9.15576 14.4897
      vertex 24.0035 -9.40054 12.1148
    endloop
  endfacet
  facet normal -0.734432 0.295353 0.611045
    outer loop
      vertex 22.1275 -8.69628 14.7627
      vertex 20.5705 -8.59946 12.8445
      vertex 22.0769 -8.84424 14.7734
    endloop
  endfacet
  facet normal 0 0 -1
    outer loop
      vertex -36.02 -25.02 0
      vertex 36.02 25.02 0
      vertex 36.02 -25.02 0
    endloop
  endfacet
  facet normal -0 0 -1
    outer loop
      vertex 36.02 25.02 0
      vertex -36.02 -25.02 0
      vertex -36.02 25.02 0
    endloop
  endfacet
  facet normal 1 -0 0
    outer loop
      vertex 36.02 -25.02 2.52
      vertex 36.02 25.02 0
      vertex 36.02 25.02 2.52
    endloop
  endfacet
  facet normal 1 0 0
    outer loop
      vertex 36.02 25.02 0
      vertex 36.02 -25.02 2.52
      vertex 36.02 -25.02 0
    endloop
  endfacet
  facet normal 0 -1 0
    outer loop
      vertex -36.02 -25.02 0
      vertex 36.02 -25.02 2.52
      vertex -36.02 -25.02 2.52
    endloop
  endfacet
  facet normal 0 -1 -0
    outer loop
      vertex 36.02 -25.02 2.52
      vertex -36.02 -25.02 0
      vertex 36.02 -25.02 0
    endloop
  endfacet
  facet normal -0 0 1
    outer loop
      vertex 21.9641 -8.59946 2.52
      vertex 36.02 -25.02 2.52
      vertex 36.02 25.02 2.52
    endloop
  endfacet
  facet normal 0 0 1
    outer loop
      vertex 36.02 -25.02 2.52
      vertex 21.9641 -8.59946 2.52
      vertex 22.0103 -9 2.52
    endloop
  endfacet
  facet normal 0 0 1
    outer loop
      vertex 36.02 25.02 2.52
      vertex 21.828 -8.21901 2.52
      vertex 21.9641 -8.59946 2.52
    endloop
  endfacet
  facet normal 0 0 1
    outer loop
      vertex 36.02 25.02 2.52
      vertex 21.6088 -7.87772 2.52
      vertex 21.828 -8.21901 2.52
    endloop
  endfacet
  facet normal 0 0 1
    outer loop
      vertex 36.02 25.02 2.52
      vertex 21.3174 -7.5927 2.52
      vertex 21.6088 -7.87772 2.52
    endloop
  endfacet
  facet normal 0 0 1
    outer loop
      vertex 36.02 25.02 2.52
      vertex 20.9685 -7.37826 2.52
      vertex 21.3174 -7.5927 2.52
    endloop
  endfacet
  facet normal 0 0 1
    outer loop
      vertex 36.02 25.02 2.52
      vertex 20.5795 -7.24513 2.52
      vertex 20.9685 -7.37826 2.52
    endloop
  endfacet
  facet normal 0 0 1
    outer loop
      vertex 36.02 25.02 2.52
      vertex 20.17 -7.2 2.52
      vertex 20.5795 -7.24513 2.52
    endloop
  endfacet
  facet normal 0 0 1
    outer loop
      vertex 36.02 25.02 2.52
      vertex 19.7606 -7.24513 2.52
      vertex 20.17 -7.2 2.52
    endloop
  endfacet
  facet normal 0 0 1
    outer loop
      vertex 36.02 25.02 2.52
      vertex 19.3716 -7.37826 2.52
      vertex 19.7606 -7.24513 2.52
    endloop
  endfacet
  facet normal -0 0 1
    outer loop
      vertex -17.5 15.5 2.52
      vertex 19.3716 -7.37826 2.52
      vertex 36.02 25.02 2.52
    endloop
  endfacet
  facet normal 0 0 1
    outer loop
      vertex 19.3716 -7.37826 2.52
      vertex -17.5 15.5 2.52
      vertex 19.0227 -7.5927 2.52
    endloop
  endfacet
  facet normal -0 0 1
    outer loop
      vertex -17.5 8.5 2.52
      vertex 19.0227 -7.5927 2.52
      vertex -17.5 15.5 2.52
    endloop
  endfacet
  facet normal 0 0 1
    outer loop
      vertex 18.5121 -8.21901 2.52
      vertex -17.5 8.5 2.52
      vertex 18.376 -8.59946 2.52
    endloop
  endfacet
  facet normal 0 0 1
    outer loop
      vertex 18.7313 -7.87772 2.52
      vertex -17.5 8.5 2.52
      vertex 18.5121 -8.21901 2.52
    endloop
  endfacet
  facet normal 0 0 1
    outer loop
      vertex 19.0227 -7.5927 2.52
      vertex -17.5 8.5 2.52
      vertex 18.7313 -7.87772 2.52
    endloop
  endfacet
  facet normal -0 0 1
    outer loop
      vertex -36.02 25.02 2.52
      vertex -17.5 15.5 2.52
      vertex 36.02 25.02 2.52
    endloop
  endfacet
  facet normal 0 0 1
    outer loop
      vertex -26.5 15.5 2.52
      vertex -36.02 25.02 2.52
      vertex -26.5 8.5 2.52
    endloop
  endfacet
  facet normal 0 0 1
    outer loop
      vertex -17.5 15.5 2.52
      vertex -36.02 25.02 2.52
      vertex -26.5 15.5 2.52
    endloop
  endfacet
  facet normal -0 0 1
    outer loop
      vertex 21.9641 -9.40054 2.52
      vertex 36.02 -25.02 2.52
      vertex 22.0103 -9 2.52
    endloop
  endfacet
  facet normal -0 0 1
    outer loop
      vertex 21.828 -9.78099 2.52
      vertex 36.02 -25.02 2.52
      vertex 21.9641 -9.40054 2.52
    endloop
  endfacet
  facet normal -0 0 1
    outer loop
      vertex 21.6088 -10.1223 2.52
      vertex 36.02 -25.02 2.52
      vertex 21.828 -9.78099 2.52
    endloop
  endfacet
  facet normal -0 0 1
    outer loop
      vertex 21.3174 -10.4073 2.52
      vertex 36.02 -25.02 2.52
      vertex 21.6088 -10.1223 2.52
    endloop
  endfacet
  facet normal -0 0 1
    outer loop
      vertex 20.9685 -10.6217 2.52
      vertex 36.02 -25.02 2.52
      vertex 21.3174 -10.4073 2.52
    endloop
  endfacet
  facet normal -0 0 1
    outer loop
      vertex 20.5795 -10.7549 2.52
      vertex 36.02 -25.02 2.52
      vertex 20.9685 -10.6217 2.52
    endloop
  endfacet
  facet normal -0 0 1
    outer loop
      vertex 20.17 -10.8 2.52
      vertex 36.02 -25.02 2.52
      vertex 20.5795 -10.7549 2.52
    endloop
  endfacet
  facet normal 0 0 1
    outer loop
      vertex 19.7606 -10.7549 2.52
      vertex 36.02 -25.02 2.52
      vertex 20.17 -10.8 2.52
    endloop
  endfacet
  facet normal 0 0 1
    outer loop
      vertex 19.3716 -10.6217 2.52
      vertex 36.02 -25.02 2.52
      vertex 19.7606 -10.7549 2.52
    endloop
  endfacet
  facet normal 0 0 1
    outer loop
      vertex -36.02 -25.02 2.52
      vertex 19.3716 -10.6217 2.52
      vertex 19.0227 -10.4073 2.52
    endloop
  endfacet
  facet normal 0 0 1
    outer loop
      vertex 18.376 -8.59946 2.52
      vertex -17.5 8.5 2.52
      vertex 18.3298 -9 2.52
    endloop
  endfacet
  facet normal 0 0 1
    outer loop
      vertex 18.3298 -9 2.52
      vertex -17.5 8.5 2.52
      vertex 18.376 -9.40054 2.52
    endloop
  endfacet
  facet normal 0 0 1
    outer loop
      vertex -36.02 -25.02 2.52
      vertex 18.376 -9.40054 2.52
      vertex -17.5 8.5 2.52
    endloop
  endfacet
  facet normal 0 0 1
    outer loop
      vertex 18.376 -9.40054 2.52
      vertex -36.02 -25.02 2.52
      vertex 18.5121 -9.78099 2.52
    endloop
  endfacet
  facet normal 0 0 1
    outer loop
      vertex 18.5121 -9.78099 2.52
      vertex -36.02 -25.02 2.52
      vertex 18.7313 -10.1223 2.52
    endloop
  endfacet
  facet normal 0 0 1
    outer loop
      vertex 18.7313 -10.1223 2.52
      vertex -36.02 -25.02 2.52
      vertex 19.0227 -10.4073 2.52
    endloop
  endfacet
  facet normal 0 0 1
    outer loop
      vertex -36.02 -25.02 2.52
      vertex -17.5 8.5 2.52
      vertex -26.5 8.5 2.52
    endloop
  endfacet
  facet normal 0 0 1
    outer loop
      vertex 19.3716 -10.6217 2.52
      vertex -36.02 -25.02 2.52
      vertex 36.02 -25.02 2.52
    endloop
  endfacet
  facet normal 0 0 1
    outer loop
      vertex -36.02 -25.02 2.52
      vertex -26.5 8.5 2.52
      vertex -36.02 25.02 2.52
    endloop
  endfacet
  facet normal -1 0 0
    outer loop
      vertex -36.02 -25.02 0
      vertex -36.02 25.02 2.52
      vertex -36.02 25.02 0
    endloop
  endfacet
  facet normal -1 -0 0
    outer loop
      vertex -36.02 25.02 2.52
      vertex -36.02 -25.02 0
      vertex -36.02 -25.02 2.52
    endloop
  endfacet
  facet normal 0 1 -0
    outer loop
      vertex 36.02 25.02 0
      vertex -36.02 25.02 2.52
      vertex 36.02 25.02 2.52
    endloop
  endfacet
  facet normal 0 1 0
    outer loop
      vertex -36.02 25.02 2.52
      vertex 36.02 25.02 0
      vertex -36.02 25.02 0
    endloop
  endfacet
endsolid OpenSCAD_Model
