<?xml version="1.0" encoding="UTF-8"?>
<svg xmlns="http://www.w3.org/2000/svg" viewBox="0 0 800 800" width="800" height="800">
  <title>Wine O'Clock SVG</title>
  <rect width="800" height="800" fill="none"/>
  

  <circle cx="400" cy="400" r="322" fill="none" stroke="black" stroke-width="2.5"/>
<circle cx="400" cy="400" r="305" fill="none" stroke="black" stroke-width="1"/>
  <circle cx="688.00" cy="400.00" r="1.5" fill="black"/>
<circle cx="686.19" cy="432.25" r="1.5" fill="black"/>
<circle cx="680.78" cy="464.09" r="1.5" fill="black"/>
<circle cx="671.84" cy="495.12" r="1.5" fill="black"/>
<circle cx="659.48" cy="524.96" r="1.5" fill="black"/>
<circle cx="643.86" cy="553.23" r="1.5" fill="black"/>
<circle cx="625.17" cy="579.57" r="1.5" fill="black"/>
<circle cx="603.65" cy="603.65" r="1.5" fill="black"/>
<circle cx="579.57" cy="625.17" r="1.5" fill="black"/>
<circle cx="553.23" cy="643.86" r="1.5" fill="black"/>
<circle cx="524.96" cy="659.48" r="1.5" fill="black"/>
<circle cx="495.12" cy="671.84" r="1.5" fill="black"/>
<circle cx="464.09" cy="680.78" r="1.5" fill="black"/>
<circle cx="432.25" cy="686.19" r="1.5" fill="black"/>
<circle cx="400.00" cy="688.00" r="1.5" fill="black"/>
<circle cx="367.75" cy="686.19" r="1.5" fill="black"/>
<circle cx="335.91" cy="680.78" r="1.5" fill="black"/>
<circle cx="304.88" cy="671.84" r="1.5" fill="black"/>
<circle cx="275.04" cy="659.48" r="1.5" fill="black"/>
<circle cx="246.77" cy="643.86" r="1.5" fill="black"/>
<circle cx="220.43" cy="625.17" r="1.5" fill="black"/>
<circle cx="196.35" cy="603.65" r="1.5" fill="black"/>
<circle cx="174.83" cy="579.57" r="1.5" fill="black"/>
<circle cx="156.14" cy="553.23" r="1.5" fill="black"/>
<circle cx="140.52" cy="524.96" r="1.5" fill="black"/>
<circle cx="128.16" cy="495.12" r="1.5" fill="black"/>
<circle cx="119.22" cy="464.09" r="1.5" fill="black"/>
<circle cx="113.81" cy="432.25" r="1.5" fill="black"/>
<circle cx="112.00" cy="400.00" r="1.5" fill="black"/>
<circle cx="113.81" cy="367.75" r="1.5" fill="black"/>
<circle cx="119.22" cy="335.91" r="1.5" fill="black"/>
<circle cx="128.16" cy="304.88" r="1.5" fill="black"/>
<circle cx="140.52" cy="275.04" r="1.5" fill="black"/>
<circle cx="156.14" cy="246.77" r="1.5" fill="black"/>
<circle cx="174.83" cy="220.43" r="1.5" fill="black"/>
<circle cx="196.35" cy="196.35" r="1.5" fill="black"/>
<circle cx="220.43" cy="174.83" r="1.5" fill="black"/>
<circle cx="246.77" cy="156.14" r="1.5" fill="black"/>
<circle cx="275.04" cy="140.52" r="1.5" fill="black"/>
<circle cx="304.88" cy="128.16" r="1.5" fill="black"/>
<circle cx="335.91" cy="119.22" r="1.5" fill="black"/>
<circle cx="367.75" cy="113.81" r="1.5" fill="black"/>
<circle cx="400.00" cy="112.00" r="1.5" fill="black"/>
<circle cx="432.25" cy="113.81" r="1.5" fill="black"/>
<circle cx="464.09" cy="119.22" r="1.5" fill="black"/>
<circle cx="495.12" cy="128.16" r="1.5" fill="black"/>
<circle cx="524.96" cy="140.52" r="1.5" fill="black"/>
<circle cx="553.23" cy="156.14" r="1.5" fill="black"/>
<circle cx="579.57" cy="174.83" r="1.5" fill="black"/>
<circle cx="603.65" cy="196.35" r="1.5" fill="black"/>
<circle cx="625.17" cy="220.43" r="1.5" fill="black"/>
<circle cx="643.86" cy="246.77" r="1.5" fill="black"/>
<circle cx="659.48" cy="275.04" r="1.5" fill="black"/>
<circle cx="671.84" cy="304.88" r="1.5" fill="black"/>
<circle cx="680.78" cy="335.91" r="1.5" fill="black"/>
<circle cx="686.19" cy="367.75" r="1.5" fill="black"/>
  <g><path d="M25 0Q22 0 22.0 6.0Q22 12 25 12Q52 12 65.5 17.0Q79 22 86.0 37.0Q93 52 98 81L180 544Q188 587 178.0 600.0Q168 613 130 613Q127 613 127.0 619.0Q127 625 130 625Q153 625 181.0 623.5Q209 622 240 622Q275 622 303.0 623.5Q331 625 353 625Q356 625 356.0 619.0Q356 613 353 613Q326 613 312.0 607.0Q298 601 291.5 586.0Q285 571 280 542L198 81Q190 38 199.5 25.0Q209 12 248 12Q250 12 250.0 6.0Q250 0 248 0Q226 0 198.0 1.0Q170 2 136 2Q105 2 76.5 1.0Q48 0 25 0Z" fill="black" transform="translate(298.214,244.000) scale(0.019000,-0.019000)"/><path d="M113 0Q111 0 111.0 6.0Q111 12 113 12Q149 12 168.0 17.0Q187 22 196.5 37.0Q206 52 211 81L292 544Q299 579 292.5 590.5Q286 602 261 602H249Q217 602 183.5 580.5Q150 559 123.5 524.0Q97 489 84 446Q83 443 77.5 444.0Q72 445 73 448Q77 462 83.5 487.5Q90 513 97.0 543.0Q104 573 110.5 601.0Q117 629 120 647Q122 650 127.5 649.5Q133 649 132 646Q130 631 145.0 628.0Q160 625 171 625Q208 624 257.5 623.0Q307 622 354 622Q414 622 455.0 623.5Q496 625 530 625Q558 625 573.5 629.5Q589 634 596 650Q598 653 603.0 652.5Q608 652 607 648Q603 632 596.0 604.0Q589 576 582.5 545.0Q576 514 571.0 487.5Q566 461 564 448Q563 444 557.0 444.5Q551 445 552 449Q560 491 548.5 525.5Q537 560 512.0 581.0Q487 602 451 602H440Q413 602 405.0 589.5Q397 577 391 542L310 81Q305 52 308.0 37.0Q311 22 329.0 17.0Q347 12 384 12Q386 12 386.0 6.0Q386 0 384 0Q356 0 322.5 1.0Q289 2 248 2Q211 2 176.0 1.0Q141 0 113 0Z" fill="black" transform="translate(309.598,244.000) scale(0.019000,-0.019000)"/><path d="M73 295 94 609Q94 617 112.0 623.5Q130 630 153.0 634.5Q176 639 193.0 640.0Q210 641 208 637L90 296Q89 293 81.0 292.5Q73 292 73 295Z" fill="black" transform="translate(325.105,244.000) scale(0.019000,-0.019000)"/><path d="M192 -12Q155 -12 117.5 -4.5Q80 3 39 22Q35 25 33.0 29.5Q31 34 33 41L65 182Q65 187 70.5 187.0Q76 187 77 182Q90 124 110.0 86.5Q130 49 157.5 30.5Q185 12 219 12Q248 12 270.5 24.5Q293 37 308.0 60.0Q323 83 327 115Q334 157 319.5 189.0Q305 221 278.5 247.0Q252 273 222 296Q191 320 162.5 345.5Q134 371 119.5 404.0Q105 437 113 481Q124 534 158.0 568.0Q192 602 239.0 619.0Q286 636 336 636Q363 636 393.0 630.5Q423 625 454 612Q468 605 465 595L450 465Q449 462 444.5 462.0Q440 462 439 465Q429 512 409.5 545.5Q390 579 364.5 597.0Q339 615 309 615Q279 615 259.0 601.0Q239 587 228.0 566.5Q217 546 213 526Q206 487 220.0 458.5Q234 430 260.0 407.0Q286 384 315 360Q348 335 378.0 306.5Q408 278 425.0 242.5Q442 207 434 160Q425 112 394.5 73.0Q364 34 313.5 11.0Q263 -12 192 -12Z" fill="black" transform="translate(332.746,244.000) scale(0.019000,-0.019000)"/><path d="M281 -12Q197 -12 142.0 31.5Q87 75 65.5 149.0Q44 223 60 313Q72 383 104.0 442.0Q136 501 183.5 544.5Q231 588 289.0 612.0Q347 636 411 636Q497 636 553.0 593.0Q609 550 631.5 477.0Q654 404 637 313Q624 237 589.0 177.0Q554 117 505.0 75.0Q456 33 398.5 10.5Q341 -12 281 -12ZM324 14Q395 14 449.5 80.5Q504 147 523 260Q535 329 530.5 392.0Q526 455 506.5 504.5Q487 554 453.0 583.0Q419 612 372 612Q301 612 247.0 546.0Q193 480 173 366Q162 299 166.0 236.0Q170 173 189.0 123.0Q208 73 242.0 43.5Q276 14 324 14Z" fill="black" transform="translate(356.122,244.000) scale(0.019000,-0.019000)"/><path d="M15 0Q13 0 13.0 6.0Q13 12 15 12Q42 12 56.5 17.0Q71 22 78.0 37.0Q85 52 90 81L172 544Q180 587 170.5 600.0Q161 613 123 613Q120 613 120.0 619.0Q120 625 123 625H516Q524 625 522 616Q519 597 515.0 571.0Q511 545 507.0 521.0Q503 497 501 482Q500 478 494.5 479.5Q489 481 489 483Q485 539 450.0 571.5Q415 604 359 604H342Q314 604 300.0 599.5Q286 595 280.5 582.0Q275 569 270 543L189 85Q184 55 189.0 39.5Q194 24 214.0 18.0Q234 12 273 12Q275 12 275.0 6.0Q275 0 273 0Q254 0 218.0 1.0Q182 2 124 2Q93 2 65.0 1.0Q37 0 15 0ZM407 211Q406 207 400.0 207.5Q394 208 395 212Q403 255 381.5 277.0Q360 299 317 299H184L187 327H324Q369 327 394.0 345.0Q419 363 428 404Q429 408 435.0 407.5Q441 407 440 402Q435 370 431.0 351.5Q427 333 423 313Q419 288 415.5 264.0Q412 240 407 211Z" fill="black" transform="translate(373.567,244.000) scale(0.019000,-0.019000)"/><path d="M15 0Q13 0 13.0 6.0Q13 12 15 12Q42 12 56.5 17.0Q71 22 78.0 37.0Q85 52 90 81L172 544Q180 587 170.5 600.0Q161 613 123 613Q120 613 120.0 619.0Q120 625 123 625H516Q524 625 522 616Q519 597 515.0 571.0Q511 545 507.0 521.0Q503 497 501 482Q500 478 494.5 479.5Q489 481 489 483Q485 539 450.0 571.5Q415 604 359 604H342Q314 604 300.0 599.5Q286 595 280.5 582.0Q275 569 270 543L189 85Q184 55 189.0 39.5Q194 24 214.0 18.0Q234 12 273 12Q275 12 275.0 6.0Q275 0 273 0Q254 0 218.0 1.0Q182 2 124 2Q93 2 65.0 1.0Q37 0 15 0ZM407 211Q406 207 400.0 207.5Q394 208 395 212Q403 255 381.5 277.0Q360 299 317 299H184L187 327H324Q369 327 394.0 345.0Q419 363 428 404Q429 408 435.0 407.5Q441 407 440 402Q435 370 431.0 351.5Q427 333 423 313Q419 288 415.5 264.0Q412 240 407 211Z" fill="black" transform="translate(387.782,244.000) scale(0.019000,-0.019000)"/><path d="M25 0Q22 0 22.0 6.0Q22 12 25 12Q52 12 65.5 17.0Q79 22 86.0 37.0Q93 52 98 81L180 544Q188 587 178.0 600.0Q168 613 130 613Q127 613 127.0 619.0Q127 625 130 625Q153 625 181.0 623.5Q209 622 240 622Q275 622 303.0 623.5Q331 625 353 625Q356 625 356.0 619.0Q356 613 353 613Q326 613 312.0 607.0Q298 601 291.5 586.0Q285 571 280 542L198 81Q190 38 199.5 25.0Q209 12 248 12Q250 12 250.0 6.0Q250 0 248 0Q226 0 198.0 1.0Q170 2 136 2Q105 2 76.5 1.0Q48 0 25 0Z" fill="black" transform="translate(401.997,244.000) scale(0.019000,-0.019000)"/><path d="M320 -12Q231 -12 175.0 17.5Q119 47 91.0 95.0Q63 143 56.5 200.0Q50 257 60 313Q74 390 110.5 450.0Q147 510 199.0 551.5Q251 593 312.0 614.5Q373 636 436 636Q477 636 519.5 627.5Q562 619 585 607Q592 603 593.0 599.0Q594 595 593 584L577 450Q577 447 572.0 447.0Q567 447 566 450Q549 524 504.5 566.5Q460 609 395 609Q338 609 291.5 577.5Q245 546 214.5 487.5Q184 429 172 346Q162 278 168.0 217.0Q174 156 194.0 109.0Q214 62 247.5 35.0Q281 8 326 8Q376 8 428.0 45.0Q480 82 538 160Q541 164 545.5 161.5Q550 159 549 157L522 42Q519 30 516.0 25.5Q513 21 504 19Q454 2 406.5 -5.0Q359 -12 320 -12Z" fill="black" transform="translate(413.381,244.000) scale(0.019000,-0.019000)"/><path d="M25 0Q22 0 22.0 6.0Q22 12 25 12Q52 12 65.5 17.0Q79 22 86.0 37.0Q93 52 98 81L180 544Q188 587 178.0 600.0Q168 613 130 613Q127 613 127.0 619.0Q127 625 130 625Q153 625 181.0 623.5Q209 622 240 622Q275 622 303.0 623.5Q331 625 353 625Q356 625 356.0 619.0Q356 613 353 613Q326 613 312.0 607.0Q298 601 291.5 586.0Q285 571 280 542L198 81Q190 38 199.5 25.0Q209 12 248 12Q250 12 250.0 6.0Q250 0 248 0Q226 0 198.0 1.0Q170 2 136 2Q105 2 76.5 1.0Q48 0 25 0Z" fill="black" transform="translate(429.553,244.000) scale(0.019000,-0.019000)"/><path d="M-34 0Q-38 0 -38.0 6.0Q-38 12 -34 12Q-8 12 30.0 42.0Q68 72 103 136L382 634Q384 638 391.5 637.0Q399 636 400 633L509 84Q514 57 519.0 41.0Q524 25 536.0 18.5Q548 12 573 12Q577 12 577.0 6.0Q577 0 573 0Q547 0 520.5 2.0Q494 4 462 4Q431 4 406.5 2.0Q382 0 356 0Q352 0 352.0 6.0Q352 12 356 12Q394 12 405.5 27.0Q417 42 408 84L323 505L379 582L130 129Q107 88 104.5 62.0Q102 36 121.0 24.0Q140 12 181 12Q185 12 185.0 6.0Q185 0 180 0Q157 0 123.5 2.0Q90 4 58 4Q29 4 10.5 2.0Q-8 0 -34 0ZM171 229 186 257H405L407 229Z" fill="black" transform="translate(440.937,244.000) scale(0.019000,-0.019000)"/><path d="M14 0Q12 0 12.0 6.0Q12 12 14 12Q41 12 55.0 17.0Q69 22 76.0 37.0Q83 52 88 81L170 544Q178 587 168.0 600.0Q158 613 120 613Q118 613 118.0 619.0Q118 625 120 625Q143 625 170.5 623.5Q198 622 229 622Q261 622 290.5 623.5Q320 625 342 625Q344 625 344.0 619.0Q344 613 342 613Q315 613 301.0 607.5Q287 602 280.0 587.0Q273 572 268 543L187 85Q180 45 187.5 33.0Q195 21 223 21H249Q323 21 379.0 57.5Q435 94 480 171Q482 173 487.0 172.0Q492 171 491 168Q483 137 472.5 94.0Q462 51 456 15Q453 0 440 0Z" fill="black" transform="translate(457.432,244.000) scale(0.019000,-0.019000)"/><path d="M14 0Q12 0 12.0 6.0Q12 12 14 12Q41 12 55.0 17.0Q69 22 76.0 37.0Q83 52 88 81L170 544Q178 587 168.0 600.0Q158 613 120 613Q118 613 118.0 619.0Q118 625 120 625Q143 625 170.5 623.5Q198 622 229 622Q261 622 290.5 623.5Q320 625 342 625Q344 625 344.0 619.0Q344 613 342 613Q315 613 301.0 607.5Q287 602 280.0 587.0Q273 572 268 543L187 85Q180 45 187.5 33.0Q195 21 223 21H249Q323 21 379.0 57.5Q435 94 480 171Q482 173 487.0 172.0Q492 171 491 168Q483 137 472.5 94.0Q462 51 456 15Q453 0 440 0Z" fill="black" transform="translate(472.027,244.000) scale(0.019000,-0.019000)"/><path d="M311 265 294 282 450 526Q473 561 464.5 587.0Q456 613 420 613Q416 613 416.0 619.0Q416 625 420 625Q443 625 474.5 623.5Q506 622 538 622Q559 622 572.5 623.5Q586 625 605 625Q608 625 608.0 619.0Q608 613 605 613Q574 613 540.5 586.5Q507 560 469 504ZM117 0Q113 0 113.0 6.0Q113 12 117 12Q149 12 166.0 17.0Q183 22 191.0 37.0Q199 52 204 81L243 310L344 319L302 81Q294 38 304.5 25.0Q315 12 363 12Q366 12 366.0 6.0Q366 0 363 0Q338 0 307.5 1.0Q277 2 241 2Q204 2 173.0 1.0Q142 0 117 0ZM254 271 139 542Q123 579 106.5 596.0Q90 613 70 613Q66 613 66.0 619.0Q66 625 70 625Q92 625 118.0 623.5Q144 622 167 622Q196 622 229.5 623.5Q263 625 282 625Q286 625 286.0 619.0Q286 613 282 613Q248 613 238.0 604.5Q228 596 237 573L344 317Z" fill="black" transform="translate(486.622,244.000) scale(0.019000,-0.019000)"/></g>
  <line x1="305.0" y1="262" x2="390" y2="262" stroke="black" stroke-width="1"/><polygon points="400,256 406,262 400,268 394,262" fill="black"/><line x1="410" y1="262" x2="495.0" y2="262" stroke="black" stroke-width="1"/>
  <g><path d="M15 700H121L170 162H172L224 700H344L396 162H398L447 700H542L471 0H334L284 472H282L232 0H86Z" fill="black" transform="translate(332.440,348.000) scale(0.080000,-0.080000)"/><path d="M41 700H151V0H41Z" fill="black" transform="translate(380.000,348.000) scale(0.080000,-0.080000)"/><path d="M41 700H179L286 281H288V700H386V0H273L141 511H139V0H41Z" fill="black" transform="translate(398.360,348.000) scale(0.080000,-0.080000)"/><path d="M41 700H341V600H151V415H302V315H151V100H341V0H41Z" fill="black" transform="translate(435.520,348.000) scale(0.080000,-0.080000)"/></g>
  <g><path d="M119 0Q78 0 58.5 29.5Q39 59 39 101Q39 140 54 182Q70 228 98.5 266.0Q127 304 161.5 327.5Q196 351 230 351Q271 351 290.5 323.0Q310 295 310 252Q310 222 300.0 189.0Q290 156 273 124Q286 111 310 111Q338 111 358.0 129.0Q378 147 397 193Q409 193 409 184Q390 138 365.5 116.5Q341 95 303 96Q280 96 265 109Q237 63 198.5 31.5Q160 0 119 0ZM133 22Q156 22 179.0 41.5Q202 61 221.0 86.0Q240 111 248 129Q232 158 229.5 172.5Q227 187 227 194Q227 213 237.0 223.0Q247 233 257 233Q271 233 281 221Q283 232 284.0 241.5Q285 251 285 260Q285 286 275.5 302.5Q266 319 246 319Q225 319 202.0 301.0Q179 283 158.5 253.0Q138 223 123 186Q110 155 103.0 127.5Q96 100 96 77Q96 52 105.0 37.0Q114 22 133 22Z" fill="black" transform="translate(332.284,410.000) scale(0.072000,-0.072000)"/><path d="M105 465 141 627Q143 639 155.0 646.5Q167 654 178 650Q201 645 194 619Q190 605 179.5 582.5Q169 560 156.0 536.0Q143 512 131.5 492.0Q120 472 115 462Z" fill="black" transform="translate(356.620,410.000) scale(0.072000,-0.072000)"/><path d="M145 -4Q90 -4 63.5 25.0Q37 54 37 103Q37 126 46.0 156.0Q55 186 70.0 217.0Q85 248 103 272Q132 311 167.0 332.5Q202 354 238 354Q276 354 292.5 337.5Q309 321 309 299Q309 278 299.0 261.5Q289 245 276.5 235.0Q264 225 255 225Q247 225 241 231Q249 241 258.0 255.0Q267 269 271 282Q275 294 275 306Q275 332 251 332Q222 332 194.5 308.0Q167 284 144.5 246.5Q122 209 108.5 167.5Q95 126 95 91Q95 59 108.5 38.0Q122 17 153 17Q194 17 225.0 43.5Q256 70 280.0 110.5Q304 151 322 193Q326 193 330.0 191.5Q334 190 334 184Q314 134 287.0 91.0Q260 48 225.5 22.0Q191 -4 145 -4Z" fill="black" transform="translate(364.252,410.000) scale(0.072000,-0.072000)"/><path d="M106 -3Q69 -3 51.5 19.5Q34 42 34 73Q34 105 43.0 139.0Q52 173 59 196Q75 252 99.5 315.5Q124 379 153.5 440.5Q183 502 212 551Q235 590 261.5 609.5Q288 629 308 629Q324 629 333.5 617.5Q343 606 343 583Q343 567 337.5 545.0Q332 523 319 495Q284 417 235.5 339.0Q187 261 113 193Q101 165 93.0 133.0Q85 101 85 81Q85 19 127 19Q159 19 198.0 65.5Q237 112 272 193Q276 193 280.0 191.5Q284 190 284 184Q273 157 256.5 124.5Q240 92 218.5 63.0Q197 34 169.0 15.5Q141 -3 106 -3ZM121 225Q157 262 191.0 310.5Q225 359 254.5 411.5Q284 464 304 511Q311 526 315.5 544.0Q320 562 320 574Q320 588 313 588Q309 588 301.0 580.5Q293 573 280 555Q261 530 238.5 487.0Q216 444 193.0 395.0Q170 346 151.0 300.5Q132 255 121 225Z" fill="black" transform="translate(383.188,410.000) scale(0.072000,-0.072000)"/><path d="M119 0Q78 0 58.5 29.5Q39 59 39 101Q39 140 54 182Q70 228 98.5 266.0Q127 304 161.5 327.5Q196 351 230 351Q271 351 290.5 323.0Q310 295 310 252Q310 222 300.0 189.0Q290 156 273 124Q286 111 310 111Q338 111 358.0 129.0Q378 147 397 193Q409 193 409 184Q390 138 365.5 116.5Q341 95 303 96Q280 96 265 109Q237 63 198.5 31.5Q160 0 119 0ZM133 22Q156 22 179.0 41.5Q202 61 221.0 86.0Q240 111 248 129Q232 158 229.5 172.5Q227 187 227 194Q227 213 237.0 223.0Q247 233 257 233Q271 233 281 221Q283 232 284.0 241.5Q285 251 285 260Q285 286 275.5 302.5Q266 319 246 319Q225 319 202.0 301.0Q179 283 158.5 253.0Q138 223 123 186Q110 155 103.0 127.5Q96 100 96 77Q96 52 105.0 37.0Q114 22 133 22Z" fill="black" transform="translate(398.524,410.000) scale(0.072000,-0.072000)"/><path d="M145 -4Q90 -4 63.5 25.0Q37 54 37 103Q37 126 46.0 156.0Q55 186 70.0 217.0Q85 248 103 272Q132 311 167.0 332.5Q202 354 238 354Q276 354 292.5 337.5Q309 321 309 299Q309 278 299.0 261.5Q289 245 276.5 235.0Q264 225 255 225Q247 225 241 231Q249 241 258.0 255.0Q267 269 271 282Q275 294 275 306Q275 332 251 332Q222 332 194.5 308.0Q167 284 144.5 246.5Q122 209 108.5 167.5Q95 126 95 91Q95 59 108.5 38.0Q122 17 153 17Q194 17 225.0 43.5Q256 70 280.0 110.5Q304 151 322 193Q326 193 330.0 191.5Q334 190 334 184Q314 134 287.0 91.0Q260 48 225.5 22.0Q191 -4 145 -4Z" fill="black" transform="translate(422.860,410.000) scale(0.072000,-0.072000)"/><path d="M233 -7Q205 -4 187.0 14.5Q169 33 161.0 58.0Q153 83 153 104Q153 144 171.0 168.5Q189 193 204 194Q220 193 243.0 201.5Q266 210 283 225Q312 248 312 272Q312 297 283 297Q267 297 242.5 286.0Q218 275 186 248Q146 214 103 157Q97 144 89.0 118.5Q81 93 75.5 66.0Q70 39 70 20Q70 5 75 0H12Q1 0 1 9Q1 12 2.0 14.0Q3 16 4 22Q18 74 37.5 114.0Q57 154 70 184Q61 181 60.0 185.5Q59 190 59 193Q66 209 82.5 244.5Q99 280 121.5 326.5Q144 373 170.0 424.0Q196 475 222 522Q248 570 264.5 590.0Q281 610 305 610Q314 610 326.5 607.0Q339 604 349 606Q327 587 294.0 536.5Q261 486 224.0 419.0Q187 352 153 282Q143 262 134.0 240.0Q125 218 117 196Q138 222 165.0 250.0Q192 278 221.5 301.5Q251 325 280 336Q313 348 335 348Q358 348 368.5 337.0Q379 326 379 309Q379 290 364.0 263.5Q349 237 323 218Q301 203 277.0 192.0Q253 181 220 178Q214 164 211.5 149.5Q209 135 209 121Q209 82 227.0 52.5Q245 23 274 23Q288 23 304.5 31.0Q321 39 339 58Q359 78 379.0 113.5Q399 149 419 193Q431 193 431 184Q395 97 361.0 55.0Q327 13 295.5 1.5Q264 -10 233 -7Z" fill="black" transform="translate(441.796,410.000) scale(0.072000,-0.072000)"/></g>
  <line x1="305.0" y1="430" x2="390" y2="430" stroke="black" stroke-width="1"/><polygon points="400,424 406,430 400,436 394,430" fill="black"/><line x1="410" y1="430" x2="495.0" y2="430" stroke="black" stroke-width="1"/>
  <g><path d="M192 -12Q155 -12 117.5 -4.5Q80 3 39 22Q35 25 33.0 29.5Q31 34 33 41L65 182Q65 187 70.5 187.0Q76 187 77 182Q90 124 110.0 86.5Q130 49 157.5 30.5Q185 12 219 12Q248 12 270.5 24.5Q293 37 308.0 60.0Q323 83 327 115Q334 157 319.5 189.0Q305 221 278.5 247.0Q252 273 222 296Q191 320 162.5 345.5Q134 371 119.5 404.0Q105 437 113 481Q124 534 158.0 568.0Q192 602 239.0 619.0Q286 636 336 636Q363 636 393.0 630.5Q423 625 454 612Q468 605 465 595L450 465Q449 462 444.5 462.0Q440 462 439 465Q429 512 409.5 545.5Q390 579 364.5 597.0Q339 615 309 615Q279 615 259.0 601.0Q239 587 228.0 566.5Q217 546 213 526Q206 487 220.0 458.5Q234 430 260.0 407.0Q286 384 315 360Q348 335 378.0 306.5Q408 278 425.0 242.5Q442 207 434 160Q425 112 394.5 73.0Q364 34 313.5 11.0Q263 -12 192 -12Z" fill="black" transform="translate(229.010,480.000) scale(0.020000,-0.020000)"/><path d="M281 -12Q197 -12 142.0 31.5Q87 75 65.5 149.0Q44 223 60 313Q72 383 104.0 442.0Q136 501 183.5 544.5Q231 588 289.0 612.0Q347 636 411 636Q497 636 553.0 593.0Q609 550 631.5 477.0Q654 404 637 313Q624 237 589.0 177.0Q554 117 505.0 75.0Q456 33 398.5 10.5Q341 -12 281 -12ZM324 14Q395 14 449.5 80.5Q504 147 523 260Q535 329 530.5 392.0Q526 455 506.5 504.5Q487 554 453.0 583.0Q419 612 372 612Q301 612 247.0 546.0Q193 480 173 366Q162 299 166.0 236.0Q170 173 189.0 123.0Q208 73 242.0 43.5Q276 14 324 14Z" fill="black" transform="translate(242.410,480.000) scale(0.020000,-0.020000)"/><path d="M461 0Q458 0 458.0 6.0Q458 12 461 12Q489 12 503.0 17.0Q517 22 524.0 37.0Q531 52 535 81L609 580L633 613L335 7Q333 3 327.5 3.5Q322 4 320 8L208 542Q201 574 186.0 589.0Q171 604 154.0 608.5Q137 613 122 613Q119 613 119.0 619.0Q119 625 122 625Q134 625 150.0 624.0Q166 623 186 623Q214 623 236.5 624.0Q259 625 270 625Q281 625 287.5 615.0Q294 605 301 573L394 132L329 39L602 600Q614 625 639 625Q648 625 668.0 624.0Q688 623 704 623Q726 623 740.5 624.0Q755 625 770 625Q772 625 772.0 619.0Q772 613 770 613Q740 613 724.0 600.5Q708 588 702 546L633 81Q627 38 636.5 25.0Q646 12 683 12Q686 12 686.0 6.0Q686 0 683 0Q661 0 632.5 1.0Q604 2 572 2Q540 2 512.0 1.0Q484 0 461 0ZM13 0Q10 0 10.0 6.0Q10 12 13 12Q47 12 73.0 43.0Q99 74 109 127L198 602L222 600L137 130Q127 75 141.0 43.5Q155 12 189 12Q192 12 192.0 6.0Q192 0 189 0Q171 0 148.5 1.0Q126 2 99 2Q76 2 54.5 1.0Q33 0 13 0Z" fill="black" transform="translate(259.510,480.000) scale(0.020000,-0.020000)"/><path d="M20 0Q17 0 17.0 6.0Q17 12 20 12Q47 12 61.0 17.0Q75 22 82.0 37.0Q89 52 94 81L175 544Q183 587 173.5 600.0Q164 613 126 613Q124 613 124.0 619.0Q124 625 126 625H519Q527 625 525 616Q522 597 518.0 571.0Q514 545 510.5 521.0Q507 497 504 482Q503 478 497.5 479.5Q492 481 492 483Q488 539 453.0 571.5Q418 604 363 604H345Q317 604 303.5 599.5Q290 595 284.5 582.0Q279 569 274 543L193 85Q186 45 195.0 33.0Q204 21 241 21H267Q326 21 381.5 58.5Q437 96 474 159Q476 162 481.5 160.5Q487 159 485 157Q476 128 467.0 88.5Q458 49 451 15Q448 0 435 0ZM434 222Q433 218 427.0 218.5Q421 219 422 223Q430 267 408.5 289.0Q387 311 344 311H187L191 339H351Q396 339 421.0 356.5Q446 374 455 415Q456 420 462.0 419.5Q468 419 467 414Q462 382 458.0 363.5Q454 345 450 325Q446 300 442.5 275.5Q439 251 434 222Z" fill="black" transform="translate(278.350,480.000) scale(0.020000,-0.020000)"/><path d="M495 1 364 542Q354 581 344.5 597.0Q335 613 315 613Q312 613 312.0 619.0Q312 625 315 625Q334 625 356.5 623.5Q379 622 398 622Q424 622 442.0 623.5Q460 625 475 625Q479 625 479.0 619.0Q479 613 475 613Q459 613 456.0 603.0Q453 593 463 552L568 113L502 15L753 509Q775 552 767.0 582.5Q759 613 722 613Q719 613 719.0 619.0Q719 625 722 625Q745 625 766.0 623.5Q787 622 821 622Q848 622 866.0 623.5Q884 625 909 625Q912 625 912.0 619.0Q912 613 909 613Q890 613 870.5 606.0Q851 599 830.5 576.5Q810 554 785 506L522 1Q519 -4 507.5 -3.5Q496 -3 495 1ZM261 1 130 542Q120 581 107.5 597.0Q95 613 69 613Q66 613 66.0 619.0Q66 625 69 625Q91 625 116.5 623.5Q142 622 164 622Q198 622 221.5 623.5Q245 625 264 625Q268 625 268.0 619.0Q268 613 264 613Q247 613 234.0 600.0Q221 587 229 552L335 113L268 15L447 366L463 339L288 1Q285 -4 273.5 -3.5Q262 -3 261 1ZM481 339 464 366 537 509Q564 562 563.0 587.5Q562 613 532 613Q530 613 530.0 619.0Q530 625 532 625Q549 625 564.5 623.5Q580 622 605 622Q628 622 642.0 623.5Q656 625 677 625Q681 625 681.0 619.0Q681 613 677 613Q660 613 644.5 606.0Q629 599 611.0 576.0Q593 553 568 506Z" fill="black" transform="translate(292.970,480.000) scale(0.020000,-0.020000)"/><path d="M13 0Q10 0 10.0 6.0Q10 12 13 12Q40 12 54.0 17.0Q68 22 75.5 37.0Q83 52 88 81L170 544Q178 586 168.0 599.5Q158 613 120 613Q118 613 118.0 619.0Q118 625 120 625Q143 625 170.5 623.5Q198 622 229 622Q261 622 290.5 623.5Q320 625 342 625Q344 625 344.0 619.0Q344 613 342 613Q315 613 301.0 607.0Q287 601 280.0 585.5Q273 570 268 542L186 81Q178 38 187.5 25.0Q197 12 235 12Q238 12 238.0 6.0Q238 0 235 0Q213 0 184.0 1.0Q155 2 122 2Q91 2 63.0 1.0Q35 0 13 0ZM164 311 167 339H550L547 311ZM374 0Q372 0 372.0 6.0Q372 12 374 12Q402 12 415.5 17.0Q429 22 436.0 37.0Q443 52 448 81L529 542Q536 584 527.5 598.5Q519 613 481 613Q478 613 478.0 619.0Q478 625 481 625Q503 625 531.5 623.5Q560 622 591 622Q622 622 651.0 623.5Q680 625 702 625Q704 625 704.0 619.0Q704 613 702 613Q676 613 662.0 607.5Q648 602 641.0 587.0Q634 572 628 544L546 81Q539 38 549.0 25.0Q559 12 596 12Q599 12 599.0 6.0Q599 0 596 0Q577 0 548.0 1.0Q519 2 487 2Q455 2 426.0 1.0Q397 0 374 0Z" fill="black" transform="translate(313.630,480.000) scale(0.020000,-0.020000)"/><path d="M20 0Q17 0 17.0 6.0Q17 12 20 12Q47 12 61.0 17.0Q75 22 82.0 37.0Q89 52 94 81L175 544Q183 587 173.5 600.0Q164 613 126 613Q124 613 124.0 619.0Q124 625 126 625H519Q527 625 525 616Q522 597 518.0 571.0Q514 545 510.5 521.0Q507 497 504 482Q503 478 497.5 479.5Q492 481 492 483Q488 539 453.0 571.5Q418 604 363 604H345Q317 604 303.5 599.5Q290 595 284.5 582.0Q279 569 274 543L193 85Q186 45 195.0 33.0Q204 21 241 21H267Q326 21 381.5 58.5Q437 96 474 159Q476 162 481.5 160.5Q487 159 485 157Q476 128 467.0 88.5Q458 49 451 15Q448 0 435 0ZM434 222Q433 218 427.0 218.5Q421 219 422 223Q430 267 408.5 289.0Q387 311 344 311H187L191 339H351Q396 339 421.0 356.5Q446 374 455 415Q456 420 462.0 419.5Q468 419 467 414Q462 382 458.0 363.5Q454 345 450 325Q446 300 442.5 275.5Q439 251 434 222Z" fill="black" transform="translate(331.130,480.000) scale(0.020000,-0.020000)"/><path d="M19 0Q15 0 15.0 6.0Q15 12 19 12Q48 12 64.0 17.5Q80 23 88.0 38.0Q96 53 101 81L182 544Q188 573 186.0 587.5Q184 602 171.0 607.5Q158 613 130 613Q126 613 126.0 619.0Q126 625 130 625Q153 625 182.5 623.5Q212 622 244 622Q267 622 299.0 625.0Q331 628 351 628Q452 628 493.0 593.0Q534 558 522 491Q512 433 471.5 391.0Q431 349 372.5 326.5Q314 304 250 304Q246 304 237.5 304.5Q229 305 227 306L233 337Q239 334 251.0 332.5Q263 331 270 331Q335 331 370.0 363.0Q405 395 416 469Q425 520 416.5 550.5Q408 581 388.0 594.0Q368 607 342 607Q320 607 309.0 604.0Q298 601 292.5 587.5Q287 574 281 542L199 81Q194 53 196.0 38.0Q198 23 210.5 17.5Q223 12 250 12Q254 12 254.0 6.0Q254 0 251 0Q227 0 198.5 1.0Q170 2 136 2Q103 2 72.5 1.0Q42 0 19 0ZM460 0Q447 0 424.0 32.0Q401 64 370.5 135.0Q340 206 305 322L386 349Q435 223 472.5 149.5Q510 76 543.5 44.0Q577 12 611 12Q614 12 614.0 6.0Q614 0 611 0Q550 0 514.0 0.0Q478 0 460 0Z" fill="black" transform="translate(345.750,480.000) scale(0.020000,-0.020000)"/><path d="M20 0Q17 0 17.0 6.0Q17 12 20 12Q47 12 61.0 17.0Q75 22 82.0 37.0Q89 52 94 81L175 544Q183 587 173.5 600.0Q164 613 126 613Q124 613 124.0 619.0Q124 625 126 625H519Q527 625 525 616Q522 597 518.0 571.0Q514 545 510.5 521.0Q507 497 504 482Q503 478 497.5 479.5Q492 481 492 483Q488 539 453.0 571.5Q418 604 363 604H345Q317 604 303.5 599.5Q290 595 284.5 582.0Q279 569 274 543L193 85Q186 45 195.0 33.0Q204 21 241 21H267Q326 21 381.5 58.5Q437 96 474 159Q476 162 481.5 160.5Q487 159 485 157Q476 128 467.0 88.5Q458 49 451 15Q448 0 435 0ZM434 222Q433 218 427.0 218.5Q421 219 422 223Q430 267 408.5 289.0Q387 311 344 311H187L191 339H351Q396 339 421.0 356.5Q446 374 455 415Q456 420 462.0 419.5Q468 419 467 414Q462 382 458.0 363.5Q454 345 450 325Q446 300 442.5 275.5Q439 251 434 222Z" fill="black" transform="translate(362.450,480.000) scale(0.020000,-0.020000)"/><path d="M25 0Q22 0 22.0 6.0Q22 12 25 12Q52 12 65.5 17.0Q79 22 86.0 37.0Q93 52 98 81L180 544Q188 587 178.0 600.0Q168 613 130 613Q127 613 127.0 619.0Q127 625 130 625Q153 625 181.0 623.5Q209 622 240 622Q275 622 303.0 623.5Q331 625 353 625Q356 625 356.0 619.0Q356 613 353 613Q326 613 312.0 607.0Q298 601 291.5 586.0Q285 571 280 542L198 81Q190 38 199.5 25.0Q209 12 248 12Q250 12 250.0 6.0Q250 0 248 0Q226 0 198.0 1.0Q170 2 136 2Q105 2 76.5 1.0Q48 0 25 0Z" fill="black" transform="translate(385.750,480.000) scale(0.020000,-0.020000)"/><path d="M487 -9 185 543Q162 584 142.5 598.5Q123 613 102 613Q99 613 99.0 619.0Q99 625 102 625Q122 625 147.0 624.0Q172 623 189 623Q206 623 227.5 624.0Q249 625 254 625Q265 625 268.0 613.5Q271 602 287 573L523 143L516 -7Q516 -12 503.0 -14.0Q490 -16 487 -9ZM-2 0Q-5 0 -5.0 6.0Q-5 12 -2 12Q36 12 63.5 39.5Q91 67 99 116L187 602L214 600L127 116Q119 67 137.0 39.5Q155 12 193 12Q195 12 195.0 6.0Q195 0 193 0Q172 0 149.0 1.0Q126 2 96 2Q70 2 45.0 1.0Q20 0 -2 0ZM516 -7 497 54 580 509Q589 557 571.5 585.0Q554 613 515 613Q512 613 512.0 619.0Q512 625 515 625Q533 625 557.5 623.5Q582 622 612 622Q638 622 663.0 623.5Q688 625 710 625Q712 625 712.0 619.0Q712 613 710 613Q673 613 645.0 585.0Q617 557 608 509Z" fill="black" transform="translate(396.470,480.000) scale(0.020000,-0.020000)"/><path d="M461 0Q458 0 458.0 6.0Q458 12 461 12Q489 12 503.0 17.0Q517 22 524.0 37.0Q531 52 535 81L609 580L633 613L335 7Q333 3 327.5 3.5Q322 4 320 8L208 542Q201 574 186.0 589.0Q171 604 154.0 608.5Q137 613 122 613Q119 613 119.0 619.0Q119 625 122 625Q134 625 150.0 624.0Q166 623 186 623Q214 623 236.5 624.0Q259 625 270 625Q281 625 287.5 615.0Q294 605 301 573L394 132L329 39L602 600Q614 625 639 625Q648 625 668.0 624.0Q688 623 704 623Q726 623 740.5 624.0Q755 625 770 625Q772 625 772.0 619.0Q772 613 770 613Q740 613 724.0 600.5Q708 588 702 546L633 81Q627 38 636.5 25.0Q646 12 683 12Q686 12 686.0 6.0Q686 0 683 0Q661 0 632.5 1.0Q604 2 572 2Q540 2 512.0 1.0Q484 0 461 0ZM13 0Q10 0 10.0 6.0Q10 12 13 12Q47 12 73.0 43.0Q99 74 109 127L198 602L222 600L137 130Q127 75 141.0 43.5Q155 12 189 12Q192 12 192.0 6.0Q192 0 189 0Q171 0 148.5 1.0Q126 2 99 2Q76 2 54.5 1.0Q33 0 13 0Z" fill="black" transform="translate(422.250,480.000) scale(0.020000,-0.020000)"/><path d="M281 -12Q197 -12 142.0 31.5Q87 75 65.5 149.0Q44 223 60 313Q72 383 104.0 442.0Q136 501 183.5 544.5Q231 588 289.0 612.0Q347 636 411 636Q497 636 553.0 593.0Q609 550 631.5 477.0Q654 404 637 313Q624 237 589.0 177.0Q554 117 505.0 75.0Q456 33 398.5 10.5Q341 -12 281 -12ZM324 14Q395 14 449.5 80.5Q504 147 523 260Q535 329 530.5 392.0Q526 455 506.5 504.5Q487 554 453.0 583.0Q419 612 372 612Q301 612 247.0 546.0Q193 480 173 366Q162 299 166.0 236.0Q170 173 189.0 123.0Q208 73 242.0 43.5Q276 14 324 14Z" fill="black" transform="translate(441.090,480.000) scale(0.020000,-0.020000)"/><path d="M461 0Q458 0 458.0 6.0Q458 12 461 12Q489 12 503.0 17.0Q517 22 524.0 37.0Q531 52 535 81L609 580L633 613L335 7Q333 3 327.5 3.5Q322 4 320 8L208 542Q201 574 186.0 589.0Q171 604 154.0 608.5Q137 613 122 613Q119 613 119.0 619.0Q119 625 122 625Q134 625 150.0 624.0Q166 623 186 623Q214 623 236.5 624.0Q259 625 270 625Q281 625 287.5 615.0Q294 605 301 573L394 132L329 39L602 600Q614 625 639 625Q648 625 668.0 624.0Q688 623 704 623Q726 623 740.5 624.0Q755 625 770 625Q772 625 772.0 619.0Q772 613 770 613Q740 613 724.0 600.5Q708 588 702 546L633 81Q627 38 636.5 25.0Q646 12 683 12Q686 12 686.0 6.0Q686 0 683 0Q661 0 632.5 1.0Q604 2 572 2Q540 2 512.0 1.0Q484 0 461 0ZM13 0Q10 0 10.0 6.0Q10 12 13 12Q47 12 73.0 43.0Q99 74 109 127L198 602L222 600L137 130Q127 75 141.0 43.5Q155 12 189 12Q192 12 192.0 6.0Q192 0 189 0Q171 0 148.5 1.0Q126 2 99 2Q76 2 54.5 1.0Q33 0 13 0Z" fill="black" transform="translate(458.190,480.000) scale(0.020000,-0.020000)"/><path d="M495 1 364 542Q354 581 344.5 597.0Q335 613 315 613Q312 613 312.0 619.0Q312 625 315 625Q334 625 356.5 623.5Q379 622 398 622Q424 622 442.0 623.5Q460 625 475 625Q479 625 479.0 619.0Q479 613 475 613Q459 613 456.0 603.0Q453 593 463 552L568 113L502 15L753 509Q775 552 767.0 582.5Q759 613 722 613Q719 613 719.0 619.0Q719 625 722 625Q745 625 766.0 623.5Q787 622 821 622Q848 622 866.0 623.5Q884 625 909 625Q912 625 912.0 619.0Q912 613 909 613Q890 613 870.5 606.0Q851 599 830.5 576.5Q810 554 785 506L522 1Q519 -4 507.5 -3.5Q496 -3 495 1ZM261 1 130 542Q120 581 107.5 597.0Q95 613 69 613Q66 613 66.0 619.0Q66 625 69 625Q91 625 116.5 623.5Q142 622 164 622Q198 622 221.5 623.5Q245 625 264 625Q268 625 268.0 619.0Q268 613 264 613Q247 613 234.0 600.0Q221 587 229 552L335 113L268 15L447 366L463 339L288 1Q285 -4 273.5 -3.5Q262 -3 261 1ZM481 339 464 366 537 509Q564 562 563.0 587.5Q562 613 532 613Q530 613 530.0 619.0Q530 625 532 625Q549 625 564.5 623.5Q580 622 605 622Q628 622 642.0 623.5Q656 625 677 625Q681 625 681.0 619.0Q681 613 677 613Q660 613 644.5 606.0Q629 599 611.0 576.0Q593 553 568 506Z" fill="black" transform="translate(485.710,480.000) scale(0.020000,-0.020000)"/><path d="M281 -12Q197 -12 142.0 31.5Q87 75 65.5 149.0Q44 223 60 313Q72 383 104.0 442.0Q136 501 183.5 544.5Q231 588 289.0 612.0Q347 636 411 636Q497 636 553.0 593.0Q609 550 631.5 477.0Q654 404 637 313Q624 237 589.0 177.0Q554 117 505.0 75.0Q456 33 398.5 10.5Q341 -12 281 -12ZM324 14Q395 14 449.5 80.5Q504 147 523 260Q535 329 530.5 392.0Q526 455 506.5 504.5Q487 554 453.0 583.0Q419 612 372 612Q301 612 247.0 546.0Q193 480 173 366Q162 299 166.0 236.0Q170 173 189.0 123.0Q208 73 242.0 43.5Q276 14 324 14Z" fill="black" transform="translate(506.370,480.000) scale(0.020000,-0.020000)"/><path d="M19 0Q15 0 15.0 6.0Q15 12 19 12Q48 12 64.0 17.5Q80 23 88.0 38.0Q96 53 101 81L182 544Q188 573 186.0 587.5Q184 602 171.0 607.5Q158 613 130 613Q126 613 126.0 619.0Q126 625 130 625Q153 625 182.5 623.5Q212 622 244 622Q267 622 299.0 625.0Q331 628 351 628Q452 628 493.0 593.0Q534 558 522 491Q512 433 471.5 391.0Q431 349 372.5 326.5Q314 304 250 304Q246 304 237.5 304.5Q229 305 227 306L233 337Q239 334 251.0 332.5Q263 331 270 331Q335 331 370.0 363.0Q405 395 416 469Q425 520 416.5 550.5Q408 581 388.0 594.0Q368 607 342 607Q320 607 309.0 604.0Q298 601 292.5 587.5Q287 574 281 542L199 81Q194 53 196.0 38.0Q198 23 210.5 17.5Q223 12 250 12Q254 12 254.0 6.0Q254 0 251 0Q227 0 198.5 1.0Q170 2 136 2Q103 2 72.5 1.0Q42 0 19 0ZM460 0Q447 0 424.0 32.0Q401 64 370.5 135.0Q340 206 305 322L386 349Q435 223 472.5 149.5Q510 76 543.5 44.0Q577 12 611 12Q614 12 614.0 6.0Q614 0 611 0Q550 0 514.0 0.0Q478 0 460 0Z" fill="black" transform="translate(523.470,480.000) scale(0.020000,-0.020000)"/><path d="M14 0Q12 0 12.0 6.0Q12 12 14 12Q41 12 55.0 17.0Q69 22 76.0 37.0Q83 52 88 81L170 544Q178 587 168.0 600.0Q158 613 120 613Q118 613 118.0 619.0Q118 625 120 625Q143 625 170.5 623.5Q198 622 229 622Q261 622 290.5 623.5Q320 625 342 625Q344 625 344.0 619.0Q344 613 342 613Q315 613 301.0 607.5Q287 602 280.0 587.0Q273 572 268 543L187 85Q180 45 187.5 33.0Q195 21 223 21H249Q323 21 379.0 57.5Q435 94 480 171Q482 173 487.0 172.0Q492 171 491 168Q483 137 472.5 94.0Q462 51 456 15Q453 0 440 0Z" fill="black" transform="translate(540.170,480.000) scale(0.020000,-0.020000)"/><path d="M251 -4Q227 -4 191.0 -1.0Q155 2 124 2Q91 2 63.5 1.0Q36 0 13 0Q10 0 10.0 6.0Q10 12 13 12Q40 12 54.0 17.0Q68 22 75.5 37.0Q83 52 88 81L170 544Q178 587 168.0 600.0Q158 613 120 613Q118 613 118.0 619.0Q118 625 120 625Q143 625 171.5 623.5Q200 622 233 622Q261 622 291.0 624.5Q321 627 349 627Q446 627 512.5 588.5Q579 550 608.0 481.5Q637 413 621 323Q608 249 572.0 188.5Q536 128 484.0 85.0Q432 42 372.0 19.0Q312 -4 251 -4ZM247 16Q310 16 363.5 49.5Q417 83 454.5 146.5Q492 210 508 301Q517 354 514.5 408.0Q512 462 494.0 507.0Q476 552 438.5 579.5Q401 607 340 607Q302 607 288.0 591.5Q274 576 268 542L188 92Q181 53 192.5 34.5Q204 16 247 16Z" fill="black" transform="translate(554.270,480.000) scale(0.020000,-0.020000)"/></g>
  <g><path d="M441 386Q443 386 443.0 380.0Q443 374 441 374Q407 374 384.0 345.0Q361 316 343 267L232 -28Q196 -124 162.5 -179.5Q129 -235 95.0 -258.0Q61 -281 23 -281Q-6 -281 -22.5 -268.5Q-39 -256 -39 -232Q-39 -208 -24.5 -196.5Q-10 -185 9 -185Q26 -185 36.0 -191.5Q46 -198 56.0 -204.5Q66 -211 82 -211Q106 -211 126.0 -190.5Q146 -170 169.0 -120.5Q192 -71 223 15L220 -40L50 303Q28 347 15.5 360.5Q3 374 -15 374Q-18 374 -18.0 380.0Q-18 386 -15 386Q5 386 27.5 385.0Q50 384 70 384Q106 384 133.0 385.0Q160 386 182 386Q185 386 185.0 380.0Q185 374 182 374Q147 374 137.0 366.0Q127 358 138 335L265 75L229 16L316 268Q333 317 318.5 345.5Q304 374 263 374Q261 374 261.0 380.0Q261 386 263 386Q287 386 308.5 385.0Q330 384 364 384Q388 384 403.5 385.0Q419 386 441 386Z" fill="black" transform="translate(303.920,514.000) scale(0.016000,-0.016000)"/><path d="M237 -13Q174 -13 128.0 16.0Q82 45 57.0 93.5Q32 142 32 198Q32 250 52.0 288.0Q72 326 105.0 350.5Q138 375 177.0 387.0Q216 399 254 399Q318 399 363.5 369.0Q409 339 433.0 292.0Q457 245 457 192Q457 131 426.5 84.5Q396 38 346.0 12.5Q296 -13 237 -13ZM267 8Q307 8 327.0 47.0Q347 86 347 157Q347 230 328.5 279.0Q310 328 281.0 353.0Q252 378 220 378Q181 378 160.5 343.0Q140 308 140 235Q140 167 157.0 115.5Q174 64 203.0 36.0Q232 8 267 8Z" fill="black" transform="translate(313.752,514.000) scale(0.016000,-0.016000)"/><path d="M192 -12Q137 -12 105.5 23.0Q74 58 74 113V260Q74 293 66.5 309.0Q59 325 43 325Q32 325 18 318Q14 317 11.5 323.0Q9 329 12 330L146 394Q149 395 151 395Q156 395 161.5 390.5Q167 386 167 382V161Q167 107 187.5 80.0Q208 53 250 53Q279 53 308.0 69.5Q337 86 354 111L360 99Q326 50 284.0 19.0Q242 -12 192 -12ZM428 382V116Q428 82 434.5 68.0Q441 54 456 54Q463 54 473.5 57.0Q484 60 497 65Q501 67 504.0 61.5Q507 56 504 54L366 -13Q364 -14 361 -14Q351 -14 343.0 11.0Q335 36 335 82V260Q335 293 327.5 309.0Q320 325 304 325Q293 325 278 318Q275 317 272.5 323.0Q270 329 273 330L407 394Q409 395 412 395Q417 395 422.5 390.5Q428 386 428 382Z" fill="black" transform="translate(324.576,514.000) scale(0.016000,-0.016000)"/><path d="M189 -13Q146 -13 110.5 10.0Q75 33 53.5 76.5Q32 120 32 182Q32 243 54.0 284.5Q76 326 110.5 351.0Q145 376 185.0 387.5Q225 399 261 399Q297 399 328.0 390.0Q359 381 384 368L361 287Q340 332 313.0 352.5Q286 373 246 373Q195 373 165.0 337.5Q135 302 135 214Q135 157 149.0 117.0Q163 77 188.0 56.0Q213 35 244 35Q284 35 314.0 57.0Q344 79 372 110L382 101Q361 77 332.5 50.5Q304 24 268.5 5.5Q233 -13 189 -13ZM433 712V116Q433 82 439.5 68.0Q446 54 461 54Q468 54 478.5 57.0Q489 60 502 65Q505 67 508.0 61.5Q511 56 509 54L371 -13Q368 -14 366 -14Q356 -14 347.5 11.0Q339 36 339 82V589Q339 623 333.0 638.5Q327 654 310 654Q303 654 293.5 651.0Q284 648 273 643Q269 642 266.0 648.0Q263 654 265 655L412 724Q414 725 416 725Q421 725 427.0 720.5Q433 716 433 712Z" fill="black" transform="translate(342.400,514.000) scale(0.016000,-0.016000)"/><path d="M235 -12Q170 -12 124.5 15.0Q79 42 55.5 86.5Q32 131 32 182Q32 241 61.0 289.0Q90 337 141.0 366.0Q192 395 258 395Q317 395 352.5 368.0Q388 341 388 280Q388 267 386.0 258.0Q384 249 377 249H281Q283 306 270.0 340.5Q257 375 220 375Q180 375 156.5 334.0Q133 293 133 225Q133 167 151.0 125.0Q169 83 204.0 60.0Q239 37 290 37Q320 37 340.5 44.5Q361 52 386 65Q388 67 391.5 63.0Q395 59 393 56Q356 19 317.5 3.5Q279 -12 235 -12ZM98 248 97 267 316 271V249Z" fill="black" transform="translate(353.560,514.000) scale(0.016000,-0.016000)"/><path d="M118 338Q118 317 129.5 300.5Q141 284 159.0 270.5Q177 257 198 244Q223 230 247.0 214.5Q271 199 287.0 177.0Q303 155 303 120Q303 88 286.5 57.5Q270 27 237.0 8.0Q204 -11 154 -11Q129 -11 104.0 -5.5Q79 0 50 16Q48 18 46.0 21.0Q44 24 44 28L42 127Q42 130 47.5 130.5Q53 131 54 129Q65 97 85.0 69.5Q105 42 130.5 25.5Q156 9 182 9Q202 9 215.0 21.5Q228 34 228 60Q228 88 215.5 106.5Q203 125 184.0 138.5Q165 152 145 163Q122 176 99.0 190.0Q76 204 61.0 225.5Q46 247 46 282Q46 324 67.0 349.0Q88 374 121.5 385.0Q155 396 191 396Q213 396 231.5 393.0Q250 390 274 381Q283 378 283 370Q283 350 282.0 328.5Q281 307 281 281Q281 278 275.0 278.0Q269 278 269 281Q269 300 253.5 322.0Q238 344 213.0 360.5Q188 377 159 377Q145 377 131.5 370.0Q118 363 118 338Z" fill="black" transform="translate(363.248,514.000) scale(0.016000,-0.016000)"/><path d="M235 -12Q170 -12 124.5 15.0Q79 42 55.5 86.5Q32 131 32 182Q32 241 61.0 289.0Q90 337 141.0 366.0Q192 395 258 395Q317 395 352.5 368.0Q388 341 388 280Q388 267 386.0 258.0Q384 249 377 249H281Q283 306 270.0 340.5Q257 375 220 375Q180 375 156.5 334.0Q133 293 133 225Q133 167 151.0 125.0Q169 83 204.0 60.0Q239 37 290 37Q320 37 340.5 44.5Q361 52 386 65Q388 67 391.5 63.0Q395 59 393 56Q356 19 317.5 3.5Q279 -12 235 -12ZM98 248 97 267 316 271V249Z" fill="black" transform="translate(371.640,514.000) scale(0.016000,-0.016000)"/><path d="M161 271 153 284Q192 329 219.0 353.0Q246 377 265.0 386.5Q284 396 299 396Q320 396 342.5 380.5Q365 365 365 340Q365 319 352.5 305.5Q340 292 318 292Q297 292 286.5 303.0Q276 314 267.5 324.5Q259 335 243 335Q236 335 227.5 330.5Q219 326 203.5 312.5Q188 299 161 271ZM39 0Q36 0 36.0 6.0Q36 12 39 12Q70 12 81.0 26.5Q92 41 92 81V269Q92 300 85.0 314.5Q78 329 61 329Q52 329 40.0 325.5Q28 322 13 315Q9 313 7.0 319.0Q5 325 7 326L146 394Q152 396 153 396Q164 396 175.0 372.0Q186 348 186 303V81Q186 55 194.0 39.5Q202 24 221.5 18.0Q241 12 275 12Q279 12 279.0 6.0Q279 0 275 0Q248 0 213.5 1.0Q179 2 139 2Q111 2 85.0 1.0Q59 0 39 0Z" fill="black" transform="translate(381.328,514.000) scale(0.016000,-0.016000)"/><path d="M454 386Q456 386 456.0 380.0Q456 374 454 374Q425 374 402.5 352.0Q380 330 360 284L237 0Q235 -5 226.5 -5.0Q218 -5 215 0L62 303Q40 349 24.0 361.5Q8 374 -14 374Q-17 374 -17.0 380.0Q-17 386 -14 386Q3 386 24.5 385.0Q46 384 83 384Q124 384 153.0 385.0Q182 386 207 386Q210 386 210.0 380.0Q210 374 207 374Q176 374 159.0 366.0Q142 358 154 335L274 109L223 21L332 285Q349 326 332.5 350.0Q316 374 276 374Q274 374 274.0 380.0Q274 386 276 386Q300 386 321.5 385.0Q343 384 377 384Q401 384 416.5 385.0Q432 386 454 386Z" fill="black" transform="translate(390.392,514.000) scale(0.016000,-0.016000)"/><path d="M235 -12Q170 -12 124.5 15.0Q79 42 55.5 86.5Q32 131 32 182Q32 241 61.0 289.0Q90 337 141.0 366.0Q192 395 258 395Q317 395 352.5 368.0Q388 341 388 280Q388 267 386.0 258.0Q384 249 377 249H281Q283 306 270.0 340.5Q257 375 220 375Q180 375 156.5 334.0Q133 293 133 225Q133 167 151.0 125.0Q169 83 204.0 60.0Q239 37 290 37Q320 37 340.5 44.5Q361 52 386 65Q388 67 391.5 63.0Q395 59 393 56Q356 19 317.5 3.5Q279 -12 235 -12ZM98 248 97 267 316 271V249Z" fill="black" transform="translate(400.432,514.000) scale(0.016000,-0.016000)"/><path d="M39 0Q36 0 36.0 6.0Q36 12 39 12Q70 12 81.0 26.5Q92 41 92 81V260Q92 293 85.5 308.5Q79 324 62 324Q55 324 45.5 321.0Q36 318 25 313Q21 312 18.5 318.0Q16 324 19 325L170 395Q172 396 173 396Q178 396 183.0 391.0Q188 386 188 382Q188 370 187.0 342.0Q186 314 186 262V81Q186 41 197.5 26.5Q209 12 240 12Q243 12 243.0 6.0Q243 0 240 0Q220 0 194.0 1.0Q168 2 139 2Q111 2 85.0 1.0Q59 0 39 0ZM135 495Q107 495 90.5 511.0Q74 527 74 556Q74 582 90.5 597.5Q107 613 135 613Q163 613 178.0 597.5Q193 582 193 556Q193 495 135 495Z" fill="black" transform="translate(416.864,514.000) scale(0.016000,-0.016000)"/><path d="M184 -12Q160 -12 135.5 -4.0Q111 4 94.5 24.0Q78 44 78 80V302Q78 323 73.0 335.0Q68 347 57.0 352.0Q46 357 27 357Q23 357 23.0 366.0Q23 375 27 375Q78 377 110.0 397.5Q142 418 158 458Q160 462 166.5 462.0Q173 462 173 458V113Q173 73 193.5 56.0Q214 39 244 39Q267 39 287.5 48.5Q308 58 322 69Q325 72 329.5 67.5Q334 63 330 60Q293 23 258.5 5.5Q224 -12 184 -12ZM299 335Q258 344 219.5 347.5Q181 351 138 351V377Q179 377 218.5 380.0Q258 383 303 387Q305 387 307.5 379.5Q310 372 310 363Q310 353 306.5 343.5Q303 334 299 335Z" fill="black" transform="translate(424.072,514.000) scale(0.016000,-0.016000)"/><path d="M101 106Q136 106 155.5 82.5Q175 59 175 9Q175 -46 148.5 -94.5Q122 -143 75 -189Q71 -192 68.0 -189.0Q65 -186 67 -182Q96 -147 105.5 -114.0Q115 -81 115 -44Q115 -14 109.5 -1.0Q104 12 94 20L131 27Q132 10 121.0 1.0Q110 -8 91 -8Q65 -8 50.5 7.5Q36 23 36 48Q36 76 54.0 91.0Q72 106 101 106Z" fill="black" transform="translate(432.448,514.000) scale(0.016000,-0.016000)"/><path d="M558 0Q555 0 555.0 6.0Q555 12 558 12Q589 12 600.5 26.5Q612 41 612 81V225Q612 331 537 331Q506 331 477.0 316.0Q448 301 430 275L425 287Q459 337 501.5 367.5Q544 398 594 398Q647 398 676.0 367.5Q705 337 705 273V81Q705 41 716.5 26.5Q728 12 759 12Q763 12 763.0 6.0Q763 0 759 0Q739 0 713.0 1.0Q687 2 658 2Q630 2 604.0 1.0Q578 0 558 0ZM296 0Q293 0 293.0 6.0Q293 12 296 12Q327 12 338.5 26.5Q350 41 350 81V225Q350 331 275 331Q244 331 215.0 316.0Q186 301 168 275L163 287Q197 337 239.5 367.5Q282 398 332 398Q385 398 414.0 369.0Q443 340 443 284V81Q443 41 454.5 26.5Q466 12 497 12Q501 12 501.0 6.0Q501 0 497 0Q477 0 451.0 1.0Q425 2 396 2Q368 2 342.0 1.0Q316 0 296 0ZM39 0Q36 0 36.0 6.0Q36 12 39 12Q70 12 81.0 26.5Q92 41 92 81V269Q92 300 85.0 314.5Q78 329 61 329Q52 329 40.0 325.5Q28 322 13 315Q9 313 7.0 319.0Q5 325 7 326L146 394Q152 396 153 396Q164 396 175.0 372.0Q186 348 186 303V81Q186 41 197.5 26.5Q209 12 240 12Q243 12 243.0 6.0Q243 0 240 0Q220 0 194.0 1.0Q168 2 139 2Q111 2 85.0 1.0Q59 0 39 0Z" fill="black" transform="translate(445.744,514.000) scale(0.016000,-0.016000)"/><path d="M319 -6Q315 -8 309 -8Q291 -8 273.0 16.0Q255 40 255 85V255Q255 318 245.0 347.5Q235 377 209 377Q184 377 171.5 361.5Q159 346 154.5 327.0Q150 308 149 295Q146 264 131.0 251.5Q116 239 91 239Q65 239 54.0 250.0Q43 261 43 277Q43 301 64.5 322.5Q86 344 119.0 360.5Q152 377 187.5 386.5Q223 396 250 396Q291 396 320.0 370.0Q349 344 349 285V108Q349 79 359.5 63.0Q370 47 389 47Q403 47 418 54Q422 56 424.5 50.5Q427 45 422 43ZM127 -7Q83 -7 61.5 12.5Q40 32 40 65Q40 98 58.0 115.5Q76 133 105.0 143.5Q134 154 165 165L265 202L269 187L212 161Q204 158 189.0 151.5Q174 145 162.0 132.5Q150 120 150 97Q150 71 167.0 58.5Q184 46 201 46Q209 46 216.5 48.0Q224 50 234 57L284 91L285 75L215 25Q193 8 173.0 0.5Q153 -7 127 -7Z" fill="black" transform="translate(461.176,514.000) scale(0.016000,-0.016000)"/><path d="M558 0Q555 0 555.0 6.0Q555 12 558 12Q589 12 600.5 26.5Q612 41 612 81V225Q612 331 537 331Q506 331 477.0 316.0Q448 301 430 275L425 287Q459 337 501.5 367.5Q544 398 594 398Q647 398 676.0 367.5Q705 337 705 273V81Q705 41 716.5 26.5Q728 12 759 12Q763 12 763.0 6.0Q763 0 759 0Q739 0 713.0 1.0Q687 2 658 2Q630 2 604.0 1.0Q578 0 558 0ZM296 0Q293 0 293.0 6.0Q293 12 296 12Q327 12 338.5 26.5Q350 41 350 81V225Q350 331 275 331Q244 331 215.0 316.0Q186 301 168 275L163 287Q197 337 239.5 367.5Q282 398 332 398Q385 398 414.0 369.0Q443 340 443 284V81Q443 41 454.5 26.5Q466 12 497 12Q501 12 501.0 6.0Q501 0 497 0Q477 0 451.0 1.0Q425 2 396 2Q368 2 342.0 1.0Q316 0 296 0ZM39 0Q36 0 36.0 6.0Q36 12 39 12Q70 12 81.0 26.5Q92 41 92 81V269Q92 300 85.0 314.5Q78 329 61 329Q52 329 40.0 325.5Q28 322 13 315Q9 313 7.0 319.0Q5 325 7 326L146 394Q152 396 153 396Q164 396 175.0 372.0Q186 348 186 303V81Q186 41 197.5 26.5Q209 12 240 12Q243 12 243.0 6.0Q243 0 240 0Q220 0 194.0 1.0Q168 2 139 2Q111 2 85.0 1.0Q59 0 39 0Z" fill="black" transform="translate(470.912,514.000) scale(0.016000,-0.016000)"/><path d="M319 -6Q315 -8 309 -8Q291 -8 273.0 16.0Q255 40 255 85V255Q255 318 245.0 347.5Q235 377 209 377Q184 377 171.5 361.5Q159 346 154.5 327.0Q150 308 149 295Q146 264 131.0 251.5Q116 239 91 239Q65 239 54.0 250.0Q43 261 43 277Q43 301 64.5 322.5Q86 344 119.0 360.5Q152 377 187.5 386.5Q223 396 250 396Q291 396 320.0 370.0Q349 344 349 285V108Q349 79 359.5 63.0Q370 47 389 47Q403 47 418 54Q422 56 424.5 50.5Q427 45 422 43ZM127 -7Q83 -7 61.5 12.5Q40 32 40 65Q40 98 58.0 115.5Q76 133 105.0 143.5Q134 154 165 165L265 202L269 187L212 161Q204 158 189.0 151.5Q174 145 162.0 132.5Q150 120 150 97Q150 71 167.0 58.5Q184 46 201 46Q209 46 216.5 48.0Q224 50 234 57L284 91L285 75L215 25Q193 8 173.0 0.5Q153 -7 127 -7Z" fill="black" transform="translate(486.344,514.000) scale(0.016000,-0.016000)"/></g>

</svg>