<?xml version="1.0" encoding="UTF-8"?>
<svg xmlns="http://www.w3.org/2000/svg" viewBox="0 0 800 800" width="800" height="800">
  <title>Raising Arrows SVG</title>
  <rect width="800" height="800" fill="none"/>
  <defs>
    <style>
      @font-face { font-family: 'BebasNeue'; src: url('/usr/local/share/fonts/BebasNeue-Regular.ttf'); }
      @font-face { font-family: 'GreatVibes'; src: url('/usr/local/share/fonts/GreatVibes-Regular.ttf'); }
      @font-face { font-family: 'Cormorant'; src: url('/usr/local/share/fonts/CormorantGaramond-Bold.ttf'); }
      @font-face { font-family: 'CormorantItalic'; src: url('/usr/local/share/fonts/CormorantGaramond-BoldItalic.ttf'); }
      @font-face { font-family: 'Cinzel'; src: url('/usr/local/share/fonts/Cinzel-Regular.ttf'); }
      @font-face { font-family: 'CinzelDec'; src: url('/usr/local/share/fonts/CinzelDecorative-Bold.ttf'); }
    </style>
  </defs>

  <rect x="38" y="38" width="724" height="724" fill="none" stroke="black" stroke-width="2"/>
<rect x="56" y="56" width="688" height="688" fill="none" stroke="black" stroke-width="1"/>
<polygon points="38,28 48,38 38,48 28,38" fill="black"/>
<polygon points="762,28 772,38 762,48 752,38" fill="black"/>
<polygon points="762,752 772,762 762,772 752,762" fill="black"/>
<polygon points="38,752 48,762 38,772 28,762" fill="black"/>
  <path d="M 86,62 L 62,62 L 62,86" fill="none" stroke="black" stroke-width="1.5"/>
<circle cx="62" cy="62" r="3" fill="black"/>
<path d="M 714,62 L 738,62 L 738,86" fill="none" stroke="black" stroke-width="1.5"/>
<circle cx="738" cy="62" r="3" fill="black"/>
<path d="M 714,738 L 738,738 L 738,714" fill="none" stroke="black" stroke-width="1.5"/>
<circle cx="738" cy="738" r="3" fill="black"/>
<path d="M 86,738 L 62,738 L 62,714" fill="none" stroke="black" stroke-width="1.5"/>
<circle cx="62" cy="738" r="3" fill="black"/>
  <text x="400" y="194" text-anchor="middle" font-family="Cormorant, serif" font-size="20" fill="black" letter-spacing="6">LIKE ARROWS</text>
  <line x1="290.0" y1="214" x2="390" y2="214" stroke="black" stroke-width="1"/><polygon points="400,208 406,214 400,220 394,214" fill="black"/><line x1="410" y1="214" x2="510.0" y2="214" stroke="black" stroke-width="1"/>
  <text x="400" y="304" text-anchor="middle" font-family="GreatVibes, cursive" font-size="78" fill="black">Raising</text>
  <text x="400" y="394" text-anchor="middle" font-family="BebasNeue, sans-serif" font-size="76" fill="black" letter-spacing="4">ARROWS</text>
  <line x1="290.0" y1="416" x2="390" y2="416" stroke="black" stroke-width="1"/><polygon points="400,410 406,416 400,422 394,416" fill="black"/><line x1="410" y1="416" x2="510.0" y2="416" stroke="black" stroke-width="1"/>
  <text x="400" y="468" text-anchor="middle" font-family="Cormorant, serif" font-size="19" fill="black" letter-spacing="5">POINTING THEM TOWARD</text>
  <text x="400" y="500" text-anchor="middle" font-family="BebasNeue, sans-serif" font-size="32" fill="black" letter-spacing="6">PURPOSE</text>
  <circle cx="300.0" cy="520" r="2" fill="black"/>
<circle cx="350.0" cy="520" r="2" fill="black"/>
<circle cx="400.0" cy="520" r="2" fill="black"/>
<circle cx="450.0" cy="520" r="2" fill="black"/>
<circle cx="500.0" cy="520" r="2" fill="black"/>
  <text x="400" y="562" text-anchor="middle" font-family="CormorantItalic, serif" font-size="16" fill="black" letter-spacing="3">psalm 127:4</text>

</svg>