<?xml version="1.0" encoding="UTF-8"?>
<svg xmlns="http://www.w3.org/2000/svg" viewBox="0 0 220 255">
<path d="M10.0,0.0 H210.0 Q220.0,0.0 220.0,10.0 V110.0 L110.0,255.0 L0.0,110.0 V10.0 Q0.0,0.0 10.0,0.0 Z  M19.0,9.0 H201.0 Q211.0,9.0 211.0,19.0 V101.0 L110.0,246.0 L9.0,101.0 V19.0 Q9.0,9.0 19.0,9.0 Z" fill="black" fill-rule="evenodd"/>
<path d="M98.0,148.0 A12,15 0 1,1 122.0,148.0 A12,15 0 1,1 98.0,148.0 Z" fill="black"/>
<path d="M100.0,142.0 L53.0,126.0 L56.0,156.0 L100.0,155.0 Z" fill="black"/>
<path d="M120.0,142.0 L167.0,126.0 L164.0,156.0 L120.0,155.0 Z" fill="black"/>
<circle cx="110.0" cy="124" r="9" fill="black"/>
<path d="M99.0,163.0 L103.0,178.0 L110.0,164.0 L117.0,178.0 L121.0,163.0 Z" fill="black"/>
</svg>
